<?xml version="1.0" encoding="UTF-8"?>
<svg xmlns="http://www.w3.org/2000/svg" viewBox="0 0 600 600" width="600" height="600">
<path d="M0.25 0.25C200.08 0.25 399.92 0.25 599.75 0.25C599.75 200.08 599.75 399.92 599.75 599.75C399.92 599.75 200.08 599.75 0.25 599.75C0.25 399.92 0.25 200.08 0.25 0.25ZM314.67 131.8C297.89 131.54 280.61 140.88 268.87 152.37C265.8 155.37 263.03 158.56 260.53 162.05C259.66 163.26 258.54 166.03 257.19 166.7C255.11 167.72 251.74 166.71 249.5 166.63C245.21 166.49 240.77 166.65 236.51 167.26C219.46 169.69 204.01 178.27 192.41 190.89C183.62 200.44 177.44 212.73 175.01 225.48C174.57 227.82 172.87 235.69 174.12 237.46C174.51 238.01 184.12 239.09 185.26 238.68C186.61 238.2 190.48 231.73 191.68 230.22C195.77 225.05 200.74 220.43 206.11 216.6C223.68 204.06 246.39 199.94 267.27 205.34C279.72 208.56 291.05 215.34 300.26 224.24C303.29 227.18 306.08 230.54 308.48 234C309.29 235.17 310.49 238.04 311.81 238.59C314.67 239.8 320.37 238.17 323.5 238.22C330.13 238.33 336.88 239.49 343.23 241.37C349.17 243.13 355.1 245.8 360.34 249.1C362.83 250.66 366.51 254.7 369.42 254.93C373.59 255.24 381.17 252.12 385.67 251.36C396.06 249.62 407 249.2 417.5 250.15C429.01 251.19 440.65 253.84 451.39 258.16C452.84 258.74 462.26 263.11 462.97 262.65C464.96 261.36 466.21 250.53 466.53 248.08C468.73 231.54 464.32 213.43 454.96 199.62C444.14 183.62 427.55 171.88 408.49 168.06C403.24 167.01 397.86 166.49 392.5 166.63C389.96 166.69 386.08 167.76 383.69 166.84C381.91 166.15 380.47 162.66 379.37 161.16C376.17 156.79 372.44 152.66 368.3 149.16C355.59 138.39 341.28 133.56 325 131.39C321.56 131.53 318.11 131.67 314.67 131.8ZM169 268.26C166 268.27 163 268.28 160 268.28C132.4 269.94 107.52 287.74 96.9 313.25C93.82 320.66 91.47 328.95 91.73 337C91.75 340.73 91.78 344.47 91.8 348.2C91.9 356.32 94.49 364.51 97.83 371.87C107.15 392.39 125.68 407.53 147.54 412.91C159.25 415.79 171.55 414.93 183.5 414.93C201.83 414.93 220.17 414.93 238.5 414.93C254.88 414.93 272.04 416.34 288.3 414.5C287.29 409.56 285.42 404.37 284.38 399.26C283.04 392.7 282.63 386.05 281.84 379.43C281.86 375.48 281.87 371.53 281.89 367.57C283.2 357.45 284.29 347.51 287.28 337.68C295.47 310.72 312.51 289.71 334.3 272.5C329.02 269.65 322.97 268.95 317 268.32C314 268.29 311 268.27 308 268.24C306.18 268.28 302.73 269.26 301.1 268.37C299.45 267.45 298.11 264.09 296.98 262.55C294.04 258.54 290.61 254.89 286.94 251.55C276.78 242.3 262.06 234.34 248.12 233.82C245.65 233.57 243.18 233.33 240.71 233.08C222.92 231.41 204.9 238.72 191.18 249.65C186.77 253.17 182.91 257.49 179.45 261.93C178.18 263.57 176.67 267.35 174.9 268.34C173.44 269.15 170.61 268.34 169 268.26ZM331.07 430.12C331.39 430.4 331.72 430.67 332.04 430.95C336.71 437.51 343.89 443.18 349.7 448.81C351.28 450.33 354.02 454.39 356.43 454.09C359.36 453.72 366.54 442.2 369.75 441.42C371.35 441.03 373.6 442.85 374.98 443.52C379.18 445.54 384.08 446.39 388.15 448.48C391.15 450.02 389.93 460.69 390.09 463.97C390.16 465.45 389.15 467.67 390.73 468.64C391.93 469.37 398.76 468.74 400.5 468.72C407.62 468.67 414.73 468.56 421.85 468.5C424.17 468.48 428.35 469.29 430.46 468.34C433.95 466.76 430.55 453.17 431.98 449.55C432.73 447.65 435.52 447.44 437.32 446.79C440.18 445.76 448.41 441.04 450.53 440.92C451.61 440.86 452.09 441.37 452.93 441.87C453.84 442.63 454.74 443.4 455.65 444.16C457.04 445.92 463.49 453.49 465.49 453.46C467.21 453.43 474.97 444.75 476.11 443.05C477.09 442.06 478.06 441.07 479.03 440.07C479.38 439.73 479.74 439.39 480.09 439.04C481.08 438.06 482.06 437.07 483.04 436.08C484.75 434.38 486.47 432.68 488.18 430.98C489.45 429.7 490.71 428.41 491.98 427.13C492.75 426.51 494.49 425.55 494.57 424.41C494.66 423.18 492.43 421.64 491.65 420.85C489.8 419 481.78 412.32 481.35 410.29C480.99 408.57 483.11 405.92 483.81 404.4C485.74 400.21 487.62 395.72 488.25 391.16C489.83 391 491.42 390.84 493 390.68C494.63 390.71 507.64 390.97 508.32 390.05C509.83 388 508.83 382.94 508.81 380.5C508.76 372.83 508.7 365.17 508.65 357.5C508.63 355.39 509.46 350.93 508.26 349.14C507.39 347.82 504.83 348.36 503.5 348.36C501.35 348.35 490.32 349.19 489.14 348.38C487.69 347.39 487.35 345.13 486.79 343.54C485.48 339.82 481.32 332.89 480.67 329.93C480.34 328.44 482.48 326.96 483.46 325.96C485.04 324.36 493.93 316.13 493.75 314.62C493.56 312.87 489.75 310.2 488.52 308.98C487.04 307.53 485.74 306.1 484 305.06C481.98 303.05 479.96 301.03 477.94 299.02C475.36 295.11 471.22 291.87 467.87 288.55C466.66 287.35 465.58 285.65 463.69 286.1C459.66 287.05 453.52 299.61 448.75 298.71C445.29 298.06 439.33 294.35 435.49 293.05C433.76 292.46 431.67 292.31 430.97 290.46C429.58 286.75 430.81 280.46 430.78 276.5C430.77 275.02 431.25 272.63 429.79 271.69C428.03 270.56 423.59 271.51 421.5 271.53C413.83 271.62 406.17 271.66 398.5 271.71C396.25 271.73 390.39 270.73 388.85 272.65C387.03 274.93 390.2 287.41 388.82 290.63C388.03 292.49 385.46 292.74 383.73 293.32C379.7 294.66 373.5 298.73 369.99 299.42C368.15 299.78 360.12 290.94 358.34 289.17C357.17 288.02 355.92 285.91 354.12 286.67C352.05 287.54 349.74 291.03 348.15 292.65C343.03 297.87 337.96 303.14 332.75 308.26C331.56 309.43 326.26 314.22 326.15 315.49C325.83 319.02 336.86 325.55 338.48 329.04C339.48 331.18 334.02 341.41 333 344.39C332.56 345.69 332.31 347.99 331.33 348.97C330.2 350.12 326.97 349.51 325.5 349.53C320.79 349.62 316.29 349.47 311.73 350.5C312.37 352.98 311.75 355.75 311.67 358.5C311.47 365.82 311.81 373.18 311.83 380.5C311.83 382.34 311.25 390.07 312.17 391.23C313.14 392.45 316.14 391.85 317.5 391.84C320.19 391.83 329.31 390.91 331.28 392.11C332.53 392.87 332.97 395.82 333.42 397.12C334.96 401.57 338 405.73 339.28 410.17C339.9 412.3 337.2 413.95 335.84 415.33C334.48 416.71 326.37 424.16 326.44 425.45C326.52 427 329.96 429.25 331.07 430.12ZM367.43 405.26C361.77 405.41 356.11 405.56 350.45 405.72C348.25 403.83 349.46 401.06 349.8 398.48C350.58 392.49 351.38 386.5 352.1 380.5C353.49 368.81 355.29 357.17 356.84 345.51C357.09 343.66 357.58 335.1 358.78 334.15C360.34 332.92 371 333.71 373.5 333.72C376.45 333.72 381.7 332.7 384.37 334.05C386.47 335.11 386.99 345.13 387.24 347.64C387.74 352.77 388.97 358.01 389.95 363C391.59 371.37 391.25 380.31 393.46 388.66C394.48 392.52 394.77 396.56 395.07 400.5C395.15 401.44 396.2 404.09 395.2 404.79C394.28 405.43 392.54 405.14 391.5 405.17C389.57 405.21 377.86 405.92 377.1 404.35C375.63 401.3 377.63 395.94 375.39 393.32C374.1 391.82 370.18 391.69 369.19 393.53C367.52 396.64 368.65 401.81 367.43 405.26ZM439.23 352C439.22 355.67 439.2 359.33 439.18 363C438.09 370.33 435.47 375.02 427.5 376.02C425.06 376.32 420.65 375.37 418.58 376.78C417.18 377.74 417.75 382.09 417.76 383.5C417.77 390.62 417.35 397.89 417.98 404.96C411.99 405.06 405.99 405.15 400 405.25C397.83 400.83 399.11 393.55 399.11 388.5C399.09 375.83 399.11 363.17 399.11 350.5C399.11 346.5 399.1 342.5 399.1 338.5C399.1 337.26 398.64 335 399.74 334.09C401 333.07 410.41 333.71 412.5 333.71C420.22 333.72 433.47 332.17 437.43 340.94C439.09 344.61 438.97 348.13 439.23 352ZM463.02 334.06C463.02 357.76 463.02 381.47 463.02 405.17C462.68 405.2 462.34 405.22 462 405.25C457 405.42 452 405.59 447 405.76C443.99 404.21 444.68 401.57 444.69 398.5C444.72 392.17 444.69 385.83 444.69 379.5C444.69 368.17 444.69 356.83 444.69 345.5C444.69 343.3 443.99 335.22 445.62 334.04C447.29 332.83 460.49 333.72 463.02 334.06ZM417.85 364.09C419.17 363.9 421.51 364.09 422.45 362.97C424.41 360.65 424.69 348.24 421.83 346.61C420.43 345.81 419.31 346.43 417.85 346.5C417.85 352.36 417.85 358.23 417.85 364.09ZM369.76 374.83C368.97 376.85 368.79 378.08 370 379.68C371.27 379.76 373.92 380.43 374.83 379.23C375.76 378.02 374.91 374.91 374.74 373.53C374.35 370.3 374.56 359.95 372.94 357.71C371.71 356 373.06 358.36 371.5 356.9C370.92 362.88 370.34 368.86 369.76 374.83Z" fill="#ffffff" fill-rule="evenodd" stroke="#ffffff" stroke-width="0.25" stroke-linejoin="round"/>
<path d="M325 131.39C341.28 133.56 355.59 138.39 368.3 149.16C372.44 152.66 376.17 156.79 379.37 161.16C380.47 162.66 381.91 166.15 383.69 166.84C386.08 167.76 389.96 166.69 392.5 166.63C397.86 166.49 403.24 167.01 408.49 168.06C427.55 171.88 444.14 183.62 454.96 199.62C464.32 213.43 468.73 231.54 466.53 248.08C466.21 250.53 464.96 261.36 462.97 262.65C462.26 263.11 452.84 258.74 451.39 258.16C440.65 253.84 429.01 251.19 417.5 250.15C407 249.2 396.06 249.62 385.67 251.36C381.17 252.12 373.59 255.24 369.42 254.93C366.51 254.7 362.83 250.66 360.34 249.1C355.1 245.8 349.17 243.13 343.23 241.37C336.88 239.49 330.13 238.33 323.5 238.22C320.37 238.17 314.67 239.8 311.81 238.59C310.49 238.04 309.29 235.17 308.48 234C306.08 230.54 303.29 227.18 300.26 224.24C291.05 215.34 279.72 208.56 267.27 205.34C246.39 199.94 223.68 204.06 206.11 216.6C200.74 220.43 195.77 225.05 191.68 230.22C190.48 231.73 186.61 238.2 185.26 238.68C184.12 239.09 174.51 238.01 174.12 237.46C172.87 235.69 174.57 227.82 175.01 225.48C177.44 212.73 183.62 200.44 192.41 190.89C204.01 178.27 219.46 169.69 236.51 167.26C240.77 166.65 245.21 166.49 249.5 166.63C251.74 166.71 255.11 167.72 257.19 166.7C258.54 166.03 259.66 163.26 260.53 162.05C263.03 158.56 265.8 155.37 268.87 152.37C280.61 140.88 297.89 131.54 314.67 131.8C317.94 132.41 322.07 133.02 325 131.39ZM240.71 233.08C243.13 234.28 245.32 234.31 248.12 233.82C262.06 234.34 276.78 242.3 286.94 251.55C290.61 254.89 294.04 258.54 296.98 262.55C298.11 264.09 299.45 267.45 301.1 268.37C302.73 269.26 306.18 268.28 308 268.24C310.45 269.71 314.5 269.75 317 268.32C322.97 268.95 329.02 269.65 334.3 272.5C312.51 289.71 295.47 310.72 287.28 337.68C284.29 347.51 283.2 357.45 281.89 367.57C280.35 370.86 280.39 376.13 281.84 379.43C282.63 386.05 283.04 392.7 284.38 399.26C285.42 404.37 287.29 409.56 288.3 414.5C272.04 416.34 254.88 414.93 238.5 414.93C220.17 414.93 201.83 414.93 183.5 414.93C171.55 414.93 159.25 415.79 147.54 412.91C125.68 407.53 107.15 392.39 97.83 371.87C94.49 364.51 91.9 356.32 91.8 348.2C91.78 344.47 91.75 340.73 91.73 337C91.47 328.95 93.82 320.66 96.9 313.25C107.52 287.74 132.4 269.94 160 268.28C162.45 269.76 166.55 269.76 169 268.26C170.61 268.34 173.44 269.15 174.9 268.34C176.67 267.35 178.18 263.57 179.45 261.93C182.91 257.49 186.77 253.17 191.18 249.65C204.9 238.72 222.92 231.41 240.71 233.08ZM400 405.25C405.99 405.15 411.99 405.06 417.98 404.96C415.59 406.6 403.11 406.71 400 405.25ZM491.98 427.13C490.71 428.41 489.45 429.7 488.18 430.98C488.76 428.6 489.6 427.8 491.98 427.13ZM331.07 430.12C331.38 430.17 331.69 430.21 332 430.26C332.01 430.49 332.03 430.72 332.04 430.95C331.72 430.67 331.39 430.4 331.07 430.12Z" fill="#02569b" fill-rule="evenodd" stroke="#02569b" stroke-width="0.25" stroke-linejoin="round"/>
<path d="M477.94 299.02C478.93 302.01 480.96 304.13 484 305.06C485.74 306.1 487.04 307.53 488.52 308.98C489.75 310.2 493.56 312.87 493.75 314.62C493.93 316.13 485.04 324.36 483.46 325.96C482.48 326.96 480.34 328.44 480.67 329.93C481.32 332.89 485.48 339.82 486.79 343.54C487.35 345.13 487.69 347.39 489.14 348.38C490.32 349.19 501.35 348.35 503.5 348.36C504.83 348.36 507.39 347.82 508.26 349.14C509.46 350.93 508.63 355.39 508.65 357.5C508.7 365.17 508.76 372.83 508.81 380.5C508.83 382.94 509.83 388 508.32 390.05C507.64 390.97 494.63 390.71 493 390.68C490.53 389.01 489.98 389.2 488.25 391.16C487.62 395.72 485.74 400.21 483.81 404.4C483.11 405.92 480.99 408.57 481.35 410.29C481.78 412.32 489.8 419 491.65 420.85C492.43 421.64 494.66 423.18 494.57 424.41C494.49 425.55 492.75 426.51 491.98 427.13C489.6 427.8 488.76 428.6 488.18 430.98C486.47 432.68 484.75 434.38 483.04 436.08C481.05 436.78 480.78 437.06 480.09 439.04C479.74 439.39 479.38 439.73 479.03 440.07C477.01 440.74 476.76 440.99 476.11 443.05C474.97 444.75 467.21 453.43 465.49 453.46C463.49 453.49 457.04 445.92 455.65 444.16C454.7 442.94 453.75 441.72 452.81 440.5C452.85 440.96 452.89 441.41 452.93 441.87C452.09 441.37 451.61 440.86 450.53 440.92C448.41 441.04 440.18 445.76 437.32 446.79C435.52 447.44 432.73 447.65 431.98 449.55C430.55 453.17 433.95 466.76 430.46 468.34C428.35 469.29 424.17 468.48 421.85 468.5C414.73 468.56 407.62 468.67 400.5 468.72C398.76 468.74 391.93 469.37 390.73 468.64C389.15 467.67 390.16 465.45 390.09 463.97C389.93 460.69 391.15 450.02 388.15 448.48C384.08 446.39 379.18 445.54 374.98 443.52C373.6 442.85 371.35 441.03 369.75 441.42C366.54 442.2 359.36 453.72 356.43 454.09C354.02 454.39 351.28 450.33 349.7 448.81C343.89 443.18 336.71 437.51 332.04 430.95C332.03 430.72 332.01 430.49 332 430.26C331.69 430.21 331.38 430.17 331.07 430.12C329.96 429.25 326.52 427 326.44 425.45C326.37 424.16 334.48 416.71 335.84 415.33C337.2 413.95 339.9 412.3 339.28 410.17C338 405.73 334.96 401.57 333.42 397.12C332.97 395.82 332.53 392.87 331.28 392.11C329.31 390.91 320.19 391.83 317.5 391.84C316.14 391.85 313.14 392.45 312.17 391.23C311.25 390.07 311.83 382.34 311.83 380.5C311.81 373.18 311.47 365.82 311.67 358.5C311.75 355.75 312.37 352.98 311.73 350.5C316.29 349.47 320.79 349.62 325.5 349.53C326.97 349.51 330.2 350.12 331.33 348.97C332.31 347.99 332.56 345.69 333 344.39C334.02 341.41 339.48 331.18 338.48 329.04C336.86 325.55 325.83 319.02 326.15 315.49C326.26 314.22 331.56 309.43 332.75 308.26C337.96 303.14 343.03 297.87 348.15 292.65C349.74 291.03 352.05 287.54 354.12 286.67C355.92 285.91 357.17 288.02 358.34 289.17C360.12 290.94 368.15 299.78 369.99 299.42C373.5 298.73 379.7 294.66 383.73 293.32C385.46 292.74 388.03 292.49 388.82 290.63C390.2 287.41 387.03 274.93 388.85 272.65C390.39 270.73 396.25 271.73 398.5 271.71C406.17 271.66 413.83 271.62 421.5 271.53C423.59 271.51 428.03 270.56 429.79 271.69C431.25 272.63 430.77 275.02 430.78 276.5C430.81 280.46 429.58 286.75 430.97 290.46C431.67 292.31 433.76 292.46 435.49 293.05C439.33 294.35 445.29 298.06 448.75 298.71C453.52 299.61 459.66 287.05 463.69 286.1C465.58 285.65 466.66 287.35 467.87 288.55C471.22 291.87 475.36 295.11 477.94 299.02ZM350.45 405.72C350.85 405.92 350.97 406.54 351.4 406.68C353.05 407.22 364.76 407.08 366.42 406.5C367.47 406.14 366.97 405.82 367.43 405.26C368.65 401.81 367.52 396.64 369.19 393.53C370.18 391.69 374.1 391.82 375.39 393.32C377.63 395.94 375.63 401.3 377.1 404.35C377.86 405.92 389.57 405.21 391.5 405.17C392.54 405.14 394.28 405.43 395.2 404.79C396.2 404.09 395.15 401.44 395.07 400.5C394.77 396.56 394.48 392.52 393.46 388.66C391.25 380.31 391.59 371.37 389.95 363C388.97 358.01 387.74 352.77 387.24 347.64C386.99 345.13 386.47 335.11 384.37 334.05C381.7 332.7 376.45 333.72 373.5 333.72C371 333.71 360.34 332.92 358.78 334.15C357.58 335.1 357.09 343.66 356.84 345.51C355.29 357.17 353.49 368.81 352.1 380.5C351.38 386.5 350.58 392.49 349.8 398.48C349.46 401.06 348.25 403.83 350.45 405.72ZM400 405.25C403.11 406.71 415.59 406.6 417.98 404.96C417.35 397.89 417.77 390.62 417.76 383.5C417.75 382.09 417.18 377.74 418.58 376.78C420.65 375.37 425.06 376.32 427.5 376.02C435.47 375.02 438.09 370.33 439.18 363C441.37 361.16 441.61 353.49 439.23 352C438.97 348.13 439.09 344.61 437.43 340.94C433.47 332.17 420.22 333.72 412.5 333.71C410.41 333.71 401 333.07 399.74 334.09C398.64 335 399.1 337.26 399.1 338.5C399.1 342.5 399.11 346.5 399.11 350.5C399.11 363.17 399.09 375.83 399.11 388.5C399.11 393.55 397.83 400.83 400 405.25ZM447 405.76C446.91 406.01 446.81 406.25 446.72 406.5C449.98 406.6 460.52 407.77 462 405.25C462.34 405.22 462.68 405.2 463.02 405.17C465.74 401.76 464.49 394.18 464.49 389.5C464.49 376.5 464.44 363.5 464.44 350.5C464.44 346.51 465.8 336.41 463.02 334.06C460.49 333.72 447.29 332.83 445.62 334.04C443.99 335.22 444.69 343.3 444.69 345.5C444.69 356.83 444.69 368.17 444.69 379.5C444.69 385.83 444.72 392.17 444.69 398.5C444.68 401.57 443.99 404.21 447 405.76ZM417.85 364.09C417.85 358.23 417.85 352.36 417.85 346.5C419.31 346.43 420.43 345.81 421.83 346.61C424.69 348.24 424.41 360.65 422.45 362.97C421.51 364.09 419.17 363.9 417.85 364.09ZM370 379.68C369.92 378.07 369.84 376.45 369.76 374.83C370.34 368.86 370.92 362.88 371.5 356.9C373.06 358.36 371.71 356 372.94 357.71C374.56 359.95 374.35 370.3 374.74 373.53C374.91 374.91 375.76 378.02 374.83 379.23C373.92 380.43 371.27 379.76 370 379.68Z" fill="#0477bd" fill-rule="evenodd" stroke="#0477bd" stroke-width="0.25" stroke-linejoin="round"/>
<path d="M325 131.39C322.07 133.02 317.94 132.41 314.67 131.8C318.11 131.67 321.56 131.53 325 131.39ZM240.71 233.08C243.18 233.33 245.65 233.57 248.12 233.82C245.32 234.31 243.13 234.28 240.71 233.08ZM160 268.28C163 268.28 166 268.27 169 268.26C166.55 269.76 162.45 269.76 160 268.28ZM308 268.24C311 268.27 314 268.29 317 268.32C314.5 269.75 310.45 269.71 308 268.24ZM477.94 299.02C479.96 301.03 481.98 303.05 484 305.06C480.96 304.13 478.93 302.01 477.94 299.02ZM463.02 334.06C465.8 336.41 464.44 346.51 464.44 350.5C464.44 363.5 464.49 376.5 464.49 389.5C464.49 394.18 465.74 401.76 463.02 405.17C463.02 381.47 463.02 357.76 463.02 334.06ZM91.73 337C91.75 340.73 91.78 344.47 91.8 348.2C91.78 344.47 91.75 340.73 91.73 337ZM439.23 352C441.61 353.49 441.37 361.16 439.18 363C439.2 359.33 439.22 355.67 439.23 352ZM281.89 367.57C281.87 371.53 281.86 375.48 281.84 379.43C280.39 376.13 280.35 370.86 281.89 367.57ZM369.76 374.83C369.84 376.45 369.92 378.07 370 379.68C368.79 378.08 368.97 376.85 369.76 374.83ZM493 390.68C491.42 390.84 489.83 391 488.25 391.16C489.98 389.2 490.53 389.01 493 390.68ZM367.43 405.26C366.97 405.82 367.47 406.14 366.42 406.5C364.76 407.08 353.05 407.22 351.4 406.68C350.97 406.54 350.85 405.92 350.45 405.72C356.11 405.56 361.77 405.41 367.43 405.26ZM462 405.25C460.52 407.77 449.98 406.6 446.72 406.5C446.81 406.25 446.91 406.01 447 405.76C452 405.59 457 405.42 462 405.25ZM332 430.26C332.01 430.49 332.03 430.72 332.04 430.95C332.03 430.72 332.01 430.49 332 430.26ZM483.04 436.08C482.06 437.07 481.08 438.06 480.09 439.04C480.78 437.06 481.05 436.78 483.04 436.08ZM455.65 444.16C454.74 443.4 453.84 442.63 452.93 441.87C452.89 441.41 452.85 440.96 452.81 440.5C453.75 441.72 454.7 442.94 455.65 444.16ZM479.03 440.07C478.06 441.07 477.09 442.06 476.11 443.05C476.76 440.99 477.01 440.74 479.03 440.07Z" fill="#206e9e" fill-rule="evenodd" stroke="#206e9e" stroke-width="0.25" stroke-linejoin="round"/>
</svg>