<svg width="385" height="374" viewBox="0 0 385 374" fill="none" xmlns="http://www.w3.org/2000/svg">
<path d="M386.5 283.332L334 313.332L83 162.332L386.5 0.832031V283.332Z" fill="#0F5628" stroke="#0F5628"/>
<path opacity="0.3" d="M94.0107 205.627L0 259.9L40.5625 283.314L134.573 229.061L94.0107 205.627Z" fill="#010101"/>
<path d="M129.269 223.641L118.525 217.415V212.15L131.528 217.061L129.269 223.641Z" fill="#695851"/>
<path d="M129.269 218.359L118.525 212.152L120.764 210.875L131.528 217.062L129.269 218.359Z" fill="#846F6A"/>
<path d="M131.528 222.327L129.269 223.643V218.359L131.528 217.062V222.327Z" fill="#554640"/>
<path d="M125.852 222.308L80.9286 248.236L76.7839 245.84L63.3679 253.599V248.57L125.852 212.486V222.308Z" fill="#554640"/>
<path d="M126.618 227.239L120.253 223.566V217.516L126.618 221.189L127.364 224.214L126.618 227.239Z" fill="#AC2924"/>
<path d="M112.141 237.018L106.327 233.659V227.334L114.125 229.593L112.141 237.018Z" fill="#211A1A"/>
<path d="M112.141 230.692L106.327 227.333L110.196 220.615L121.491 220.812L112.141 230.692Z" fill="#372C29"/>
<path d="M116.011 223.994L110.196 220.616L115.677 217.453L121.491 220.812L116.011 223.994Z" fill="#584A44"/>
<path d="M125.361 223.052L121.491 220.812L116.011 223.995L112.121 230.693V237.018L116.011 239.257L121.491 236.095L125.361 229.377V223.052Z" fill="#0C0B0B"/>
<path d="M122.512 226.078V229.672L120.293 233.483L117.189 235.271L116.679 234.976L119.802 233.189L122.002 229.358V225.783L122.512 226.078Z" fill="#584A44"/>
<path d="M122.002 225.781V229.356L119.802 233.186L116.679 234.974L114.989 233.992V231.183L115.363 229.749L117.189 226.606L120.293 224.799L122.002 225.781Z" fill="#D9D2C7"/>
<path d="M116.364 229.653V230.341L115.952 231.068L115.362 231.401L115.107 231.244L115.677 230.91L116.109 230.184V229.496L116.364 229.653Z" fill="#A39C95"/>
<path d="M116.109 229.495V230.182L115.677 230.909L115.107 231.243L114.989 231.184V230.398L115.363 229.75L115.952 229.416L116.109 229.495Z" fill="#0C0B0B"/>
<path d="M121.53 226.683V227.35L121.098 228.077L120.509 228.431L120.253 228.274L120.843 227.94L121.255 227.193V226.525L121.53 226.683Z" fill="#A39C95"/>
<path d="M121.255 226.53V227.198L120.843 227.944L120.254 228.278L120.096 228.18V227.512L120.509 226.785L121.098 226.432L121.255 226.53Z" fill="#0C0B0B"/>
<path d="M120.155 226.057L119.979 225.959L119.762 226.096L119.605 226.371V226.627L119.762 226.725L119.979 226.607L120.155 226.313V226.057Z" fill="#A39C95"/>
<path d="M118.525 232.7L118.348 232.602L118.132 232.719L117.955 232.994V233.269L118.132 233.368L118.348 233.23L118.525 232.955V232.7Z" fill="#A39C95"/>
<path d="M120.921 228.926L120.745 228.848L120.529 228.966L120.371 229.26V229.516L120.529 229.614L120.745 229.476L120.921 229.201V228.926Z" fill="#A39C95"/>
<path d="M116.109 231.715L115.952 231.617L115.716 231.755L115.559 232.03V232.305L115.716 232.403L115.952 232.265L116.109 231.971V231.715Z" fill="#A39C95"/>
<path d="M116.855 227.944L116.718 227.865L116.482 228.003L116.325 228.278V228.533L116.482 228.631L116.718 228.494L116.855 228.219V227.944Z" fill="#A39C95"/>
<path d="M118.938 226.034V226.722L118.525 227.429L117.936 227.763L117.68 227.625L118.25 227.291L118.682 226.545V225.877L118.938 226.034Z" fill="#A39C95"/>
<path d="M118.682 225.881V226.549L118.25 227.296L117.68 227.63L117.523 227.551V226.864L117.936 226.137L118.525 225.783L118.682 225.881Z" fill="#0C0B0B"/>
<path d="M117.405 232.286V232.954L116.993 233.681L116.403 234.034L116.148 233.877L116.737 233.543L117.15 232.816V232.129L117.405 232.286Z" fill="#A39C95"/>
<path d="M117.15 232.127V232.815L116.738 233.542L116.148 233.876L115.991 233.797V233.11L116.404 232.402L116.993 232.049L117.15 232.127Z" fill="#0C0B0B"/>
<path d="M120.489 230.517V231.204L120.077 231.911L119.468 232.265L119.212 232.108L119.802 231.774L120.214 231.047V230.359L120.489 230.517Z" fill="#A39C95"/>
<path d="M120.214 230.36V231.047L119.802 231.774L119.212 232.108L119.055 232.03V231.342L119.468 230.615L120.077 230.262L120.214 230.36Z" fill="#0C0B0B"/>
<path d="M119.173 228.587L118.663 228.312L117.818 228.804L117.209 229.845V230.807L117.72 231.121L118.663 230.689L119.271 229.648L119.173 228.587Z" fill="#B5AFA8"/>
<path d="M119.782 228.943L119.173 228.59L118.329 229.101L117.72 230.142V231.124L118.329 231.477L119.173 230.986L119.782 229.926V228.943Z" fill="#A39C95"/>
<path d="M97.3892 245.545L91.5552 242.206V235.861L99.3535 238.12L97.3892 245.545Z" fill="#211A1A"/>
<path d="M97.3892 239.219L91.5552 235.86L95.4445 229.143L106.72 229.339L97.3892 239.219Z" fill="#372C29"/>
<path d="M101.259 232.502L95.4446 229.143L100.925 225.98L106.72 229.339L101.259 232.502Z" fill="#584A44"/>
<path d="M110.609 231.581L106.72 229.342L101.259 232.504L97.3892 239.222V245.547L101.259 247.786L106.72 244.604L110.609 237.906V231.581Z" fill="#0C0B0B"/>
<path d="M107.761 234.605V238.18L105.561 241.991L102.438 243.798L101.927 243.504L105.05 241.716L107.25 237.886V234.291L107.761 234.605Z" fill="#584A44"/>
<path d="M107.25 234.293V237.887L105.05 241.718L101.927 243.505L100.237 242.523V239.714L100.611 238.28L102.437 235.118L105.561 233.33L107.25 234.293Z" fill="#D9D2C7"/>
<path d="M101.612 238.181V238.868L101.2 239.575L100.611 239.929L100.336 239.772L100.945 239.438L101.357 238.711V238.023L101.612 238.181Z" fill="#A39C95"/>
<path d="M101.357 238.024V238.711L100.945 239.438L100.336 239.772L100.237 239.713V238.928L100.611 238.279L101.2 237.926L101.357 238.024Z" fill="#0C0B0B"/>
<path d="M106.759 235.192V235.88L106.346 236.606L105.757 236.94L105.502 236.803L106.091 236.449L106.503 235.723V235.055L106.759 235.192Z" fill="#A39C95"/>
<path d="M106.504 235.059V235.727L106.091 236.454L105.502 236.807L105.345 236.69V236.022L105.757 235.315L106.346 234.961L106.504 235.059Z" fill="#0C0B0B"/>
<path d="M105.384 234.587L105.246 234.488L105.011 234.626L104.854 234.901V235.156L105.011 235.254L105.246 235.117L105.384 234.842V234.587Z" fill="#A39C95"/>
<path d="M103.754 241.207L103.596 241.129L103.361 241.247L103.204 241.522V241.777L103.361 241.895L103.596 241.757L103.754 241.463V241.207Z" fill="#A39C95"/>
<path d="M106.17 237.454L105.993 237.375L105.757 237.493L105.6 237.768V238.043L105.757 238.141L105.993 238.004L106.17 237.729V237.454Z" fill="#A39C95"/>
<path d="M101.357 240.243L101.2 240.145L100.964 240.282L100.807 240.557V240.812L100.964 240.911L101.2 240.773L101.357 240.498V240.243Z" fill="#A39C95"/>
<path d="M102.103 236.473L101.946 236.395L101.711 236.512L101.553 236.807V237.062L101.711 237.141L101.946 237.003L102.103 236.748V236.473Z" fill="#A39C95"/>
<path d="M104.186 234.565V235.253L103.773 235.96L103.204 236.314L102.929 236.156L103.518 235.803L103.93 235.096V234.408L104.186 234.565Z" fill="#A39C95"/>
<path d="M103.93 234.411V235.098L103.518 235.805L102.928 236.159L102.771 236.08V235.393L103.203 234.666L103.773 234.312L103.93 234.411Z" fill="#0C0B0B"/>
<path d="M102.654 240.813V241.501L102.241 242.208L101.652 242.562L101.396 242.404L101.986 242.071L102.398 241.344V240.656L102.654 240.813Z" fill="#A39C95"/>
<path d="M102.398 240.655V241.342L101.986 242.069L101.396 242.403L101.239 242.305V241.617L101.652 240.91L102.241 240.576L102.398 240.655Z" fill="#0C0B0B"/>
<path d="M105.737 239.044V239.731L105.305 240.439L104.716 240.792L104.441 240.635L105.05 240.301L105.462 239.574V238.887L105.737 239.044Z" fill="#A39C95"/>
<path d="M105.462 238.887V239.575L105.05 240.302L104.441 240.635L104.303 240.537V239.869L104.716 239.143L105.305 238.789L105.462 238.887Z" fill="#0C0B0B"/>
<path d="M104.421 237.117L103.911 236.822L103.046 237.313L102.457 238.354V239.356L102.968 239.651L103.911 239.219L104.539 238.158L104.421 237.117Z" fill="#B5AFA8"/>
<path d="M105.03 237.471L104.421 237.117L103.577 237.608L102.968 238.649V239.651L103.577 240.005L104.421 239.494L105.03 238.453V237.471Z" fill="#A39C95"/>
<path d="M100.12 230.165L93.7553 226.491L116.148 213.566L122.512 217.24L106.818 227.12L100.12 230.165Z" fill="#0D6936"/>
<path d="M94.6392 239.651L88.2749 235.978L93.7553 226.49L100.12 230.163L97.6249 235.938L94.6392 239.651Z" fill="#0A8E46"/>
<path d="M94.6392 245.704L88.2749 242.011V235.98L94.6392 239.654L95.4053 242.679L94.6392 245.704Z" fill="#10331B"/>
<path d="M96.0143 244.895L94.6393 245.701V239.651L100.12 230.163L122.513 217.238L127.993 220.401V226.451L126.618 227.236V221.874L121.943 219.163L100.689 231.42L96.0143 239.513V244.895Z" fill="#0C1A11"/>
<path d="M93.0286 246.899L93.9125 246.369V241.596L91.5357 241.281L93.0286 246.899Z" fill="#A39C95"/>
<path d="M93.0285 242.107L93.9125 241.596L90.9857 236.509L85.9571 234.643L93.0285 242.107Z" fill="#D9D2C7"/>
<path d="M90.1017 237.04L90.9857 236.51L86.841 234.133L85.9571 234.644L90.1017 237.04Z" fill="#E6E1DD"/>
<path d="M83.0107 236.332L85.9572 234.643L90.1018 237.039L93.0286 242.107V246.9L90.1018 248.589L85.9572 246.193L83.0107 241.125V236.332Z" fill="#B5AFA8"/>
<path d="M87.7444 249.513L92.7141 246.645V242.107L86.3105 244.19L87.7444 249.513Z" fill="#A39C95"/>
<path d="M87.7445 244.975L92.7142 242.107L89.9249 237.295L81.0463 237.904L87.7445 244.975Z" fill="#D9D2C7"/>
<path d="M84.9749 240.162L89.9249 237.294L86.016 235.035L81.0463 237.903L84.9749 240.162Z" fill="#E6E1DD"/>
<path d="M78.257 239.517L81.0462 237.906L84.9748 240.165L87.7445 244.978V249.515L84.9748 251.126L81.0462 248.847L78.257 244.054V239.517Z" fill="#B5AFA8"/>
<path d="M87.1552 250.28L88.0391 249.769V244.976L85.6624 244.682L87.1552 250.28Z" fill="#A39C95"/>
<path d="M87.1553 245.484L88.0393 244.973L85.1125 239.905L80.0839 238.039L87.1553 245.484Z" fill="#D9D2C7"/>
<path d="M84.2286 240.437L85.1125 239.906L80.9875 237.51L80.0839 238.04L84.2286 240.437Z" fill="#E6E1DD"/>
<path d="M77.1571 239.728L80.0839 238.039L84.2285 240.435L87.1553 245.503V250.277L84.2285 251.966L80.0839 249.589L77.1571 244.521V239.728Z" fill="#B5AFA8"/>
<path d="M81.8517 252.907L86.841 250.02V245.482L80.457 247.584L81.8517 252.907Z" fill="#A39C95"/>
<path d="M81.8518 248.374L86.8411 245.486L84.0714 240.674L75.1732 241.302L81.8518 248.374Z" fill="#D9D2C7"/>
<path d="M79.1018 243.559L84.0714 240.671L80.1429 238.412L75.1732 241.3L79.1018 243.559Z" fill="#E6E1DD"/>
<path d="M72.3839 242.892L75.1731 241.301L79.1017 243.56L81.8714 248.372V252.91L79.1017 254.501L75.1731 252.242L72.3839 247.429V242.892Z" fill="#B5AFA8"/>
<path d="M81.2624 253.678L82.1463 253.187V248.394L79.7695 248.08L81.2624 253.678Z" fill="#A39C95"/>
<path d="M81.2625 248.904L82.1464 248.393L79.2196 243.306L74.1714 241.439L81.2625 248.904Z" fill="#D9D2C7"/>
<path d="M78.3357 243.835L79.2196 243.305L75.075 240.928L74.1714 241.438L78.3357 243.835Z" fill="#E6E1DD"/>
<path d="M71.2446 243.129L74.1714 241.439L78.3357 243.836L81.2625 248.923V253.677L78.3357 255.386L74.1714 252.989L71.2446 247.922V243.129Z" fill="#B5AFA8"/>
<path d="M79.5734 252.457L80.2216 252.064V248.587L78.493 248.352L79.5734 252.457Z" fill="#A39C95"/>
<path d="M79.5732 248.959L80.2214 248.586L78.1 244.873L74.4071 243.498L79.5732 248.959Z" fill="#D9D2C7"/>
<path d="M77.4321 245.248L78.1 244.875L75.075 243.127L74.4071 243.5L77.4321 245.248Z" fill="#E6E1DD"/>
<path d="M72.2661 244.736L74.4072 243.498L77.4322 245.246L79.5732 248.959V252.455L77.4322 253.673L74.4072 251.944L72.2661 248.232V244.736Z" fill="#B5AFA8"/>
<path d="M69.4376 249.59L55.8054 241.733L64.2715 236.822L77.9036 244.699L74.3286 248.47L69.4376 249.59Z" fill="#0A8E46"/>
<path d="M77.9034 244.699L69.4374 249.59L68.1409 252.91L71.4999 254.756V258.056L77.9034 254.363V244.699Z" fill="#0C1A11"/>
<path d="M73.3856 243.796L26.6553 216.826V173.475L79.691 196.791L73.3856 243.796Z" fill="#CACE79"/>
<path d="M71.107 233.679V240.299L28.9142 215.942V179.131L34.6499 182.431V212.622L71.107 233.679Z" fill="#C6DD78"/>
<path d="M71.1072 203.51V233.682L34.65 212.625V182.434L71.1072 203.51Z" fill="#0AA54A"/>
<path d="M73.3856 200.445L26.6553 173.475L85.1713 139.67L131.941 166.62L103.361 188.6L78.5713 200.445H73.3856Z" fill="#DEE78E"/>
<path d="M88.7266 145.954L87.823 146.465L58.9284 162.336L35.4552 174.75L34.5712 174.22L86.1337 144.441L88.7266 145.954Z" fill="#D2D2D2"/>
<path d="M87.8229 146.465L37.164 175.732L35.4551 174.75L86.1336 145.482L87.8229 146.465Z" fill="#F4EFE9"/>
<path d="M123.573 166.069L122.689 166.58L93.7749 182.451L70.3017 194.846L69.4178 194.355L120.961 164.576L123.573 166.069Z" fill="#D2D2D2"/>
<path d="M122.689 166.578L72.0105 195.846L70.3016 194.844L120.96 165.615L122.689 166.578Z" fill="#F4EFE9"/>
<path d="M73.3856 200.446V220.226L74.407 224.037L73.3856 227.2V243.798L131.941 209.973V193.375L129.309 192.157L131.941 186.421V166.621L73.3856 200.446Z" fill="#0AA54A"/>
<path d="M73.3856 220.225V227.198L131.941 193.373V186.42L73.3856 220.225Z" fill="#10331B"/>
<path d="M126.578 175.989L126.087 175.695V174.457L126.971 174.516L126.578 175.989Z" fill="#DE822B"/>
<path d="M126.578 174.755L126.087 174.461L126.834 173.145L128.405 172.791L126.578 174.755Z" fill="#EF8F2B"/>
<path d="M127.325 173.417L126.834 173.142L127.914 172.514L128.405 172.789L127.325 173.417Z" fill="#FDBD6F"/>
<path d="M129.171 173.243L128.405 172.791L127.325 173.42L126.578 174.755V175.993L127.325 176.425L128.405 175.796L129.171 174.5V173.243Z" fill="#D66C27"/>
<path d="M4.49823 221.208L5.34287 220.736L6.69823 221.502L7.54287 222.976V227.768L6.69823 228.279L5.34287 227.513L4.49823 226.02V221.208Z" fill="#413531"/>
<path d="M8.52503 225.429L7.26788 224.702V224.564L8.56431 225.272L8.52503 225.429Z" fill="#413531"/>
<path d="M8.52503 225.274L7.26788 224.567L7.34645 224.43L8.72145 225.078L8.52503 225.274Z" fill="#554640"/>
<path d="M8.6037 225.137L7.34656 224.43L7.46441 224.352L8.72156 225.078L8.6037 225.137Z" fill="#846F6A"/>
<path d="M8.7997 225.133L8.72124 225.074L8.60355 225.133L8.52509 225.27V225.427L8.60355 225.467L8.72124 225.388L8.7997 225.27V225.133Z" fill="#695851"/>
<path d="M8.52503 227.829L7.26788 227.122V226.984L8.56431 227.672L8.52503 227.829Z" fill="#413531"/>
<path d="M8.52503 227.71L7.26788 226.983L7.34645 226.826L8.72145 227.494L8.52503 227.71Z" fill="#554640"/>
<path d="M8.6037 227.553L7.34656 226.827L7.46441 226.768L8.72156 227.494L8.6037 227.553Z" fill="#846F6A"/>
<path d="M8.7997 227.531L8.72124 227.492L8.60355 227.551L8.52509 227.708V227.826L8.60355 227.884L8.72124 227.806L8.7997 227.669V227.531Z" fill="#695851"/>
<path d="M4.20349 221.388L5.06778 220.896L6.40349 221.663L7.24813 223.136V227.948L6.40349 228.439L5.06778 227.673L4.20349 226.18V221.388Z" fill="#695851"/>
<path d="M1.63025 252.812L38.2642 273.142L38.657 267.151L2.18025 246.35L1.63025 252.812Z" fill="#554640"/>
<path d="M32.9215 267.155L33.4911 266.84V265.387L32.4697 265.465L32.9215 267.155Z" fill="#CC934C"/>
<path d="M32.9213 265.72L33.4909 265.386L32.6267 263.854L30.7999 263.48L32.9213 265.72Z" fill="#D6AA4F"/>
<path d="M32.0374 264.19L32.6267 263.856L31.3695 263.148L30.7999 263.482L32.0374 264.19Z" fill="#FAE979"/>
<path d="M29.8964 263.97L30.8 263.479L32.0375 264.186L32.9214 265.718V267.152L32.0375 267.682L30.8 266.936L29.8964 265.423V263.97Z" fill="#D66C27"/>
<path d="M37.8323 270.002L38.402 269.668V268.215L37.3806 268.313L37.8323 270.002Z" fill="#CC934C"/>
<path d="M37.8321 268.546L38.4018 268.212L37.5178 266.68L35.691 266.307L37.8321 268.546Z" fill="#D6AA4F"/>
<path d="M36.9482 266.996L37.5178 266.682L36.2607 265.955L35.691 266.309L36.9482 266.996Z" fill="#FAE979"/>
<path d="M34.8072 266.798L35.6911 266.307L36.9483 266.994L37.8322 268.546V269.999L36.9483 270.491L35.6911 269.783L34.8072 268.251V266.798Z" fill="#D66C27"/>
<path d="M6.8357 252.084L7.40534 251.75V250.316L6.38391 250.395L6.8357 252.084Z" fill="#CC934C"/>
<path d="M6.83548 250.649L7.40512 250.316L6.54084 248.783L4.71405 248.41L6.83548 250.649Z" fill="#D6AA4F"/>
<path d="M5.95155 249.117L6.54084 248.783L5.30334 248.057L4.71405 248.41L5.95155 249.117Z" fill="#FAE979"/>
<path d="M3.83032 248.901L4.71425 248.41L5.95175 249.117L6.83568 250.649V252.083L5.95175 252.594L4.71425 251.887L3.83032 250.355V248.901Z" fill="#D66C27"/>
<path d="M11.7268 254.932L12.316 254.578V253.145L11.2946 253.223L11.7268 254.932Z" fill="#CC934C"/>
<path d="M11.7266 253.478L12.3159 253.144L11.4319 251.612L9.60516 251.219L11.7266 253.478Z" fill="#D6AA4F"/>
<path d="M10.8623 251.965L11.4319 251.612L10.1748 250.885L9.60516 251.219L10.8623 251.965Z" fill="#FAE979"/>
<path d="M8.72125 251.729L9.60518 251.219L10.8623 251.965L11.7266 253.478V254.931L10.8623 255.442L9.60518 254.715L8.72125 253.183V251.729Z" fill="#D66C27"/>
<path d="M40.6017 266.211L0.707092 243.17V252.854L40.6017 275.875V266.211ZM6.93388 252.54L5.8928 253.148L4.39995 252.284L3.35888 250.477V248.768L4.39995 248.159L5.8928 249.004L6.93388 250.811V252.54ZM11.9035 255.427L10.8428 256.016L9.34995 255.172L8.30888 253.345V251.636L9.34995 251.047L10.8428 251.891L11.9035 253.718V255.427ZM32.9803 267.586L31.9392 268.195L30.4464 267.331L29.3857 265.523V263.815L30.4464 263.206L31.9392 264.031L32.9803 265.857V267.586ZM37.9499 270.454L36.8892 271.063L35.416 270.198L34.3749 268.391V266.663L35.416 266.073L36.8892 266.938L37.9499 268.745V270.454Z" fill="#8B1E1B"/>
<path d="M70.2624 259.844L62.3464 255.267V248.844L70.2624 253.421V259.844Z" fill="#554640"/>
<path d="M54.9214 270.055L49.1071 266.696V260.371L56.9053 262.63L54.9214 270.055Z" fill="#211A1A"/>
<path d="M54.9214 263.731L49.1071 260.372L52.9768 253.654L64.2714 253.87L54.9214 263.731Z" fill="#372C29"/>
<path d="M58.791 257.016L52.9767 253.657L58.4375 250.494L64.2714 253.873L58.791 257.016Z" fill="#584A44"/>
<path d="M68.141 256.093L64.2713 253.873L58.791 257.016L54.9213 263.734V270.059L58.791 272.278L64.2713 269.136L68.141 262.418V256.093Z" fill="#0C0B0B"/>
<path d="M65.2929 259.117V262.692L63.0928 266.522L59.9696 268.31L59.4589 268.035L62.5625 266.208L64.7821 262.397V258.822L65.2929 259.117Z" fill="#584A44"/>
<path d="M64.7822 258.822V262.397L62.5626 266.208L59.459 268.035L57.7697 267.033V264.224L58.1626 262.79L59.9697 259.627L63.0929 257.82L64.7822 258.822Z" fill="#D9D2C7"/>
<path d="M59.1642 262.694V263.382L58.732 264.109L58.1624 264.462L57.8677 264.285L58.457 263.951L58.8892 263.244V262.537L59.1642 262.694Z" fill="#A39C95"/>
<path d="M58.8894 262.536V263.243L58.4572 263.95L57.8679 264.284L57.7697 264.225V263.439L58.1626 262.791L58.7322 262.457L58.8894 262.536Z" fill="#0C0B0B"/>
<path d="M64.3107 259.704V260.392L63.8982 261.118L63.2892 261.452L63.0339 261.315L63.6232 260.961L64.0357 260.254V259.547L64.3107 259.704Z" fill="#A39C95"/>
<path d="M64.0357 259.549V260.256L63.6232 260.964L63.0339 261.317L62.8768 261.219V260.551L63.2893 259.824L63.8982 259.471L64.0357 259.549Z" fill="#0C0B0B"/>
<path d="M62.9357 259.077L62.7786 258.998L62.5429 259.136L62.3857 259.391V259.686L62.5429 259.744L62.7786 259.627L62.9357 259.352V259.077Z" fill="#A39C95"/>
<path d="M61.3054 265.739L61.1286 265.641L60.8929 265.758L60.7554 266.033V266.308L60.8929 266.407L61.1286 266.269L61.3054 265.994V265.739Z" fill="#A39C95"/>
<path d="M63.7019 261.967L63.5447 261.889L63.309 262.007L63.1519 262.301V262.557L63.309 262.655L63.5447 262.517L63.7019 262.242V261.967Z" fill="#A39C95"/>
<path d="M58.8892 264.754L58.7124 264.656L58.4963 264.794L58.3392 265.088V265.344L58.4963 265.422L58.7124 265.285L58.8892 265.01V264.754Z" fill="#A39C95"/>
<path d="M59.6356 260.985L59.4785 260.906L59.2428 261.024L59.1053 261.319V261.574L59.2428 261.672L59.4785 261.554L59.6356 261.26V260.985Z" fill="#A39C95"/>
<path d="M61.7375 259.077V259.745L61.3054 260.472L60.7161 260.806L60.4608 260.648L61.05 260.334L61.4625 259.588V258.92L61.7375 259.077Z" fill="#A39C95"/>
<path d="M61.4623 258.92V259.588L61.0498 260.335L60.4605 260.649L60.3034 260.59V259.903L60.7159 259.156L61.3052 258.822L61.4623 258.92Z" fill="#0C0B0B"/>
<path d="M60.2053 265.327V265.995L59.7928 266.722L59.1839 267.056L58.9285 266.918L59.5178 266.584L59.9303 265.857V265.17L60.2053 265.327Z" fill="#A39C95"/>
<path d="M59.9305 265.166V265.854L59.518 266.581L58.9287 266.915L58.7715 266.836V266.149L59.184 265.422L59.793 265.088L59.9305 265.166Z" fill="#0C0B0B"/>
<path d="M63.2698 263.558V264.245L62.8376 264.952L62.2483 265.286L61.993 265.149L62.5823 264.815L62.9948 264.088V263.4L63.2698 263.558Z" fill="#A39C95"/>
<path d="M62.9946 263.397V264.085L62.5821 264.811L61.9928 265.145L61.8356 265.047V264.379L62.2481 263.652L62.8374 263.299L62.9946 263.397Z" fill="#0C0B0B"/>
<path d="M61.9732 261.631L61.4429 261.336L60.5982 261.847L59.9893 262.888V263.87L60.5 264.165L61.4429 263.732L62.0518 262.672L61.9732 261.631Z" fill="#B5AFA8"/>
<path d="M62.5626 261.984L61.9733 261.631L61.0893 262.142L60.5001 263.183V264.165L61.0893 264.518L61.9733 264.008L62.5626 262.986V261.984Z" fill="#A39C95"/>
<path d="M69.4375 213.584L68.0625 211.502L47.7911 220.734L44.059 250.65L39.8947 254.5L39.2268 264.597L38.5786 265.854L39.8947 276.264L52.8786 268.8V264.106L57.9661 255.306L65.1161 251.181L69.4375 253.656V213.584Z" fill="#10331B"/>
<path d="M47.3196 263.202L47.6335 263.378L47.8689 263.084L47.3196 263.045V263.202Z" fill="#DE822B"/>
<path d="M47.3196 263.044L47.6339 263.241L50.4232 261.061L47.7911 262.219L47.3196 263.044Z" fill="#EF8F2B"/>
<path d="M47.7911 262.222L48.1054 262.399L50.4233 261.063L50.109 260.887L47.7911 262.222Z" fill="#FDBD6F"/>
<path d="M48.1055 262.396L47.634 263.241V263.378L48.1055 263.653L50.4233 262.298L50.8947 261.512V261.336L50.4233 261.061L48.1055 262.396Z" fill="#D66C27"/>
<path d="M59.6751 219.795V242.207L47.7322 249.122L47.7912 248.768L58.3983 241.225L59.4001 219.952L59.6751 219.795Z" fill="#F15E54"/>
<path d="M59.3999 219.949V242.047L47.791 248.765L47.9089 248.058L56.6696 240.515L58.8499 220.264L59.3999 219.949Z" fill="#5F453A"/>
<path d="M58.85 220.268V241.737L47.9089 248.062L51.7786 224.373L58.85 220.268Z" fill="#746757"/>
<path opacity="0.2" d="M60.7554 218.08V250.53L54.4304 254.203L52.584 257.601L46.8287 260.94V249.705L51.1501 223.619L56.4733 220.555L60.7554 218.08ZM61.3054 217.117L50.6787 223.246L46.2394 249.96V261.903L52.8197 258.073L54.6465 254.674L61.2858 250.844V217.117H61.3054Z" fill="#0C0B0B"/>
<path d="M56.0996 248.119L55.8054 247.942V247.805L56.335 247.844L56.0996 248.119Z" fill="#554640"/>
<path d="M56.1001 247.982L55.8054 247.805L56.2572 247.019L59.7929 245.311L56.1001 247.982Z" fill="#695851"/>
<path d="M56.5518 247.176L56.2572 247.019L59.4786 245.133L59.7929 245.31L56.5518 247.176Z" fill="#846F6A"/>
<path d="M60.2447 245.586L59.793 245.311L56.5519 247.177L56.1001 247.982V248.119L56.5519 248.375L59.793 246.528L60.2447 245.723V245.586Z" fill="#413531"/>
<path d="M49.8731 221.974L9.95886 198.933L28.1481 188.463L68.0624 211.504L49.8731 221.974Z" fill="#0A8E46"/>
<path d="M17.7963 198.852V199.519L16.657 200.168L16.2642 199.284L17.7963 198.852Z" fill="#413531"/>
<path d="M16.6571 199.519V200.168H15.0463L13.9267 198.852L16.6571 199.519Z" fill="#554640"/>
<path d="M15.0463 199.519V200.168L13.9267 199.519V198.852L15.0463 199.519Z" fill="#695851"/>
<path d="M13.9267 197.945V198.849L15.0463 199.517H16.6571L17.7963 198.849V197.945L16.6571 197.277H15.0463L13.9267 197.945Z" fill="#846F6A"/>
<path d="M17.5018 197.967V198.733L16.5393 199.283L16.2053 198.32L17.5018 197.967Z" fill="#D66C27"/>
<path d="M16.5392 198.517V199.283H15.1838L14.2017 197.967L16.5392 198.517Z" fill="#DE822B"/>
<path d="M15.1838 198.517V199.283L14.2017 198.733V197.967L15.1838 198.517Z" fill="#EF8F2B"/>
<path d="M14.2017 197.159V197.965L15.1838 198.515H16.5392L17.5017 197.965V197.159L16.5392 196.609H15.1838L14.2017 197.159Z" fill="#FDBD6F"/>
<path d="M51.7785 218.479V219.146L50.6195 219.795L50.2267 218.891L51.7785 218.479Z" fill="#413531"/>
<path d="M50.6196 219.146V219.795H49.0089L47.8696 218.479L50.6196 219.146Z" fill="#554640"/>
<path d="M49.0089 219.146V219.795L47.8696 219.146V218.479L49.0089 219.146Z" fill="#695851"/>
<path d="M47.8696 217.533V218.476L49.0089 219.144H50.6196L51.7785 218.476V217.533L50.6196 216.885H49.0089L47.8696 217.533Z" fill="#846F6A"/>
<path d="M51.4643 217.572V218.338L50.5018 218.908L50.1679 217.926L51.4643 217.572Z" fill="#D66C27"/>
<path d="M50.5018 218.142V218.908H49.1465L48.184 217.572L50.5018 218.142Z" fill="#DE822B"/>
<path d="M49.1465 218.142V218.908L48.184 218.338V217.572L49.1465 218.142Z" fill="#EF8F2B"/>
<path d="M48.184 216.786V217.572L49.1465 218.142H50.5018L51.4643 217.572V216.786L50.5018 216.217L49.1465 216.236L48.184 216.786Z" fill="#FDBD6F"/>
<path d="M45.0017 251.476L5.10706 228.435L9.95884 198.932L49.8731 221.973L45.0017 251.476Z" fill="#0D6936"/>
<path d="M43.9607 248.982L43.9411 249.198L6.67859 227.709L11.0393 201.211L11.2161 201.309L7.71966 227.002L43.9607 248.982Z" fill="#F15E54"/>
<path d="M44.0589 248.451L43.9607 248.982L6.89465 227.571L11.2161 201.309L11.6286 201.544L9.36965 225.98L44.0589 248.451Z" fill="#5F453A"/>
<path d="M48.3018 222.718L44.0589 248.45L7.38574 227.275L11.6286 201.543L12.9447 202.289L17.0304 209.459L20.9197 206.905L48.3018 222.718Z" fill="#746757"/>
<path d="M12.9448 202.291L8.95728 226.727L20.9198 219.812V206.907L12.9448 202.291Z" fill="#BFB2A1"/>
<path d="M40.8178 266.071L0.903503 243.049V232.285L40.8178 255.346V266.071Z" fill="#0D6936"/>
<path d="M32.1163 252.97V253.206L31.8412 253.343L9.88054 240.674L9.62518 240.222V239.79L9.88054 239.652L10.077 239.751V239.947L10.352 240.418L32.1163 252.97Z" fill="#8B1E1B"/>
<path d="M32.1162 252.773V252.97L10.3519 240.418L10.0769 239.946V239.75L31.8412 252.321L32.1162 252.773Z" fill="#554640"/>
<path d="M32.1163 255.72V255.956L31.8412 256.094L9.88054 243.424L9.62518 242.972V242.56L9.88054 242.383L10.077 242.501V242.717L10.352 243.169L32.1163 255.72Z" fill="#8B1E1B"/>
<path d="M32.1162 255.521V255.718L10.3519 243.166L10.0769 242.714V242.498L31.8412 255.069L32.1162 255.521Z" fill="#554640"/>
<path d="M32.1163 258.486V258.702L31.8412 258.859L9.88054 246.17L9.62518 245.718V245.306L9.88054 245.129L10.077 245.266V245.463L10.352 245.915L32.1163 258.486Z" fill="#8B1E1B"/>
<path d="M32.1162 258.252V258.487L10.3519 245.916L10.0769 245.464V245.268L31.8412 257.819L32.1162 258.252Z" fill="#554640"/>
<path d="M5.50009 241.81L6.12867 241.437V239.846L4.98938 239.944L5.50009 241.81Z" fill="#C8AF88"/>
<path d="M5.50003 240.2L6.1286 239.846L5.14645 238.176L3.14288 237.725L5.50003 240.2Z" fill="#D9BE93"/>
<path d="M4.53753 238.532L5.14645 238.178L3.7911 237.373L3.14288 237.727L4.53753 238.532Z" fill="#EFCFA4"/>
<path d="M2.18042 238.314L3.14292 237.725L4.53756 238.53L5.50006 240.2V241.81L4.53756 242.36L3.14292 241.575L2.18042 239.885V238.314Z" fill="#F6EDD4"/>
<path d="M38.5786 260.906L39.2268 260.552V258.941L38.0875 259.059L38.5786 260.906Z" fill="#C8AF88"/>
<path d="M38.5785 259.313L39.2267 258.94L38.2642 257.27L36.241 256.838L38.5785 259.313Z" fill="#D9BE93"/>
<path d="M37.5963 257.645L38.2642 257.272L36.8695 256.467L36.241 256.84L37.5963 257.645Z" fill="#EFCFA4"/>
<path d="M35.2785 257.408L36.241 256.838L37.5964 257.643L38.5785 259.313V260.904L37.5964 261.454L36.241 260.668L35.2785 258.999V257.408Z" fill="#F6EDD4"/>
<path d="M39.8946 266.602L0 243.561V253.225L39.8946 276.266V266.602ZM6.22678 252.95L5.18571 253.559L3.69286 252.714L2.67143 250.868V249.159L3.7125 248.55L5.20536 249.414L6.24643 251.241V252.95H6.22678ZM11.2161 255.798L10.1554 256.407L8.68214 255.543L7.64107 253.736V252.027L8.68214 251.418L10.1554 252.262L11.2161 254.089V255.798ZM32.2732 267.996L31.2321 268.605L29.7393 267.741L28.6786 265.934V264.225L29.7393 263.616L31.2321 264.461L32.2732 266.268V267.996ZM37.2428 270.864L36.1821 271.473L34.7089 270.609L33.6482 268.802V267.073L34.7089 266.484L36.1821 267.328L37.2428 269.155V270.864Z" fill="#0D6936"/>
<path d="M24.6322 265.089L24.2001 265.325L14.8501 254.835L15.2626 254.58L24.6322 259.982V265.089Z" fill="#A39C95"/>
<path d="M24.2001 265.327L14.8501 259.925V254.838L24.2001 260.24V265.327Z" fill="white"/>
<path d="M40.8178 255.348L0.903503 232.287L5.10707 228.438L45.0017 251.479L40.8178 255.348Z" fill="#0AA54A"/>
<path d="M39.8946 266.603L0 243.561L0.903571 243.051L40.8178 266.072L39.8946 266.603Z" fill="#0AA54A"/>
<path d="M70.7341 260.925L69.4966 260.198V254.168L70.7341 254.895V260.925Z" fill="#0C1A11"/>
<path d="M54.7839 270.138L53.4089 270.924V264.874L58.8892 255.406L66.6285 250.928L72.1089 254.09V260.14L70.7339 260.926V255.544L66.0589 252.853L59.4589 256.663L54.7839 264.737V270.138Z" fill="#0C1A11"/>
<path d="M58.8893 255.404L57.6714 254.678L65.4107 250.219L66.6286 250.926L58.8893 255.404Z" fill="#0C1A11"/>
<path d="M53.409 264.872L52.1911 264.165L57.6715 254.678L58.8893 255.405L53.409 264.872Z" fill="#0C1A11"/>
<path d="M53.409 270.923L52.1911 270.216V264.166L53.409 264.873V270.923Z" fill="#0C1A11"/>
<path d="M48.5964 248.587L47.3589 247.86V247.723L48.6553 248.41L48.5964 248.587Z" fill="#413531"/>
<path d="M48.5964 248.429L47.3589 247.721L47.4375 247.584L48.7928 248.232L48.5964 248.429Z" fill="#554640"/>
<path d="M48.6751 248.294L47.4376 247.586L47.5554 247.508L48.7929 248.235L48.6751 248.294Z" fill="#846F6A"/>
<path d="M48.8906 248.291L48.7925 248.232L48.6748 248.291L48.5964 248.429V248.585L48.6748 248.625L48.7925 248.546L48.8906 248.409V248.291Z" fill="#695851"/>
<path d="M48.5964 250.985L47.3589 250.278V250.141L48.6553 250.828L48.5964 250.985Z" fill="#413531"/>
<path d="M48.5964 250.849L47.3589 250.142L47.4375 249.984L48.7928 250.652L48.5964 250.849Z" fill="#554640"/>
<path d="M48.6751 250.712L47.4376 249.985L47.5554 249.906L48.7929 250.653L48.6751 250.712Z" fill="#846F6A"/>
<path d="M48.8906 250.694L48.7925 250.654L48.6748 250.713L48.5964 250.85V250.988L48.6748 251.047L48.7925 250.968L48.8906 250.811V250.694Z" fill="#695851"/>
<path d="M48.8911 246.841L49.7358 246.369L51.0715 247.135L51.9161 248.608V253.401L51.0715 253.892L49.7358 253.126L48.8911 251.673V246.841Z" fill="#413531"/>
<path d="M48.5964 247.016L49.441 246.525L50.7767 247.291L51.6214 248.765V253.577L50.7767 254.068L49.441 253.283L48.5964 251.829V247.016Z" fill="#695851"/>
<path d="M215.718 294.887L203.402 295.731L111.277 240.888V89.3242L215.364 106.747L215.718 294.887Z" fill="#10331B"/>
<path d="M215.364 106.748L271.543 116.157V271.512L226.796 294.121L215.718 294.887L215.364 106.748Z" fill="#10331B"/>
<path d="M222.436 148.549H207.821V288.74H222.436V148.549Z" fill="#164723"/>
<path d="M118.407 236.134L110.412 232.5V251.514L207.821 307.752L215.128 291.546L118.407 236.134Z" fill="#0AA54A"/>
<path d="M222.436 288.74L214.421 287.482L207.821 288.74V307.754H222.436V288.74Z" fill="#E0DEDC"/>
<path d="M272.662 259.748L238.7 277.819L222.436 288.741V307.755L272.662 278.703V259.748Z" fill="#D2D2D2"/>
<path d="M272.662 251.3L270.757 250.18V251.26V258.135L221.689 286.46H207.428L112.337 231.559V224.743V222.955L110.412 224.075V232.502L207.821 288.739H222.436L272.662 259.746V251.3Z" fill="#C6DD78"/>
<path d="M118.407 218.671L110.412 214.959V225.684L207.821 281.921L215.128 274.005L118.407 218.671Z" fill="#0AA54A"/>
<path d="M223.555 270.332L214.421 269.959L207.821 271.236V281.921H222.436L224.145 275.95L223.555 270.332Z" fill="#E0DEDC"/>
<path d="M272.662 242.207L238.7 260.298L222.436 271.239V281.925L272.662 252.912V242.207Z" fill="#D2D2D2"/>
<path d="M272.662 233.776L270.757 232.637V233.776V240.612L221.689 268.937H207.428L112.337 214.035V207.2V205.412L110.412 206.532V214.959L207.821 271.235H222.436L272.662 242.203V233.776Z" fill="#C6DD78"/>
<path d="M118.407 201.111L110.412 197.438V208.162L207.821 264.38L215.128 256.464L118.407 201.111Z" fill="#0AA54A"/>
<path d="M223.555 252.831L214.421 252.398L207.821 253.675V264.381H222.436L224.145 258.409L223.555 252.831Z" fill="#10A84B"/>
<path d="M272.662 224.666L238.7 242.757L222.436 253.679V264.384L272.662 235.391V224.666Z" fill="#0A8E46"/>
<path d="M272.662 216.257L270.757 215.137V216.257V223.073L221.689 251.417H207.428L112.337 196.496V189.68V187.912L110.412 189.012V197.439L207.821 253.676H222.436L272.662 224.664V216.257Z" fill="#C6DD78"/>
<path d="M118.407 183.572L110.412 179.918V190.623L207.821 246.88L215.128 238.945L118.407 183.572Z" fill="#0AA54A"/>
<path d="M223.555 235.313L214.421 234.9L207.821 236.138V246.883H222.436L224.145 240.891L223.555 235.313Z" fill="#10A84B"/>
<path d="M272.662 207.164L238.7 225.235L222.436 236.137V246.882L272.662 217.85V207.164Z" fill="#0A8E46"/>
<path d="M272.662 198.716L270.757 197.596V198.716V205.551L221.689 233.876H207.428L112.337 178.975V172.139V170.371L110.412 171.491V179.918L207.821 236.135H222.436L272.662 207.162V198.716Z" fill="#C6DD78"/>
<path d="M118.407 166.05L110.412 162.377V173.102L207.821 229.339L215.128 221.443L118.407 166.05Z" fill="#0AA54A"/>
<path d="M223.555 217.768L214.421 217.395L207.821 218.671V229.337H222.436L224.145 223.346L223.555 217.768Z" fill="#10A84B"/>
<path d="M272.662 189.621L238.7 207.693L222.436 218.673V229.339L272.662 200.326V189.621Z" fill="#0A8E46"/>
<path d="M272.662 181.196L270.757 180.096V181.177V188.052L221.689 216.337H207.428L112.337 161.455V154.58V152.852L110.412 153.971V162.378L207.821 218.675H222.436L272.662 189.623V181.196Z" fill="#C6DD78"/>
<path d="M118.407 148.546L110.412 144.854V155.579L207.821 211.816L215.128 203.88L118.407 148.546Z" fill="#0AA54A"/>
<path d="M223.555 200.25L214.421 199.838L207.821 201.115V211.82H222.436L224.145 205.829L223.555 200.25Z" fill="#10A84B"/>
<path d="M272.662 172.098L238.7 190.169L222.436 201.11V211.815L272.662 182.803V172.098Z" fill="#0A8E46"/>
<path d="M272.662 163.673L270.757 162.553V163.653V170.508L221.689 198.833H207.428L112.337 143.932V137.076V135.328L110.412 136.428V144.855L207.821 201.112H222.436L272.662 172.1V163.673Z" fill="#C6DD78"/>
<path d="M118.407 131.027L110.412 127.334V138.039L207.821 194.296L215.128 186.38L118.407 131.027Z" fill="#0AA54A"/>
<path d="M223.555 182.707L214.421 182.314L207.821 183.572V194.297H222.436L224.145 188.325L223.555 182.707Z" fill="#10A84B"/>
<path d="M272.662 154.578L238.7 172.65L222.436 183.571V194.296L272.662 165.264V154.578Z" fill="#0A8E46"/>
<path d="M272.662 146.169L270.757 145.03V146.15V152.966L221.689 181.31H207.428L112.337 126.389V119.553V117.766L110.412 118.905V127.332L207.821 183.569H222.436L272.662 154.576V146.169Z" fill="#C6DD78"/>
<path d="M118.407 113.486L110.412 109.812V120.518L207.821 176.755L215.128 168.859L118.407 113.486Z" fill="#0AA54A"/>
<path d="M223.555 165.186L214.421 164.793L207.821 166.05V176.755H222.436L224.145 170.764L223.555 165.186Z" fill="#10A84B"/>
<path d="M272.662 137.037L238.7 155.128L222.436 166.05V176.755L272.662 147.742V137.037Z" fill="#0A8E46"/>
<path d="M272.662 128.614L270.757 127.514V128.595V135.45L221.689 163.795H207.428L112.337 108.893V102.037V100.27L110.412 101.409V109.816L207.821 166.053H222.436L272.662 137.041V128.614Z" fill="#C6DD78"/>
<path d="M123.18 92.6859L110.412 92.2734V102.998L207.821 159.236L215.128 151.32L123.18 92.6859Z" fill="#0AA54A"/>
<path d="M222.436 148.549L215.993 143.383L207.821 148.549V159.235H222.436V148.549Z" fill="#10A84B"/>
<path d="M272.662 119.516L236.048 135.583L222.436 148.548V159.233L272.662 130.221V119.516Z" fill="#0A8E46"/>
<path d="M272.662 111.089L175.253 54.832H160.678L110.412 83.8642V92.2713L207.821 148.548H222.436L272.662 119.516V111.089Z" fill="#C6DD78"/>
<path d="M265.1 111.794V116.155L173.623 73.3926H161.012L117.562 88.439V84.039L161.012 58.9551H173.623L265.1 111.794Z" fill="#0AA54A"/>
<path d="M265.1 116.157V119.065L221.65 144.168H209.039L117.562 91.3288V88.4413L161.012 63.3574H173.623L265.1 116.157Z" fill="#DEE78E"/>
<path d="M128.975 78.1456L122.807 77.9492V91.5814L169.97 118.826L173.505 106.53L128.975 78.1456Z" fill="#0AA54A"/>
<path d="M177.061 105.2L173.938 102.725L169.97 105.2V118.832H177.061V105.2Z" fill="#0D8E45"/>
<path d="M201.379 91.1543L183.641 98.9722L177.061 105.199V118.831L201.379 104.767V91.1543Z" fill="#0AA54A"/>
<path d="M201.379 87.063L154.196 59.8184H147.164L122.807 73.863V77.9487L169.97 105.193H177.061L201.379 91.1487V87.063Z" fill="#C6DD78"/>
<path d="M330 313.39L279.518 342.56L273.173 292.255L330 268.074V313.39Z" fill="#10331B"/>
<path d="M285.823 333.052L286.825 332.482V327.002L287.395 326.668L286.334 324.252L285.254 327.925L285.823 327.591V333.052Z" fill="#86C543"/>
<path d="M288.711 331.384L289.712 330.814V325.334L290.282 325.02L289.202 322.604L288.141 326.257L288.711 325.923V331.384Z" fill="#86C543"/>
<path d="M282.759 324.785V336.355L292.777 330.56V318.99L282.759 324.785ZM292.03 330.147L283.505 335.078V325.217L292.03 320.287V330.147Z" fill="#86C543"/>
<path d="M294.289 318.123V329.692L304.307 323.898V312.328L294.289 318.123ZM303.56 323.485L295.035 328.416V318.575L303.56 313.644V323.485Z" fill="#86C543"/>
<path d="M299.101 324.367L298.709 325.055L298.394 325.251L298.001 325.015V324.269L297.628 324.485V325.408L298.237 325.762L298.866 325.408L299.475 324.328V320.498L302.735 318.612L302.401 317.276L300.909 316.824L299.475 317.198V316.805L299.101 317.021V317.433L297.667 318.71L296.194 320.871L295.86 322.599L299.101 320.714V324.367Z" fill="#86C543"/>
<path d="M279.518 342.56L229.016 313.39V268.074L270.796 283.553L279.518 297.224V342.56Z" fill="#0D6936"/>
<path d="M279.518 297.226L229.016 268.076L279.518 238.906L330 268.076L279.518 297.226Z" fill="#0AA54A"/>
<path d="M257.498 308.124L251.036 304.392V280.781L255.298 281.626L257.498 284.513V308.124Z" fill="#86C543"/>
<path d="M257.498 284.515L251.036 280.783L301.518 251.633L308 255.365L257.498 284.515Z" fill="#C6DD78"/>
<path d="M313.637 263.972L276.689 285.304L272.053 248.493L313.637 230.814V263.972Z" fill="#10331B"/>
<path d="M281.305 278.351L282.032 277.938V273.951L282.464 273.696L281.679 271.928L280.893 274.599L281.305 274.363V278.351Z" fill="#86C543"/>
<path d="M283.427 277.13L284.154 276.718V272.711L284.566 272.475L283.8 270.707L282.995 273.378L283.427 273.143V277.13Z" fill="#86C543"/>
<path d="M279.066 272.317V280.783L286.393 276.54V268.074L279.066 272.317ZM285.863 276.226L279.616 279.821V272.612L285.863 268.997V276.226Z" fill="#86C543"/>
<path d="M287.493 267.428V275.894L294.82 271.652V263.186L287.493 267.428ZM294.289 271.357L288.043 274.952V267.743L294.289 264.128V271.357Z" fill="#86C543"/>
<path d="M291.029 272.002L290.734 272.513L290.518 272.631L290.204 272.474V271.924L289.948 272.081V272.768L290.4 273.024L290.852 272.768L291.304 271.983V269.174L293.7 267.799L293.445 266.816L292.345 266.483L291.304 266.758V266.463L291.009 266.62V266.934L289.988 267.858L288.888 269.429L288.652 270.706L291.029 269.331V272.002Z" fill="#86C543"/>
<path d="M276.689 285.304L239.761 263.972V230.814L270.325 242.129L276.689 252.147V285.304Z" fill="#0D6936"/>
<path d="M276.689 252.145L239.761 230.813L276.689 209.48L313.638 230.813L276.689 252.145Z" fill="#0AA54A"/>
<path d="M260.582 260.12L255.848 257.389V240.104L258.971 240.732L260.582 242.834V260.12Z" fill="#86C543"/>
<path d="M260.582 242.834L255.848 240.104L292.796 218.791L297.53 221.521L260.582 242.834Z" fill="#C6DD78"/>
<path d="M44.4715 278.721L25.8698 295.025L27.9126 297.834L106.366 249.021L113.85 241.812L110.904 242.814L103.223 246.33L44.4715 278.721Z" fill="#F2B63E"/>
<path opacity="0.3" d="M148.677 276.796L119.762 260.1L108.428 264.578L20.2714 315.492V317.948L49.1856 334.625H61.4035L148.677 284.221V276.796Z" fill="#010101"/>
<path d="M137.48 275.125L131.528 271.688L125.95 274.929L131.921 280.645L137.48 275.125Z" fill="#584A44"/>
<path d="M131.352 278.036L130.566 277.604L136.164 274.363L136.95 274.815L131.352 278.036Z" fill="#372C29"/>
<path d="M129.997 277.271L129.211 276.8L134.789 273.578L135.595 274.03L129.997 277.271Z" fill="#372C29"/>
<path d="M128.621 276.464L127.836 276.012L133.414 272.791L134.22 273.243L128.621 276.464Z" fill="#372C29"/>
<path d="M132.845 272.458L127.246 275.679L126.461 275.227L132.039 271.986L132.845 272.458Z" fill="#372C29"/>
<path d="M131.882 278.351L125.95 274.934L122.002 281.769L127.934 291.63L131.882 278.351Z" fill="#372C29"/>
<path d="M127.423 284.866L126.618 284.414L130.566 277.598L131.352 278.03L127.423 284.866Z" fill="#0C0B0B"/>
<path d="M126.048 284.1L125.262 283.629L129.211 276.793L129.996 277.264L126.048 284.1Z" fill="#0C0B0B"/>
<path d="M124.673 283.299L123.868 282.828L127.835 276.012L128.621 276.464L124.673 283.299Z" fill="#0C0B0B"/>
<path d="M126.46 275.212L122.52 282.055L123.32 282.515L127.26 275.672L126.46 275.212Z" fill="#0C0B0B"/>
<path d="M127.934 285.185L122.002 281.768V288.21L127.934 291.628V285.185Z" fill="#211A1A"/>
<path d="M127.423 291.334L126.618 290.882V284.42L127.423 284.872V291.334Z" fill="#010101"/>
<path d="M126.048 290.547L125.262 290.095V283.633L126.048 284.104V290.547Z" fill="#010101"/>
<path d="M124.673 289.742L123.868 289.291V282.828L124.673 283.3V289.742Z" fill="#010101"/>
<path d="M123.318 282.512V288.955L122.512 288.504V282.041L123.318 282.512Z" fill="#010101"/>
<path d="M131.882 293.907L127.934 291.629V285.186L131.882 278.331L137.48 275.129L141.409 277.388L141.428 283.85L137.48 290.686L131.882 293.907Z" fill="#0C0B0B"/>
<path d="M133.08 289.86L136.262 288.033L138.502 284.144V280.47L137.971 280.176V283.829L135.732 287.719L132.55 289.565L133.08 289.86Z" fill="#372C29"/>
<path d="M132.55 289.567L135.732 287.721L137.971 283.831V280.178L136.262 279.156L133.768 280.61L132.707 281.671L130.841 284.892V288.565L132.55 289.567Z" fill="#D9D2C7"/>
<path d="M133.12 282.593L133.728 282.259L134.141 281.532V280.845L133.866 280.668L133.886 281.355L133.453 282.102L132.845 282.455L133.12 282.593Z" fill="#A39C95"/>
<path d="M132.845 282.452L133.454 282.098L133.886 281.352L133.866 280.664L133.768 280.605L133.08 281.018L132.688 281.666V282.354L132.845 282.452Z" fill="#0C0B0B"/>
<path d="M133.12 288.681L133.728 288.327L134.141 287.581V286.913L133.886 286.736V287.443L133.473 288.17L132.845 288.524L133.12 288.681Z" fill="#A39C95"/>
<path d="M132.845 288.522L133.473 288.169L133.886 287.442V286.735L133.729 286.656L133.12 286.99L132.688 287.737V288.424L132.845 288.522Z" fill="#0C0B0B"/>
<path d="M131.862 287.774L131.705 287.676V287.42L131.882 287.145L132.098 286.988L132.255 287.086V287.361L132.098 287.636L131.862 287.774Z" fill="#A39C95"/>
<path d="M136.891 282.948L136.714 282.85V282.594L136.891 282.319L137.127 282.162L137.284 282.28V282.535L137.127 282.81L136.891 282.948Z" fill="#A39C95"/>
<path d="M134.809 286.995L134.632 286.916V286.641L134.809 286.346L135.025 286.209L135.202 286.307V286.563L135.025 286.857L134.809 286.995Z" fill="#A39C95"/>
<path d="M134.809 281.335L134.632 281.236V280.961L134.809 280.686L135.025 280.549L135.202 280.647V280.922L135.025 281.177L134.809 281.335Z" fill="#A39C95"/>
<path d="M131.862 283.909L131.705 283.811V283.555L131.862 283.261L132.098 283.123L132.255 283.221V283.496L132.098 283.771L131.862 283.909Z" fill="#A39C95"/>
<path d="M131.234 286.736L131.823 286.382L132.255 285.655V284.948L132 284.791V285.498L131.568 286.225L130.959 286.559L131.234 286.736Z" fill="#A39C95"/>
<path d="M130.959 286.561L131.568 286.227L132 285.501V284.793L131.843 284.715L131.234 285.049L130.802 285.795V286.502L130.959 286.561Z" fill="#0C0B0B"/>
<path d="M135.968 282.199L136.577 281.845L137.009 281.118V280.411L136.734 280.254V280.961L136.302 281.688L135.712 282.041L135.968 282.199Z" fill="#A39C95"/>
<path d="M135.712 282.042L136.302 281.688L136.734 280.961V280.254L136.577 280.176L135.968 280.529L135.555 281.256V281.944L135.712 282.042Z" fill="#0C0B0B"/>
<path d="M135.987 285.792L136.577 285.458L137.009 284.712V284.024L136.734 283.867V284.555L136.302 285.301L135.712 285.635L135.987 285.792Z" fill="#A39C95"/>
<path d="M135.712 285.638L136.302 285.304L136.734 284.557V283.87L136.577 283.771L135.987 284.125L135.555 284.871V285.559L135.712 285.638Z" fill="#0C0B0B"/>
<path d="M133.611 285.638L133.1 285.323V284.321L133.729 283.261L134.593 282.75L135.123 283.045L135.202 284.105L134.593 285.166L133.611 285.638Z" fill="#B5AFA8"/>
<path d="M134.239 285.991L133.611 285.638V284.616L134.239 283.556L135.123 283.045L135.732 283.398L135.713 284.42L135.123 285.481L134.239 285.991Z" fill="#A39C95"/>
<path d="M75.9 310.66L69.9678 307.242L64.3696 310.464L70.3607 316.199L75.9 310.66Z" fill="#584A44"/>
<path d="M69.7911 313.589L68.9858 313.137L74.584 309.916L75.3697 310.368L69.7911 313.589Z" fill="#372C29"/>
<path d="M68.4162 312.804L67.6305 312.352L73.2091 309.131L74.0144 309.583L68.4162 312.804Z" fill="#372C29"/>
<path d="M67.0411 312.015L66.2554 311.563L71.8536 308.322L72.6393 308.794L67.0411 312.015Z" fill="#372C29"/>
<path d="M71.2645 307.989L65.6663 311.21L64.8806 310.759L70.4788 307.537L71.2645 307.989Z" fill="#372C29"/>
<path d="M70.3017 313.902L64.3696 310.465L60.4214 317.301L66.3535 327.181L70.3017 313.902Z" fill="#372C29"/>
<path d="M65.8428 320.422L65.0571 319.97L68.9857 313.135L69.7911 313.587L65.8428 320.422Z" fill="#0C0B0B"/>
<path d="M67.6114 312.334L63.6758 319.18L64.4761 319.64L68.4117 312.794L67.6114 312.334Z" fill="#0C0B0B"/>
<path d="M63.0928 318.85L62.3071 318.379L66.2553 311.562L67.0411 312.014L63.0928 318.85Z" fill="#0C0B0B"/>
<path d="M65.6661 311.21L61.7375 318.045L60.9322 317.594L64.8804 310.758L65.6661 311.21Z" fill="#0C0B0B"/>
<path d="M66.3535 320.736L60.4214 317.299V323.761L66.3535 327.179V320.736Z" fill="#211A1A"/>
<path d="M65.8428 326.887L65.0571 326.416V319.973L65.8428 320.424V326.887Z" fill="#010101"/>
<path d="M64.4876 326.082L63.6823 325.65V319.188L64.4876 319.639V326.082Z" fill="#010101"/>
<path d="M63.0928 325.293L62.3071 324.841V318.379L63.0928 318.85V325.293Z" fill="#010101"/>
<path d="M61.7375 318.046V324.508L60.9322 324.056V317.594L61.7375 318.046Z" fill="#010101"/>
<path d="M70.3018 329.46L66.3536 327.182V320.739L70.3018 313.884L75.9 310.662L79.8286 312.941L79.8482 319.403L75.9 326.239L70.3018 329.46Z" fill="#0C0B0B"/>
<path d="M71.5 325.391L74.6822 323.584L76.9214 319.675V316.021L76.4107 315.727V319.38L74.1714 323.269L70.9697 325.116L71.5 325.391Z" fill="#372C29"/>
<path d="M70.9696 325.12L74.1714 323.273L76.4107 319.384V315.73L74.6821 314.729L72.1875 316.162L71.1268 317.223L69.2607 320.445V324.118L70.9696 325.12Z" fill="#D9D2C7"/>
<path d="M71.5393 318.146L72.1483 317.812L72.5804 317.065V316.378L72.3054 316.221V316.908L71.8733 317.655L71.2643 318.008L71.5393 318.146Z" fill="#A39C95"/>
<path d="M71.2642 318.005L71.8731 317.651L72.3053 316.905V316.217L72.1874 316.158L71.5196 316.571L71.1267 317.219V317.906L71.2642 318.005Z" fill="#0C0B0B"/>
<path d="M71.5393 324.214L72.1482 323.88L72.5804 323.134V322.446L72.3054 322.289V322.996L71.8929 323.723L71.2839 324.077L71.5393 324.214Z" fill="#A39C95"/>
<path d="M71.2839 324.073L71.8928 323.72L72.3053 322.993V322.286L72.1481 322.207L71.5392 322.541L71.1267 323.287V323.975L71.2839 324.073Z" fill="#0C0B0B"/>
<path d="M70.3017 323.309L70.1445 323.23V322.955L70.3017 322.68L70.5374 322.543L70.6945 322.641V322.916L70.5374 323.191L70.3017 323.309Z" fill="#A39C95"/>
<path d="M75.3107 318.497L75.1536 318.398V318.143L75.3107 317.848L75.5464 317.711L75.7036 317.809V318.084L75.5464 318.359L75.3107 318.497Z" fill="#A39C95"/>
<path d="M73.2287 322.528L73.0519 322.449L73.0715 322.194L73.2287 321.899L73.4644 321.762L73.6215 321.86V322.115L73.4644 322.41L73.2287 322.528Z" fill="#A39C95"/>
<path d="M73.2284 316.885L73.0713 316.767V316.512L73.2284 316.217L73.4641 316.1L73.6213 316.198V316.453L73.4641 316.728L73.2284 316.885Z" fill="#A39C95"/>
<path d="M70.3017 319.46L70.1445 319.361V319.106L70.3017 318.811L70.5178 318.674L70.6945 318.772V319.047L70.5374 319.322L70.3017 319.46Z" fill="#A39C95"/>
<path d="M69.6731 322.29L70.2624 321.937L70.6945 321.21V320.503L70.4195 320.346V321.033L69.9874 321.78L69.3981 322.114L69.6731 322.29Z" fill="#A39C95"/>
<path d="M69.3982 322.114L69.9875 321.78L70.4196 321.034V320.346L70.2625 320.268L69.6732 320.602L69.241 321.328V322.035L69.3982 322.114Z" fill="#0C0B0B"/>
<path d="M74.4071 317.749L74.9964 317.396L75.4285 316.669V315.962L75.1731 315.805V316.512L74.741 317.239L74.1321 317.592L74.4071 317.749Z" fill="#A39C95"/>
<path d="M74.1321 317.593L74.741 317.239L75.1732 316.512V315.805L74.9964 315.727L74.4071 316.08L73.975 316.807V317.494L74.1321 317.593Z" fill="#0C0B0B"/>
<path d="M74.4071 321.345L74.9964 320.991L75.4285 320.265V319.557L75.1535 319.42L75.1731 320.107L74.741 320.834L74.1321 321.188L74.4071 321.345Z" fill="#A39C95"/>
<path d="M74.1321 321.19L74.741 320.837L75.1732 320.11L75.1535 319.422L74.9964 319.324L74.4071 319.678L73.975 320.405V321.092L74.1321 321.19Z" fill="#0C0B0B"/>
<path d="M72.0501 321.188L71.5197 320.874V319.853L72.1483 318.792L73.0126 318.281L73.5429 318.596L73.6215 319.656L73.0126 320.717L72.0501 321.188Z" fill="#B5AFA8"/>
<path d="M72.6591 321.521L72.0502 321.187V320.165L72.6591 319.104L73.543 318.594L74.152 318.947V319.949L73.543 321.01L72.6591 321.521Z" fill="#A39C95"/>
<path d="M69.8501 300.269L68.3769 298.619L78.2376 286.656L89.4733 275.008L104.068 266.601L115.422 262.495L133.1 261.258V263.772L69.8501 300.269Z" fill="#E19E38"/>
<path d="M146.202 266.426L146.928 275.128L144.787 277.603L144.453 276.149L143.845 271.415L146.202 266.426Z" fill="#CFD0D0"/>
<path d="M141.153 257.588L145.652 263.874L146.202 266.427L141.703 261.516L141.153 257.588Z" fill="#E19E38"/>
<path d="M144.709 271.415L146.202 266.426L142.254 260.906L140.977 264.049V267.722L142.902 270.256L144.709 271.415Z" fill="#E19E38"/>
<path d="M76.9215 299.05L62.7001 312.8L60.7751 321.679L60.5001 327.296L65.3322 324.507L65.8233 320.854L70.0465 313.291L76.1751 309.912L80.3393 312.348L80.4965 315.727L127.286 288.777V285.477L131.705 277.6L137.48 274.359L141.998 276.638L142.254 279.27L145.141 276.952L144.709 271.413L141.468 266.875L133.611 267.936L76.9215 299.05Z" fill="#0A8E46"/>
<path d="M80.6537 315.314L127.011 289.032L127.286 285.477L131.588 277.954L137.755 274.418L141.998 276.637L142.607 276.146L142.077 274.595L137.009 271.688L129.82 275.832L129.78 277.757L126.304 283.827L124.732 284.652L124.359 286.832L80.909 311.916L80.6537 315.314Z" fill="#FFC655"/>
<path d="M81.0268 311.681L80.5357 310.169L75.4482 307.242L68.2393 311.387L68.3768 313.115L64.9982 318.91L63.1714 320.148L62.3071 325.903L64.35 325.392L65.2928 324.94L65.8428 320.56L70.1446 313.43L76.0375 310.031L78.5911 312.015L81.0268 311.681Z" fill="#FFC655"/>
<path d="M129.82 275.834L131.371 277.248L129.525 281.53L126.736 285.302L124.732 284.654L129.82 275.834Z" fill="#FDEB7B"/>
<path d="M68.2394 311.387L69.8108 312.801L67.9644 317.083L65.1554 320.855L63.1715 320.147L68.2394 311.387Z" fill="#FDEB7B"/>
<path d="M143.354 280.568L142.607 276.148L137.952 273.457L131.371 277.248L126.736 285.302L126.362 287.993L81.4197 313.941L81.0268 311.682L76.3911 309.011L69.8107 312.802L65.1554 320.855L64.6447 326.002L66.3339 325.02V320.737L70.3018 313.882L75.9 310.661L79.8482 312.939V317.202L127.914 289.446V285.184L131.862 278.328L137.461 275.107L141.429 277.386V281.687L143.354 280.568Z" fill="#10A84B"/>
<path d="M108.664 275.362L131.018 262.457L115.5 263.42L108.664 265.895V275.362Z" fill="#10331B"/>
<path d="M107.82 266.188L102.811 267.995L89.4732 275.695L79.4553 286.086L69.7321 297.832L107.82 275.852V266.188Z" fill="#10331B"/>
<path d="M88.1179 246.722L105.777 245.484L133.1 261.258L115.421 262.495L98.2536 255.05L88.1179 246.722Z" fill="#10331B"/>
<path d="M81.3608 259.589L103.714 246.684L88.1965 247.666L81.3608 250.121V259.589Z" fill="#A39685"/>
<path d="M62.1697 259.233L61.4429 262.199L71.0679 267.739L89.4732 275.006L104.068 266.599L115.421 262.494L88.1179 246.721L76.7447 250.826L62.1697 259.233Z" fill="#C6DD78"/>
<path d="M49.4018 328.143L52.9375 328.418L53.3304 321.779L49.8339 320.836L49.4018 328.143Z" fill="#D9D9D8"/>
<path d="M21.9608 303.666L25.8697 295.023L26.9894 295.181V298.284L22.5108 305.081L21.9608 303.666Z" fill="#F2B63E"/>
<path d="M22.0982 312.368L21.5875 310.325L21.9607 303.666L22.5107 305.08L23.2964 308.007L22.5107 311.995L22.0982 312.368Z" fill="#D9D9D8"/>
<path d="M49.4018 328.143L22.0982 312.37L22.5107 305.082L37.4589 311.721L49.8339 320.836L49.4018 328.143Z" fill="#E9E8E8"/>
<path d="M26.9893 295.182L22.5107 305.082L49.8339 320.835L54.2928 310.955L41.3678 302.351L26.9893 295.182Z" fill="#FFC655"/>
<path d="M41.0535 282.846L26.9893 295.181L54.2928 310.955L68.3767 298.619L58.1232 289.622L41.0535 282.846Z" fill="#C6DD78"/>
<path d="M89.4733 275.01L72.0697 264.952L65.2733 262.851L62.7786 259.59L62.1697 259.236L50.934 270.885L41.0536 282.847L68.3769 298.62L78.2376 286.658L89.4733 275.01Z" fill="#746757"/>
<path d="M62.7785 259.59L62.1696 259.943L52.1321 270.315L42.4285 282.061L72.0696 264.952L62.7785 259.59Z" fill="#A39685"/>
<path d="M105.777 245.486L133.1 261.259L141.153 257.586L113.85 241.812L105.777 245.486Z" fill="#FDEB7B"/>
<path d="M52.9374 328.417L60.4409 327.553L60.7749 321.68L53.3302 321.778L52.9374 328.417Z" fill="#CFD0D0"/>
<path d="M141.153 257.588L133.1 261.261L68.3767 298.622L54.2928 310.958L49.8339 320.838L53.3303 321.781L60.7749 321.683L63.9767 314.591L77.5303 302.727L133.807 270.415L141.468 266.879L142.253 260.908L141.153 257.588Z" fill="#10A84B"/>
<path d="M87.9805 274.147L88.6287 274.52L90.7305 272.575L102.575 265.74L112.436 262.165L114.577 262.008L113.929 261.634L111.532 261.359L102.202 264.561L90.259 271.672L87.9805 274.147Z" fill="#10331B"/>
<path d="M88.6285 274.516L103.223 266.089L114.577 262.004L112.18 261.729L102.85 264.93L90.9071 272.041L88.6285 274.516Z" fill="#10331B"/>
<path d="M63.0142 259.729L63.6624 260.102L65.7642 258.157L77.5892 251.322L87.4695 247.747L89.6106 247.59L88.9624 247.216L86.5659 246.961L77.2552 250.143L65.2927 257.254L63.0142 259.729Z" fill="#10331B"/>
<path d="M63.6625 260.1L78.2375 251.693L89.6107 247.587L87.2143 247.332L77.884 250.514L65.9411 257.625L63.6625 260.1Z" fill="#10331B"/>
<path d="M60.009 328.673L64.6447 326.002L65.1554 320.855L62.7787 321.523L60.3233 323.154L59.7537 328.045L60.009 328.673Z" fill="#0A8E46"/>
<path d="M53.0358 329.498L52.584 326.807L53.5661 323.33L56.7876 322.643L61.0108 323.252L60.009 328.673L53.0358 329.498Z" fill="#10A84B"/>
<path d="M48.3999 329.125L47.1035 327.868L48.9499 322.328L50.9732 321.955L53.566 323.33L53.0357 329.498L48.3999 329.125Z" fill="#10A84B"/>
<path d="M20.5465 304.277L19.9769 311.074L20.1929 312.802L20.6447 312.193L21.0965 305.77L20.5465 304.277Z" fill="#F2B63E"/>
<path d="M20.7429 306.004L20.1929 312.8L48.4001 329.124L48.9501 322.327L47.8894 320.52L22.5108 306.004H20.7429Z" fill="#C6DD78"/>
<path d="M63.1713 320.146L60.7749 321.679L53.3302 321.777L49.8338 320.834L22.5106 305.08L21.9606 303.666L20.5463 304.275L20.7428 306.004L48.9499 322.327L53.566 323.329L61.0106 323.25L65.1552 320.853L63.1713 320.146Z" fill="#C6DD78"/>
<path d="M147.989 266.012L148.736 270.431L147.027 276.383L145.75 272.022L147.243 266.876L147.989 266.012Z" fill="#E19E38"/>
<path d="M143.353 280.572L147.027 276.388L146.261 271.969H145.789L142.607 276.153L142.253 279.394L143.353 280.572Z" fill="#E19E38"/>
<path d="M142.077 274.596L144.709 271.414L146.202 266.425L145.652 263.871L143.393 260.709L147.204 262.909L147.989 266.013L146.261 271.964L142.607 276.148L142.077 274.596Z" fill="#FDEB7B"/>
<path d="M44.3338 315.766L29.3856 307.123L32.4695 300.268L47.4374 308.891L44.3338 315.766Z" fill="#10331B"/>
<path d="M143.648 262.89L143.059 260.238L144.414 262.144L145.004 264.756L144.12 264.56L143.648 262.89Z" fill="#AC2924"/>
<path d="M145.004 264.757L143.845 270.217L142.489 268.332L143.648 262.891L145.004 264.757Z" fill="#F15E54"/>
<path d="M50.816 318.654L54.2928 319.735L54.8035 318.674L51.3071 317.594L50.816 318.654Z" fill="#D66C27"/>
<path d="M51.3071 317.593L45.1196 314.018L44.6481 315.078L50.816 318.653L51.3071 317.593Z" fill="#F99E41"/>
<path d="M59.0464 318.674H54.8036L54.2928 319.735H58.5357L59.0464 318.674Z" fill="#D66C27"/>
<path d="M53.0749 313.628L46.907 310.072L45.1195 314.02L51.307 317.595L53.0749 313.628Z" fill="#C6DD78"/>
<path d="M30.1517 305.378L23.9839 301.822L23.5125 302.883L29.6803 306.438L30.1517 305.378Z" fill="#F99E41"/>
<path d="M31.9392 301.429L25.7713 297.854L23.9838 301.821L30.1517 305.377L31.9392 301.429Z" fill="#FDEB7B"/>
<path d="M51.3071 317.595L54.8036 318.675L56.6893 314.727L53.075 313.627L51.3071 317.595Z" fill="#FFC655"/>
<path d="M60.9322 314.729H56.6893L54.8036 318.677H59.0464L60.9322 314.729Z" fill="#FFC655"/>
<path d="M23.4144 300.483L25.2019 296.516L25.7715 297.851L23.984 301.819L23.4144 300.483Z" fill="#FFC655"/>
<path d="M22.9232 301.547L23.4143 300.486L23.9839 301.822L23.5125 302.883L22.9232 301.547Z" fill="#D66C27"/>
<path d="M180.616 368.313L185.134 373.283L235.027 344.487V340.656L224.341 343.799L180.616 368.313Z" fill="#10331B"/>
<path d="M171.934 367.625L171.482 370.689L173.152 373.282H185.134V369.452L179.83 367.625H171.934Z" fill="#164723"/>
<path d="M97.075 325.53V329.36L173.152 373.281V369.451L172.877 364.305L103.793 324.803L97.075 325.53Z" fill="#10331B"/>
<path d="M173.152 369.456H185.134L235.027 340.66L146.968 289.824L97.075 318.621V325.535L173.152 369.456Z" fill="#10A84B"/>
<path d="M152.213 295.494H150.936L149.875 295.946V296.83L153.588 298.971H154.864L155.945 298.362L155.925 297.478L152.213 295.494Z" fill="#1D1D1B"/>
<path d="M152.213 294.594H150.936L149.875 295.222V295.949L153.588 298.11H154.864L155.945 297.481L155.925 296.754L152.213 294.594Z" fill="#C6DD78"/>
<path d="M157.536 298.561H156.259L155.198 299.032V299.896L158.93 302.057H160.207L161.268 301.448V300.564L157.536 298.561Z" fill="#1D1D1B"/>
<path d="M157.536 297.678H156.259L155.198 298.287V299.033L158.93 301.174H160.207L161.268 300.565V299.819L157.536 297.678Z" fill="#C6DD78"/>
<path d="M162.859 301.645H161.582L160.521 302.096V302.98L164.254 305.141H165.53L166.591 304.512V303.628L162.859 301.645Z" fill="#1D1D1B"/>
<path d="M162.859 300.758H161.582L160.521 301.367V302.094L164.254 304.254H165.53L166.591 303.626V302.899L162.859 300.758Z" fill="#C6DD78"/>
<path d="M168.202 304.709H166.925L165.864 305.18V306.064L169.577 308.225H170.853L171.914 307.596V306.713L168.202 304.709Z" fill="#1D1D1B"/>
<path d="M168.202 303.824H166.925L165.864 304.433V305.18L169.577 307.34H170.853L171.914 306.712V305.985L168.202 303.824Z" fill="#C6DD78"/>
<path d="M173.525 307.793H172.248L171.188 308.245V309.148L174.9 311.289H176.177L177.238 310.68V309.797L173.525 307.793Z" fill="#1D1D1B"/>
<path d="M173.525 306.906H172.248L171.188 307.515V308.242L174.9 310.403H176.177L177.238 309.794V309.047L173.525 306.906Z" fill="#C6DD78"/>
<path d="M178.848 310.877H177.571L176.511 311.329V312.213L180.243 314.354H181.52L182.58 313.764V312.861L178.848 310.877Z" fill="#1D1D1B"/>
<path d="M178.848 309.975H177.571L176.511 310.603V311.33L180.243 313.491H181.52L182.58 312.862V312.135L178.848 309.975Z" fill="#C6DD78"/>
<path d="M184.171 313.943H182.894L181.834 314.415V315.299L185.566 317.44H186.843L187.903 316.831V315.947L184.171 313.943Z" fill="#1D1D1B"/>
<path d="M184.171 313.057H182.894L181.834 313.666V314.412L185.566 316.553H186.843L187.903 315.944V315.217L184.171 313.057Z" fill="#C6DD78"/>
<path d="M189.514 317.027H188.238L187.157 317.479V318.363L190.889 320.524H192.166L193.227 319.895V319.011L189.514 317.027Z" fill="#1D1D1B"/>
<path d="M189.514 316.139H188.238L187.157 316.748V317.474L190.889 319.635H192.166L193.227 319.007V318.28L189.514 316.139Z" fill="#C6DD78"/>
<path d="M194.837 320.088H193.561L192.48 320.559V321.443L196.212 323.584H197.489L198.57 322.975V322.091L194.837 320.088Z" fill="#1D1D1B"/>
<path d="M194.837 319.205H193.561L192.48 319.834V320.56L196.212 322.702H197.489L198.57 322.093V321.366L194.837 319.205Z" fill="#C6DD78"/>
<path d="M200.161 323.172H198.884L197.823 323.624V324.508L201.555 326.668H202.832L203.893 326.059V325.175L200.161 323.172Z" fill="#1D1D1B"/>
<path d="M200.161 322.289H198.884L197.823 322.898V323.625L201.555 325.785H202.832L203.893 325.177V324.45L200.161 322.289Z" fill="#C6DD78"/>
<path d="M205.484 326.238H204.207L203.146 326.71V327.594L206.879 329.754H208.155L209.216 329.126V328.261L205.484 326.238Z" fill="#1D1D1B"/>
<path d="M205.484 325.375H204.207L203.146 325.984V326.711L206.879 328.871H208.155L209.216 328.263V327.516L205.484 325.375Z" fill="#C6DD78"/>
<path d="M210.827 329.322H209.53L208.47 329.794V330.678L212.202 332.819H213.479L214.539 332.21V331.326L210.827 329.322Z" fill="#1D1D1B"/>
<path d="M210.827 328.436H209.53L208.47 329.045V329.791L212.202 331.932H213.479L214.539 331.323V330.596L210.827 328.436Z" fill="#C6DD78"/>
<path d="M216.13 332.406H214.873L213.793 332.858V333.762L217.525 335.903H218.802L219.862 335.294V334.41L216.13 332.406Z" fill="#1D1D1B"/>
<path d="M216.13 331.521H214.873L213.793 332.13V332.857L217.525 335.018H218.802L219.862 334.409V333.663L216.13 331.521Z" fill="#C6DD78"/>
<path d="M221.473 335.467H220.197L219.136 335.938V336.822L222.868 338.983H224.125L225.186 338.354V337.47L221.473 335.467Z" fill="#1D1D1B"/>
<path d="M221.473 334.586H220.197L219.136 335.195V335.941L222.868 338.082H224.125L225.186 337.473V336.747L221.473 334.586Z" fill="#C6DD78"/>
<path d="M146.889 298.561H145.612L141.88 300.564V301.448L145.612 303.589H146.889L150.602 301.448V300.564L146.889 298.561Z" fill="#1D1D1B"/>
<path d="M146.889 297.678H145.612L141.88 299.819V300.565L145.612 302.706H146.889L150.602 300.565V299.819L146.889 297.678Z" fill="#C6DD78"/>
<path d="M152.212 301.627H150.936L147.223 303.631V304.514L150.936 306.675H152.212L155.945 304.514V303.631L152.212 301.627Z" fill="#1D1D1B"/>
<path d="M152.212 300.738H150.936L147.223 302.899V303.626L150.936 305.786H152.212L155.945 303.626V302.899L152.212 300.738Z" fill="#C6DD78"/>
<path d="M157.536 304.709H156.259L152.547 306.713V307.596L156.259 309.738H157.536L161.268 307.596V306.713L157.536 304.709Z" fill="#1D1D1B"/>
<path d="M157.536 303.824H156.259L152.547 305.965V306.712L156.259 308.872H157.536L161.268 306.712V305.965L157.536 303.824Z" fill="#C6DD78"/>
<path d="M162.859 307.771H161.582L157.87 309.775V310.679L161.582 312.82H162.859L166.591 310.679V309.775L162.859 307.771Z" fill="#1D1D1B"/>
<path d="M162.859 306.889H161.582L157.87 309.049V309.776L161.582 311.937H162.859L166.591 309.776V309.049L162.859 306.889Z" fill="#C6DD78"/>
<path d="M168.202 310.877H166.925L163.193 312.861V313.745L166.925 315.886H168.202L171.914 313.745V312.861L168.202 310.877Z" fill="#1D1D1B"/>
<path d="M168.202 309.975H166.925L163.193 312.135V312.862L166.925 315.023H168.202L171.914 312.862V312.135L168.202 309.975Z" fill="#C6DD78"/>
<path d="M173.525 313.943H172.248L168.516 315.947V316.831L172.248 318.972H173.525L177.257 316.831V315.947L173.525 313.943Z" fill="#1D1D1B"/>
<path d="M173.525 313.057H172.248L168.516 315.217V315.944L172.248 318.085H173.525L177.257 315.944V315.217L173.525 313.057Z" fill="#C6DD78"/>
<path d="M178.848 317.006H177.571L173.859 319.009V319.893L177.571 322.054H178.848L182.58 319.893V319.009L178.848 317.006Z" fill="#1D1D1B"/>
<path d="M178.848 316.121H177.571L173.859 318.282V319.009L177.571 321.169H178.848L182.58 319.009V318.282L178.848 316.121Z" fill="#C6DD78"/>
<path d="M184.171 320.088H182.914L179.182 322.091V322.975L182.914 325.116H184.171L187.903 322.975V322.091L184.171 320.088Z" fill="#1D1D1B"/>
<path d="M184.171 319.205H182.914L179.182 321.366V322.093L182.914 324.234H184.171L187.903 322.093V321.366L184.171 319.205Z" fill="#C6DD78"/>
<path d="M189.514 323.172H188.238L184.505 325.175V326.059L188.238 328.2H189.514L193.227 326.059V325.175L189.514 323.172Z" fill="#1D1D1B"/>
<path d="M189.514 322.289H188.238L184.505 324.43V325.177L188.238 327.318H189.514L193.227 325.177V324.43L189.514 322.289Z" fill="#C6DD78"/>
<path d="M194.837 326.238H193.561L189.829 328.242V329.126L193.561 331.287H194.837L198.57 329.126V328.242L194.837 326.238Z" fill="#1D1D1B"/>
<path d="M194.837 325.355H193.561L189.829 327.516V328.243L193.561 330.404H194.837L198.57 328.243V327.516L194.837 325.355Z" fill="#C6DD78"/>
<path d="M200.161 329.322H198.884L195.152 331.326V332.21L198.884 334.351H200.161L203.893 332.21V331.326L200.161 329.322Z" fill="#1D1D1B"/>
<path d="M200.161 328.436H198.884L195.152 330.596V331.323L198.884 333.464H200.161L203.893 331.323V330.596L200.161 328.436Z" fill="#C6DD78"/>
<path d="M205.484 332.387H204.207L200.494 334.39V335.274L204.207 337.435H205.484L209.216 335.274V334.39L205.484 332.387Z" fill="#1D1D1B"/>
<path d="M205.484 331.5H204.207L200.494 333.661V334.388L204.207 336.548H205.484L209.216 334.388V333.661L205.484 331.5Z" fill="#C6DD78"/>
<path d="M210.827 335.467H209.55L205.818 337.47V338.354L209.55 340.515H210.827L214.539 338.354V337.47L210.827 335.467Z" fill="#1D1D1B"/>
<path d="M210.827 334.586H209.55L205.818 336.727V337.473L209.55 339.634H210.827L214.539 337.473V336.727L210.827 334.586Z" fill="#C6DD78"/>
<path d="M216.15 338.555H214.873L211.161 340.539V341.442L214.873 343.583H216.15L219.882 341.442V340.539L216.15 338.555Z" fill="#1D1D1B"/>
<path d="M216.15 337.668H214.873L211.161 339.809V340.536L214.873 342.697H216.15L219.882 340.536V339.809L216.15 337.668Z" fill="#C6DD78"/>
<path d="M141.566 301.627H140.289L136.557 303.631V304.514L140.289 306.675H141.566L145.298 304.514V303.631L141.566 301.627Z" fill="#1D1D1B"/>
<path d="M141.566 300.738H140.289L136.557 302.899V303.626L140.289 305.786H141.566L145.298 303.626V302.899L141.566 300.738Z" fill="#C6DD78"/>
<path d="M146.889 304.709H145.612L141.9 306.713V307.596L145.612 309.738H146.889L150.602 307.596V306.713L146.889 304.709Z" fill="#1D1D1B"/>
<path d="M146.889 303.805H145.612L141.9 305.965V306.712L145.612 308.873H146.889L150.602 306.712V305.965L146.889 303.805Z" fill="#C6DD78"/>
<path d="M152.212 307.771H150.955L147.223 309.775V310.659L150.955 312.82H152.212L155.945 310.659V309.775L152.212 307.771Z" fill="#1D1D1B"/>
<path d="M152.212 306.889H150.955L147.223 309.049V309.776L150.955 311.937H152.212L155.945 309.776V309.049L152.212 306.889Z" fill="#C6DD78"/>
<path d="M157.555 310.855H156.279L152.547 312.859V313.743L156.279 315.884H157.555L161.268 313.743V312.859L157.555 310.855Z" fill="#1D1D1B"/>
<path d="M157.555 309.975H156.279L152.547 312.135V312.862L156.279 315.023H157.555L161.268 312.862V312.135L157.555 309.975Z" fill="#C6DD78"/>
<path d="M162.878 313.943H161.602L157.87 315.927V316.811L161.602 318.972H162.878L166.611 316.811V315.927L162.878 313.943Z" fill="#1D1D1B"/>
<path d="M162.878 313.037H161.602L157.87 315.198V315.925L161.602 318.085H162.878L166.611 315.925V315.198L162.878 313.037Z" fill="#C6DD78"/>
<path d="M168.202 317.006H166.925L163.193 319.009V319.893L166.925 322.054H168.202L171.914 319.893V319.009L168.202 317.006Z" fill="#1D1D1B"/>
<path d="M168.202 316.121H166.925L163.193 318.262V319.009L166.925 321.169H168.202L171.914 319.009V318.262L168.202 316.121Z" fill="#C6DD78"/>
<path d="M173.525 320.088H172.268L168.536 322.091V322.975L172.268 325.116H173.525L177.257 322.975V322.091L173.525 320.088Z" fill="#1D1D1B"/>
<path d="M173.525 319.205H172.268L168.536 321.366V322.093L172.268 324.234H173.525L177.257 322.093V321.366L173.525 319.205Z" fill="#C6DD78"/>
<path d="M178.848 323.152H177.571L173.859 325.156V326.04L177.571 328.201H178.848L182.58 326.04V325.156L178.848 323.152Z" fill="#1D1D1B"/>
<path d="M178.848 322.289H177.571L173.859 324.43V325.157L177.571 327.318H178.848L182.58 325.157V324.43L178.848 322.289Z" fill="#C6DD78"/>
<path d="M184.191 326.238H182.914L179.182 328.242V329.126L182.914 331.287H184.191L187.903 329.126V328.242L184.191 326.238Z" fill="#1D1D1B"/>
<path d="M184.191 325.355H182.914L179.182 327.516V328.243L182.914 330.384H184.191L187.903 328.243V327.516L184.191 325.355Z" fill="#C6DD78"/>
<path d="M189.514 329.303H188.238L184.505 331.306V332.21L188.238 334.351H189.514L193.246 332.21V331.306L189.514 329.303Z" fill="#1D1D1B"/>
<path d="M189.514 328.436H188.238L184.505 330.577V331.303L188.238 333.464H189.514L193.246 331.303V330.577L189.514 328.436Z" fill="#C6DD78"/>
<path d="M194.838 332.387H193.58L189.848 334.39V335.274L193.58 337.435H194.838L198.57 335.274V334.39L194.838 332.387Z" fill="#1D1D1B"/>
<path d="M194.838 331.5H193.58L189.848 333.661V334.388L193.58 336.548H194.838L198.57 334.388V333.661L194.838 331.5Z" fill="#C6DD78"/>
<path d="M200.18 335.467H198.903L195.171 337.47V338.354L198.903 340.495H200.18L203.893 338.354V337.47L200.18 335.467Z" fill="#1D1D1B"/>
<path d="M200.18 334.586H198.903L195.171 336.727V337.473L198.903 339.615H200.18L203.893 337.473V336.727L200.18 334.586Z" fill="#C6DD78"/>
<path d="M205.503 338.555H204.227L200.494 340.539V341.423L204.227 343.583H205.503L209.236 341.423V340.539L205.503 338.555Z" fill="#1D1D1B"/>
<path d="M205.503 337.668H204.227L200.494 339.809V340.536L204.227 342.697H205.503L209.236 340.536V339.809L205.503 337.668Z" fill="#C6DD78"/>
<path d="M136.243 304.709H134.966L131.234 306.713V307.577L134.966 309.738H136.243L139.975 307.577V306.713L136.243 304.709Z" fill="#1D1D1B"/>
<path d="M136.243 303.805H134.966L131.234 305.965V306.712L134.966 308.853H136.243L139.975 306.712V305.965L136.243 303.805Z" fill="#C6DD78"/>
<path d="M141.566 307.771H140.289L136.577 309.775V310.659L140.289 312.82H141.566L145.298 310.659V309.775L141.566 307.771Z" fill="#1D1D1B"/>
<path d="M141.566 306.889H140.289L136.577 309.049V309.776L140.289 311.937H141.566L145.298 309.776V309.049L141.566 306.889Z" fill="#C6DD78"/>
<path d="M146.889 310.838H145.632L141.9 312.861V313.745L145.632 315.886H146.889L150.621 313.745V312.861L146.889 310.838Z" fill="#1D1D1B"/>
<path d="M146.889 309.975H145.632L141.9 312.135V312.862L145.632 315.003H146.889L150.621 312.862V312.135L146.889 309.975Z" fill="#C6DD78"/>
<path d="M152.232 313.943H150.955L147.223 315.927V316.811L150.955 318.972H152.232L155.945 316.811V315.927L152.232 313.943Z" fill="#1D1D1B"/>
<path d="M152.232 313.037H150.955L147.223 315.198V315.925L150.955 318.085H152.232L155.945 315.925V315.198L152.232 313.037Z" fill="#C6DD78"/>
<path d="M157.555 317.006H156.279L152.547 319.009V319.893L156.279 322.054H157.555L161.288 319.893V319.009L157.555 317.006Z" fill="#1D1D1B"/>
<path d="M157.555 316.121H156.279L152.547 318.262V319.009L156.279 321.169H157.555L161.288 319.009V318.262L157.555 316.121Z" fill="#C6DD78"/>
<path d="M162.879 320.068H161.602L157.889 322.092V322.956L161.602 325.117H162.879L166.611 322.956V322.092L162.879 320.068Z" fill="#1D1D1B"/>
<path d="M162.879 319.205H161.602L157.889 321.346V322.093L161.602 324.234H162.879L166.611 322.093V321.346L162.879 319.205Z" fill="#C6DD78"/>
<path d="M168.202 323.152H166.945L163.212 325.156V326.04L166.945 328.201H168.202L171.934 326.04V325.156L168.202 323.152Z" fill="#1D1D1B"/>
<path d="M168.202 322.27H166.945L163.212 324.43V325.157L166.945 327.318H168.202L171.934 325.157V324.43L168.202 322.27Z" fill="#C6DD78"/>
<path d="M173.545 326.238H172.268L168.536 328.242V329.126L172.268 331.287H173.545L177.257 329.126V328.242L173.545 326.238Z" fill="#1D1D1B"/>
<path d="M173.545 325.355H172.268L168.536 327.497V328.243L172.268 330.384H173.545L177.257 328.243V327.497L173.545 325.355Z" fill="#C6DD78"/>
<path d="M178.868 329.303H177.591L173.859 331.306V332.19L177.591 334.351H178.868L182.6 332.19V331.306L178.868 329.303Z" fill="#1D1D1B"/>
<path d="M178.868 328.436H177.591L173.859 330.577V331.303L177.591 333.464H178.868L182.6 331.303V330.577L178.868 328.436Z" fill="#C6DD78"/>
<path d="M184.191 332.387H182.934L179.202 334.39V335.274L182.934 337.435H184.191L187.923 335.274V334.39L184.191 332.387Z" fill="#1D1D1B"/>
<path d="M184.191 331.5H182.934L179.202 333.661V334.388L182.934 336.548H184.191L187.923 334.388V333.661L184.191 331.5Z" fill="#C6DD78"/>
<path d="M189.514 335.467H188.237L184.525 337.47V338.354L188.237 340.495H189.514L193.246 338.354V337.47L189.514 335.467Z" fill="#1D1D1B"/>
<path d="M189.514 334.586H188.237L184.525 336.727V337.473L188.237 339.615H189.514L193.246 337.473V336.727L189.514 334.586Z" fill="#C6DD78"/>
<path d="M194.857 338.531H193.58L189.848 340.535V341.419L193.58 343.579H194.857L198.57 341.419V340.535L194.857 338.531Z" fill="#1D1D1B"/>
<path d="M194.857 337.668H193.58L189.848 339.809V340.536L193.58 342.697H194.857L198.57 340.536V339.809L194.857 337.668Z" fill="#C6DD78"/>
<path d="M214.539 343.621L210.827 341.617H209.55L205.818 343.621H203.912L200.18 341.617H198.903L195.171 343.621V344.505L204.227 349.73H205.503L214.539 344.505V343.621Z" fill="#1D1D1B"/>
<path d="M214.539 343.622V342.895L210.827 340.734H209.55L204.875 343.425L200.18 340.734H198.903L195.171 342.875V343.622L204.227 348.847H205.503L214.539 343.622Z" fill="#C6DD78"/>
<path d="M139.975 312.859L130.92 307.771H129.643L125.93 309.775V310.659L134.966 315.884H136.243L139.975 313.743V312.859Z" fill="#1D1D1B"/>
<path d="M139.975 312.114L130.92 306.889H129.643L125.93 309.049V309.776L134.966 315.001H136.243L139.975 312.86V312.114Z" fill="#C6DD78"/>
<path d="M141.586 313.943H140.309L136.577 315.927V316.811L140.309 318.972H141.586L145.298 316.811V315.927L141.586 313.943Z" fill="#1D1D1B"/>
<path d="M141.586 313.037H140.309L136.577 315.198V315.925L140.309 318.085H141.586L145.298 315.925V315.198L141.586 313.037Z" fill="#C6DD78"/>
<path d="M146.909 317.006H145.632L141.9 319.009V319.893L145.632 322.054H146.909L150.621 319.893V319.009L146.909 317.006Z" fill="#1D1D1B"/>
<path d="M146.909 316.121H145.632L141.9 318.262V319.009L145.632 321.15H146.909L150.621 319.009V318.262L146.909 316.121Z" fill="#C6DD78"/>
<path d="M152.232 320.068H150.955L147.223 322.092V322.956L150.955 325.117H152.232L155.964 322.956V322.092L152.232 320.068Z" fill="#1D1D1B"/>
<path d="M152.232 319.205H150.955L147.223 321.346V322.093L150.955 324.234H152.232L155.964 322.093V321.346L152.232 319.205Z" fill="#C6DD78"/>
<path d="M157.555 323.152H156.279L152.547 325.156V326.04L156.279 328.201H157.555L161.288 326.04V325.156L157.555 323.152Z" fill="#1D1D1B"/>
<path d="M157.555 322.27H156.279L152.547 324.43V325.157L156.279 327.318H157.555L161.288 325.157V324.43L157.555 322.27Z" fill="#C6DD78"/>
<path d="M162.898 326.238H161.621L157.889 328.222V329.126L161.621 331.267H162.898L166.63 329.126L166.611 328.222L162.898 326.238Z" fill="#1D1D1B"/>
<path d="M162.898 325.355H161.621L157.889 327.497V328.223L161.621 330.384H162.898L166.63 328.223L166.611 327.497L162.898 325.355Z" fill="#C6DD78"/>
<path d="M168.221 329.303H166.945L163.212 331.306V332.19L166.945 334.351H168.221L171.934 332.19V331.306L168.221 329.303Z" fill="#1D1D1B"/>
<path d="M168.221 328.416H166.945L163.212 330.577V331.304L166.945 333.464H168.221L171.934 331.304V330.577L168.221 328.416Z" fill="#C6DD78"/>
<path d="M173.545 332.387H172.268L168.536 334.39V335.274L172.268 337.435H173.545L177.257 335.274V334.39L173.545 332.387Z" fill="#1D1D1B"/>
<path d="M173.545 331.48H172.268L168.536 333.661V334.388L172.268 336.529H173.545L177.257 334.388V333.661L173.545 331.48Z" fill="#C6DD78"/>
<path d="M178.868 335.449H177.591L173.879 337.453V338.337L177.591 340.497H178.868L182.6 338.337V337.453L178.868 335.449Z" fill="#1D1D1B"/>
<path d="M178.868 334.586H177.591L173.879 336.727V337.454L177.591 339.615H178.868L182.6 337.454V336.727L178.868 334.586Z" fill="#C6DD78"/>
<path d="M184.191 338.531H182.934L179.202 340.535V341.419L182.934 343.579H184.211L187.923 341.419V340.535L184.191 338.531Z" fill="#1D1D1B"/>
<path d="M184.191 337.668H182.934L179.202 339.809V340.536L182.934 342.697H184.211L187.923 340.536V339.809L184.191 337.668Z" fill="#C6DD78"/>
<path d="M189.534 341.617H188.257L184.525 343.621V344.485L188.257 346.646H189.534L193.246 344.485V343.621L189.534 341.617Z" fill="#1D1D1B"/>
<path d="M189.534 340.711H188.257L184.525 342.872V343.618L188.257 345.759H189.534L193.246 343.618V342.872L189.534 340.711Z" fill="#C6DD78"/>
<path d="M203.913 349.769L194.857 344.682H193.58L189.848 346.685V347.589L198.923 352.794H200.18L203.913 350.633V349.769Z" fill="#1D1D1B"/>
<path d="M203.913 349.024L194.857 343.799H193.58L189.848 345.94V346.686L198.923 351.911H200.18L203.913 349.77V349.024Z" fill="#C6DD78"/>
<path d="M125.596 310.838H124.32L120.607 312.861V313.725L124.32 315.886H125.596L129.329 313.725V312.861L125.596 310.838Z" fill="#1D1D1B"/>
<path d="M125.596 309.975H124.32L120.607 312.116V312.862L124.32 315.003H125.596L129.329 312.862V312.116L125.596 309.975Z" fill="#C6DD78"/>
<path d="M130.92 313.92H129.663L125.93 315.924V316.807L129.663 318.968H130.939L134.652 316.807V315.924L130.92 313.92Z" fill="#1D1D1B"/>
<path d="M130.92 313.037H129.663L125.93 315.198V315.925L129.663 318.066H130.939L134.652 315.925V315.198L130.92 313.037Z" fill="#C6DD78"/>
<path d="M136.262 317.006H134.986L131.253 318.99V319.893L134.986 322.034H136.262L139.975 319.893V318.99L136.262 317.006Z" fill="#1D1D1B"/>
<path d="M136.262 316.121H134.986L131.253 318.262V318.989L134.986 321.15H136.262L139.975 318.989V318.262L136.262 316.121Z" fill="#C6DD78"/>
<path d="M182.6 343.62L141.586 320.068H140.309L136.577 322.072V322.956L177.611 346.645H178.888L182.6 344.484V343.62Z" fill="#1D1D1B"/>
<path d="M182.6 342.877L141.586 319.188H140.309L136.577 321.348V322.075L177.611 345.764H178.888L182.6 343.623V342.877Z" fill="#C6DD78"/>
<path d="M184.211 344.682H182.934L179.202 346.685V347.569L182.934 349.73H184.211L187.943 347.569V346.685L184.211 344.682Z" fill="#1D1D1B"/>
<path d="M184.211 343.799H182.934L179.202 345.94V346.686L182.934 348.827H184.211L187.943 346.686V345.94L184.211 343.799Z" fill="#C6DD78"/>
<path d="M189.534 347.768H188.257L184.525 349.771V350.635L188.257 352.796H189.534L193.266 350.635V349.771L189.534 347.768Z" fill="#1D1D1B"/>
<path d="M189.534 346.881H188.257L184.525 349.022V349.768L188.257 351.909H189.534L193.266 349.768V349.022L189.534 346.881Z" fill="#C6DD78"/>
<path d="M194.857 350.83H193.58L189.868 352.834V353.718L193.58 355.878H194.857L198.589 353.718V352.834L194.857 350.83Z" fill="#1D1D1B"/>
<path d="M194.857 349.947H193.58L189.868 352.108V352.835L193.58 354.995H194.857L198.589 352.835V352.108L194.857 349.947Z" fill="#C6DD78"/>
<path d="M154.039 354.917L122.296 336.571L139.72 326.514L171.482 344.84L154.039 354.917Z" fill="#86C543"/>
<path d="M230.882 335.468L235.027 340.654L236.873 339.593V281.98L230.882 280.625V335.468Z" fill="#10331B"/>
<path d="M152.959 228.75L154.786 227.689L230.882 271.611L229.566 274.381L154.687 231.559L152.959 228.75Z" fill="#0D6936"/>
<path d="M229.036 272.668L230.882 271.607L236.873 281.979L235.027 283.04L230.489 278.325L229.036 272.668Z" fill="#164723"/>
<path d="M152.959 228.75L146.968 232.207L154.118 268.291L146.968 284.28V289.82L235.027 340.655V335.136L231.039 309.62L235.027 283.043L229.036 272.671L152.959 228.75Z" fill="#37B550"/>
<path d="M235.027 335.138L146.968 284.282V232.209L235.027 283.045V335.138Z" fill="#C6DD78"/>
<path d="M190.595 252.811L190.025 253.144V254.068L190.595 255.05L191.38 255.502L191.97 255.187V254.264L191.38 253.282L190.595 252.811Z" fill="#3D3D3C"/>
<path opacity="0.3" d="M96.1322 186.419L51.1697 160.451L54.1947 158.684L99.1572 184.651L96.1322 186.419Z" fill="#010101"/>
<path d="M54.4696 63.4943L57.4946 61.7461L95.8571 83.9032L93.0089 86.83L73.8964 77.9318L54.4696 63.4943Z" fill="#C6DD78"/>
<path d="M92.8322 85.6506L95.8572 83.9023L99.1572 89.6184L95.7197 92.8006L93.8536 88.9898L92.8322 85.6506Z" fill="#0D8E45"/>
<path d="M96.1322 91.3693L99.1572 89.6211V179.369L96.1322 181.118L87.234 122.189L96.1322 91.3693Z" fill="#10331B"/>
<path d="M96.1322 91.3673L92.8322 85.6513L54.4697 63.4941L51.1697 65.3995L58.85 111.03L51.1697 155.148L54.4697 160.883L92.8322 183.021L96.1322 181.116L88.6875 134.051L96.1322 91.3673Z" fill="#585856"/>
<path d="M96.1322 181.12L51.1697 155.152V65.4043L96.1322 91.3721V181.12Z" fill="#0AA54A"/>
<path d="M54.4697 65.6751L83.5804 82.4698V81.9198L54.4697 65.1055V65.6751Z" fill="#A39685"/>
<path d="M86.252 83.4531V84.0228L92.8323 87.8138V87.2638L86.252 83.4531Z" fill="#8DCCCB"/>
<path d="M53.5858 81.5449V83.0181L93.6768 103.781V102.15L53.5858 81.5449Z" fill="#ECEEA5"/>
<path d="M53.5858 84.6113V86.0845L93.6768 106.847V105.217L53.5858 84.6113Z" fill="#ECEEA5"/>
<path d="M53.5858 87.6758V89.1294L93.6768 109.911V108.281L53.5858 87.6758Z" fill="#ECEEA5"/>
<path d="M53.5858 90.7188V92.192L93.6768 112.974V111.344L53.5858 90.7188Z" fill="#ECEEA5"/>
<path d="M53.5858 93.7832V95.2564L93.6768 116.019V114.389L53.5858 93.7832Z" fill="#ECEEA5"/>
<path d="M53.5858 96.8496V98.3032L93.6768 119.085V117.455L53.5858 96.8496Z" fill="#ECEEA5"/>
<path d="M53.5858 99.9102V101.364L93.6768 122.146V120.516L53.5858 99.9102Z" fill="#ECEEA5"/>
<path d="M53.5858 102.957V104.43L93.6768 125.212V123.582L53.5858 102.957Z" fill="#ECEEA5"/>
<path d="M53.5858 106.021V107.495L93.6768 128.257V126.627L53.5858 106.021Z" fill="#ECEEA5"/>
<path d="M53.5858 109.082V110.536L93.6768 131.318V129.687L53.5858 109.082Z" fill="#ECEEA5"/>
<path d="M53.5858 112.131V113.604L93.6768 134.386V132.756L53.5858 112.131Z" fill="#ECEEA5"/>
<path d="M53.5858 116.863V118.336L93.6768 139.119V137.488L53.5858 116.863Z" fill="#ECEEA5"/>
<path d="M53.5858 119.93V121.403L93.6768 142.165V140.535L53.5858 119.93Z" fill="#ECEEA5"/>
<path d="M53.5858 122.992V124.446L93.6768 145.228V143.598L53.5858 122.992Z" fill="#ECEEA5"/>
<path d="M53.5858 126.057V127.51L93.6768 148.292V146.662L53.5858 126.057Z" fill="#ECEEA5"/>
<path d="M53.5858 129.1V130.573L93.6768 151.355V149.725L53.5858 129.1Z" fill="#ECEEA5"/>
<path d="M53.5858 132.164V133.637L93.6768 154.4V152.769L53.5858 132.164Z" fill="#ECEEA5"/>
<path d="M53.5858 135.23V136.684L93.6768 157.466V155.836L53.5858 135.23Z" fill="#ECEEA5"/>
<path d="M53.5858 138.275V139.749L93.6768 160.531V158.9L53.5858 138.275Z" fill="#ECEEA5"/>
<path d="M53.5858 141.338V142.811L93.6768 163.574V161.943L53.5858 141.338Z" fill="#ECEEA5"/>
<path d="M53.5858 144.402V145.876L93.6768 166.638V165.008L53.5858 144.402Z" fill="#ECEEA5"/>
<path d="M53.5858 147.469V148.922L93.6768 169.704V168.074L53.5858 147.469Z" fill="#ECEEA5"/>
</svg>
