<svg width="370" height="351" viewBox="0 0 370 351" fill="none" xmlns="http://www.w3.org/2000/svg">
<path d="M253 161.055L79.2834 264.908L0 217.748V0.908203L253 161.055Z" fill="#0F5628" stroke="#0F5628"/>
<path d="M370 237.051L355.114 246.584L208.166 162.089L223.063 152.557L370 237.051Z" fill="#D7B264"/>
<path d="M355.114 246.582V275.522L208.166 191.027V162.088L355.114 246.582Z" fill="#10331B"/>
<path d="M292.959 216.686V233.416L345.08 263.4V246.787L292.959 216.686Z" fill="#0CA34A"/>
<path d="M219.469 174.576V191.296L271.697 221.291V204.571L219.469 174.576Z" fill="#B68841"/>
<path d="M370 237.051V266.982L355.114 275.523V246.584L370 237.051Z" fill="#0D6936"/>
<path d="M232.99 182.648L219.469 191.296V174.576L232.99 182.648Z" fill="#614020"/>
<path d="M306.469 224.768L292.959 233.416V216.686L306.469 224.768Z" fill="#614020"/>
<path d="M304.411 274.734L289.526 284.267L142.578 199.773L157.474 190.24L304.411 274.734Z" fill="#D7B264"/>
<path d="M289.526 284.266V313.205L142.578 228.711V199.771L289.526 284.266Z" fill="#10331B"/>
<path d="M227.381 254.369V271.099L279.492 301.084V284.471L227.381 254.369Z" fill="#0CA34A"/>
<path d="M153.891 212.26V228.979L206.119 258.975V242.255L153.891 212.26Z" fill="#B68841"/>
<path d="M304.411 274.732V304.664L289.526 313.205V284.265L304.411 274.732Z" fill="#0D6936"/>
<path d="M167.401 220.332L153.891 228.979V212.26L167.401 220.332Z" fill="#614020"/>
<path d="M240.891 262.441L227.381 271.099V254.369L240.891 262.441Z" fill="#614020"/>
<path d="M238.833 312.407L223.937 321.94L77 237.457L91.8856 227.924L238.833 312.407Z" fill="#0CA34A"/>
<path d="M223.937 321.939V350.889L77 266.395V237.455L223.937 321.939Z" fill="#10331B"/>
<path d="M161.793 292.051V308.77L213.903 338.766V322.153L161.793 292.051Z" fill="#0CA34A"/>
<path d="M88.3029 249.943V266.663L140.531 296.658V279.928L88.3029 249.943Z" fill="#0CA34A"/>
<path d="M238.833 312.406V342.348L223.937 350.889V321.939L238.833 312.406Z" fill="#0D6936"/>
<path d="M101.813 258.015L88.3029 266.663V249.943L101.813 258.015Z" fill="#0D6936"/>
<path d="M175.303 300.123L161.793 308.77V292.051L175.303 300.123Z" fill="#0D6936"/>
<path d="M209.052 305.125L223.937 314.658L370 229.769L355.114 220.236L209.052 305.125Z" fill="#0AA54A"/>
<path d="M223.937 314.656V321.939L370 237.05V229.768L223.937 314.656Z" fill="#0B9146"/>
<path d="M209.052 305.123V313.408L223.937 321.939V314.656L209.052 305.123Z" fill="#0D6936"/>
<path d="M176.039 286.135L190.924 295.668L336.987 210.779L322.101 201.246L176.039 286.135Z" fill="#0AA54A"/>
<path d="M190.924 295.666V302.96L336.987 218.06V210.777L190.924 295.666Z" fill="#0B9146"/>
<path d="M176.039 286.133V294.418L190.924 302.959V295.666L176.039 286.133Z" fill="#0D6936"/>
<path d="M143.026 267.153L157.911 276.686L303.974 191.787L289.089 182.254L143.026 267.153Z" fill="#0AA54A"/>
<path d="M157.911 276.685V283.967L303.974 199.068V191.785L157.911 276.685Z" fill="#0B9146"/>
<path d="M143.026 267.154V275.429L157.911 283.97V276.687L143.026 267.154Z" fill="#0D6936"/>
<path d="M110.013 248.159L124.898 257.692L270.961 172.793L256.076 163.26L110.013 248.159Z" fill="#0AA54A"/>
<path d="M124.899 257.696V264.979L270.961 180.09V172.797L124.899 257.696Z" fill="#0B9146"/>
<path d="M110.013 248.162V256.437L124.898 264.978V257.695L110.013 248.162Z" fill="#0D6936"/>
<path d="M77 229.171L91.8856 238.704L237.948 153.804L223.063 144.271L77 229.171Z" fill="#0AA54A"/>
<path d="M91.8857 238.706V245.989L237.949 161.1V153.807L91.8857 238.706Z" fill="#0B9146"/>
<path d="M77 229.172V237.457L91.8856 245.988V238.705L77 229.172Z" fill="#0D6936"/>
<path d="M224.364 224.328L156.696 185.302V112.494L224.364 151.521V224.328Z" fill="#A17F4C"/>
<path d="M278.095 120.342L224.364 151.521V224.328L278.095 193.32V120.342Z" fill="#D0A759"/>
<path d="M247.215 147.686L230.804 157.208V179.44L247.215 169.971V147.686Z" stroke="#A06126" stroke-width="0.2252" stroke-miterlimit="10"/>
<path d="M241.563 159.839L241.521 170.907L236.402 173.819L236.445 162.74L233.886 164.2L239.036 153.303L244.122 158.378L241.563 159.839Z" fill="#A06126"/>
<path d="M278.084 120.352L224.374 151.52L192.609 133.19L182.309 127.272L156.707 112.483L210.416 81.3145L236.061 96.0935L246.394 102.065L278.084 120.352Z" fill="#F5DF95"/>
<path d="M192.609 133.191L182.308 127.273L236.061 96.0938L246.394 102.065L192.609 133.191Z" fill="#FDE8AB"/>
<path d="M181.104 193.065L161.686 181.975V165.213L181.104 176.302V193.065Z" fill="#ACACAC"/>
<path d="M180.027 190.943L162.763 181.079V180.322L180.027 190.186V190.943Z" fill="#595A5A"/>
<path d="M180.027 188.841L162.763 178.978V178.221L180.027 188.084V188.841Z" fill="#595A5A"/>
<path d="M180.027 186.744L162.763 176.881V176.113L180.027 185.977V186.744Z" fill="#595A5A"/>
<path d="M180.027 184.643L162.763 174.779V174.012L180.027 183.875V184.643Z" fill="#595A5A"/>
<path d="M180.027 180.673L162.763 170.809V168.41L180.027 178.273V180.673Z" fill="#595A5A"/>
<path d="M182.309 127.271L182.255 151.797L184.377 146.06L186.606 154.174L189.613 148.928L192.289 157.288L192.609 133.189L182.309 127.271Z" fill="#DAC68A"/>
<path d="M259.467 141.531L254.562 144.4V150.968L259.467 148.121V141.531Z" fill="#A06126"/>
<path d="M266.365 137.562L261.45 140.431V146.999L266.365 144.142V137.562Z" fill="#A06126"/>
<path d="M273.254 133.586L268.349 136.454V143.023L273.254 140.176V133.586Z" fill="#A06126"/>
<path d="M159.788 261.755L92.1204 222.728V149.932L159.788 188.958V261.755Z" fill="#10331B"/>
<path d="M213.519 157.781L159.788 188.96V261.757L213.519 230.759V157.781Z" fill="#0D6936"/>
<path d="M182.629 185.119L166.229 194.641V216.863L182.629 207.405V185.119Z" stroke="#A06126" stroke-width="0.2252" stroke-miterlimit="10"/>
<path d="M176.988 197.266L176.945 208.345L171.827 211.256L171.869 200.177L169.31 201.638L174.461 190.74L179.547 195.816L176.988 197.266Z" fill="#A06126"/>
<path d="M213.509 157.792L159.799 188.96L128.034 170.631L117.733 164.713L92.1311 149.912L145.841 118.744L171.486 133.534L181.818 139.505L213.509 157.792Z" fill="#F5DF95"/>
<path d="M128.033 170.632L117.733 164.714L171.485 133.535L181.818 139.506L128.033 170.632Z" fill="#FDE8AB"/>
<path d="M116.517 230.504L97.1106 219.415V202.652L116.517 213.742V230.504Z" fill="#ACACAC"/>
<path d="M115.441 228.381L98.177 218.518V217.75L115.441 227.624V228.381Z" fill="#595A5A"/>
<path d="M115.441 226.281L98.177 216.418V215.65L115.441 225.514V226.281Z" fill="#595A5A"/>
<path d="M115.441 224.182L98.177 214.319V213.551L115.441 223.414V224.182Z" fill="#595A5A"/>
<path d="M115.441 222.08L98.177 212.217V211.449L115.441 221.313V222.08Z" fill="#595A5A"/>
<path d="M115.441 218.114L98.177 208.251V205.852L115.441 215.715V218.114Z" fill="#595A5A"/>
<path d="M117.733 164.713L117.68 189.238L119.802 183.501L122.019 191.616L125.037 186.359L127.714 194.729L128.033 170.631L117.733 164.713Z" fill="#86C543"/>
<path d="M194.891 178.969L189.986 181.837V188.406L194.891 185.548V178.969Z" fill="#A06126"/>
<path d="M201.79 175.002L196.874 177.86V184.428L201.79 181.581V175.002Z" fill="#A06126"/>
<path d="M208.678 171.027L203.773 173.896V180.464L208.678 177.617V171.027Z" fill="#A06126"/>
<path d="M299.41 267.174L231.742 228.147V155.34L299.41 194.367V267.174Z" fill="#10331B"/>
<path d="M353.142 163.189L299.41 194.368V267.176L353.142 236.168V163.189Z" fill="#0D6936"/>
<path d="M322.251 190.527L305.84 200.049V222.282L322.251 212.813V190.527Z" stroke="#269E48" stroke-width="0.2252" stroke-miterlimit="10"/>
<path d="M316.61 202.683L316.567 213.751L311.449 216.662L311.492 205.594L308.932 207.044L314.083 196.146L319.169 201.222L316.61 202.683Z" fill="#C6DD78"/>
<path d="M353.131 163.2L299.41 194.368L267.645 176.038L257.355 170.12L231.742 155.33L285.463 124.162L311.108 138.952L321.44 144.912L353.131 163.2Z" fill="#F5DF95"/>
<path d="M267.645 176.037L257.355 170.119L311.108 138.951L321.44 144.912L267.645 176.037Z" fill="#FDE8AB"/>
<path d="M256.14 235.912L236.722 224.823V208.061L256.14 219.15V235.912Z" fill="#ACACAC"/>
<path d="M255.063 233.788L237.799 223.925V223.168L255.063 233.031V233.788Z" fill="#595A5A"/>
<path d="M255.063 231.687L237.799 221.823V221.066L255.063 230.93V231.687Z" fill="#595A5A"/>
<path d="M255.063 229.588L237.799 219.725V218.957L255.063 228.82V229.588Z" fill="#595A5A"/>
<path d="M255.063 227.489L237.799 217.625V216.857L255.063 226.721V227.489Z" fill="#595A5A"/>
<path d="M255.063 223.522L237.799 213.659V211.26L255.063 221.123V223.522Z" fill="#595A5A"/>
<path d="M257.355 170.119L257.302 194.644L259.424 188.907L261.642 197.022L264.649 191.776L267.325 200.136L267.645 176.037L257.355 170.119Z" fill="#DAC68A"/>
<path d="M334.513 184.373L329.608 187.241V193.81L334.513 190.963V184.373Z" fill="#C6DD78"/>
<path d="M341.401 180.408L336.496 183.277V189.845L341.401 186.987V180.408Z" fill="#C6DD78"/>
<path d="M348.29 176.443L343.385 179.301V185.87L348.29 183.022V176.443Z" fill="#C6DD78"/>
<path d="M234.824 304.616L167.167 265.578V192.781L234.824 231.808V304.616Z" fill="#10331B"/>
<path d="M288.566 200.625L234.824 231.804V304.611L288.566 273.603V200.625Z" fill="#0D6936"/>
<path d="M257.675 227.967L241.265 237.489V259.721L257.675 250.253V227.967Z" stroke="#269E48" stroke-width="0.2252" stroke-miterlimit="10"/>
<path d="M252.034 240.122L251.992 251.191L246.874 254.102L246.916 243.023L244.357 244.484L249.497 233.586L254.594 238.662L252.034 240.122Z" fill="#C6DD78"/>
<path d="M288.555 200.638L234.835 231.806L203.07 213.476L192.78 207.558L167.167 192.769L220.888 161.59L246.532 176.38L256.865 182.351L288.555 200.638Z" fill="#F5DF95"/>
<path d="M203.07 213.476L192.78 207.558L246.532 176.379L256.865 182.35L203.07 213.476Z" fill="#FDE8AB"/>
<path d="M191.564 273.346L172.146 262.256V245.494L191.564 256.584V273.346Z" fill="#ACACAC"/>
<path d="M190.487 271.226L173.224 261.363V260.605L190.487 270.469V271.226Z" fill="#595A5A"/>
<path d="M190.487 269.123L173.224 259.26V258.492L190.487 268.356V269.123Z" fill="#595A5A"/>
<path d="M190.487 267.026L173.224 257.162V256.395L190.487 266.258V267.026Z" fill="#595A5A"/>
<path d="M190.487 264.924L173.224 255.061V254.293L190.487 264.156V264.924Z" fill="#595A5A"/>
<path d="M190.487 260.956L173.224 251.093V248.693L190.487 258.557V260.956Z" fill="#595A5A"/>
<path d="M192.769 207.557L192.726 232.082L194.838 226.345L197.066 234.46L200.073 229.203L202.75 237.573L203.07 213.475L192.769 207.557Z" fill="#86C543"/>
<path d="M269.938 221.812L265.033 224.681V231.249L269.938 228.402V221.812Z" fill="#C6DD78"/>
<path d="M276.826 217.848L271.921 220.716V227.284L276.826 224.427V217.848Z" fill="#C6DD78"/>
<path d="M283.714 213.869L278.809 216.738V223.306L283.714 220.459V213.869Z" fill="#C6DD78"/>
<path d="M224.364 148.921L156.696 109.894V37.0977L224.364 76.1245V148.921Z" fill="#10331B"/>
<path d="M278.095 44.9453L224.364 76.1241V148.921L278.095 117.923V44.9453Z" fill="#0D6936"/>
<path d="M247.215 72.2871L230.804 81.8092V104.031L247.215 94.5729V72.2871Z" stroke="#A06126" stroke-width="0.2252" stroke-miterlimit="10"/>
<path d="M241.563 84.429L241.521 95.508L236.402 98.419L236.445 87.3401L233.886 88.8009L239.036 77.8926L244.122 82.9789L241.563 84.429Z" fill="#A06126"/>
<path d="M278.084 44.9564L224.374 76.1245L192.609 57.7947L182.309 51.866L156.707 37.0764L210.416 5.9082L236.061 20.6979L246.394 26.6692L278.084 44.9564Z" fill="#0AA54A"/>
<path d="M192.609 57.7941L182.308 51.8654L236.061 20.6973L246.394 26.6686L192.609 57.7941Z" fill="#C6DD78"/>
<path d="M181.104 117.668L161.686 106.579V89.8164L181.104 100.906V117.668Z" fill="#ACACAC"/>
<path d="M180.027 115.545L162.763 105.682V104.914L180.027 114.777V115.545Z" fill="#595A5A"/>
<path d="M180.027 113.446L162.763 103.582V102.814L180.027 112.678V113.446Z" fill="#595A5A"/>
<path d="M180.027 111.344L162.763 101.481V100.713L180.027 110.576V111.344Z" fill="#595A5A"/>
<path d="M180.027 109.244L162.763 99.3704V98.6133L180.027 108.477V109.244Z" fill="#595A5A"/>
<path d="M180.027 105.278L162.763 95.4148V93.0156L180.027 102.879V105.278Z" fill="#595A5A"/>
<path d="M182.309 51.8652L182.255 76.401L184.377 70.6642L186.606 78.7788L189.613 73.5219L192.289 81.8924L192.609 57.7939L182.309 51.8652Z" fill="#C6DD78"/>
<path d="M259.467 66.1328L254.562 69.0012V75.5696L259.467 72.7119V66.1328Z" fill="#A06126"/>
<path d="M266.365 62.166L261.45 65.0237V71.5922L266.365 68.7451V62.166Z" fill="#A06126"/>
<path d="M273.254 58.1875L268.349 61.0559V67.6243L273.254 64.7773V58.1875Z" fill="#A06126"/>
<path d="M159.788 186.361L92.1204 147.334V74.5371L159.788 113.564V186.361Z" fill="#10331B"/>
<path d="M213.519 82.3848L159.788 113.564V186.36L213.519 155.363V82.3848Z" fill="#0D6936"/>
<path d="M182.629 109.723L166.229 119.245V141.467L182.629 131.998V109.723Z" stroke="#A06126" stroke-width="0.2252" stroke-miterlimit="10"/>
<path d="M176.988 121.868L176.945 132.947L171.827 135.858L171.869 124.78L169.31 126.23L174.461 115.332L179.547 120.418L176.988 121.868Z" fill="#A06126"/>
<path d="M213.509 82.3958L159.799 113.564L128.034 95.2341L117.733 89.3055L92.1311 74.5158L145.841 43.3477L171.486 58.1373L181.818 64.098L213.509 82.3958Z" fill="#0AA54A"/>
<path d="M128.033 95.2316L117.733 89.3029L171.485 58.1348L181.818 64.0954L128.033 95.2316Z" fill="#C6DD78"/>
<path d="M116.517 155.104L97.1106 144.014V127.252L116.517 138.342V155.104Z" fill="#ACACAC"/>
<path d="M115.441 152.983L98.177 143.119V142.352L115.441 152.215V152.983Z" fill="#595A5A"/>
<path d="M115.441 150.879L98.177 141.016V140.248L115.441 150.111V150.879Z" fill="#595A5A"/>
<path d="M115.441 148.781L98.177 138.907V138.15L115.441 148.014V148.781Z" fill="#595A5A"/>
<path d="M115.441 146.669L98.177 136.806V136.049L115.441 145.912V146.669Z" fill="#595A5A"/>
<path d="M115.441 142.715L98.177 132.841V130.441L115.441 140.305V142.715Z" fill="#595A5A"/>
<path d="M117.733 89.3047L117.68 113.84L119.802 108.104L122.019 116.218L125.037 110.961L127.714 119.321L128.033 95.2334L117.733 89.3047Z" fill="#86C543"/>
<path d="M194.891 103.57L189.986 106.439V113.007L194.891 110.149V103.57Z" fill="#A06126"/>
<path d="M201.79 99.5938L196.874 102.462V109.031L201.79 106.184V99.5938Z" fill="#A06126"/>
<path d="M208.678 95.627L203.773 98.4953V105.064L208.678 102.217V95.627Z" fill="#A06126"/>
<path d="M299.41 191.776L231.742 152.738V79.9414L299.41 118.968V191.776Z" fill="#10331B"/>
<path d="M353.142 87.7891L299.41 118.968V191.775L353.142 160.767V87.7891Z" fill="#0D6936"/>
<path d="M322.251 115.129L305.84 124.651V146.873L322.251 137.415V115.129Z" stroke="#269E48" stroke-width="0.2252" stroke-miterlimit="10"/>
<path d="M316.61 127.285L316.567 138.353L311.449 141.264L311.492 130.185L308.932 131.646L314.083 120.748L319.169 125.824L316.61 127.285Z" fill="#C6DD78"/>
<path d="M353.131 87.8001L299.41 118.968L267.645 100.638L257.355 94.7205L231.742 79.9308L285.463 48.752L311.108 63.5416L321.44 69.513L353.131 87.8001Z" fill="#0AA54A"/>
<path d="M267.645 100.638L257.355 94.7198L311.108 63.541L321.44 69.5123L267.645 100.638Z" fill="#C6DD78"/>
<path d="M256.14 160.51L236.722 149.421V132.658L256.14 143.748V160.51Z" fill="#ACACAC"/>
<path d="M255.063 158.39L237.799 148.527V147.77L255.063 157.633V158.39Z" fill="#595A5A"/>
<path d="M255.063 156.287L237.799 146.424V145.656L255.063 155.52V156.287Z" fill="#595A5A"/>
<path d="M255.063 154.19L237.799 144.326V143.559L255.063 153.422V154.19Z" fill="#595A5A"/>
<path d="M255.063 152.086L237.799 142.223V141.455L255.063 151.318V152.086Z" fill="#595A5A"/>
<path d="M255.063 148.122L237.799 138.259V135.859L255.063 145.723V148.122Z" fill="#595A5A"/>
<path d="M257.355 94.7207L257.302 119.246L259.424 113.509L261.642 121.624L264.649 116.367L267.325 124.737L267.645 100.639L257.355 94.7207Z" fill="#C6DD78"/>
<path d="M334.513 108.977L329.608 111.845V118.413L334.513 115.566V108.977Z" fill="#C6DD78"/>
<path d="M341.401 105.01L336.496 107.878V114.447L341.401 111.589V105.01Z" fill="#C6DD78"/>
<path d="M348.29 101.031L343.385 103.9V110.468L348.29 107.621V101.031Z" fill="#C6DD78"/>
<path d="M234.824 229.203L167.167 190.176V117.379L234.824 156.406V229.203Z" fill="#10331B"/>
<path d="M288.566 125.227L234.824 156.405V229.202L288.566 198.205V125.227Z" fill="#0D6936"/>
<path d="M257.675 152.568L241.265 162.09V184.312L257.675 174.854V152.568Z" stroke="#269E48" stroke-width="0.2252" stroke-miterlimit="10"/>
<path d="M252.034 164.71L251.992 175.789L246.874 178.7L246.916 167.621L244.357 169.082L249.497 158.174L254.594 163.26L252.034 164.71Z" fill="#C6DD78"/>
<path d="M288.555 125.238L234.835 156.406L203.07 138.076L192.78 132.147L167.167 117.358L220.888 86.1895L246.532 100.979L256.865 106.94L288.555 125.238Z" fill="#0AA54A"/>
<path d="M203.07 138.075L192.78 132.147L246.532 100.979L256.865 106.939L203.07 138.075Z" fill="#C6DD78"/>
<path d="M191.564 197.95L172.147 186.86V170.098L191.564 181.187V197.95Z" fill="#ACACAC"/>
<path d="M190.487 195.828L173.224 185.965V185.197L190.487 195.061V195.828Z" fill="#595A5A"/>
<path d="M190.487 193.727L173.224 183.863V183.096L190.487 192.959V193.727Z" fill="#595A5A"/>
<path d="M190.487 191.627L173.224 181.764V180.996L190.487 190.859V191.627Z" fill="#595A5A"/>
<path d="M190.487 189.515L173.224 179.652V178.895L190.487 188.758V189.515Z" fill="#595A5A"/>
<path d="M190.487 185.557L173.224 175.694V173.295L190.487 183.158V185.557Z" fill="#595A5A"/>
<path d="M192.769 132.146L192.726 156.682L194.838 150.945L197.066 159.06L200.073 153.803L202.75 162.163L203.07 138.075L192.769 132.146Z" fill="#86C543"/>
<path d="M269.938 146.414L265.033 149.282V155.851L269.938 152.993V146.414Z" fill="#C6DD78"/>
<path d="M276.826 142.436L271.921 145.304V151.872L276.826 149.025V142.436Z" fill="#C6DD78"/>
<path d="M283.714 138.471L278.809 141.339V147.907L283.714 145.06V138.471Z" fill="#C6DD78"/>
</svg>
