<svg width="305" height="219" viewBox="0 0 305 219" fill="none" xmlns="http://www.w3.org/2000/svg">
<path d="M199.907 74.1887C199.907 74.1887 198.521 51.8978 198.991 41.9855C199.249 36.6536 200.941 34.3751 205.122 32.8484C207.776 31.8618 211.37 33.2712 215.786 37.2173C225.229 45.6498 235.541 57.1123 235.541 57.1123L199.907 74.1887Z" fill="#0C9B4A"/>
<path d="M209.773 68.7392C209.749 68.6453 207.988 58.0753 206.578 48.5623C205.145 38.8614 210.266 33.6939 210.501 33.459L211.253 33.8348C211.206 33.8818 206.014 39.1433 207.377 48.4214C208.786 57.9109 210.548 68.4809 210.571 68.5748L209.773 68.7392Z" fill="#C8DD7A"/>
<path d="M228.212 65.3811C228.165 65.2872 218.933 55.3514 215.598 48.9389C213.531 44.9693 213.601 42.503 217.125 38.4629L217.712 38.9796C214.377 42.8083 214.353 44.8519 216.279 48.5866C219.591 54.9755 228.823 64.9113 228.893 65.0053L228.212 65.3811Z" fill="#C8DD7A"/>
<path d="M230.937 191.586C232.228 185.432 228.118 179.724 222.88 177.939C217.407 176.083 205.568 182.331 201.504 184.704C196.595 187.546 182.783 197.317 182.783 197.317L192.461 217.565C192.461 217.565 205.263 212.139 216.608 205.985C222.856 202.579 229.504 198.304 230.937 191.586Z" fill="#0C6936"/>
<path d="M195.068 211.599C195.068 217.001 191.78 219.468 187.74 217.142C183.699 214.817 180.411 208.545 180.411 203.143C180.411 197.74 183.699 195.274 187.74 197.6C191.803 199.925 195.068 206.196 195.068 211.599Z" fill="#C8DD7A"/>
<path d="M194.199 194.075C192.649 193.183 190.77 192.314 189.454 192.689C189.126 192.783 188.82 193.042 188.444 193.277C189.313 193.042 191.662 193.559 193.8 194.78C197.84 197.082 201.082 203.353 201.082 208.732C201.082 211.222 200.447 212.937 199.273 214.017C198.662 214.581 197.723 215.145 196.994 215.568C198.333 215.356 200.025 214.487 200.4 214.017C201.364 212.796 201.904 210.94 201.904 208.732C201.904 203.119 198.451 196.542 194.199 194.075Z" fill="#C8DD7A"/>
<path d="M188.961 214.651C185.79 212.819 183.23 207.91 183.23 203.705C183.23 201.357 184.028 199.759 185.273 199.078C183.347 199.219 182.032 201.028 182.032 204.058C182.032 208.286 184.592 213.195 187.763 215.004C189.173 215.826 190.464 215.849 191.451 215.285C190.676 215.356 189.854 215.168 188.961 214.651Z" fill="#292669"/>
<path d="M189.666 212.139C187.34 210.8 185.438 207.183 185.438 204.059C185.438 201.287 186.941 199.878 188.914 200.536C188.538 200.207 188.139 199.925 187.74 199.713C186.847 199.197 186.001 199.009 185.25 199.056C184.005 199.737 183.206 201.334 183.206 203.683C183.206 207.911 185.766 212.82 188.937 214.629C189.83 215.146 190.676 215.334 191.427 215.287C192.578 214.652 193.306 213.22 193.424 211.176C192.743 212.632 191.333 213.102 189.666 212.139Z" fill="#37328F"/>
<path d="M185.438 204.082C185.438 207.183 187.34 210.8 189.666 212.162C191.31 213.125 192.743 212.656 193.424 211.223C193.424 211.035 193.471 210.894 193.471 210.706C193.471 207.018 191.498 202.814 188.89 200.582C186.941 199.878 185.438 201.31 185.438 204.082Z" fill="#595BA8"/>
<path d="M177.381 175.848C178.673 169.694 174.562 163.986 169.324 162.201C163.851 160.345 152.012 166.593 147.949 168.966C143.063 171.808 129.251 181.579 129.251 181.579L138.929 201.826C138.929 201.826 151.73 196.401 163.076 190.246C169.3 186.841 175.948 182.566 177.381 175.848Z" fill="#0D6A36"/>
<path d="M141.512 195.837C141.512 201.24 138.224 203.706 134.184 201.381C130.143 199.055 126.855 192.784 126.855 187.381C126.855 181.979 130.143 179.512 134.184 181.838C138.247 184.187 141.512 190.458 141.512 195.837Z" fill="#C8DD7A"/>
<path d="M140.643 178.337C139.093 177.444 137.214 176.575 135.898 176.951C135.57 177.045 135.264 177.304 134.888 177.538C135.758 177.304 138.106 177.82 140.244 179.042C144.284 181.344 147.526 187.615 147.526 192.994C147.526 195.484 146.892 197.199 145.717 198.279C145.106 198.843 144.167 199.407 143.439 199.829C144.777 199.618 146.469 198.749 146.845 198.279C147.808 197.058 148.348 195.202 148.348 192.994C148.348 187.38 144.895 180.803 140.643 178.337Z" fill="#C8DD7A"/>
<path d="M135.405 198.913C132.234 197.081 129.674 192.172 129.674 187.967C129.674 185.618 130.472 184.021 131.717 183.34C129.791 183.481 128.476 185.289 128.476 188.319C128.476 192.547 131.036 197.457 134.207 199.265C135.617 200.087 136.909 200.111 137.895 199.547C137.12 199.594 136.298 199.43 135.405 198.913Z" fill="#292669"/>
<path d="M136.11 196.401C133.784 195.062 131.882 191.445 131.882 188.321C131.882 185.549 133.385 184.14 135.358 184.797C134.982 184.468 134.583 184.187 134.184 183.975C133.291 183.458 132.445 183.271 131.694 183.318C130.449 183.999 129.65 185.596 129.65 187.945C129.65 192.173 132.21 197.082 135.382 198.891C136.274 199.407 137.12 199.595 137.871 199.548C138.999 198.914 139.751 197.481 139.868 195.438C139.187 196.894 137.777 197.364 136.11 196.401Z" fill="#37328F"/>
<path d="M131.882 188.32C131.882 191.421 133.784 195.038 136.11 196.4C137.754 197.364 139.187 196.894 139.868 195.461C139.868 195.273 139.915 195.132 139.915 194.944C139.915 191.256 137.942 187.052 135.335 184.82C133.385 184.139 131.882 185.572 131.882 188.32Z" fill="#595BA8"/>
<path d="M84.715 122.904C86.0069 116.75 81.8963 111.043 76.6581 109.257C71.1851 107.402 59.3465 113.65 55.2828 116.022C50.397 118.864 36.5852 128.636 36.5852 128.636L46.2628 148.883C46.2628 148.883 59.0646 143.457 70.41 137.303C76.6581 133.921 83.3057 129.646 84.715 122.904Z" fill="#0D6A36"/>
<path d="M48.8703 142.917C48.8703 148.32 45.5818 150.786 41.5416 148.461C37.5014 146.135 34.2129 139.864 34.2129 134.461C34.2129 129.059 37.5014 126.593 41.5416 128.918C45.6053 131.243 48.8703 137.515 48.8703 142.917Z" fill="#C8DD7A"/>
<path d="M48.0012 125.417C46.4509 124.525 44.5718 123.655 43.2564 124.031C42.9275 124.125 42.6222 124.384 42.2463 124.618C43.1154 124.384 45.4644 124.9 47.6019 126.122C51.6421 128.424 54.8836 134.695 54.8836 140.074C54.8836 142.564 54.2494 144.279 53.075 145.359C52.4642 145.923 51.5247 146.487 50.7965 146.909C52.1354 146.698 53.8266 145.829 54.2025 145.359C55.1655 144.138 55.7058 142.282 55.7058 140.074C55.7058 134.437 52.2528 127.86 48.0012 125.417Z" fill="#C8DD7A"/>
<path d="M42.7631 145.97C39.592 144.137 37.0317 139.228 37.0317 135.024C37.0317 132.675 37.8303 131.078 39.0753 130.396C37.1491 130.537 35.8337 132.346 35.8337 135.376C35.8337 139.604 38.3941 144.513 41.5652 146.322C42.9745 147.144 44.2664 147.168 45.253 146.604C44.4778 146.674 43.6557 146.486 42.7631 145.97Z" fill="#292669"/>
<path d="M43.4676 143.481C41.1422 142.142 39.2396 138.525 39.2396 135.401C39.2396 132.629 40.7429 131.22 42.716 131.877C42.3402 131.549 41.9408 131.267 41.5415 131.055C40.6489 130.539 39.8033 130.351 39.0516 130.398C37.8067 131.079 37.0081 132.676 37.0081 135.025C37.0081 139.253 39.5684 144.162 42.7395 145.971C43.6321 146.487 44.4777 146.675 45.2294 146.628C46.3803 145.994 47.1085 144.561 47.226 142.518C46.5448 143.974 45.1354 144.42 43.4676 143.481Z" fill="#37328F"/>
<path d="M39.2395 135.4C39.2395 138.501 41.1421 142.118 43.4676 143.481C45.1119 144.444 46.5447 143.974 47.2259 142.541C47.2259 142.353 47.2729 142.212 47.2729 142.024C47.2729 138.337 45.2998 134.132 42.6924 131.901C40.7428 131.196 39.2395 132.629 39.2395 135.4Z" fill="#595BA8"/>
<path d="M59.3464 90.4669C60.6383 84.3128 56.5276 78.605 51.2895 76.8199C45.8165 74.9643 33.9778 81.2123 29.9141 83.5847C25.0283 86.4268 11.2166 96.1982 11.2166 96.1982L20.8942 116.446C20.8942 116.446 33.6959 111.02 45.0413 104.866C51.2895 101.483 57.937 97.2082 59.3464 90.4669Z" fill="#0D6A36"/>
<path d="M23.5016 110.48C23.5016 115.882 20.2131 118.349 16.1729 116.023C12.1328 113.698 8.84424 107.426 8.84424 102.024C8.84424 96.6214 12.1328 94.155 16.1729 96.4804C20.2131 98.8058 23.5016 105.077 23.5016 110.48Z" fill="#C8DD7A"/>
<path d="M22.6326 92.9796C21.0823 92.087 19.2031 91.2179 17.8877 91.5937C17.5589 91.6877 17.2535 91.9461 16.8777 92.181C17.7468 91.9461 20.0957 92.4628 22.2333 93.6843C26.2735 95.9862 29.515 102.258 29.515 107.637C29.515 110.126 28.8808 111.841 27.7063 112.922C27.0956 113.485 26.156 114.049 25.4278 114.472C26.7667 114.26 28.458 113.391 28.8338 112.922C29.7969 111.7 30.3371 109.845 30.3371 107.637C30.3136 101.999 26.8607 95.4224 22.6326 92.9796Z" fill="#C8DD7A"/>
<path d="M17.3708 113.532C14.1997 111.7 11.6394 106.791 11.6394 102.586C11.6394 100.237 12.438 98.6402 13.6829 97.959C11.7568 98.0999 10.4414 99.9086 10.4414 102.939C10.4414 107.167 13.0018 112.076 16.1728 113.884C17.5822 114.707 18.8506 114.73 19.8607 114.166C19.109 114.237 18.2869 114.049 17.3708 113.532Z" fill="#292669"/>
<path d="M18.099 111.043C15.7735 109.705 13.8709 106.087 13.8709 102.963C13.8709 100.192 15.3742 98.7822 17.3473 99.4399C16.9715 99.111 16.5722 98.8292 16.1729 98.6178C15.2803 98.101 14.4346 97.9131 13.683 97.9601C12.438 98.6413 11.6394 100.238 11.6394 102.587C11.6394 106.815 14.1998 111.725 17.3708 113.533C18.2634 114.05 19.109 114.238 19.8607 114.191C20.9882 113.557 21.7399 112.124 21.8573 110.08C21.1761 111.537 19.7433 111.983 18.099 111.043Z" fill="#37328F"/>
<path d="M13.8708 102.963C13.8708 106.063 15.7735 109.68 18.0989 111.043C19.7432 112.006 21.1761 111.536 21.8573 110.103C21.8573 109.915 21.9042 109.774 21.9042 109.586C21.9042 105.899 19.9311 101.694 17.3238 99.4627C15.3742 98.7816 13.8708 100.191 13.8708 102.963Z" fill="#595BA8"/>
<path d="M29.0686 39.8005C25.4278 37.1463 17.9346 32.7069 14.0354 31.8613C10.1361 31.0157 6.09597 31.5089 2.90141 35.3141C1.84438 36.5591 0.012207 36.9349 0.012207 36.9349V43.9346C0.106165 48.5853 1.98532 54.9273 5.97852 64.5108C10.3475 75.0103 64.9604 143.927 64.9604 143.927L123.308 110.244C123.308 110.244 36.4208 45.156 29.0686 39.8005Z" fill="#0C8944"/>
<path d="M64.9604 137.985C64.9604 137.985 10.3475 69.0686 5.97851 58.5691C-1.16227 41.3987 -1.5381 34.6339 2.9014 29.3724C6.09596 25.5672 10.1361 25.0975 14.0354 25.9196C17.9346 26.7652 25.4043 31.2046 29.0686 33.8588C36.4208 39.2143 123.308 104.302 123.308 104.302L64.9604 137.985Z" fill="#0C9B4A"/>
<path d="M84.6681 130.587C84.5507 130.493 81.8494 128.261 71.3261 117.762C62.5881 109.047 48.8703 94.4607 33.1323 74.4248C21.693 59.8382 15.6562 48.5635 14.6697 39.9666C13.9415 33.6011 15.7737 28.1047 16.3139 26.6484C16.5723 26.7424 16.8307 26.8129 17.0421 26.9538C16.5253 28.3866 14.7636 33.8125 15.4448 39.8961C16.4079 48.3521 22.3742 59.4859 33.7431 73.955C49.4575 93.944 63.1518 108.531 71.8664 117.221C82.3427 127.674 85.1144 129.976 85.1614 129.976L84.6681 130.587Z" fill="#C7DD79"/>
<path d="M98.2918 118.817C91.6443 113.556 68.3193 93.684 55.1417 80.6712C41.7997 67.494 39.8031 63.5478 34.471 52.9544L34.2596 52.5316C29.3504 42.7837 29.7262 36.5357 29.9141 35.0559C29.9376 34.868 29.9846 34.5391 29.9846 34.5156L30.7127 35.0324C30.7127 35.0324 30.7127 35.0324 30.6893 35.3142C30.5248 36.935 30.3604 43.0186 34.9878 52.1792L35.1992 52.602C40.6253 63.3834 42.4574 67.0242 55.7055 80.1075C68.8595 93.0968 92.161 112.945 98.7851 118.183L98.2918 118.817Z" fill="#C7DD79"/>
<path d="M50.0212 75.0819C50.0917 75.1288 50.1386 75.1993 50.2091 75.2463L69.6114 64.0891L68.8832 63.5488L49.5984 74.6825C49.7628 74.847 49.9272 74.9879 50.0212 75.0819Z" fill="#C7DD79"/>
<path d="M87.5807 109.586L87.0874 108.952L111.047 95.1172L111.751 95.6339L87.5807 109.586Z" fill="#C7DD79"/>
<path d="M75.2017 183.599C89.6007 177.163 126.174 155.976 161.69 134.108C156.71 131.876 151.918 129.011 147.291 125.417C142.522 121.706 132.657 113.438 126.033 109.75C123.472 108.317 121.076 107.19 118.939 106.25C85.0437 123.702 54.3196 141.389 42.0346 152.406C17.5586 174.297 21.4814 192.924 21.4814 192.924C21.4814 192.924 46.8499 196.259 75.2017 183.599Z" fill="#C6DD78"/>
<path d="M75.2017 183.598C46.85 196.259 21.5049 192.947 21.5049 192.947C21.5049 192.947 33.2261 204.081 53.6149 199.712C77.4567 194.591 122.016 169.951 153.116 151.019C157.485 148.365 164.814 143.785 173.622 138.124C169.535 137.184 165.565 135.869 161.69 134.131C126.15 155.952 89.6007 177.162 75.2017 183.598Z" fill="#0C8944"/>
<path d="M135.029 134.789C140.831 134.038 156.71 131.877 161.69 134.108C196.055 112.968 229.41 91.1942 240.802 81.5872C247.661 75.7855 253.346 70.1952 257.949 65.192C258.09 63.8297 258.302 60.7526 256.845 58.1454C254.52 53.9878 248.695 50.3236 235.329 54.1992C215.34 59.9775 142.687 93.2612 97.5637 117.549C99.7247 118.465 101.768 118.958 104.352 120.391C108.157 122.505 113.043 126.146 117.412 129.551C120.607 132.065 129.721 135.494 135.029 134.789Z" fill="#04A14A"/>
<path d="M246.745 82.6906C257.362 72.0267 257.832 67.8222 257.926 65.1914C253.322 70.1945 247.661 75.7849 240.779 81.5866C229.41 91.1936 196.031 112.968 161.666 134.108C165.542 135.846 169.512 137.161 173.599 138.101C182.501 132.37 192.931 125.534 203.383 118.394C220.742 106.532 236.738 92.7203 246.745 82.6906Z" fill="#0C8944"/>
<path opacity="0.3" d="M21.4814 192.924C21.4814 192.924 27.7766 175.519 65.8294 152.382C109.59 125.769 208.481 73.3188 225.205 65.1681C249.329 53.4472 255.084 55.8665 255.084 55.8665C255.084 55.8665 249.822 46.9643 216.749 62.6313C205.685 67.8693 174.374 83.9357 141.418 100.167C94.7214 123.162 48.4238 148.507 39.4743 156.61C35.2227 160.462 31.9107 164.479 28.5282 169.717C23.7834 177.116 19.8371 186.112 21.4814 192.924Z" fill="white"/>
<path d="M26.0617 171.643C25.6154 175.189 31.1589 179.582 39.7326 179.981C48.3062 180.38 55.6584 176.857 55.8933 180.78C56.1047 184.209 53.0981 186.934 40.2963 187.498C27.5886 188.061 22.5383 180.615 22.5383 180.615C22.5383 180.615 23.2665 176.434 26.0617 171.643Z" fill="#0F4724"/>
<path d="M304.012 203.614V199.762H301.005C297.975 197.531 293.019 194.853 289.684 193.303C280.405 189.051 167.68 138.902 167.68 138.902L117.459 167.888L117.671 166.572L109.308 168.498V172.609C109.308 172.609 228.682 204.131 246.862 206.668C276.6 210.802 288.321 211.013 297.435 208.453C302.462 207.02 304.13 205.329 304.012 203.614Z" fill="#0C8944"/>
<path d="M109.308 168.474C109.308 168.474 228.682 199.996 246.862 202.533C276.6 206.667 288.321 206.878 297.435 204.318C304.012 202.486 304.858 200.137 303.401 197.882C301.969 195.627 294.264 191.305 289.66 189.215C280.382 184.963 167.656 134.814 167.656 134.814L109.308 168.474Z" fill="#0D9B4A"/>
<path d="M283.576 193.841C280.358 193.841 276.53 193.723 271.973 193.394C258.208 192.384 227.272 186.911 202.984 181.18C168.784 173.1 125.939 159.289 125.493 159.148L126.409 158.607C126.832 158.748 168.972 172.325 203.149 180.405C227.39 186.136 258.278 191.609 271.996 192.596C288.039 193.747 295.462 192.267 295.533 192.243L296.59 192.854C296.425 192.901 292.855 193.841 283.576 193.841Z" fill="#C7DD79"/>
<path d="M264.08 179.726C256.705 179.726 242 178.997 226.779 176.39C212.098 173.877 192.555 167.864 180.881 164.27C178.32 163.471 176.065 162.79 174.28 162.25C164.227 159.267 139.281 151.398 139.046 151.304L139.892 150.717C140.15 150.787 164.462 158.492 174.492 161.475C176.277 162.015 178.532 162.696 181.116 163.495C192.79 167.089 212.31 173.078 226.92 175.591C245.03 178.692 262.037 178.95 266.664 178.88L268.261 179.608C267.439 179.655 265.49 179.726 264.08 179.726Z" fill="#C7DD79"/>
<path d="M155.63 156.399L155.23 155.718L181.092 140.779L181.985 141.179L155.63 156.399Z" fill="#C7DD79"/>
<path d="M201.88 170.188L201.481 169.507L220.695 158.42L221.588 158.819L201.88 170.188Z" fill="#C7DD79"/>
<path d="M82.7183 183.295C81.0036 184.281 79.5942 183.224 79.5942 180.922V175.097C79.5942 172.795 81.0036 170.094 82.7183 169.108C84.4331 168.121 85.8424 169.178 85.8424 171.48V177.305C85.8659 179.607 84.4565 182.308 82.7183 183.295Z" fill="#595BA8"/>
<path d="M89.5067 176.083C88.4262 176.694 87.5571 176.036 87.5571 174.603V170.963C87.5571 169.53 88.4497 167.839 89.5067 167.228C90.5873 166.617 91.4564 167.275 91.4564 168.708V172.349C91.4564 173.781 90.5873 175.473 89.5067 176.083Z" fill="#0F4724"/>
<path d="M82.7184 179.49C81.6379 180.1 80.7688 179.443 80.7688 178.01V174.369C80.7688 172.936 81.6614 171.245 82.7184 170.634C83.7989 170.023 84.668 170.681 84.668 172.114V175.755C84.6915 177.188 83.7989 178.855 82.7184 179.49Z" fill="#0F4724"/>
<path d="M95.5905 173.007C94.51 173.618 93.6409 172.96 93.6409 171.527V167.887C93.6409 166.454 94.5335 164.762 95.5905 164.152C96.671 163.541 97.5401 164.199 97.5401 165.632V169.272C97.5401 170.705 96.671 172.396 95.5905 173.007Z" fill="#0F4724"/>
<path d="M101.651 169.648C100.57 170.258 99.7012 169.601 99.7012 168.168V164.527C99.7012 163.094 100.594 161.403 101.651 160.792C102.731 160.182 103.6 160.839 103.6 162.272V165.913C103.624 167.346 102.731 169.037 101.651 169.648Z" fill="#0F4724"/>
<path d="M107.735 166.288C106.654 166.899 105.785 166.241 105.785 164.809V161.168C105.785 159.735 106.678 158.044 107.735 157.433C108.815 156.822 109.684 157.48 109.684 158.913V162.554C109.708 163.986 108.815 165.678 107.735 166.288Z" fill="#0F4724"/>
<path d="M113.819 162.718C112.738 163.329 111.869 162.671 111.869 161.238V157.597C111.869 156.165 112.761 154.473 113.819 153.863C114.899 153.252 115.768 153.91 115.768 155.343V158.983C115.768 160.416 114.899 162.107 113.819 162.718Z" fill="#0F4724"/>
<path d="M119.902 159.218C118.822 159.829 117.953 159.171 117.953 157.738V154.097C117.953 152.665 118.845 150.973 119.902 150.363C120.983 149.752 121.852 150.41 121.852 151.843V155.483C121.852 156.893 120.959 158.584 119.902 159.218Z" fill="#0F4724"/>
<path d="M125.963 155.671C124.882 156.282 124.013 155.624 124.013 154.191V150.551C124.013 149.118 124.906 147.427 125.963 146.816C127.043 146.205 127.912 146.863 127.912 148.296V151.936C127.936 153.369 127.043 155.037 125.963 155.671Z" fill="#0F4724"/>
<path d="M132.046 152.148C130.966 152.758 130.097 152.101 130.097 150.668V147.027C130.097 145.594 130.989 143.903 132.046 143.292C133.127 142.682 133.996 143.339 133.996 144.772V148.413C133.996 149.822 133.127 151.513 132.046 152.148Z" fill="#0F4724"/>
<path d="M138.13 148.366C137.05 148.977 136.18 148.319 136.18 146.887V143.246C136.18 141.813 137.073 140.122 138.13 139.511C139.211 138.9 140.08 139.558 140.08 140.991V144.632C140.08 146.065 139.211 147.732 138.13 148.366Z" fill="#0F4724"/>
<path d="M144.214 144.585C143.133 145.196 142.264 144.538 142.264 143.105V139.465C142.264 138.032 143.157 136.341 144.214 135.73C145.294 135.119 146.163 135.777 146.163 137.21V140.85C146.163 142.283 145.271 143.951 144.214 144.585Z" fill="#0F4724"/>
<path d="M150.274 141.015C149.194 141.626 148.324 140.968 148.324 139.535V135.895C148.324 134.462 149.217 132.77 150.274 132.16C151.355 131.526 152.224 132.207 152.224 133.64V137.28C152.247 138.713 151.355 140.404 150.274 141.015Z" fill="#0F4724"/>
<path d="M156.358 137.327C155.277 137.938 154.408 137.28 154.408 135.848V132.207C154.408 130.774 155.301 129.083 156.358 128.472C157.438 127.861 158.307 128.519 158.307 129.952V133.593C158.307 135.025 157.438 136.717 156.358 137.327Z" fill="#0F4724"/>
<path d="M162.442 133.568C161.361 134.178 160.492 133.521 160.492 132.088V128.447C160.492 127.014 161.385 125.323 162.442 124.712C163.522 124.102 164.391 124.759 164.391 126.192V129.833C164.391 131.242 163.522 132.933 162.442 133.568Z" fill="#0F4724"/>
<path d="M168.502 129.786C167.421 130.397 166.552 129.739 166.552 128.307V124.666C166.552 123.233 167.445 121.542 168.502 120.931C169.582 120.32 170.451 120.978 170.451 122.411V126.052C170.475 127.484 169.582 129.152 168.502 129.786Z" fill="#0F4724"/>
<path d="M174.586 126.216C173.505 126.827 172.636 126.169 172.636 124.736V121.095C172.636 119.663 173.529 117.971 174.586 117.361C175.666 116.75 176.535 117.408 176.535 118.841V122.481C176.559 123.914 175.666 125.605 174.586 126.216Z" fill="#0F4724"/>
<path d="M180.669 122.529C179.589 123.139 178.72 122.482 178.72 121.049V117.408C178.72 115.975 179.612 114.284 180.669 113.673C181.75 113.063 182.619 113.72 182.619 115.153V118.794C182.619 120.227 181.75 121.918 180.669 122.529Z" fill="#0F4724"/>
<path d="M180.669 122.529C179.589 123.139 178.72 122.482 178.72 121.049V117.408C178.72 115.975 179.612 114.284 180.669 113.673C181.75 113.063 182.619 113.72 182.619 115.153V118.794C182.619 120.227 181.75 121.918 180.669 122.529Z" fill="#0F4724"/>
<path d="M186.753 118.771C185.673 119.381 184.803 118.724 184.803 117.291V113.65C184.803 112.217 185.696 110.526 186.753 109.915C187.834 109.305 188.703 109.962 188.703 111.395V115.036C188.703 116.445 187.81 118.137 186.753 118.771Z" fill="#0F4724"/>
<path d="M192.813 114.636C191.733 115.247 190.864 114.589 190.864 113.156V109.515C190.864 108.083 191.756 106.391 192.813 105.781C193.894 105.17 194.763 105.828 194.763 107.26V110.901C194.787 112.334 193.894 114.025 192.813 114.636Z" fill="#0F4724"/>
<path d="M198.897 110.691C197.817 111.301 196.948 110.644 196.948 109.211V105.57C196.948 104.137 197.84 102.446 198.897 101.835C199.978 101.225 200.847 101.882 200.847 103.315V106.956C200.847 108.389 199.978 110.056 198.897 110.691Z" fill="#0F4724"/>
<path d="M296.355 87.6472V85.4157L294.734 85.6271C293.419 84.7111 291.281 83.6776 288.298 82.5736C273.688 77.1242 254.285 71.252 254.285 71.252C254.285 71.252 251.02 73.6243 240.004 81.7984C237.96 83.3017 233.497 86.0969 229.833 88.3518V87.7646L224.195 89.5263V91.7577C224.195 91.7577 262.812 92.5563 279.983 92.298C289.214 92.157 293.16 91.1705 295.815 88.7511C296.214 88.3988 296.378 88.023 296.355 87.6472Z" fill="#0C8944"/>
<path d="M224.219 89.5038C224.219 89.5038 262.835 90.3024 280.006 90.044C289.237 89.9031 293.184 88.9165 295.838 86.4972C297.529 84.9704 295.11 82.8799 288.274 80.3431C273.664 74.8937 254.262 69.0215 254.262 69.0215C254.262 69.0215 250.997 71.3939 239.98 79.568C236.245 82.3397 224.219 89.5038 224.219 89.5038Z" fill="#0C9B4A"/>
<path d="M244.561 1.56138L242.071 0.152046C242.047 0.128557 242 0.105068 241.977 0.0815795C241.202 -0.270753 240.051 0.527868 238.336 2.28953C235.517 5.17866 232.158 11.873 227.46 29.6775C223.89 43.2071 220.366 63.2666 220.366 63.2666L222.88 64.6994L224.336 61.411C227.296 60.0486 231.125 58.3104 232.957 57.6058C235.517 56.5957 243.41 53.4482 243.41 53.4482C243.41 53.4482 243.269 25.2146 243.386 13.5407C243.41 10.2523 243.41 7.6215 243.316 5.57797L243.386 5.64844L244.561 1.56138Z" fill="#0E6D38"/>
<path d="M240.849 3.72275C238.031 6.61188 234.672 13.3062 229.974 31.1107C226.403 44.6403 222.88 64.6998 222.88 64.6998C222.88 64.6998 232.299 60.2839 235.47 59.039C238.031 58.029 245.923 54.8815 245.923 54.8815C245.923 54.8815 245.782 26.6479 245.9 14.9739C246.04 1.18595 245.547 -1.06898 240.849 3.72275Z" fill="#0C8944"/>
<path d="M263.939 83.9607C263.634 83.9607 263.329 83.9607 263.023 83.9607C250.527 83.8903 234.554 83.2561 234.413 83.2561L235.541 82.4574C235.682 82.4574 250.55 83.1151 263.023 83.1856C276.365 83.2561 284.868 81.5179 288.674 80.4844L289.825 80.9307C285.972 82.34 276.882 83.9607 263.939 83.9607Z" fill="#C8DD7A"/>
<path d="M263.845 77.9699C263.281 77.9699 262.718 77.9464 262.13 77.8994C257.879 77.5706 247.379 74.5405 246.933 74.4231L247.661 73.8828C247.778 73.9063 258.02 76.7954 262.177 77.1243C268.637 77.6175 273.077 75.0573 273.124 75.0338L274.204 75.3861C273.711 75.6445 269.647 77.9699 263.845 77.9699Z" fill="#C8DD7A"/>
<path d="M236.175 58.7555C237.232 43.2528 239.205 29.5118 239.98 26.4583C241.389 20.8445 244.067 18.1432 245.923 16.9453C245.923 17.3681 245.923 17.7909 245.876 18.0963C244.208 19.2942 242 21.737 240.755 26.6697C239.98 29.6998 238.03 43.1119 236.973 58.4736C236.48 58.732 236.739 58.5676 236.175 58.7555Z" fill="#C8DD7A"/>
<path d="M189.854 40.1526L116.966 82.2212V47.2463L189.854 5.17773L176.089 30.6162L189.854 40.1526Z" fill="#C8DD7A"/>
<path d="M122.721 68.9507V56.1023L124.882 54.8574V67.7058L122.721 68.9507Z" fill="#D81F26"/>
<path d="M127.184 66.391V53.5426L129.556 52.1568L131.107 56.972C131.201 57.3008 131.294 57.6297 131.388 57.982C131.482 58.3343 131.576 58.6632 131.67 59.0155L131.741 58.992C131.835 58.5457 131.929 58.0994 132.023 57.6531C132.117 57.2069 132.211 56.7606 132.305 56.3143L133.831 49.7139L136.204 48.3516V61.2L134.231 62.3509V57.6297C134.231 57.3243 134.231 56.972 134.254 56.5727C134.278 56.1733 134.301 55.774 134.325 55.3747C134.348 54.9754 134.372 54.5761 134.419 54.1768C134.442 53.7775 134.489 53.4252 134.513 53.0963L134.442 53.1198L133.667 56.6196L132.305 62.3274L131.107 63.0086L129.721 58.8981L128.946 56.2908L128.875 56.3143C128.899 56.6196 128.946 56.9485 128.969 57.3008C128.993 57.6531 129.016 58.029 129.063 58.3813C129.086 58.7571 129.11 59.1329 129.133 59.4853C129.157 59.8611 129.157 60.1899 129.157 60.5188V65.24L127.184 66.391Z" fill="#D81F26"/>
<path d="M138.435 59.8835V47.0351L141.747 45.1325C142.288 44.8272 142.781 44.6158 143.251 44.4748C143.72 44.3339 144.12 44.3339 144.472 44.4748C144.824 44.5923 145.083 44.8742 145.294 45.2735C145.506 45.6963 145.6 46.2835 145.6 47.0586C145.6 47.8103 145.506 48.5149 145.294 49.1961C145.083 49.8538 144.824 50.4645 144.472 51.0282C144.12 51.592 143.72 52.0852 143.274 52.508C142.828 52.9308 142.335 53.3066 141.818 53.612L140.62 54.2932V58.6386L138.435 59.8835ZM140.62 51.9678L141.677 51.3571C142.851 50.6759 143.439 49.6424 143.439 48.28C143.439 47.5989 143.274 47.223 142.969 47.1291C142.663 47.0351 142.194 47.1526 141.606 47.5049L140.596 48.0921V51.9678H140.62Z" fill="#D81F26"/>
<path d="M151.167 52.767C150.509 53.1428 149.922 53.3307 149.381 53.3307C148.841 53.3307 148.395 53.1428 147.996 52.7905C147.62 52.4381 147.314 51.8979 147.103 51.1932C146.892 50.4886 146.798 49.6195 146.798 48.5625C146.798 47.5055 146.915 46.5189 147.103 45.5794C147.314 44.6398 147.62 43.7707 147.996 42.9956C148.371 42.2205 148.841 41.5158 149.381 40.9286C149.922 40.3179 150.509 39.8246 151.167 39.4488C151.824 39.073 152.412 38.8851 152.952 38.8616C153.492 38.8381 153.938 39.0025 154.338 39.3548C154.714 39.7072 155.019 40.2239 155.23 40.9286C155.442 41.6333 155.559 42.5023 155.559 43.5359C155.559 44.5929 155.465 45.5794 155.23 46.5424C155.019 47.482 154.714 48.3746 154.338 49.1732C153.962 49.9718 153.492 50.6765 152.952 51.3107C152.412 51.8979 151.824 52.3911 151.167 52.767ZM151.167 50.2772C151.824 49.9013 152.341 49.2202 152.74 48.2336C153.116 47.2471 153.328 46.1196 153.328 44.8043C153.328 43.5124 153.14 42.6198 152.74 42.1265C152.365 41.6333 151.824 41.5628 151.167 41.9386C150.509 42.3144 149.992 42.9721 149.593 43.9352C149.217 44.8747 149.006 46.0022 149.006 47.2941C149.006 48.586 149.194 49.502 149.593 50.0423C149.992 50.5825 150.509 50.653 151.167 50.2772Z" fill="#D81F26"/>
<path d="M157.368 48.9627V36.1143L160.844 34.1177C161.361 33.8124 161.831 33.601 162.277 33.4835C162.724 33.3661 163.123 33.3426 163.452 33.46C163.781 33.5775 164.062 33.8358 164.25 34.2352C164.438 34.6345 164.556 35.2217 164.556 35.9733C164.556 36.9129 164.391 37.782 164.086 38.5806C163.781 39.3792 163.358 40.0604 162.841 40.6711L165.025 44.5468L162.583 45.9561L160.727 42.3858L159.529 43.067V47.6943L157.368 48.9627ZM159.529 40.7651L160.656 40.1074C161.22 39.7785 161.666 39.3557 161.972 38.8625C162.277 38.3692 162.418 37.8055 162.418 37.1713C162.418 36.5371 162.277 36.1847 161.972 36.1143C161.666 36.0438 161.244 36.1612 160.656 36.4901L159.529 37.1478V40.7651Z" fill="#D81F26"/>
<path d="M168.032 42.8076V32.4021L165.378 33.9288V31.486L172.847 27.1641V29.6069L170.193 31.1337V41.5392L168.032 42.8076Z" fill="#D81F26"/>
<path d="M115.416 46.8008V119.287C115.416 119.71 116.073 120.062 116.872 120.062C117.694 120.062 118.328 119.71 118.328 119.287V46.8008H115.416Z" fill="#204F26"/>
<path d="M116.872 46.0254C116.05 46.0254 115.416 46.3777 115.416 46.8005C115.416 47.2233 116.073 47.5757 116.872 47.5757C117.694 47.5757 118.328 47.2233 118.328 46.8005C118.352 46.3542 117.694 46.0254 116.872 46.0254Z" fill="#49AA48"/>
</svg>
