<svg width="358" height="54" viewBox="0 0 358 54" fill="none" xmlns="http://www.w3.org/2000/svg">
<path d="M143.734 26.2663C143.436 26.7631 143.027 27.1728 142.482 27.5205C141.937 27.8682 141.428 28.0421 140.933 28.0421H133.632C132.826 28.0421 132.417 28.278 132.417 28.7375C132.417 28.9113 132.467 29.0603 132.566 29.1845L136.656 36.2005C136.855 36.5978 136.954 36.9579 136.954 37.3056C136.954 37.703 136.867 38.0879 136.681 38.4729C136.495 38.8578 136.26 39.1931 135.962 39.4911C135.665 39.7892 135.33 40.0251 134.946 40.1865C134.562 40.3604 134.177 40.4473 133.781 40.4473H124.943C124.572 40.4473 124.311 40.3728 124.15 40.2114C123.989 40.0499 123.915 39.8512 123.915 39.6029C123.915 39.3049 124.014 38.9944 124.212 38.684L129.294 29.8302C129.468 29.4825 129.554 29.1845 129.554 28.9113C129.554 28.663 129.48 28.4643 129.331 28.3028C129.182 28.1414 128.922 28.0669 128.563 28.0669C128.067 28.0669 127.559 28.2407 127.013 28.5884C126.468 28.9361 126.059 29.3459 125.762 29.8426L120.68 38.6964C120.382 39.1931 119.973 39.6029 119.428 39.9506C118.882 40.2983 118.374 40.4721 117.879 40.4721H109.029C108.657 40.4721 108.397 40.3976 108.235 40.2362C108.074 40.0499 108 39.8388 108 39.5905C108 39.2925 108.099 38.982 108.297 38.6716L125.39 8.99341C125.514 8.74506 125.687 8.52154 125.923 8.31044C126.158 8.09934 126.381 8 126.604 8C126.778 8 126.939 8.12418 127.088 8.37253L131.984 16.7172C132.132 17.0152 132.207 17.3505 132.207 17.7106C132.207 18.0335 132.17 18.3439 132.083 18.6295C131.996 18.9275 131.897 19.1883 131.773 19.3994L128.823 24.4906C128.649 24.8383 128.563 25.1363 128.563 25.3723C128.563 25.6455 128.637 25.8566 128.798 26.018C128.959 26.1794 129.22 26.2539 129.591 26.2539C130.087 26.2539 130.595 26.0801 131.116 25.7324C131.649 25.3847 132.058 24.9749 132.355 24.4782L133.384 22.7025C133.682 22.2058 134.091 21.796 134.636 21.4483C135.181 21.1006 135.69 20.9268 136.185 20.9268H145.023C145.395 20.9268 145.655 21.0013 145.791 21.1627C145.94 21.3241 146.014 21.5228 146.014 21.7712C146.014 22.0443 145.928 22.3548 145.754 22.6901L143.734 26.2663Z" fill="#0D542B"/>
<path d="M175.302 20.9512C175.649 20.9512 175.897 21.0381 176.058 21.2119C176.219 21.3858 176.294 21.5969 176.294 21.8452C176.294 22.0936 176.207 22.3916 176.033 22.7269L166.824 38.6711C166.527 39.1678 166.118 39.5776 165.572 39.9253C165.027 40.273 164.531 40.4469 164.06 40.4469H139.308C138.936 40.4469 138.676 40.3724 138.515 40.2109C138.354 40.0495 138.279 39.8384 138.279 39.5652C138.279 39.3169 138.366 39.0188 138.54 38.6836L142.63 31.5931C142.927 31.0964 143.336 30.6866 143.882 30.3389C144.427 29.9912 144.935 29.8174 145.431 29.8174H157.813C158.309 29.8174 158.817 29.6435 159.363 29.2958C159.908 28.9481 160.317 28.5383 160.614 28.0416L162.635 24.5026C162.808 24.1549 162.895 23.8569 162.895 23.5837C162.895 23.3354 162.821 23.1367 162.672 22.9752C162.523 22.8138 162.263 22.7393 161.903 22.7393C161.408 22.7393 160.9 22.9132 160.354 23.2609C159.809 23.6085 159.4 24.0183 159.102 24.515L158.074 26.2908C157.776 26.7875 157.355 27.1972 156.822 27.5449C156.276 27.8926 155.781 28.0665 155.31 28.0665H146.472C146.076 28.0665 145.803 27.992 145.667 27.8305C145.518 27.6691 145.443 27.4704 145.443 27.2221C145.443 26.9489 145.53 26.6384 145.704 26.3032L147.761 22.7641C148.034 22.2674 148.406 21.8577 148.902 21.51C149.397 21.1623 149.943 20.9884 150.562 20.9884H175.302V20.9512ZM157.553 33.3564C157.726 33.0087 157.813 32.7107 157.813 32.4375C157.813 32.1891 157.739 31.9905 157.59 31.829C157.441 31.6676 157.169 31.5931 156.785 31.5931C156.165 31.5931 155.619 31.7669 155.148 32.1146C154.665 32.4623 154.293 32.8721 154.02 33.3688L151.963 36.9078C151.789 37.2555 151.703 37.566 151.703 37.8267C151.703 38.0503 151.777 38.2489 151.926 38.4228C152.075 38.5966 152.335 38.6836 152.694 38.6836C153.19 38.6836 153.698 38.5097 154.244 38.162C154.789 37.8143 155.198 37.4045 155.495 36.9078L157.553 33.3564Z" fill="#0D542B"/>
<path d="M192.655 28.0416C192.308 28.0416 192.06 27.9547 191.899 27.7809C191.738 27.607 191.663 27.3959 191.663 27.1476C191.663 26.8992 191.75 26.6012 191.924 26.2659L192.952 24.4902C193.126 24.1425 193.213 23.8445 193.213 23.6085C193.213 23.3602 193.138 23.1491 192.977 22.9752C192.816 22.8014 192.556 22.7145 192.184 22.7145C191.614 22.7145 191.081 22.8883 190.585 23.236C190.077 23.5837 189.693 23.9935 189.42 24.4902L187.362 28.0292C187.189 28.3769 187.102 28.6749 187.102 28.9109C187.102 29.1841 187.177 29.3952 187.338 29.5566C187.499 29.718 187.759 29.7925 188.131 29.7925H200.513C200.86 29.7925 201.108 29.8795 201.269 30.0533C201.43 30.2271 201.505 30.4382 201.505 30.6866C201.505 30.935 201.418 31.233 201.244 31.5683L197.154 38.6587C196.857 39.1554 196.435 39.5652 195.902 39.9129C195.357 40.2606 194.849 40.4344 194.353 40.4344H169.601C169.254 40.4344 169.006 40.3475 168.845 40.1737C168.684 39.9998 168.609 39.7887 168.609 39.5404C168.609 39.292 168.696 38.994 168.87 38.6587L170.89 35.1197C171.163 34.623 171.572 34.2132 172.129 33.8655C172.687 33.5178 173.208 33.344 173.691 33.344H182.529C182.9 33.344 183.161 33.4185 183.297 33.5799C183.446 33.7413 183.52 33.94 183.52 34.1884C183.52 34.4616 183.433 34.772 183.26 35.1073L182.268 36.883C182.07 37.2059 181.971 37.5163 181.971 37.8019C181.971 38.0503 182.045 38.2489 182.206 38.4104C182.367 38.5718 182.628 38.6463 183 38.6463C183.495 38.6463 184.004 38.4725 184.549 38.1248C185.094 37.7771 185.503 37.3673 185.801 36.8706L187.821 33.3316C187.995 32.9839 188.081 32.6858 188.081 32.4127C188.081 32.1643 188.007 31.9656 187.858 31.8042C187.71 31.6428 187.449 31.5683 187.09 31.5683H174.708C174.336 31.5683 174.075 31.4937 173.914 31.3323C173.766 31.1833 173.691 30.9846 173.691 30.7363C173.691 30.4382 173.79 30.1278 173.989 29.8174L178.042 22.7269C178.314 22.2302 178.723 21.8204 179.281 21.4727C179.839 21.125 180.359 20.9512 180.843 20.9512H205.595C205.967 20.9512 206.227 21.0257 206.363 21.1871C206.512 21.3485 206.587 21.5472 206.587 21.7956C206.587 22.0688 206.5 22.3792 206.326 22.7145L204.306 26.2535C204.033 26.7502 203.624 27.16 203.066 27.5077C202.509 27.8554 201.988 28.0292 201.505 28.0292H192.655V28.0416Z" fill="#0D542B"/>
<path d="M222.949 28.0423C222.602 28.0423 222.354 27.9554 222.193 27.7816C222.031 27.6077 221.957 27.3966 221.957 27.1483C221.957 26.8999 222.044 26.6019 222.217 26.2666L223.246 24.4909C223.42 24.1432 223.506 23.8452 223.506 23.6092C223.506 23.3609 223.432 23.1498 223.271 22.9759C223.11 22.8021 222.849 22.7152 222.478 22.7152C221.907 22.7152 221.375 22.889 220.879 23.2367C220.371 23.5844 219.986 23.9942 219.714 24.4909L217.656 28.0299C217.483 28.3776 217.396 28.6756 217.396 28.9116C217.396 29.1848 217.47 29.3959 217.631 29.5573C217.792 29.7187 218.053 29.7932 218.425 29.7932H230.807C231.154 29.7932 231.402 29.8802 231.563 30.054C231.724 30.2278 231.798 30.439 231.798 30.6873C231.798 30.9357 231.712 31.2337 231.538 31.569L227.448 38.6594C227.15 39.1561 226.729 39.5659 226.196 39.9136C225.651 40.2613 225.142 40.4352 224.647 40.4352H199.882C199.535 40.4352 199.287 40.3482 199.126 40.1744C198.965 40.0005 198.891 39.7894 198.891 39.5411C198.891 39.2927 198.977 38.9947 199.151 38.6594L201.171 35.1204C201.444 34.6237 201.853 34.2139 202.411 33.8662C202.968 33.5185 203.489 33.3447 203.972 33.3447H212.81C213.182 33.3447 213.442 33.4192 213.578 33.5806C213.727 33.742 213.801 33.9407 213.801 34.1891C213.801 34.4623 213.715 34.7727 213.541 35.108L212.55 36.8837C212.351 37.2066 212.252 37.517 212.252 37.8026C212.252 38.051 212.326 38.2496 212.488 38.4111C212.649 38.5725 212.909 38.647 213.281 38.647C213.777 38.647 214.285 38.4732 214.83 38.1255C215.376 37.7778 215.785 37.368 216.082 36.8713L218.102 33.3323C218.276 32.9846 218.363 32.6865 218.363 32.4134C218.363 32.165 218.288 31.9663 218.14 31.8049C217.991 31.6435 217.73 31.569 217.371 31.569H204.989C204.617 31.569 204.357 31.4945 204.196 31.333C204.034 31.1716 203.96 30.9729 203.96 30.7246C203.96 30.4265 204.059 30.1161 204.258 29.8056L208.311 22.7152C208.583 22.2185 208.992 21.8087 209.55 21.461C210.108 21.1133 210.628 20.9395 211.112 20.9395H235.864C236.236 20.9395 236.496 21.014 236.632 21.1754C236.781 21.3368 236.855 21.5355 236.855 21.7839C236.855 22.057 236.769 22.3675 236.595 22.7028L234.575 26.2418C234.302 26.7385 233.893 27.1483 233.335 27.496C232.778 27.8437 232.257 28.0175 231.774 28.0175H222.949V28.0423Z" fill="#0D542B"/>
<path d="M266.118 20.9512C266.49 20.9512 266.751 21.0381 266.912 21.2119C267.073 21.3858 267.147 21.5969 267.147 21.8452C267.147 22.0936 267.06 22.3916 266.887 22.7269L257.678 38.6711C257.38 39.1678 256.971 39.5776 256.426 39.9253C255.88 40.273 255.385 40.4469 254.914 40.4469H230.162C229.79 40.4469 229.529 40.3724 229.368 40.2109C229.207 40.0495 229.133 39.8384 229.133 39.5652C229.133 39.3169 229.22 39.0188 229.393 38.6836L238.602 22.7393C238.875 22.2426 239.284 21.8328 239.842 21.4851C240.4 21.1374 240.908 20.9636 241.366 20.9636H266.118V20.9512ZM253.488 24.5026C253.662 24.1549 253.749 23.8569 253.749 23.621C253.749 23.3726 253.674 23.1615 253.513 22.9877C253.352 22.8138 253.104 22.7269 252.757 22.7269C252.261 22.7269 251.741 22.9007 251.195 23.2484C250.638 23.5961 250.228 24.0059 249.956 24.5026L242.804 36.9078C242.631 37.2555 242.544 37.5536 242.544 37.7895C242.544 38.0378 242.618 38.2489 242.779 38.4228C242.94 38.5966 243.188 38.6836 243.535 38.6836C244.031 38.6836 244.539 38.5097 245.085 38.162C245.63 37.8143 246.039 37.4045 246.337 36.9078L253.488 24.5026Z" fill="#0D542B"/>
<path d="M296.399 20.9512C296.771 20.9512 297.031 21.0381 297.192 21.2119C297.353 21.3858 297.428 21.5969 297.428 21.8452C297.428 22.0936 297.341 22.3916 297.167 22.7269L287.958 38.6711C287.661 39.1678 287.252 39.5776 286.706 39.9253C286.161 40.273 285.665 40.4469 285.194 40.4469H276.357C275.985 40.4469 275.725 40.3724 275.564 40.2109C275.402 40.0495 275.328 39.8384 275.328 39.5652C275.328 39.3169 275.415 39.0188 275.588 38.6836L283.769 24.515C283.942 24.1673 284.029 23.8693 284.029 23.6334C284.029 23.385 283.955 23.1739 283.794 23.0001C283.633 22.8262 283.385 22.7393 283.038 22.7393C282.542 22.7393 282.021 22.9132 281.476 23.2609C280.918 23.6085 280.509 24.0183 280.236 24.515L272.056 38.6836C271.758 39.1803 271.349 39.59 270.804 39.9377C270.259 40.2854 269.763 40.4593 269.292 40.4593H260.455C260.083 40.4593 259.822 40.3848 259.661 40.2233C259.5 40.0619 259.426 39.8508 259.426 39.5776C259.426 39.3293 259.513 39.0313 259.686 38.696L268.895 22.7517C269.168 22.255 269.577 21.8452 270.135 21.4975C270.693 21.1499 271.201 20.976 271.659 20.976H296.399V20.9512Z" fill="#0D542B"/>
<path d="M303.699 44.694C303.55 44.4456 303.476 44.0979 303.476 43.6633C303.476 43.1666 303.587 42.7196 303.81 42.3222C304.033 41.9124 304.145 41.5771 304.145 41.304C304.145 40.7327 303.773 40.4596 303.042 40.4596H290.66C290.312 40.4596 290.065 40.3726 289.903 40.1988C289.742 40.0249 289.668 39.8138 289.668 39.5655C289.668 39.3171 289.755 39.0191 289.928 38.6838L299.137 22.7396C299.41 22.2429 299.807 21.8331 300.352 21.4854C300.898 21.1377 301.406 20.9639 301.901 20.9639H326.654C327.025 20.9639 327.286 21.0508 327.447 21.2246C327.608 21.3985 327.682 21.6096 327.682 21.8579C327.682 22.1063 327.596 22.4043 327.422 22.7396L325.365 26.2786C325.067 26.7753 324.658 27.1851 324.113 27.5328C323.567 27.8805 323.059 28.0543 322.563 28.0543H313.726C313.379 28.0543 313.131 27.9674 312.97 27.7936C312.809 27.6197 312.734 27.4086 312.734 27.1603C312.734 26.9119 312.821 26.6139 312.995 26.2786L314.023 24.5029C314.197 24.1552 314.284 23.8572 314.284 23.6212C314.284 23.3729 314.209 23.1618 314.048 22.9879C313.887 22.8141 313.639 22.7272 313.292 22.7272C312.796 22.7272 312.276 22.901 311.73 23.2487C311.173 23.5964 310.764 24.0062 310.491 24.5029L303.339 36.9081C303.141 37.231 303.042 37.5414 303.042 37.827C303.042 38.0754 303.116 38.2741 303.277 38.4355C303.438 38.5969 303.699 38.6714 304.071 38.6714C304.566 38.6714 305.075 38.4976 305.62 38.1499C306.165 37.8022 306.574 37.3924 306.872 36.8957L309.933 31.5809C310.206 31.0842 310.615 30.6745 311.173 30.3268C311.73 29.9791 312.251 29.8052 312.734 29.8052H321.572C321.919 29.8052 322.167 29.8922 322.328 30.066C322.489 30.2398 322.563 30.4509 322.563 30.6993C322.563 30.9476 322.477 31.2457 322.303 31.5809L310.33 52.3929C310.181 52.6661 309.995 52.902 309.772 53.0883C309.549 53.287 309.338 53.3863 309.14 53.3863C308.892 53.3863 308.706 53.2497 308.582 52.9765L303.699 44.694Z" fill="#0D542B"/>
<path d="M356.972 20.9512C357.344 20.9512 357.604 21.0381 357.765 21.2119C357.926 21.3858 358.001 21.5969 358.001 21.8452C358.001 22.0936 357.914 22.3916 357.74 22.7269L348.531 38.6711C348.234 39.1678 347.825 39.5776 347.279 39.9253C346.734 40.273 346.238 40.4469 345.767 40.4469H321.015C320.643 40.4469 320.383 40.3724 320.222 40.2109C320.061 40.0495 319.986 39.8384 319.986 39.5652C319.986 39.3169 320.073 39.0188 320.247 38.6836L329.456 22.7393C329.729 22.2426 330.138 21.8328 330.695 21.4851C331.253 21.1374 331.761 20.9636 332.22 20.9636H356.972V20.9512ZM344.329 24.5026C344.503 24.1549 344.59 23.8569 344.59 23.621C344.59 23.3726 344.515 23.1615 344.354 22.9877C344.193 22.8138 343.945 22.7269 343.598 22.7269C343.102 22.7269 342.582 22.9007 342.036 23.2484C341.479 23.5961 341.07 24.0059 340.797 24.5026L333.645 36.9078C333.472 37.2555 333.385 37.5536 333.385 37.7895C333.385 38.0378 333.459 38.2489 333.62 38.4228C333.782 38.5966 334.029 38.6836 334.377 38.6836C334.872 38.6836 335.38 38.5097 335.926 38.162C336.471 37.8143 336.88 37.4045 337.178 36.9078L344.329 24.5026Z" fill="#0D542B"/>
<path fill-rule="evenodd" clip-rule="evenodd" d="M84.4199 30.361C84.6554 30.659 84.705 31.0564 84.5439 31.4041L82.7962 35.117C81.5568 37.7495 80.6644 39.4755 80.4537 39.6618C80.2553 39.8232 79.8711 40.0343 79.586 40.1337C79.1646 40.2703 79.0407 40.3944 78.9167 40.8166C78.5201 42.1826 76.7229 43.8465 75.1363 44.3433C74.1448 44.6537 72.4467 44.7406 71.294 44.5419C69.943 44.306 67.4393 43.474 65.0967 42.4806C63.8076 41.9218 62.4194 41.6486 61.0188 41.6486L54.0283 41.6859C43.7283 41.7356 44.3852 41.6859 42.1542 42.878C40.1587 43.9707 38.7581 45.2622 37.4318 47.249C36.7129 48.3417 35.771 50.1671 34.9405 52.0298C34.7174 52.5265 34.1225 52.7624 33.6267 52.5265L0.706494 37.4515L0 37.0914H60.6594C61.8617 37.0914 63.0392 37.3397 64.1423 37.8364C67.712 39.4259 71.4304 40.4938 73.0169 40.3572C74.9628 40.1958 76.5493 38.42 77.1195 35.7503C77.2558 35.0921 77.2434 35.0549 76.2766 33.0432C75.7561 31.9256 76.5493 31.3917 76.5493 31.3296C76.5493 31.2551 76.7972 30.7708 78.6193 30.7708H79.9579C80.7635 30.7708 81.2345 29.8519 80.7511 29.1937L80.2677 28.5356L78.8176 26.5736C78.6936 26.3998 78.6193 26.2011 78.6193 25.99V24.5868C78.6193 23.1091 78.644 22.898 78.8176 23.0594C78.9167 23.1712 80.1314 24.7482 81.5072 26.5612C82.8954 28.3866 84.1968 30.0878 84.4199 30.361Z" fill="#0D542B"/>
<path d="M53.4956 3.84968C53.5204 4.12287 53.2477 4.34638 52.975 4.27188C52.7891 4.22221 52.5412 4.13528 52.2809 4.03594C49.4921 2.93077 47.6329 4.19737 46.4306 8.03442C45.7737 10.1454 45.5878 13.0511 45.9968 15.4602C45.9968 15.4726 45.9968 15.4726 45.9968 15.485C46.1084 16.1556 45.3523 16.6274 44.7945 16.2425C44.5714 16.0811 44.3359 15.9072 44.1376 15.7085C43.3072 14.9386 42.5015 13.5603 42.2784 12.5296L42.266 12.4799C42.2289 12.2937 42.0553 12.1571 41.857 12.1571C40.3449 12.1695 39.5764 12.1819 39.5764 12.1819C36.7752 12.2192 35.9324 13.0015 35.9324 13.0015L35.92 13.0139C34.4326 13.6596 33.0444 15.4105 32.9949 15.485C32.6974 15.8824 32.4123 16.3046 32.1644 16.7268C31.2472 18.2293 30.6151 19.7318 30.4044 20.241L30.3052 20.2037L30.0325 20.0919C21.2323 16.0935 6.60665 9.40036 1.83471 7.17761C1.43809 6.99134 1.56203 6.3953 2.00824 6.3953C5.13169 6.35804 12.2214 6.32079 20.972 6.32079H41.4604C41.6463 6.32079 41.8198 6.1842 41.857 5.99793L42.0182 5.31496C42.6007 2.79418 44.212 0.832193 46.2447 0.198894C46.5546 0.0871349 47.3602 0.000211482 48.0048 0.000211482C49.9135 -0.0122062 51.277 0.521752 52.3925 1.72626C53.0122 2.39682 53.446 3.29089 53.4956 3.84968Z" fill="#0D542B"/>
<path fill-rule="evenodd" clip-rule="evenodd" d="M77.5161 20.0674C77.5161 21.2595 76.5617 22.2281 75.3719 22.2281H74.5662C72.9425 22.2281 71.6163 22.2902 71.6163 22.3523C71.6163 22.4268 71.7155 22.7372 71.8394 23.0725C72.2732 24.3515 72.5955 26.773 72.5955 29.0454V29.1571C72.5955 33.5406 71.8394 36.1359 70.5628 36.1359C70.352 36.1359 70.1785 35.962 70.1785 35.7509V33.3419C70.1785 31.1067 70.1289 30.3368 69.9182 29.4552C69.5712 27.9651 69.0258 26.5122 68.7531 26.3756C68.6292 26.3011 67.2038 25.7795 65.5801 25.2083C63.9564 24.6247 60.5974 23.4326 58.0937 22.5261L54.2886 21.1602C54.0655 21.0857 53.8796 20.9367 53.7556 20.7628C53.6193 20.589 53.5449 20.3655 53.5325 20.1295C53.5077 19.7073 53.8548 19.3472 54.2762 19.3472L63.3738 19.3224L73.2648 19.2851L69.7323 14.7775L69.2489 14.1566C68.2449 12.8776 67.1046 11.7104 65.8652 10.6797C64.6133 9.64904 63.2623 8.75497 61.8121 8.00991L58.1681 6.14727C57.7095 5.91133 57.3996 5.45188 57.3748 4.93034C57.35 4.30946 57.3748 4.08594 57.5112 4.08594C57.5112 4.08594 57.5112 4.08594 57.5236 4.08594C57.536 4.08594 57.536 4.08594 57.5484 4.08594C57.5608 4.08594 57.5856 4.09836 57.6103 4.09836C57.9202 4.16044 59.0729 4.4088 60.709 4.98001H60.7214C64.8364 6.40804 72.0005 9.84772 76.7353 17.3356C77.2187 18.1055 77.5161 18.9871 77.5409 19.906C77.5161 19.9557 77.5161 20.0053 77.5161 20.0674Z" fill="#0D542B"/>
</svg>
