<svg width="362" height="56" viewBox="0 0 362 56" fill="none" xmlns="http://www.w3.org/2000/svg">
<path d="M147.558 28.2663C147.261 28.7631 146.851 29.1728 146.306 29.5205C145.761 29.8682 145.253 30.0421 144.757 30.0421H137.456C136.651 30.0421 136.242 30.278 136.242 30.7375C136.242 30.9113 136.291 31.0603 136.39 31.1845L140.481 38.2005C140.679 38.5978 140.778 38.9579 140.778 39.3056C140.778 39.703 140.691 40.0879 140.505 40.4729C140.32 40.8578 140.084 41.1931 139.787 41.4911C139.489 41.7892 139.154 42.0251 138.77 42.1865C138.386 42.3604 138.002 42.4473 137.605 42.4473H128.768C128.396 42.4473 128.136 42.3728 127.974 42.2114C127.813 42.0499 127.739 41.8512 127.739 41.6029C127.739 41.3049 127.838 40.9944 128.036 40.684L133.118 31.8302C133.292 31.4825 133.379 31.1845 133.379 30.9113C133.379 30.663 133.304 30.4643 133.155 30.3028C133.007 30.1414 132.746 30.0669 132.387 30.0669C131.891 30.0669 131.383 30.2407 130.838 30.5884C130.292 30.9361 129.883 31.3459 129.586 31.8426L124.504 40.6964C124.206 41.1931 123.797 41.6029 123.252 41.9506C122.707 42.2983 122.199 42.4721 121.703 42.4721H112.853C112.481 42.4721 112.221 42.3976 112.06 42.2362C111.899 42.0499 111.824 41.8388 111.824 41.5905C111.824 41.2925 111.923 40.982 112.122 40.6716L129.214 10.9934C129.338 10.7451 129.511 10.5215 129.747 10.3104C129.982 10.0993 130.205 10 130.429 10C130.602 10 130.763 10.1242 130.912 10.3725L135.808 18.7172C135.957 19.0152 136.031 19.3505 136.031 19.7106C136.031 20.0335 135.994 20.3439 135.907 20.6295C135.82 20.9275 135.721 21.1883 135.597 21.3994L132.647 26.4906C132.474 26.8383 132.387 27.1363 132.387 27.3723C132.387 27.6455 132.461 27.8566 132.622 28.018C132.784 28.1794 133.044 28.2539 133.416 28.2539C133.911 28.2539 134.42 28.0801 134.94 27.7324C135.473 27.3847 135.882 26.9749 136.18 26.4782L137.208 24.7025C137.506 24.2058 137.915 23.796 138.46 23.4483C139.006 23.1006 139.514 22.9268 140.01 22.9268H148.847C149.219 22.9268 149.479 23.0013 149.615 23.1627C149.764 23.3241 149.839 23.5228 149.839 23.7712C149.839 24.0443 149.752 24.3548 149.578 24.6901L147.558 28.2663Z" fill="#BDFFA5"/>
<path d="M179.126 22.9512C179.473 22.9512 179.721 23.0381 179.882 23.2119C180.044 23.3858 180.118 23.5969 180.118 23.8452C180.118 24.0936 180.031 24.3916 179.858 24.7269L170.648 40.6711C170.351 41.1678 169.942 41.5776 169.397 41.9253C168.851 42.273 168.355 42.4469 167.884 42.4469H143.132C142.76 42.4469 142.5 42.3724 142.339 42.2109C142.178 42.0495 142.104 41.8384 142.104 41.5652C142.104 41.3169 142.19 41.0188 142.364 40.6836L146.454 33.5931C146.752 33.0964 147.161 32.6866 147.706 32.3389C148.251 31.9912 148.759 31.8174 149.255 31.8174H161.637C162.133 31.8174 162.641 31.6435 163.187 31.2958C163.732 30.9481 164.141 30.5383 164.439 30.0416L166.459 26.5026C166.633 26.1549 166.719 25.8569 166.719 25.5837C166.719 25.3354 166.645 25.1367 166.496 24.9752C166.347 24.8138 166.087 24.7393 165.728 24.7393C165.232 24.7393 164.724 24.9132 164.178 25.2609C163.633 25.6085 163.224 26.0183 162.927 26.515L161.898 28.2908C161.6 28.7875 161.179 29.1972 160.646 29.5449C160.101 29.8926 159.605 30.0665 159.134 30.0665H150.296C149.9 30.0665 149.627 29.992 149.491 29.8305C149.342 29.6691 149.268 29.4704 149.268 29.2221C149.268 28.9489 149.354 28.6384 149.528 28.3032L151.585 24.7641C151.858 24.2674 152.23 23.8577 152.726 23.51C153.222 23.1623 153.767 22.9884 154.387 22.9884H179.126V22.9512ZM161.377 35.3564C161.551 35.0087 161.637 34.7107 161.637 34.4375C161.637 34.1891 161.563 33.9905 161.414 33.829C161.266 33.6676 160.993 33.5931 160.609 33.5931C159.989 33.5931 159.444 33.7669 158.973 34.1146C158.489 34.4623 158.117 34.8721 157.845 35.3688L155.787 38.9078C155.614 39.2555 155.527 39.566 155.527 39.8267C155.527 40.0503 155.601 40.2489 155.75 40.4228C155.899 40.5966 156.159 40.6836 156.518 40.6836C157.014 40.6836 157.522 40.5097 158.068 40.162C158.613 39.8143 159.022 39.4045 159.32 38.9078L161.377 35.3564Z" fill="#BDFFA5"/>
<path d="M196.479 30.0416C196.132 30.0416 195.884 29.9547 195.723 29.7809C195.562 29.607 195.488 29.3959 195.488 29.1476C195.488 28.8992 195.574 28.6012 195.748 28.2659L196.777 26.4902C196.95 26.1425 197.037 25.8445 197.037 25.6085C197.037 25.3602 196.963 25.1491 196.801 24.9752C196.64 24.8014 196.38 24.7145 196.008 24.7145C195.438 24.7145 194.905 24.8883 194.409 25.236C193.901 25.5837 193.517 25.9935 193.244 26.4902L191.187 30.0292C191.013 30.3769 190.926 30.6749 190.926 30.9109C190.926 31.1841 191.001 31.3952 191.162 31.5566C191.323 31.718 191.583 31.7925 191.955 31.7925H204.337C204.684 31.7925 204.932 31.8795 205.093 32.0533C205.255 32.2271 205.329 32.4382 205.329 32.6866C205.329 32.935 205.242 33.233 205.069 33.5683L200.978 40.6587C200.681 41.1554 200.26 41.5652 199.727 41.9129C199.181 42.2606 198.673 42.4344 198.177 42.4344H173.425C173.078 42.4344 172.83 42.3475 172.669 42.1737C172.508 41.9998 172.434 41.7887 172.434 41.5404C172.434 41.292 172.52 40.994 172.694 40.6587L174.714 37.1197C174.987 36.623 175.396 36.2132 175.954 35.8655C176.511 35.5178 177.032 35.344 177.515 35.344H186.353C186.725 35.344 186.985 35.4185 187.121 35.5799C187.27 35.7413 187.344 35.94 187.344 36.1884C187.344 36.4616 187.258 36.772 187.084 37.1073L186.092 38.883C185.894 39.2059 185.795 39.5163 185.795 39.8019C185.795 40.0503 185.869 40.2489 186.031 40.4104C186.192 40.5718 186.452 40.6463 186.824 40.6463C187.32 40.6463 187.828 40.4725 188.373 40.1248C188.918 39.7771 189.327 39.3673 189.625 38.8706L191.645 35.3316C191.819 34.9839 191.906 34.6858 191.906 34.4127C191.906 34.1643 191.831 33.9656 191.682 33.8042C191.534 33.6428 191.273 33.5683 190.914 33.5683H178.532C178.16 33.5683 177.9 33.4937 177.739 33.3323C177.59 33.1833 177.515 32.9846 177.515 32.7363C177.515 32.4382 177.615 32.1278 177.813 31.8174L181.866 24.7269C182.139 24.2302 182.548 23.8204 183.105 23.4727C183.663 23.125 184.184 22.9512 184.667 22.9512H209.419C209.791 22.9512 210.051 23.0257 210.188 23.1871C210.336 23.3485 210.411 23.5472 210.411 23.7956C210.411 24.0688 210.324 24.3792 210.15 24.7145L208.13 28.2535C207.857 28.7502 207.448 29.16 206.891 29.5077C206.333 29.8554 205.812 30.0292 205.329 30.0292H196.479V30.0416Z" fill="#BDFFA5"/>
<path d="M226.773 30.0423C226.426 30.0423 226.178 29.9554 226.017 29.7816C225.856 29.6077 225.781 29.3966 225.781 29.1483C225.781 28.8999 225.868 28.6019 226.042 28.2666L227.07 26.4909C227.244 26.1432 227.331 25.8452 227.331 25.6092C227.331 25.3609 227.256 25.1498 227.095 24.9759C226.934 24.8021 226.674 24.7152 226.302 24.7152C225.732 24.7152 225.199 24.889 224.703 25.2367C224.195 25.5844 223.811 25.9942 223.538 26.4909L221.48 30.0299C221.307 30.3776 221.22 30.6756 221.22 30.9116C221.22 31.1848 221.294 31.3959 221.456 31.5573C221.617 31.7187 221.877 31.7932 222.249 31.7932H234.631C234.978 31.7932 235.226 31.8802 235.387 32.054C235.548 32.2278 235.623 32.439 235.623 32.6873C235.623 32.9357 235.536 33.2337 235.362 33.569L231.272 40.6594C230.975 41.1561 230.553 41.5659 230.02 41.9136C229.475 42.2613 228.967 42.4352 228.471 42.4352H203.706C203.359 42.4352 203.111 42.3482 202.95 42.1744C202.789 42.0005 202.715 41.7894 202.715 41.5411C202.715 41.2927 202.802 40.9947 202.975 40.6594L204.995 37.1204C205.268 36.6237 205.677 36.2139 206.235 35.8662C206.793 35.5185 207.313 35.3447 207.797 35.3447H216.634C217.006 35.3447 217.266 35.4192 217.402 35.5806C217.551 35.742 217.626 35.9407 217.626 36.1891C217.626 36.4623 217.539 36.7727 217.365 37.108L216.374 38.8837C216.175 39.2066 216.076 39.517 216.076 39.8026C216.076 40.051 216.151 40.2496 216.312 40.4111C216.473 40.5725 216.733 40.647 217.105 40.647C217.601 40.647 218.109 40.4732 218.654 40.1255C219.2 39.7778 219.609 39.368 219.906 38.8713L221.927 35.3323C222.1 34.9846 222.187 34.6865 222.187 34.4134C222.187 34.165 222.112 33.9663 221.964 33.8049C221.815 33.6435 221.555 33.569 221.195 33.569H208.813C208.441 33.569 208.181 33.4945 208.02 33.333C207.859 33.1716 207.784 32.9729 207.784 32.7246C207.784 32.4265 207.883 32.1161 208.082 31.8056L212.135 24.7152C212.407 24.2185 212.816 23.8087 213.374 23.461C213.932 23.1133 214.453 22.9395 214.936 22.9395H239.688C240.06 22.9395 240.32 23.014 240.457 23.1754C240.605 23.3368 240.68 23.5355 240.68 23.7839C240.68 24.057 240.593 24.3675 240.419 24.7028L238.399 28.2418C238.126 28.7385 237.717 29.1483 237.16 29.496C236.602 29.8437 236.081 30.0175 235.598 30.0175H226.773V30.0423Z" fill="#BDFFA5"/>
<path d="M269.943 22.9512C270.314 22.9512 270.575 23.0381 270.736 23.2119C270.897 23.3858 270.971 23.5969 270.971 23.8452C270.971 24.0936 270.885 24.3916 270.711 24.7269L261.502 40.6711C261.204 41.1678 260.795 41.5776 260.25 41.9253C259.705 42.273 259.209 42.4469 258.738 42.4469H233.986C233.614 42.4469 233.354 42.3724 233.193 42.2109C233.031 42.0495 232.957 41.8384 232.957 41.5652C232.957 41.3169 233.044 41.0188 233.217 40.6836L242.427 24.7393C242.699 24.2426 243.108 23.8328 243.666 23.4851C244.224 23.1374 244.732 22.9636 245.191 22.9636H269.943V22.9512ZM257.313 26.5026C257.486 26.1549 257.573 25.8569 257.573 25.621C257.573 25.3726 257.498 25.1615 257.337 24.9877C257.176 24.8138 256.928 24.7269 256.581 24.7269C256.085 24.7269 255.565 24.9007 255.019 25.2484C254.462 25.5961 254.053 26.0059 253.78 26.5026L246.628 38.9078C246.455 39.2555 246.368 39.5536 246.368 39.7895C246.368 40.0378 246.442 40.2489 246.604 40.4228C246.765 40.5966 247.013 40.6836 247.36 40.6836C247.855 40.6836 248.364 40.5097 248.909 40.162C249.454 39.8143 249.863 39.4045 250.161 38.9078L257.313 26.5026Z" fill="#BDFFA5"/>
<path d="M300.223 22.9512C300.595 22.9512 300.855 23.0381 301.016 23.2119C301.178 23.3858 301.252 23.5969 301.252 23.8452C301.252 24.0936 301.165 24.3916 300.992 24.7269L291.782 40.6711C291.485 41.1678 291.076 41.5776 290.531 41.9253C289.985 42.273 289.489 42.4469 289.018 42.4469H280.181C279.809 42.4469 279.549 42.3724 279.388 42.2109C279.227 42.0495 279.152 41.8384 279.152 41.5652C279.152 41.3169 279.239 41.0188 279.413 40.6836L287.593 26.515C287.767 26.1673 287.853 25.8693 287.853 25.6334C287.853 25.385 287.779 25.1739 287.618 25.0001C287.457 24.8262 287.209 24.7393 286.862 24.7393C286.366 24.7393 285.845 24.9132 285.3 25.2609C284.742 25.6085 284.333 26.0183 284.061 26.515L275.88 40.6836C275.583 41.1803 275.174 41.59 274.628 41.9377C274.083 42.2854 273.587 42.4593 273.116 42.4593H264.279C263.907 42.4593 263.647 42.3848 263.486 42.2233C263.324 42.0619 263.25 41.8508 263.25 41.5776C263.25 41.3293 263.337 41.0313 263.51 40.696L272.72 24.7517C272.992 24.255 273.401 23.8452 273.959 23.4975C274.517 23.1499 275.025 22.976 275.484 22.976H300.223V22.9512Z" fill="#BDFFA5"/>
<path d="M307.523 46.694C307.374 46.4456 307.3 46.0979 307.3 45.6633C307.3 45.1666 307.411 44.7196 307.634 44.3222C307.858 43.9124 307.969 43.5771 307.969 43.304C307.969 42.7327 307.597 42.4596 306.866 42.4596H294.484C294.137 42.4596 293.889 42.3726 293.728 42.1988C293.567 42.0249 293.492 41.8138 293.492 41.5655C293.492 41.3171 293.579 41.0191 293.752 40.6838L302.962 24.7396C303.234 24.2429 303.631 23.8331 304.176 23.4854C304.722 23.1377 305.23 22.9639 305.726 22.9639H330.478C330.85 22.9639 331.11 23.0508 331.271 23.2246C331.432 23.3985 331.507 23.6096 331.507 23.8579C331.507 24.1063 331.42 24.4043 331.246 24.7396L329.189 28.2786C328.891 28.7753 328.482 29.1851 327.937 29.5328C327.392 29.8805 326.883 30.0543 326.388 30.0543H317.55C317.203 30.0543 316.955 29.9674 316.794 29.7936C316.633 29.6197 316.559 29.4086 316.559 29.1603C316.559 28.9119 316.645 28.6139 316.819 28.2786L317.848 26.5029C318.021 26.1552 318.108 25.8572 318.108 25.6212C318.108 25.3729 318.034 25.1618 317.872 24.9879C317.711 24.8141 317.463 24.7272 317.116 24.7272C316.621 24.7272 316.1 24.901 315.555 25.2487C314.997 25.5964 314.588 26.0062 314.315 26.5029L307.163 38.9081C306.965 39.231 306.866 39.5414 306.866 39.827C306.866 40.0754 306.94 40.2741 307.102 40.4355C307.263 40.5969 307.523 40.6714 307.895 40.6714C308.391 40.6714 308.899 40.4976 309.444 40.1499C309.989 39.8022 310.398 39.3924 310.696 38.8957L313.757 33.5809C314.03 33.0842 314.439 32.6745 314.997 32.3268C315.555 31.9791 316.075 31.8052 316.559 31.8052H325.396C325.743 31.8052 325.991 31.8922 326.152 32.066C326.313 32.2398 326.388 32.4509 326.388 32.6993C326.388 32.9476 326.301 33.2457 326.127 33.5809L314.154 54.3929C314.005 54.6661 313.819 54.902 313.596 55.0883C313.373 55.287 313.162 55.3863 312.964 55.3863C312.716 55.3863 312.53 55.2497 312.406 54.9765L307.523 46.694Z" fill="#BDFFA5"/>
<path d="M360.796 22.9512C361.168 22.9512 361.428 23.0381 361.589 23.2119C361.751 23.3858 361.825 23.5969 361.825 23.8452C361.825 24.0936 361.738 24.3916 361.565 24.7269L352.355 40.6711C352.058 41.1678 351.649 41.5776 351.104 41.9253C350.558 42.273 350.062 42.4469 349.591 42.4469H324.839C324.467 42.4469 324.207 42.3724 324.046 42.2109C323.885 42.0495 323.811 41.8384 323.811 41.5652C323.811 41.3169 323.897 41.0188 324.071 40.6836L333.28 24.7393C333.553 24.2426 333.962 23.8328 334.52 23.4851C335.077 23.1374 335.585 22.9636 336.044 22.9636H360.796V22.9512ZM348.154 26.5026C348.327 26.1549 348.414 25.8569 348.414 25.621C348.414 25.3726 348.34 25.1615 348.178 24.9877C348.017 24.8138 347.769 24.7269 347.422 24.7269C346.927 24.7269 346.406 24.9007 345.861 25.2484C345.303 25.5961 344.894 26.0059 344.621 26.5026L337.469 38.9078C337.296 39.2555 337.209 39.5536 337.209 39.7895C337.209 40.0378 337.284 40.2489 337.445 40.4228C337.606 40.5966 337.854 40.6836 338.201 40.6836C338.697 40.6836 339.205 40.5097 339.75 40.162C340.295 39.8143 340.704 39.4045 341.002 38.9078L348.154 26.5026Z" fill="#BDFFA5"/>
<path fill-rule="evenodd" clip-rule="evenodd" d="M84.4199 30.361C84.6554 30.659 84.705 31.0564 84.5439 31.4041L82.7962 35.117C81.5568 37.7495 80.6644 39.4755 80.4537 39.6618C80.2553 39.8232 79.8711 40.0343 79.586 40.1337C79.1646 40.2703 79.0407 40.3944 78.9167 40.8166C78.5201 42.1826 76.7229 43.8465 75.1363 44.3433C74.1448 44.6537 72.4467 44.7406 71.294 44.5419C69.943 44.306 67.4393 43.474 65.0967 42.4806C63.8076 41.9218 62.4194 41.6486 61.0188 41.6486L54.0283 41.6859C43.7283 41.7356 44.3852 41.6859 42.1542 42.878C40.1587 43.9707 38.7581 45.2622 37.4318 47.249C36.7129 48.3417 35.771 50.1671 34.9405 52.0298C34.7174 52.5265 34.1225 52.7624 33.6267 52.5265L0.706494 37.4515L0 37.0914H60.6594C61.8617 37.0914 63.0392 37.3397 64.1423 37.8364C67.712 39.4259 71.4304 40.4938 73.0169 40.3572C74.9628 40.1958 76.5493 38.42 77.1195 35.7503C77.2558 35.0921 77.2434 35.0549 76.2766 33.0432C75.7561 31.9256 76.5493 31.3917 76.5493 31.3296C76.5493 31.2551 76.7972 30.7708 78.6193 30.7708H79.9579C80.7635 30.7708 81.2345 29.8519 80.7511 29.1937L80.2677 28.5356L78.8176 26.5736C78.6936 26.3998 78.6193 26.2011 78.6193 25.99V24.5868C78.6193 23.1091 78.644 22.898 78.8176 23.0594C78.9167 23.1712 80.1314 24.7482 81.5072 26.5612C82.8954 28.3866 84.1968 30.0878 84.4199 30.361Z" fill="#BDFFA5"/>
<path d="M53.4956 3.84968C53.5204 4.12287 53.2477 4.34638 52.975 4.27188C52.7891 4.22221 52.5412 4.13528 52.2809 4.03594C49.4921 2.93077 47.6329 4.19737 46.4306 8.03442C45.7737 10.1454 45.5878 13.0511 45.9968 15.4602C45.9968 15.4726 45.9968 15.4726 45.9968 15.485C46.1084 16.1556 45.3523 16.6274 44.7945 16.2425C44.5714 16.0811 44.3359 15.9072 44.1376 15.7085C43.3072 14.9386 42.5015 13.5603 42.2784 12.5296L42.266 12.4799C42.2289 12.2937 42.0553 12.1571 41.857 12.1571C40.3449 12.1695 39.5764 12.1819 39.5764 12.1819C36.7752 12.2192 35.9324 13.0015 35.9324 13.0015L35.92 13.0139C34.4326 13.6596 33.0444 15.4105 32.9949 15.485C32.6974 15.8824 32.4123 16.3046 32.1644 16.7268C31.2472 18.2293 30.6151 19.7318 30.4044 20.241L30.3052 20.2037L30.0325 20.0919C21.2323 16.0935 6.60665 9.40036 1.83471 7.17761C1.43809 6.99134 1.56203 6.3953 2.00824 6.3953C5.13169 6.35804 12.2214 6.32079 20.972 6.32079H41.4604C41.6463 6.32079 41.8198 6.1842 41.857 5.99793L42.0182 5.31496C42.6007 2.79418 44.212 0.832193 46.2447 0.198894C46.5546 0.0871349 47.3602 0.000211482 48.0048 0.000211482C49.9135 -0.0122062 51.277 0.521752 52.3925 1.72626C53.0122 2.39682 53.446 3.29089 53.4956 3.84968Z" fill="#BDFFA5"/>
<path fill-rule="evenodd" clip-rule="evenodd" d="M77.5161 20.0674C77.5161 21.2595 76.5617 22.2281 75.3719 22.2281H74.5662C72.9425 22.2281 71.6163 22.2902 71.6163 22.3523C71.6163 22.4268 71.7155 22.7372 71.8394 23.0725C72.2732 24.3515 72.5955 26.773 72.5955 29.0454V29.1571C72.5955 33.5406 71.8394 36.1359 70.5628 36.1359C70.352 36.1359 70.1785 35.962 70.1785 35.7509V33.3419C70.1785 31.1067 70.1289 30.3368 69.9182 29.4552C69.5712 27.9651 69.0258 26.5122 68.7531 26.3756C68.6292 26.3011 67.2038 25.7795 65.5801 25.2083C63.9564 24.6247 60.5974 23.4326 58.0937 22.5261L54.2886 21.1602C54.0655 21.0857 53.8796 20.9367 53.7556 20.7628C53.6193 20.589 53.5449 20.3655 53.5325 20.1295C53.5077 19.7073 53.8548 19.3472 54.2762 19.3472L63.3738 19.3224L73.2648 19.2851L69.7323 14.7775L69.2489 14.1566C68.2449 12.8776 67.1046 11.7104 65.8652 10.6797C64.6133 9.64904 63.2623 8.75497 61.8121 8.00991L58.1681 6.14727C57.7095 5.91133 57.3996 5.45188 57.3748 4.93034C57.35 4.30946 57.3748 4.08594 57.5112 4.08594C57.5112 4.08594 57.5112 4.08594 57.5236 4.08594C57.536 4.08594 57.536 4.08594 57.5484 4.08594C57.5608 4.08594 57.5856 4.09836 57.6103 4.09836C57.9202 4.16044 59.0729 4.4088 60.709 4.98001H60.7214C64.8364 6.40804 72.0005 9.84772 76.7353 17.3356C77.2187 18.1055 77.5161 18.9871 77.5409 19.906C77.5161 19.9557 77.5161 20.0053 77.5161 20.0674Z" fill="#BDFFA5"/>
</svg>
