<svg width="39" height="24" viewBox="0 0 39 24" fill="none" xmlns="http://www.w3.org/2000/svg">
<g clip-path="url(#clip0_1174_745)">
<path fill-rule="evenodd" clip-rule="evenodd" d="M38.9029 13.8523C39.0114 13.9883 39.0343 14.1696 38.96 14.3282L38.1547 16.0223C37.5835 17.2234 37.1722 18.011 37.0751 18.0959C36.9837 18.1696 36.8067 18.2659 36.6753 18.3112C36.4811 18.3736 36.424 18.4302 36.3669 18.6229C36.1841 19.2461 35.3559 20.0053 34.6248 20.2319C34.1678 20.3736 33.3853 20.4132 32.8541 20.3226C32.2315 20.2149 31.0778 19.8353 29.9982 19.3821C29.4042 19.1271 28.7645 19.0025 28.1191 19.0025L24.8976 19.0195C20.1511 19.0421 20.4539 19.0195 19.4257 19.5634C18.5062 20.062 17.8607 20.6512 17.2496 21.5577C16.9183 22.0563 16.4842 22.8891 16.1015 23.739C15.9987 23.9656 15.7245 24.0733 15.496 23.9656L0.325571 17.0874L0 16.9231H27.9534C28.5075 16.9231 29.0501 17.0365 29.5584 17.2631C31.2034 17.9883 32.917 18.4755 33.6481 18.4132C34.5448 18.3396 35.2759 17.5294 35.5387 16.3112C35.6015 16.011 35.5958 15.994 35.1503 15.0761C34.9104 14.5662 35.2759 14.3226 35.2759 14.2942C35.2759 14.2603 35.3902 14.0393 36.2298 14.0393H36.8467C37.2179 14.0393 37.435 13.62 37.2122 13.3197L36.9895 13.0195L36.3212 12.1243C36.2641 12.045 36.2298 11.9543 36.2298 11.858V11.2178C36.2298 10.5435 36.2412 10.4472 36.3212 10.5209C36.3669 10.5719 36.9266 11.2914 37.5606 12.1186C38.2004 12.9515 38.8001 13.7277 38.9029 13.8523Z" fill="#49AD37"/>
<path d="M24.652 1.75647C24.6634 1.88112 24.5378 1.9831 24.4121 1.9491C24.3322 1.92644 24.2179 1.88678 24.098 1.84146C22.8128 1.33721 21.9561 1.91511 21.402 3.66582C21.0993 4.62899 21.0136 5.95477 21.2021 7.05392C21.2021 7.05959 21.2021 7.05959 21.2021 7.06525C21.2535 7.3712 20.9051 7.5865 20.6481 7.41086C20.5453 7.33721 20.4367 7.25789 20.3453 7.16723C19.9627 6.81596 19.5914 6.18707 19.4886 5.71681L19.4829 5.69415C19.4657 5.60916 19.3858 5.54684 19.2944 5.54684C18.5975 5.5525 18.2434 5.55817 18.2434 5.55817C16.9525 5.57517 16.5641 5.93211 16.5641 5.93211L16.5584 5.93777C15.873 6.23239 15.2333 7.03126 15.2105 7.06525C15.0734 7.24656 14.942 7.43919 14.8278 7.63182C14.4051 8.31738 14.1138 9.00293 14.0167 9.23522L13.971 9.21823L13.8453 9.16723C9.78998 7.34287 3.05009 4.28905 0.851052 3.27488C0.662563 3.1899 0.725393 2.91794 0.925305 2.91794C2.36467 2.90095 5.63181 2.88395 9.66432 2.88395H19.1059C19.1916 2.88395 19.2715 2.82163 19.2887 2.73664L19.3629 2.42503C19.6314 1.27488 20.3739 0.3797 21.3106 0.090748C21.4591 0.0397565 21.8247 9.64918e-05 22.1217 9.64918e-05C23.0013 -0.00556923 23.6296 0.238057 24.1437 0.787632C24.4293 1.09358 24.6292 1.50151 24.652 1.75647Z" fill="#49AD37"/>
<path fill-rule="evenodd" clip-rule="evenodd" d="M35.7214 9.15507C35.7214 9.69898 35.2816 10.1409 34.7333 10.1409H34.362C33.6138 10.1409 33.0026 10.1692 33.0026 10.1976C33.0026 10.2316 33.0483 10.3732 33.1054 10.5262C33.3054 11.1097 33.4539 12.2146 33.4539 13.2514V13.3024C33.4539 15.3024 33.1054 16.4865 32.5171 16.4865C32.42 16.4865 32.3401 16.4072 32.3401 16.3109V15.2117C32.3401 14.1919 32.3172 13.8406 32.2201 13.4384C32.0602 12.7585 31.8089 12.0956 31.6832 12.0333C31.6261 11.9993 30.9692 11.7613 30.221 11.5007C29.4728 11.2344 27.9249 10.6905 26.7711 10.2769L25.0176 9.65365C24.9148 9.61966 24.8291 9.55167 24.772 9.47235C24.7091 9.39303 24.6749 9.29104 24.6692 9.18339C24.6577 8.99076 24.8177 8.82645 25.0119 8.82645L29.2043 8.81512L33.7623 8.79813L32.1344 6.74147L31.9117 6.45818C31.449 5.87461 30.9235 5.34204 30.3524 4.87178C29.7755 4.40153 29.1529 3.99359 28.4846 3.65365L26.8054 2.80379C26.594 2.69614 26.4512 2.48651 26.4398 2.24855C26.4284 1.96526 26.4398 1.86328 26.5026 1.86328C26.5026 1.86328 26.5026 1.86328 26.5083 1.86328C26.5141 1.86328 26.5141 1.86328 26.5198 1.86328C26.5255 1.86328 26.5369 1.86895 26.5483 1.86895C26.6911 1.89728 27.2223 2.01059 27.9763 2.27121H27.982C29.8783 2.92277 33.1797 4.49218 35.3616 7.90861C35.5844 8.25988 35.7214 8.66215 35.7329 9.08141C35.7214 9.10407 35.7214 9.12674 35.7214 9.15507Z" fill="#49AD37"/>
</g>
<defs>
<clipPath id="clip0_1174_745">
<rect width="39" height="24" fill="white"/>
</clipPath>
</defs>
</svg>
