<svg width="335" height="53" viewBox="0 0 335 53" fill="none" xmlns="http://www.w3.org/2000/svg">
<path d="M35.7338 18.2663C35.4363 18.7631 35.0273 19.1728 34.4819 19.5205C33.9365 19.8682 33.4284 20.0421 32.9326 20.0421H25.6321C24.8265 20.0421 24.4175 20.278 24.4175 20.7375C24.4175 20.9113 24.467 21.0603 24.5662 21.1845L28.6564 28.2005C28.8547 28.5978 28.9539 28.9579 28.9539 29.3056C28.9539 29.703 28.8671 30.0879 28.6812 30.4729C28.4953 30.8578 28.2598 31.1931 27.9623 31.4911C27.6648 31.7892 27.3302 32.0251 26.946 32.1865C26.5617 32.3604 26.1775 32.4473 25.7809 32.4473H16.9435C16.5716 32.4473 16.3114 32.3728 16.1502 32.2114C15.9891 32.0499 15.9147 31.8512 15.9147 31.6029C15.9147 31.3049 16.0139 30.9944 16.2122 30.684L21.294 21.8302C21.4675 21.4825 21.5543 21.1845 21.5543 20.9113C21.5543 20.663 21.4799 20.4643 21.3312 20.3028C21.1824 20.1414 20.9222 20.0669 20.5627 20.0669C20.0669 20.0669 19.5588 20.2407 19.0134 20.5884C18.468 20.9361 18.059 21.3459 17.7615 21.8426L12.6797 30.6964C12.3823 31.1931 11.9732 31.6029 11.4279 31.9506C10.8825 32.2983 10.3743 32.4721 9.87853 32.4721H1.02876C0.656916 32.4721 0.396629 32.3976 0.235498 32.2362C0.0743679 32.0499 0 31.8388 0 31.5905C0 31.2925 0.0991572 30.982 0.297471 30.6716L17.3897 0.99341C17.5136 0.745057 17.6872 0.521541 17.9227 0.310441C18.1582 0.0993411 18.3813 0 18.6044 0C18.7779 0 18.939 0.124175 19.0878 0.372528L23.9836 8.71718C24.1324 9.01521 24.2067 9.35048 24.2067 9.71059C24.2067 10.0335 24.1696 10.3439 24.0828 10.6295C23.996 10.9275 23.8969 11.1883 23.7729 11.3994L20.823 16.4906C20.6495 16.8383 20.5627 17.1363 20.5627 17.3723C20.5627 17.6455 20.6371 17.8566 20.7982 18.018C20.9593 18.1794 21.2196 18.2539 21.5915 18.2539C22.0873 18.2539 22.5954 18.0801 23.116 17.7324C23.649 17.3847 24.058 16.9749 24.3555 16.4782L25.3842 14.7025C25.6817 14.2058 26.0907 13.796 26.6361 13.4483C27.1815 13.1006 27.6896 12.9268 28.1854 12.9268H37.0228C37.3946 12.9268 37.6549 13.0013 37.7913 13.1627C37.94 13.3241 38.0144 13.5228 38.0144 13.7712C38.0144 14.0443 37.9276 14.3548 37.7541 14.6901L35.7338 18.2663Z" fill="#0D542B"/>
<path d="M67.3021 12.9512C67.6492 12.9512 67.897 13.0381 68.0582 13.2119C68.2193 13.3858 68.2937 13.5969 68.2937 13.8452C68.2937 14.0936 68.2069 14.3916 68.0334 14.7269L58.8242 30.6711C58.5267 31.1678 58.1177 31.5776 57.5723 31.9253C57.0269 32.273 56.5312 32.4469 56.0602 32.4469H31.3081C30.9362 32.4469 30.6759 32.3724 30.5148 32.2109C30.3537 32.0495 30.2793 31.8384 30.2793 31.5652C30.2793 31.3169 30.3661 31.0188 30.5396 30.6836L34.6298 23.5931C34.9273 23.0964 35.3363 22.6866 35.8817 22.3389C36.427 21.9912 36.9352 21.8174 37.431 21.8174H49.8133C50.309 21.8174 50.8172 21.6435 51.3626 21.2958C51.908 20.9481 52.317 20.5383 52.6145 20.0416L54.6348 16.5026C54.8083 16.1549 54.8951 15.8569 54.8951 15.5837C54.8951 15.3354 54.8207 15.1367 54.672 14.9752C54.5232 14.8138 54.2629 14.7393 53.9035 14.7393C53.4077 14.7393 52.8995 14.9132 52.3542 15.2609C51.8088 15.6085 51.3998 16.0183 51.1023 16.515L50.0735 18.2908C49.7761 18.7875 49.3547 19.1972 48.8217 19.5449C48.2763 19.8926 47.7805 20.0665 47.3095 20.0665H38.4722C38.0755 20.0665 37.8028 19.992 37.6665 19.8305C37.5178 19.6691 37.4434 19.4704 37.4434 19.2221C37.4434 18.9489 37.5302 18.6384 37.7037 18.3032L39.7612 14.7641C40.0339 14.2674 40.4057 13.8577 40.9015 13.51C41.3973 13.1623 41.9427 12.9884 42.5624 12.9884H67.3021V12.9512ZM49.553 25.3564C49.7265 25.0087 49.8133 24.7107 49.8133 24.4375C49.8133 24.1891 49.7389 23.9905 49.5902 23.829C49.4414 23.6676 49.1687 23.5931 48.7845 23.5931C48.1648 23.5931 47.6194 23.7669 47.1484 24.1146C46.665 24.4623 46.2932 24.8721 46.0205 25.3688L43.963 28.9078C43.7895 29.2555 43.7027 29.566 43.7027 29.8267C43.7027 30.0503 43.7771 30.2489 43.9258 30.4228C44.0745 30.5966 44.3348 30.6836 44.6943 30.6836C45.1901 30.6836 45.6982 30.5097 46.2436 30.162C46.789 29.8143 47.198 29.4045 47.4955 28.9078L49.553 25.3564Z" fill="#0D542B"/>
<path d="M84.655 20.0416C84.3079 20.0416 84.06 19.9547 83.8989 19.7809C83.7378 19.607 83.6634 19.3959 83.6634 19.1476C83.6634 18.8992 83.7502 18.6012 83.9237 18.2659L84.9525 16.4902C85.126 16.1425 85.2127 15.8445 85.2127 15.6085C85.2127 15.3602 85.1384 15.1491 84.9772 14.9752C84.8161 14.8014 84.5558 14.7145 84.184 14.7145C83.6138 14.7145 83.0809 14.8883 82.5851 15.236C82.0769 15.5837 81.6927 15.9935 81.42 16.4902L79.3625 20.0292C79.1889 20.3769 79.1022 20.6749 79.1022 20.9109C79.1022 21.1841 79.1766 21.3952 79.3377 21.5566C79.4988 21.718 79.7591 21.7925 80.1309 21.7925H92.5132C92.8602 21.7925 93.1081 21.8795 93.2693 22.0533C93.4304 22.2271 93.5048 22.4382 93.5048 22.6866C93.5048 22.935 93.418 23.233 93.2445 23.5683L89.1542 30.6587C88.8568 31.1554 88.4353 31.5652 87.9024 31.9129C87.357 32.2606 86.8488 32.4344 86.353 32.4344H61.6009C61.2539 32.4344 61.006 32.3475 60.8449 32.1737C60.6837 31.9998 60.6094 31.7887 60.6094 31.5404C60.6094 31.292 60.6961 30.994 60.8697 30.6587L62.89 27.1197C63.1627 26.623 63.5717 26.2132 64.1295 25.8655C64.6872 25.5178 65.2078 25.344 65.6912 25.344H74.5286C74.9004 25.344 75.1607 25.4185 75.297 25.5799C75.4458 25.7413 75.5201 25.94 75.5201 26.1884C75.5201 26.4616 75.4334 26.772 75.2598 27.1073L74.2683 28.883C74.07 29.2059 73.9708 29.5163 73.9708 29.8019C73.9708 30.0503 74.0452 30.2489 74.2063 30.4104C74.3674 30.5718 74.6277 30.6463 74.9996 30.6463C75.4953 30.6463 76.0035 30.4725 76.5489 30.1248C77.0942 29.7771 77.5033 29.3673 77.8007 28.8706L79.8211 25.3316C79.9946 24.9839 80.0814 24.6858 80.0814 24.4127C80.0814 24.1643 80.007 23.9656 79.8583 23.8042C79.7095 23.6428 79.4492 23.5683 79.0898 23.5683H66.7075C66.3357 23.5683 66.0754 23.4937 65.9143 23.3323C65.7655 23.1833 65.6912 22.9846 65.6912 22.7363C65.6912 22.4382 65.7903 22.1278 65.9887 21.8174L70.0417 14.7269C70.3144 14.2302 70.7234 13.8204 71.2812 13.4727C71.8389 13.125 72.3595 12.9512 72.8429 12.9512H97.595C97.9668 12.9512 98.2271 13.0257 98.3635 13.1871C98.5122 13.3485 98.5866 13.5472 98.5866 13.7956C98.5866 14.0688 98.4998 14.3792 98.3263 14.7145L96.3059 18.2535C96.0333 18.7502 95.6242 19.16 95.0665 19.5077C94.5087 19.8554 93.9882 20.0292 93.5048 20.0292H84.655V20.0416Z" fill="#0D542B"/>
<path d="M114.949 20.0423C114.602 20.0423 114.354 19.9554 114.193 19.7816C114.031 19.6077 113.957 19.3966 113.957 19.1483C113.957 18.8999 114.044 18.6019 114.217 18.2666L115.246 16.4909C115.42 16.1432 115.506 15.8452 115.506 15.6092C115.506 15.3609 115.432 15.1498 115.271 14.9759C115.11 14.8021 114.849 14.7152 114.478 14.7152C113.907 14.7152 113.375 14.889 112.879 15.2367C112.371 15.5844 111.986 15.9942 111.714 16.4909L109.656 20.0299C109.483 20.3776 109.396 20.6756 109.396 20.9116C109.396 21.1848 109.47 21.3959 109.631 21.5573C109.792 21.7187 110.053 21.7932 110.425 21.7932H122.807C123.154 21.7932 123.402 21.8802 123.563 22.054C123.724 22.2278 123.798 22.439 123.798 22.6873C123.798 22.9357 123.712 23.2337 123.538 23.569L119.448 30.6594C119.15 31.1561 118.729 31.5659 118.196 31.9136C117.651 32.2613 117.142 32.4352 116.647 32.4352H91.8822C91.5351 32.4352 91.2872 32.3482 91.1261 32.1744C90.965 32.0005 90.8906 31.7894 90.8906 31.5411C90.8906 31.2927 90.9774 30.9947 91.1509 30.6594L93.1712 27.1204C93.4439 26.6237 93.8529 26.2139 94.4107 25.8662C94.9685 25.5185 95.489 25.3447 95.9724 25.3447H104.81C105.182 25.3447 105.442 25.4192 105.578 25.5806C105.727 25.742 105.801 25.9407 105.801 26.1891C105.801 26.4623 105.715 26.7727 105.541 27.108L104.55 28.8837C104.351 29.2066 104.252 29.517 104.252 29.8026C104.252 30.051 104.326 30.2496 104.488 30.4111C104.649 30.5725 104.909 30.647 105.281 30.647C105.777 30.647 106.285 30.4732 106.83 30.1255C107.376 29.7778 107.785 29.368 108.082 28.8713L110.102 25.3323C110.276 24.9846 110.363 24.6865 110.363 24.4134C110.363 24.165 110.288 23.9663 110.14 23.8049C109.991 23.6435 109.73 23.569 109.371 23.569H96.9888C96.6169 23.569 96.3567 23.4945 96.1955 23.333C96.0344 23.1716 95.96 22.9729 95.96 22.7246C95.96 22.4265 96.0592 22.1161 96.2575 21.8056L100.311 14.7152C100.583 14.2185 100.992 13.8087 101.55 13.461C102.108 13.1133 102.628 12.9395 103.112 12.9395H127.864C128.236 12.9395 128.496 13.014 128.632 13.1754C128.781 13.3368 128.855 13.5355 128.855 13.7839C128.855 14.057 128.769 14.3675 128.595 14.7028L126.575 18.2418C126.302 18.7385 125.893 19.1483 125.335 19.496C124.778 19.8437 124.257 20.0175 123.774 20.0175H114.949V20.0423Z" fill="#0D542B"/>
<path d="M158.118 12.9512C158.49 12.9512 158.751 13.0381 158.912 13.2119C159.073 13.3858 159.147 13.5969 159.147 13.8452C159.147 14.0936 159.06 14.3916 158.887 14.7269L149.678 30.6711C149.38 31.1678 148.971 31.5776 148.426 31.9253C147.88 32.273 147.385 32.4469 146.914 32.4469H122.162C121.79 32.4469 121.529 32.3724 121.368 32.2109C121.207 32.0495 121.133 31.8384 121.133 31.5652C121.133 31.3169 121.22 31.0188 121.393 30.6836L130.602 14.7393C130.875 14.2426 131.284 13.8328 131.842 13.4851C132.4 13.1374 132.908 12.9636 133.366 12.9636H158.118V12.9512ZM145.488 16.5026C145.662 16.1549 145.749 15.8569 145.749 15.621C145.749 15.3726 145.674 15.1615 145.513 14.9877C145.352 14.8138 145.104 14.7269 144.757 14.7269C144.261 14.7269 143.741 14.9007 143.195 15.2484C142.638 15.5961 142.228 16.0059 141.956 16.5026L134.804 28.9078C134.631 29.2555 134.544 29.5536 134.544 29.7895C134.544 30.0378 134.618 30.2489 134.779 30.4228C134.94 30.5966 135.188 30.6836 135.535 30.6836C136.031 30.6836 136.539 30.5097 137.085 30.162C137.63 29.8143 138.039 29.4045 138.337 28.9078L145.488 16.5026Z" fill="#0D542B"/>
<path d="M188.399 12.9512C188.771 12.9512 189.031 13.0381 189.192 13.2119C189.353 13.3858 189.428 13.5969 189.428 13.8452C189.428 14.0936 189.341 14.3916 189.167 14.7269L179.958 30.6711C179.661 31.1678 179.252 31.5776 178.706 31.9253C178.161 32.273 177.665 32.4469 177.194 32.4469H168.357C167.985 32.4469 167.725 32.3724 167.564 32.2109C167.402 32.0495 167.328 31.8384 167.328 31.5652C167.328 31.3169 167.415 31.0188 167.588 30.6836L175.769 16.515C175.942 16.1673 176.029 15.8693 176.029 15.6334C176.029 15.385 175.955 15.1739 175.794 15.0001C175.633 14.8262 175.385 14.7393 175.038 14.7393C174.542 14.7393 174.021 14.9132 173.476 15.2609C172.918 15.6085 172.509 16.0183 172.236 16.515L164.056 30.6836C163.758 31.1803 163.349 31.59 162.804 31.9377C162.259 32.2854 161.763 32.4593 161.292 32.4593H152.455C152.083 32.4593 151.822 32.3848 151.661 32.2233C151.5 32.0619 151.426 31.8508 151.426 31.5776C151.426 31.3293 151.513 31.0313 151.686 30.696L160.895 14.7517C161.168 14.255 161.577 13.8452 162.135 13.4975C162.693 13.1499 163.201 12.976 163.659 12.976H188.399V12.9512Z" fill="#0D542B"/>
<path d="M195.699 36.694C195.55 36.4456 195.476 36.0979 195.476 35.6633C195.476 35.1666 195.587 34.7196 195.81 34.3222C196.033 33.9124 196.145 33.5771 196.145 33.304C196.145 32.7327 195.773 32.4596 195.042 32.4596H182.66C182.312 32.4596 182.065 32.3726 181.903 32.1988C181.742 32.0249 181.668 31.8138 181.668 31.5655C181.668 31.3171 181.755 31.0191 181.928 30.6838L191.137 14.7396C191.41 14.2429 191.807 13.8331 192.352 13.4854C192.898 13.1377 193.406 12.9639 193.901 12.9639H218.654C219.025 12.9639 219.286 13.0508 219.447 13.2246C219.608 13.3985 219.682 13.6096 219.682 13.8579C219.682 14.1063 219.596 14.4043 219.422 14.7396L217.365 18.2786C217.067 18.7753 216.658 19.1851 216.113 19.5328C215.567 19.8805 215.059 20.0543 214.563 20.0543H205.726C205.379 20.0543 205.131 19.9674 204.97 19.7936C204.809 19.6197 204.734 19.4086 204.734 19.1603C204.734 18.9119 204.821 18.6139 204.995 18.2786L206.023 16.5029C206.197 16.1552 206.284 15.8572 206.284 15.6212C206.284 15.3729 206.209 15.1618 206.048 14.9879C205.887 14.8141 205.639 14.7272 205.292 14.7272C204.796 14.7272 204.276 14.901 203.73 15.2487C203.173 15.5964 202.764 16.0062 202.491 16.5029L195.339 28.9081C195.141 29.231 195.042 29.5414 195.042 29.827C195.042 30.0754 195.116 30.2741 195.277 30.4355C195.438 30.5969 195.699 30.6714 196.071 30.6714C196.566 30.6714 197.075 30.4976 197.62 30.1499C198.165 29.8022 198.574 29.3924 198.872 28.8957L201.933 23.5809C202.206 23.0842 202.615 22.6745 203.173 22.3268C203.73 21.9791 204.251 21.8052 204.734 21.8052H213.572C213.919 21.8052 214.167 21.8922 214.328 22.066C214.489 22.2398 214.563 22.4509 214.563 22.6993C214.563 22.9476 214.477 23.2457 214.303 23.5809L202.33 44.3929C202.181 44.6661 201.995 44.902 201.772 45.0883C201.549 45.287 201.338 45.3863 201.14 45.3863C200.892 45.3863 200.706 45.2497 200.582 44.9765L195.699 36.694Z" fill="#0D542B"/>
<path d="M248.972 12.9512C249.344 12.9512 249.604 13.0381 249.765 13.2119C249.926 13.3858 250.001 13.5969 250.001 13.8452C250.001 14.0936 249.914 14.3916 249.74 14.7269L240.531 30.6711C240.234 31.1678 239.825 31.5776 239.279 31.9253C238.734 32.273 238.238 32.4469 237.767 32.4469H213.015C212.643 32.4469 212.383 32.3724 212.222 32.2109C212.061 32.0495 211.986 31.8384 211.986 31.5652C211.986 31.3169 212.073 31.0188 212.247 30.6836L221.456 14.7393C221.729 14.2426 222.138 13.8328 222.695 13.4851C223.253 13.1374 223.761 12.9636 224.22 12.9636H248.972V12.9512ZM236.329 16.5026C236.503 16.1549 236.59 15.8569 236.59 15.621C236.59 15.3726 236.515 15.1615 236.354 14.9877C236.193 14.8138 235.945 14.7269 235.598 14.7269C235.102 14.7269 234.582 14.9007 234.036 15.2484C233.479 15.5961 233.07 16.0059 232.797 16.5026L225.645 28.9078C225.472 29.2555 225.385 29.5536 225.385 29.7895C225.385 30.0378 225.459 30.2489 225.62 30.4228C225.782 30.5966 226.029 30.6836 226.377 30.6836C226.872 30.6836 227.38 30.5097 227.926 30.162C228.471 29.8143 228.88 29.4045 229.178 28.9078L236.329 16.5026Z" fill="#0D542B"/>
<path fill-rule="evenodd" clip-rule="evenodd" d="M334.42 30.361C334.655 30.659 334.705 31.0564 334.544 31.4041L332.796 35.117C331.557 37.7495 330.664 39.4755 330.454 39.6618C330.255 39.8232 329.871 40.0343 329.586 40.1337C329.165 40.2703 329.041 40.3944 328.917 40.8166C328.52 42.1826 326.723 43.8465 325.136 44.3433C324.145 44.6537 322.447 44.7406 321.294 44.5419C319.943 44.306 317.439 43.474 315.097 42.4806C313.808 41.9218 312.419 41.6486 311.019 41.6486L304.028 41.6859C293.728 41.7356 294.385 41.6859 292.154 42.878C290.159 43.9707 288.758 45.2622 287.432 47.249C286.713 48.3417 285.771 50.1671 284.941 52.0298C284.717 52.5265 284.122 52.7624 283.627 52.5265L250.706 37.4515L250 37.0914H310.659C311.862 37.0914 313.039 37.3397 314.142 37.8364C317.712 39.4259 321.43 40.4938 323.017 40.3572C324.963 40.1958 326.549 38.42 327.119 35.7503C327.256 35.0921 327.243 35.0549 326.277 33.0432C325.756 31.9256 326.549 31.3917 326.549 31.3296C326.549 31.2551 326.797 30.7708 328.619 30.7708H329.958C330.764 30.7708 331.235 29.8519 330.751 29.1937L330.268 28.5356L328.818 26.5736C328.694 26.3998 328.619 26.2011 328.619 25.99V24.5868C328.619 23.1091 328.644 22.898 328.818 23.0594C328.917 23.1712 330.131 24.7482 331.507 26.5612C332.895 28.3866 334.197 30.0878 334.42 30.361Z" fill="#0D542B"/>
<path d="M303.496 3.84968C303.52 4.12287 303.248 4.34638 302.975 4.27188C302.789 4.22221 302.541 4.13528 302.281 4.03594C299.492 2.93077 297.633 4.19737 296.431 8.03442C295.774 10.1454 295.588 13.0511 295.997 15.4602C295.997 15.4726 295.997 15.4726 295.997 15.485C296.108 16.1556 295.352 16.6274 294.795 16.2425C294.571 16.0811 294.336 15.9072 294.138 15.7085C293.307 14.9386 292.502 13.5603 292.278 12.5296L292.266 12.4799C292.229 12.2937 292.055 12.1571 291.857 12.1571C290.345 12.1695 289.576 12.1819 289.576 12.1819C286.775 12.2192 285.932 13.0015 285.932 13.0015L285.92 13.0139C284.433 13.6596 283.044 15.4105 282.995 15.485C282.697 15.8824 282.412 16.3046 282.164 16.7268C281.247 18.2293 280.615 19.7318 280.404 20.241L280.305 20.2037L280.033 20.0919C271.232 16.0935 256.607 9.40036 251.835 7.17761C251.438 6.99134 251.562 6.3953 252.008 6.3953C255.132 6.35804 262.221 6.32079 270.972 6.32079H291.46C291.646 6.32079 291.82 6.1842 291.857 5.99793L292.018 5.31496C292.601 2.79418 294.212 0.832193 296.245 0.198894C296.555 0.0871349 297.36 0.000211482 298.005 0.000211482C299.914 -0.0122062 301.277 0.521752 302.392 1.72626C303.012 2.39682 303.446 3.29089 303.496 3.84968Z" fill="#0D542B"/>
<path fill-rule="evenodd" clip-rule="evenodd" d="M327.516 20.0674C327.516 21.2595 326.562 22.2281 325.372 22.2281H324.566C322.943 22.2281 321.616 22.2902 321.616 22.3523C321.616 22.4268 321.715 22.7372 321.839 23.0725C322.273 24.3515 322.595 26.773 322.595 29.0454V29.1571C322.595 33.5406 321.839 36.1359 320.563 36.1359C320.352 36.1359 320.179 35.962 320.179 35.7509V33.3419C320.179 31.1067 320.129 30.3368 319.918 29.4552C319.571 27.9651 319.026 26.5122 318.753 26.3756C318.629 26.3011 317.204 25.7795 315.58 25.2083C313.956 24.6247 310.597 23.4326 308.094 22.5261L304.289 21.1602C304.065 21.0857 303.88 20.9367 303.756 20.7628C303.619 20.589 303.545 20.3655 303.533 20.1295C303.508 19.7073 303.855 19.3472 304.276 19.3472L313.374 19.3224L323.265 19.2851L319.732 14.7775L319.249 14.1566C318.245 12.8776 317.105 11.7104 315.865 10.6797C314.613 9.64904 313.262 8.75497 311.812 8.00991L308.168 6.14727C307.709 5.91133 307.4 5.45188 307.375 4.93034C307.35 4.30946 307.375 4.08594 307.511 4.08594C307.511 4.08594 307.511 4.08594 307.524 4.08594C307.536 4.08594 307.536 4.08594 307.548 4.08594C307.561 4.08594 307.586 4.09836 307.61 4.09836C307.92 4.16044 309.073 4.4088 310.709 4.98001H310.721C314.836 6.40804 322.001 9.84772 326.735 17.3356C327.219 18.1055 327.516 18.9871 327.541 19.906C327.516 19.9557 327.516 20.0053 327.516 20.0674Z" fill="#0D542B"/>
</svg>
