<?xml version="1.0" encoding="utf-8"?>
<!-- Generator: Adobe Illustrator 16.0.0, SVG Export Plug-In . SVG Version: 6.00 Build 0)  -->
<!DOCTYPE svg PUBLIC "-//W3C//DTD SVG 1.1//EN" "http://www.w3.org/Graphics/SVG/1.1/DTD/svg11.dtd">
<svg version="1.1" id="Layer_1" xmlns="http://www.w3.org/2000/svg" xmlns:xlink="http://www.w3.org/1999/xlink" x="0px" y="0px"
	 width="1335px" height="480px" viewBox="0 0 1335 480" enable-background="new 0 0 1335 480" xml:space="preserve">
<g>
	<path fill="#1E1E1C" d="M759.185,1.698c10.45,4.02,20.897,8.038,31.348,12.056c22.498,126.182-36.17,300.596,66.702,382.57
		c-2.403,2.415-4.821,4.819-8.034,8.038c-10.445,2.412-4.825-0.801-15.267,8.037c-85.199-45.808-49.029-139.852-90.021-230.67
		c-6.426,43.402-25.717,73.943-46.608,101.272c-6.434,0-12.868,0-19.295,0c-30.543-15.27-54.653-49.03-62.691-86
		c-1.604,0-2.409,0-4.019,0c-4.019,62.687-8.038,124.573-12.054,187.266c-6.425-6.434,0.801-1.603-8.038-4.016
		c0-17.682,4.016-12.058-4.021-23.313c-1.604,10.452-2.404,20.895-4.016,31.351c-1.606,0-2.41,0-4.019,0
		c0-35.367-45.008-223.437-12.06-281.306c17.69-4.019,23.311-7.235,42.604,0c22.498,39.385,44.205,77.96,66.702,117.344
		c2.416-1.607,4.828-2.414,8.038-4.021C694.085,156.817,719.001,40.276,759.185,1.698z"/>
	<path fill="#1E1E1C" d="M1297.68,29.021c10.449,4.021,20.895,8.039,31.346,12.059c5.623,24.11,10.447,37.776-12.057,50.633
		c-24.914,7.234-125.377,11.253-124.576,27.327c-1.609,4.02-2.412,8.039-4.02,12.057c8.035-4.822,15.273-10.447,23.309-15.272
		c-4.018,24.917-8.035,49.831-12.051,73.941c1.6,0,2.402,0,4.016,0c23.301-8.036,46.613-15.268,69.92-23.304
		c-1.605,4.822-2.416,10.445-4.018,15.268c0,11.257,0.799,8.036-4.016,19.292c-24.918,12.055-49.832,23.307-73.941,35.358
		c1.604,18.492,2.404,36.168,4.016,54.66c8.039,6.425,15.264,12.856,23.301,19.287c25.727-12.053,52.242-23.307,77.969-35.366
		c-2.418,20.897,4.016,19.294,0,35.366c-25.727,61.08-98.859,53.046-144.672,19.286c-8.035-24.914-26.525-73.94-23.309-97.249
		c-4.818-2.409-8.037,0-4.02-4.021c-5.621-24.912,23.311-65.096,31.348-105.284c-14.471,0-28.932,0-42.6,0
		c-1.604-2.41-2.408-4.821-4.016-8.038c16.07,0,8.838,0.803,23.307-4.02c0-1.605,0-2.408,0-4.018c-10.451,0-20.895,0-31.346,0
		c0-1.607,0-2.409,0-4.019c2.414,0,4.818,0,8.039,0C1151.404,60.371,1241.416,68.407,1297.68,29.021z"/>
	<path fill="#1E1E1C" d="M997.086,83.675c10.45,8.038,20.896,15.272,31.346,23.31c39.385-37.775,89.213,140.653,50.639,199.327
		c-45.816,69.918-90.823,0-113.329,4.016c-14.463,33.758-43.396,52.243-94.034,50.634c-12.06-6.426-23.311-12.859-35.366-19.291
		c-20.893-52.243-20.092-101.268-4.017-163.956c2.413,4.016,4.822,8.036,8.034,12.052c3.217-28.13,3.217-37.774-4.018-58.669
		c16.072,12.057,16.878,36.969,12.056,58.669c12.057,2.414,3.216-5.627,12.057,4.021c6.432-10.449,12.857-20.896,19.288-31.346
		c1.604,45.813,2.416,90.819,4.021,136.636c4.819-2.419,10.45-4.822,15.272-8.037c33.752-20.896,34.552-77.964,50.628-113.326
		c23.313-3.216,16.078-9.648,31.35,8.036c14.467,32.147,28.934,65.101,42.597,97.252c2.408-1.615,4.822-2.416,8.037-4.02
		C1060.58,201.824,1020.396,151.991,997.086,83.675z"/>
	<path fill="#1E1E1C" d="M59.947,87.694c2.416,1.609,4.823,2.415,8.041,4.019C65.572,90.109,62.362,88.5,59.947,87.694z"/>
	<path fill="#1E1E1C" d="M509.23,122.257c-15.272,1.605-31.348,2.411-46.617,4.018c-6.428,20.896,9.647,12.86-12.056,23.308
		c-2.41,4.822-4.823,10.445-8.038,15.271c16.876,0,33.76,0,50.636,0c11.253,73.139-21.704,119.752-73.946,140.649
		c-18.482,0-26.52,0.809-35.358-8.038c-24.922-46.614,29.736-103.678,54.646-128.594c-16.072-8.037-18.477-4.823-35.361,4.021
		c-1.606,0-2.409,0-4.021,0c10.45-12.864,20.906-25.721,31.347-39.385c-55.458,22.505-156.724,85.197-97.25,203.341
		c-49.827-23.308-98.859-46.614-148.686-69.921c-2.416-4.02-4.822-8.038-8.038-12.055C244,220.308,319.552,164.854,332.412,86.892
		c-28.932-44.204-62.692-60.278-131.813-57.87C158,37.867,114.605,47.507,72.006,56.353C51.913,63.584,41.462,82.07,5.292,87.694
		c0,1.609,0,2.415,0,4.019c16.884,11.253,31.348,5.626,50.635,0c0,1.609,0,2.415,0,4.018c-18.485,8.845-36.164,18.489-54.654,27.329
		c0,1.608,0,2.41,0,4.02c15.272-2.411,31.348-4.822,46.62-8.039c-4.019,1.609-8.038,2.411-12.057,4.02c0,1.608,0,2.41,0,4.02
		c8.841-1.609,18.488-2.411,27.329-4.02c1.604,90.818-25.723,261.208,8.035,327.923c6.425,13.659,13.663,12.856,27.332,27.319
		c1.604,0,2.404,0,4.016,0c11.248-49.829,12.057-125.379,12.057-191.281c31.339,1.604,138.236,64.299,191.281,81.976
		c8.841,0,18.488,0,27.326,0c1.606-10.442-1.604-0.802,4.019-12.057c-2.413-1.604-4.819-2.404-8.038-4.017
		c45.811,4.822,78.768,24.109,124.576,4.017C517.268,328.813,598.442,180.122,509.23,122.257z M114.605,106.984
		c27.32-4.82,54.648-10.448,81.977-15.271c22.507,2.415,44.205,4.823,66.711,8.036c2.404,0,4.82,0,8.038,0
		c-30.545,52.242-94.844,99.662-148.689,127.793C124.246,180.928,124.246,143.953,114.605,106.984z"/>
	<path fill="#1E1E1C" d="M91.294,115.021c2.407,8.038,4.822,15.272,8.038,23.309C97.72,121.451,99.333,122.257,91.294,115.021z"/>
	<path fill="#1E1E1C" d="M72.006,118.238c0,2.411,0,4.821,0,8.036C72.006,123.862,72.006,121.451,72.006,118.238z"/>
	<path fill="#1E1E1C" d="M1125.68,126.274c2.414,0,4.824,0,8.039,0C1131.313,126.274,1128.896,126.274,1125.68,126.274z"/>
	<path fill="#1E1E1C" d="M1184.357,134.313c0,2.411,0,4.822,0,8.039C1184.357,139.135,1184.357,136.724,1184.357,134.313z"/>
	<path fill="#1E1E1C" d="M833.124,192.986c0,4.016,0,8.035,0,12.052c1.613-4.017,2.413-8.036,4.022-12.052
		C835.537,192.986,834.737,192.986,833.124,192.986z"/>
	<path fill="#1E1E1C" d="M856.435,197.002c1.612,6.43,2.413,12.858,4.019,19.288C858.848,209.86,858.047,203.432,856.435,197.002z"
		/>
	<path fill="#1E1E1C" d="M852.413,224.328c1.614,6.433,2.418,12.858,4.021,19.288C855.631,237.187,854.027,230.761,852.413,224.328z
		"/>
</g>
</svg>
