<svg width="403" height="292" viewBox="0 0 403 292" fill="none" xmlns="http://www.w3.org/2000/svg">
<path d="M176.714 59.707L178.785 172.884L245.164 210.255L247.502 208.841L277.455 225.426L277.505 228.159L288.729 234.378L286.658 121.201L176.714 59.707Z" fill="#9D6327"/>
<path d="M194.735 70.2279L189.661 67.4141L191.545 170.051L196.613 172.859L194.735 70.2279Z" fill="#BB3837"/>
<path d="M185.687 64.5697L180.613 61.7559L182.491 164.399L187.565 167.201L185.687 64.5697Z" fill="#BB3837"/>
<path d="M203.739 75.2283L198.665 72.4082L200.543 175.052L205.617 177.853L203.739 75.2283Z" fill="#BB3837"/>
<path d="M212.736 80.2201L207.662 77.4062L209.54 180.05L214.614 182.851L212.736 80.2201Z" fill="#BB3837"/>
<path d="M221.734 85.2201L216.66 82.4062L218.544 185.044L223.612 187.851L221.734 85.2201Z" fill="#B8892D"/>
<path d="M230.732 90.2123L225.664 87.3984L227.542 190.042L232.616 192.843L230.732 90.2123Z" fill="#B8892D"/>
<path d="M239.736 95.2103L234.662 92.3965L236.54 195.04L241.614 197.841L239.736 95.2103Z" fill="#B8892D"/>
<path d="M248.733 100.21L243.659 97.3965L245.537 200.034L250.611 202.835L248.733 100.21Z" fill="#B8892D"/>
<path d="M257.731 105.203L252.663 102.389L254.541 205.032L259.615 207.834L257.731 105.203Z" fill="#B8892D"/>
<path d="M266.735 110.201L261.661 107.387L263.601 213.267L268.669 216.069L266.735 110.201Z" fill="#B8892D"/>
<path d="M275.733 115.201L270.659 112.381L272.537 215.024L277.611 217.826L275.733 115.201Z" fill="#B8892D"/>
<path d="M284.73 120.193L279.663 117.379L281.54 220.022L286.552 219.5L284.73 120.193Z" fill="#B8892D"/>
<path d="M193.379 69.5115L188.305 66.6914L190.183 169.217L195.257 172.018L193.379 69.5115Z" fill="#741012"/>
<path d="M184.332 63.8529L179.258 61.0391L181.136 163.558L186.203 166.366L184.332 63.8529Z" fill="#741012"/>
<path d="M202.383 74.5053L197.309 71.6914L199.187 174.217L204.255 177.018L202.383 74.5053Z" fill="#741012"/>
<path d="M211.381 79.5033L206.307 76.6895L208.185 179.209L213.259 182.016L211.381 79.5033Z" fill="#741012"/>
<path d="M220.378 84.4955L215.304 81.6816L217.182 184.207L222.256 187.008L220.378 84.4955Z" fill="#A8742A"/>
<path d="M229.382 89.4955L224.308 86.6816L226.186 189.207L231.254 192.008L229.382 89.4955Z" fill="#A8742A"/>
<path d="M238.38 94.4939L233.306 91.6738L235.184 194.199L240.258 197.007L238.38 94.4939Z" fill="#A8742A"/>
<path d="M247.378 99.4877L242.304 96.6738L244.182 199.199L249.256 202.001L247.378 99.4877Z" fill="#A8742A"/>
<path d="M256.375 104.486L251.308 101.672L253.241 207.434L258.316 210.242L256.375 104.486Z" fill="#A8742A"/>
<path d="M265.379 109.484L260.305 106.664L262.183 209.189L267.257 211.997L265.379 109.484Z" fill="#741012"/>
<path d="M274.377 114.478L269.303 111.664L271.181 214.189L276.255 216.991L274.377 114.478Z" fill="#A8742A"/>
<path d="M283.375 119.476L278.307 116.662L280.179 219.181L285.253 221.989L283.375 119.476Z" fill="#A8742A"/>
<path d="M178.474 155.758L175.029 156.791L249.921 209.956L272.636 222.537L288.679 231.408L288.418 217.252L178.474 155.758Z" fill="#D8D9D8"/>
<path d="M175.029 156.791L175.29 170.947L249.977 212.931L272.692 225.506L288.729 234.378L288.474 220.221L175.029 156.791Z" fill="#9D9A96"/>
<path d="M385.956 61.494L276.025 0L176.721 59.7073L286.658 121.208L385.956 61.494Z" fill="#0AA54A"/>
<path d="M372.071 60.0116L276.137 6.42383L187.839 59.5074L284.6 112.828L372.071 60.0116Z" fill="#D1C9CA"/>
<path d="M169.713 71.218L276.137 7.30859L371.368 60.4482L264.994 124.532L169.713 71.218Z" fill="#C6DD78"/>
<path d="M276.305 15.3634L195.655 63.834L187.839 59.5074L276.137 6.42383L372.071 60.0116L364.199 64.6184L276.305 15.3634Z" fill="#86C543"/>
<path d="M276.137 6.42383L276.305 15.3634L364.199 64.6184L372.071 60.0116L276.137 6.42383Z" fill="#86C543"/>
<path d="M288.729 234.378L299.331 227.991L299.281 225.451L365.337 182.527L302.359 226.254L387.971 171.428L385.956 61.4941L286.658 121.208L288.729 234.378Z" fill="#10331B"/>
<path d="M376.853 170.039L374.987 68.2424L379.955 65.248L381.821 167.051L376.853 170.039Z" fill="#0D6936"/>
<path d="M364.429 74.6803L369.397 71.6797L371.256 173.421L366.294 176.409L364.429 74.6803Z" fill="#0D6936"/>
<path d="M353.87 81.1096L358.838 78.1152L360.698 179.788L355.729 182.776L353.87 81.1096Z" fill="#0D6936"/>
<path d="M343.312 87.5475L348.274 84.5469L350.139 186.157L345.171 189.145L343.312 87.5475Z" fill="#0D6936"/>
<path d="M332.747 93.9788L337.715 90.9844L339.575 192.526L334.606 195.514L332.747 93.9788Z" fill="#0D6936"/>
<path d="M322.189 100.415L327.157 97.4141L329.016 198.893L324.048 201.882L322.189 100.415Z" fill="#0D6936"/>
<path d="M311.63 106.852L316.598 103.852L318.451 205.262L313.489 208.251L311.63 106.852Z" fill="#0D6936"/>
<path d="M301.072 113.282L306.04 110.281L307.893 211.63L302.925 214.618L301.072 113.282Z" fill="#0D6936"/>
<path d="M290.513 119.719L295.475 116.719L297.335 217.999L292.366 220.987L290.513 119.719Z" fill="#0D6936"/>
<path d="M378.494 169.092L376.629 67.3014L381.597 64.3008L383.462 166.104L378.494 169.092Z" fill="#0AA54A"/>
<path d="M366.07 73.733L371.039 70.7324L372.898 172.473L367.936 175.461L366.07 73.733Z" fill="#0AA54A"/>
<path d="M355.512 80.1705L360.48 77.1699L362.339 178.842L357.371 181.83L355.512 80.1705Z" fill="#0AA54A"/>
<path d="M344.953 86.6002L349.915 83.5996L351.781 185.21L346.813 188.198L344.953 86.6002Z" fill="#0AA54A"/>
<path d="M334.389 93.0377L339.357 90.0371L341.216 191.579L336.248 194.567L334.389 93.0377Z" fill="#0AA54A"/>
<path d="M323.83 99.4694L328.799 96.4688L330.658 197.948L325.689 200.936L323.83 99.4694Z" fill="#0AA54A"/>
<path d="M313.272 105.905L318.24 102.904L320.093 204.315L315.131 207.303L313.272 105.905Z" fill="#0AA54A"/>
<path d="M302.713 112.337L307.682 109.336L309.535 210.685L304.566 213.673L302.713 112.337Z" fill="#0AA54A"/>
<path d="M292.155 118.774L297.117 115.773L298.97 217.054L294.008 220.042L292.155 118.774Z" fill="#0AA54A"/>
<path d="M299.013 210.871V210.865L323.308 196.348L387.716 157.545L391.708 158.074L299.275 225.021L288.679 231.409L288.418 217.252L299.013 210.871Z" fill="#FEF3F4"/>
<path d="M299.069 213.997V213.991L323.364 199.473L387.772 160.671L391.708 158.23L391.969 172.387L299.331 228.147L288.735 234.535L288.474 220.378L299.069 213.997Z" fill="#0AA54A"/>
<path d="M312.383 206.346L312.575 216.848L305.592 220.988L305.4 210.492L312.383 206.346Z" fill="#0D6936"/>
<path d="M375.652 90.4609L377.25 177.74L382.747 180.399L310.2 221.604L309.528 184.993L308.54 130.888L371.461 92.976L375.652 90.4609Z" fill="white"/>
<path d="M375.652 90.4609L377.25 177.74L372.985 176.284L367.295 95.491L375.652 90.4609Z" fill="#10331B"/>
<path d="M371.461 92.9766L372.531 151.594L309.678 192.881L308.54 130.889L371.461 92.9766Z" fill="#EBE7E7"/>
<path d="M370.984 94.2881L308.064 132.203L309.106 133.937L372.026 96.0217L370.984 94.2881Z" fill="#C1C4D0"/>
<path d="M371.256 109.056L308.336 146.971L309.378 148.704L372.299 110.789L371.256 109.056Z" fill="#C1C4D0"/>
<path d="M371.118 101.497L308.198 139.412L309.24 141.146L372.161 103.231L371.118 101.497Z" fill="#C1C4D0"/>
<path d="M371.403 116.972L308.483 154.887L309.525 156.62L372.445 118.705L371.403 116.972Z" fill="#C1C4D0"/>
<path d="M371.547 124.899L308.627 162.814L309.669 164.548L372.59 126.633L371.547 124.899Z" fill="#C1C4D0"/>
<path d="M371.692 132.823L308.771 170.738L309.813 172.472L372.734 134.557L371.692 132.823Z" fill="#C1C4D0"/>
<path d="M310.013 183.698L372.002 146.346L371.89 144.049L308.969 181.961L310.013 183.698Z" fill="#74767D"/>
<path d="M309.392 177.428L372.313 139.516L372.45 147.079L309.528 184.992L309.392 177.428Z" fill="#FEF3F4"/>
<path d="M309.423 179.047L372.344 141.135L372.481 148.699L309.56 186.611L309.423 179.047Z" fill="#BDBDBD"/>
<path d="M372.45 147.08L372.985 176.283L359.641 168.695L309.783 198.738L309.528 184.992L372.45 147.08Z" fill="#ACACAC"/>
<path d="M314.279 130.758L340.072 115.213L340.221 123.237L314.422 138.782L314.279 130.758Z" fill="#6A6A6A"/>
<path d="M339.245 121.987L339.164 117.592L315.249 132.003L315.33 136.405L339.245 121.987Z" fill="#799BBD"/>
<path d="M338.536 121.719L338.468 118.009L339.164 117.592L339.245 121.987L315.33 136.405L315.318 135.714L338.536 121.719Z" fill="#B2B2B2"/>
<path d="M366.294 99.4062L366.443 107.456L344.456 120.697L344.307 112.648L366.294 99.4062Z" fill="#6A6A6A"/>
<path d="M365.386 106.285L365.305 101.803L345.358 113.818L345.445 118.3L365.386 106.285Z" fill="#799BBD"/>
<path d="M364.677 106.011L364.609 102.22L365.305 101.803L365.386 106.285L345.445 118.3L345.432 117.609L364.677 106.011Z" fill="#B2B2B2"/>
<path d="M0 190.708L138.498 141.49L387 97.5L128.281 254.978L0 190.708Z" fill="#0F5528"/>
<path d="M81.4458 117.168L83.5164 230.351L149.895 267.722L152.233 266.309L182.18 282.887L182.23 285.626L193.46 291.845L191.389 178.662L81.4458 117.168Z" fill="#10331B"/>
<path d="M99.4661 127.693L94.3921 124.873L96.27 227.517L101.344 230.318L99.4661 127.693Z" fill="#0B9146"/>
<path d="M90.4124 122.035L85.3384 119.221L87.2163 221.858L92.2903 224.666L90.4124 122.035Z" fill="#0B9146"/>
<path d="M108.464 132.687L103.39 129.873L105.268 232.517L110.342 235.318L108.464 132.687Z" fill="#0B9146"/>
<path d="M117.461 137.685L112.387 134.871L114.272 237.508L119.339 240.316L117.461 137.685Z" fill="#0B9146"/>
<path d="M126.465 142.677L121.391 139.863L123.269 242.507L128.343 245.308L126.465 142.677Z" fill="#0B9146"/>
<path d="M135.463 147.677L130.389 144.863L132.267 247.501L137.341 250.308L135.463 147.677Z" fill="#0B9146"/>
<path d="M144.461 152.676L139.387 149.855L141.271 252.499L146.339 255.3L144.461 152.676Z" fill="#0B9146"/>
<path d="M153.465 157.669L148.391 154.855L150.269 257.499L155.343 260.3L153.465 157.669Z" fill="#0B9146"/>
<path d="M162.462 162.667L157.388 159.854L159.266 262.491L164.34 265.298L162.462 162.667Z" fill="#0B9146"/>
<path d="M171.46 167.666L166.386 164.846L168.326 270.733L173.4 273.534L171.46 167.666Z" fill="#0B9146"/>
<path d="M180.464 172.66L175.39 169.846L177.268 272.489L182.342 275.291L180.464 172.66Z" fill="#0B9146"/>
<path d="M189.462 177.658L184.388 174.844L186.266 277.481L191.277 276.964L189.462 177.658Z" fill="#0B9146"/>
<path d="M98.1105 126.972L93.0365 124.158L94.9144 226.683L99.9884 229.485L98.1105 126.972Z" fill="#0D6936"/>
<path d="M89.0568 121.314L83.9828 118.5L85.8607 221.025L90.9347 223.827L89.0568 121.314Z" fill="#0D6936"/>
<path d="M107.108 131.972L102.034 129.158L103.912 231.677L108.986 234.485L107.108 131.972Z" fill="#0D6936"/>
<path d="M116.106 136.964L111.032 134.15L112.91 236.676L117.984 239.477L116.106 136.964Z" fill="#0D6936"/>
<path d="M125.11 141.964L120.036 139.15L121.914 241.676L126.981 244.477L125.11 141.964Z" fill="#0D6936"/>
<path d="M134.107 146.963L129.033 144.143L130.911 246.668L135.985 249.475L134.107 146.963Z" fill="#0D6936"/>
<path d="M143.105 151.954L138.031 149.141L139.909 251.666L144.983 254.467L143.105 151.954Z" fill="#0D6936"/>
<path d="M152.109 156.954L147.035 154.141L148.913 256.666L153.981 259.467L152.109 156.954Z" fill="#0D6936"/>
<path d="M161.107 161.953L156.033 159.133L157.967 264.901L163.041 267.703L161.107 161.953Z" fill="#0D6936"/>
<path d="M170.105 166.945L165.031 164.131L166.908 266.656L171.982 269.458L170.105 166.945Z" fill="#0D6936"/>
<path d="M179.108 171.945L174.034 169.131L175.912 271.65L180.98 274.458L179.108 171.945Z" fill="#0D6936"/>
<path d="M188.106 176.937L183.032 174.123L184.91 276.648L189.984 279.45L188.106 176.937Z" fill="#0D6936"/>
<path d="M83.1993 213.225L79.7544 214.252L154.652 267.423L177.367 280.004L193.404 288.869L193.143 274.712L83.1993 213.225Z" fill="#D8D9D8"/>
<path d="M79.7544 214.252L80.0156 228.408L154.702 270.392L177.423 282.974L193.46 291.845L193.199 277.688L79.7544 214.252Z" fill="#0D6936"/>
<path d="M290.687 118.961L180.75 57.4668L81.452 117.174L191.389 178.668L290.687 118.961Z" fill="#0AA54A"/>
<path d="M276.796 117.473L180.868 63.8848L92.5638 116.968L189.325 170.288L276.796 117.473Z" fill="#D1C9CA"/>
<path d="M94.0438 116.975L199.548 56.8008L295.724 106.018L189.325 170.289L94.0438 116.975Z" fill="#C6DD78"/>
<path d="M181.03 72.83L100.38 121.301L92.5638 116.968L180.868 63.8841L187.839 59.5077L212.251 53.8613L181.03 72.83Z" fill="#86C543"/>
<path d="M193.46 291.845L204.056 285.458L204.006 282.918L270.062 239.988L207.09 283.721L292.696 228.894L290.687 118.961L191.389 178.668L193.46 291.845Z" fill="#10331B"/>
<path d="M281.584 227.505L279.719 125.708L284.687 122.707L286.546 224.516L281.584 227.505Z" fill="#0D6936"/>
<path d="M269.16 132.145L274.122 129.145L275.988 230.885L271.019 233.874L269.16 132.145Z" fill="#0D6936"/>
<path d="M258.595 138.575L263.564 135.574L265.423 237.253L260.461 240.241L258.595 138.575Z" fill="#0D6936"/>
<path d="M248.037 145.012L253.005 142.012L254.864 243.622L249.896 246.61L248.037 145.012Z" fill="#0D6936"/>
<path d="M237.478 151.444L242.447 148.443L244.306 249.991L239.338 252.979L237.478 151.444Z" fill="#0D6936"/>
<path d="M226.92 157.88L231.882 154.879L233.741 256.358L228.773 259.347L226.92 157.88Z" fill="#0D6936"/>
<path d="M216.362 164.311L221.324 161.311L223.183 262.728L218.215 265.716L216.362 164.311Z" fill="#0D6936"/>
<path d="M205.797 170.749L210.765 167.748L212.618 269.097L207.656 272.085L205.797 170.749Z" fill="#0D6936"/>
<path d="M195.238 177.178L200.207 174.178L202.06 275.464L197.091 278.452L195.238 177.178Z" fill="#0D6936"/>
<path d="M283.219 226.559L281.36 124.762L286.322 121.762L288.188 223.571L283.219 226.559Z" fill="#0AA54A"/>
<path d="M270.802 131.2L275.764 128.199L277.629 229.94L272.661 232.928L270.802 131.2Z" fill="#0AA54A"/>
<path d="M260.237 137.63L265.205 134.629L267.064 236.308L262.102 239.296L260.237 137.63Z" fill="#0AA54A"/>
<path d="M249.678 144.067L254.647 141.066L256.506 242.677L251.538 245.665L249.678 144.067Z" fill="#0AA54A"/>
<path d="M239.12 150.499L244.088 147.498L245.948 249.046L240.979 252.034L239.12 150.499Z" fill="#0AA54A"/>
<path d="M228.562 156.934L233.524 153.934L235.383 255.413L230.415 258.401L228.562 156.934Z" fill="#0AA54A"/>
<path d="M217.997 163.366L222.965 160.371L224.824 261.782L219.856 264.77L217.997 163.366Z" fill="#0AA54A"/>
<path d="M207.438 169.803L212.407 166.803L214.26 268.151L209.298 271.14L207.438 169.803Z" fill="#0AA54A"/>
<path d="M196.88 176.233L201.848 173.238L203.701 274.518L198.733 277.507L196.88 176.233Z" fill="#0AA54A"/>
<path d="M203.745 268.33L228.033 253.813L292.447 215.004V215.01L296.433 215.539L204 282.487L193.404 288.874L193.143 274.717L203.745 268.33Z" fill="#FEF3F4"/>
<path d="M203.801 271.456L228.089 256.938L292.503 218.129L296.439 215.695L296.694 229.846L204.062 285.612L193.46 291.999L193.205 277.843L203.801 271.456Z" fill="#0AA54A"/>
<path d="M217.114 263.812L217.307 274.308L210.317 278.455L210.125 267.952L217.114 263.812Z" fill="#0D6936"/>
<path d="M280.378 147.92L281.976 235.206L287.473 237.864L214.931 279.069L214.26 242.458L213.271 188.354L276.187 150.441L280.378 147.92Z" fill="#0F5628"/>
<path d="M280.378 147.92L281.976 235.206L277.716 233.749L272.02 152.956L280.378 147.92Z" fill="#10331B"/>
<path d="M275.713 151.759L212.793 189.674L213.835 191.407L276.756 153.492L275.713 151.759Z" fill="#C1C4D0"/>
<path d="M275.986 166.519L213.065 204.434L214.107 206.167L277.028 168.252L275.986 166.519Z" fill="#C1C4D0"/>
<path d="M275.842 158.962L212.922 196.877L213.964 198.61L276.885 160.695L275.842 158.962Z" fill="#C1C4D0"/>
<path d="M276.342 158.959L277.716 233.75L264.372 226.155L214.508 256.199L213.427 196.871L276.342 158.959Z" fill="#ACACAC"/>
<path d="M219.004 188.219L244.797 172.674L244.946 180.698L219.154 196.243L219.004 188.219Z" fill="#6A6A6A"/>
<path d="M243.977 179.454L243.896 175.053L219.974 189.471L220.055 193.866L243.977 179.454Z" fill="#799BBD"/>
<path d="M243.268 179.18L243.199 175.476L243.896 175.053L243.976 179.454L220.055 193.866L220.043 193.175L243.268 179.18Z" fill="#B2B2B2"/>
<path d="M271.019 156.873L271.169 164.916L249.181 178.158L249.032 170.114L271.019 156.873Z" fill="#6A6A6A"/>
<path d="M270.118 163.752L270.037 159.27L250.089 171.278L250.17 175.76L270.118 163.752Z" fill="#799BBD"/>
<path d="M269.409 163.478L269.34 159.687L270.037 159.27L270.118 163.752L250.17 175.76L250.157 175.069L269.409 163.478Z" fill="#B2B2B2"/>
<path d="M281.727 221.467L281.976 235.206L285.203 236.762L284.948 222.687L281.727 221.467Z" fill="#0D6936"/>
<path d="M376.996 164.008L377.251 177.747L380.478 179.31L380.217 165.228L376.996 164.008Z" fill="#0D6936"/>
<path d="M178.294 164.113L353.46 58.5996L372.071 60.0128L189.325 170.289L178.294 164.113Z" fill="#86C543"/>
<mask id="mask0_1284_4314" style="mask-type:luminance" maskUnits="userSpaceOnUse" x="213" y="147" width="168" height="110">
<path d="M372.45 147.08L380.478 179.309L310.2 221.604L309.783 198.738L309.535 184.992L372.45 147.08ZM213.427 196.87L214.515 256.198L264.372 226.154L277.716 233.743L276.348 158.952L213.427 196.87Z" fill="white"/>
</mask>
<g mask="url(#mask0_1284_4314)">
<path d="M365.983 168.478L363.508 170.128L338.518 156.345L340.992 154.695L365.983 168.478Z" fill="#D7B264"/>
<path d="M363.508 170.129L363.595 175.003L338.605 161.22L338.518 156.346L363.508 170.129Z" fill="#7D5229"/>
<path d="M352.956 165.285L353.006 168.099L361.873 172.992L361.817 170.191L352.956 165.285Z" fill="#B68841"/>
<path d="M340.458 158.418L340.514 161.232L349.393 166.125L349.343 163.305L340.458 158.418Z" fill="#B68841"/>
<path d="M365.983 168.479L366.077 173.521L363.595 175.003L363.508 170.128L365.983 168.479Z" fill="#926A3B"/>
<path d="M342.758 159.732L340.514 161.232L340.458 158.418L342.758 159.732Z" fill="#614020"/>
<path d="M355.257 166.599L353.006 168.099L352.956 165.285L355.257 166.599Z" fill="#614020"/>
<path d="M355.064 175.027L352.583 176.677L327.598 162.894L330.073 161.244L355.064 175.027Z" fill="#D7B264"/>
<path d="M352.583 176.677L352.676 181.552L327.685 167.775L327.598 162.895L352.583 176.677Z" fill="#7D5229"/>
<path d="M342.037 171.834L342.087 174.654L350.948 179.541L350.898 176.746L342.037 171.834Z" fill="#B68841"/>
<path d="M329.538 164.967L329.588 167.781L338.474 172.674L338.418 169.86L329.538 164.967Z" fill="#B68841"/>
<path d="M355.064 175.027L355.157 180.07L352.676 181.552L352.583 176.677L355.064 175.027Z" fill="#926A3B"/>
<path d="M331.839 166.287L329.588 167.781L329.538 164.967L331.839 166.287Z" fill="#614020"/>
<path d="M344.331 173.154L342.087 174.654L342.037 171.834L344.331 173.154Z" fill="#614020"/>
<path d="M344.145 181.576L341.664 183.226L316.679 169.449L319.154 167.793L344.145 181.576Z" fill="#D7B264"/>
<path d="M341.664 183.226L341.757 188.107L316.766 174.324L316.679 169.449L341.664 183.226Z" fill="#7D5229"/>
<path d="M331.112 178.383L331.168 181.203L340.029 186.096L339.979 183.295L331.112 178.383Z" fill="#B68841"/>
<path d="M318.619 171.516L318.669 174.336L327.549 179.223L327.499 176.409L318.619 171.516Z" fill="#B68841"/>
<path d="M344.145 181.576L344.232 186.619L341.757 188.107L341.664 183.226L344.145 181.576Z" fill="#926A3B"/>
<path d="M320.92 172.835L318.669 174.336L318.619 171.516L320.92 172.835Z" fill="#614020"/>
<path d="M333.412 179.703L331.168 181.203L331.112 178.383L333.412 179.703Z" fill="#614020"/>
<path d="M339.108 180.444L341.645 182L365.958 167.246L363.428 165.689L339.108 180.444Z" fill="#D7B264"/>
<path d="M341.645 182L341.664 183.227L365.983 168.479L365.958 167.246L341.645 182Z" fill="#AD7E45"/>
<path d="M339.108 180.443L339.133 181.838L341.664 183.226L341.645 182L339.108 180.443Z" fill="#9A6331"/>
<path d="M333.493 177.344L336.03 178.906L360.349 164.152L357.812 162.59L333.493 177.344Z" fill="#D7B264"/>
<path d="M336.03 178.906L336.049 180.133L360.368 165.379L360.349 164.152L336.03 178.906Z" fill="#AD7E45"/>
<path d="M333.493 177.344L333.518 178.738L336.049 180.133L336.03 178.906L333.493 177.344Z" fill="#9A6331"/>
<path d="M327.878 174.248L330.415 175.805L354.734 161.05L352.197 159.494L327.878 174.248Z" fill="#D7B264"/>
<path d="M330.415 175.805L330.44 177.031L354.753 162.277L354.734 161.051L330.415 175.805Z" fill="#AD7E45"/>
<path d="M327.878 174.248L327.903 175.643L330.44 177.031L330.415 175.804L327.878 174.248Z" fill="#9A6331"/>
<path d="M322.263 171.149L324.8 172.711L349.119 157.957L346.582 156.395L322.263 171.149Z" fill="#D7B264"/>
<path d="M324.8 172.711L324.825 173.938L349.138 159.183L349.119 157.957L324.8 172.711Z" fill="#AD7E45"/>
<path d="M322.263 171.148L322.294 172.543L324.825 173.937L324.8 172.711L322.263 171.148Z" fill="#9A6331"/>
<path d="M316.654 168.055L319.185 169.611L343.504 154.857L340.967 153.301L316.654 168.055Z" fill="#D7B264"/>
<path d="M319.185 169.612L319.21 170.838L343.529 156.084L343.504 154.857L319.185 169.612Z" fill="#AD7E45"/>
<path d="M316.654 168.055L316.679 169.449L319.21 170.837L319.185 169.611L316.654 168.055Z" fill="#9A6331"/>
<path d="M341.434 166.777L329.93 160.414L329.706 148.15L341.21 154.513L341.434 166.777Z" fill="#A17F4C"/>
<path d="M350.158 149.096L341.21 154.512L341.434 166.776L350.382 161.391L350.158 149.096Z" fill="#D0A759"/>
<path d="M345.047 153.797L342.311 155.453L342.379 159.194L345.115 157.551L345.047 153.797Z" stroke="#A06126" stroke-width="0.2252" stroke-miterlimit="10"/>
<path d="M344.133 155.863L344.157 157.725L343.305 158.235L343.281 156.367L342.852 156.617L343.685 154.768L344.555 155.608L344.133 155.863Z" fill="#A06126"/>
<path d="M350.158 149.097L341.21 154.513L335.813 151.525L334.059 150.56L329.706 148.145L338.648 142.729L343.007 145.138L344.767 146.115L350.158 149.097Z" fill="#F5DF95"/>
<path d="M335.812 151.526L334.059 150.561L343.007 145.139L344.767 146.116L335.812 151.526Z" fill="#FDE8AB"/>
<path d="M334.059 161.647L330.757 159.836L330.707 157.016L334.009 158.821L334.059 161.647Z" fill="#ACACAC"/>
<path d="M333.872 161.292L330.937 159.685L330.931 159.555L333.866 161.161L333.872 161.292Z" fill="#595A5A"/>
<path d="M333.866 160.938L330.931 159.332L330.925 159.201L333.86 160.807L333.866 160.938Z" fill="#595A5A"/>
<path d="M333.86 160.583L330.925 158.976L330.919 158.846L333.854 160.458L333.86 160.583Z" fill="#595A5A"/>
<path d="M333.854 160.227L330.919 158.621L330.913 158.49L333.848 160.103L333.854 160.227Z" fill="#595A5A"/>
<path d="M333.841 159.562L330.906 157.955L330.894 157.551L333.829 159.157L333.841 159.562Z" fill="#595A5A"/>
<path d="M334.059 150.561L334.127 154.694L334.463 153.717L334.867 155.08L335.352 154.184L335.831 155.584L335.812 151.525L334.059 150.561Z" fill="#DAC68A"/>
<path d="M347.086 152.721L346.271 153.219L346.29 154.327L347.111 153.835L347.086 152.721Z" fill="#A06126"/>
<path d="M348.236 152.029L347.416 152.534L347.441 153.635L348.255 153.144L348.236 152.029Z" fill="#A06126"/>
<path d="M349.381 151.344L348.566 151.842L348.585 152.944L349.405 152.452L349.381 151.344Z" fill="#A06126"/>
<path d="M330.683 173.289L319.179 166.92L318.955 154.656L330.459 161.019L330.683 173.289Z" fill="#A17F4C"/>
<path d="M339.407 155.602L330.459 161.018L330.683 173.288L339.631 167.897L339.407 155.602Z" fill="#D0A759"/>
<path d="M334.295 160.303L331.559 161.959L331.628 165.7L334.364 164.057L334.295 160.303Z" stroke="#A06126" stroke-width="0.2252" stroke-miterlimit="10"/>
<path d="M333.381 162.369L333.406 164.23L332.554 164.741L332.529 162.873L332.1 163.129L332.934 161.273L333.804 162.114L333.381 162.369Z" fill="#A06126"/>
<path d="M339.407 155.603L330.459 161.019L325.061 158.031L323.308 157.066L318.955 154.65L327.897 149.234L332.256 151.65L334.015 152.621L339.407 155.603Z" fill="#F5DF95"/>
<path d="M325.061 158.031L323.308 157.066L332.256 151.65L334.015 152.622L325.061 158.031Z" fill="#FDE8AB"/>
<path d="M323.308 168.153L320.006 166.348L319.956 163.521L323.258 165.327L323.308 168.153Z" fill="#ACACAC"/>
<path d="M323.121 167.797L320.186 166.191L320.18 166.061L323.115 167.673L323.121 167.797Z" fill="#595A5A"/>
<path d="M323.115 167.444L320.18 165.838L320.174 165.707L323.109 167.319L323.115 167.444Z" fill="#595A5A"/>
<path d="M323.109 167.088L320.174 165.482L320.168 165.352L323.103 166.964L323.109 167.088Z" fill="#595A5A"/>
<path d="M323.103 166.741L320.161 165.128V165.004L323.096 166.61L323.103 166.741Z" fill="#595A5A"/>
<path d="M323.09 166.067L320.155 164.461L320.143 164.057L323.078 165.663L323.09 166.067Z" fill="#595A5A"/>
<path d="M323.308 157.066L323.376 161.2L323.712 160.223L324.116 161.586L324.601 160.69L325.08 162.09L325.061 158.031L323.308 157.066Z" fill="#DAC68A"/>
<path d="M336.335 159.232L335.52 159.73L335.539 160.832L336.36 160.341L336.335 159.232Z" fill="#A06126"/>
<path d="M337.485 158.541L336.664 159.039L336.689 160.141L337.504 159.649L337.485 158.541Z" fill="#A06126"/>
<path d="M338.629 157.85L337.815 158.348L337.833 159.456L338.654 158.958L338.629 157.85Z" fill="#A06126"/>
<path d="M354.194 173.769L342.69 167.401L342.466 155.137L353.97 161.499L354.194 173.769Z" fill="#A17F4C"/>
<path d="M362.918 156.082L353.97 161.498L354.194 173.768L363.142 168.377L362.918 156.082Z" fill="#D3B471"/>
<path d="M357.806 160.783L355.07 162.439L355.139 166.187L357.875 164.537L357.806 160.783Z" stroke="#A06126" stroke-width="0.2252" stroke-miterlimit="10"/>
<path d="M356.892 162.85L356.917 164.717L356.065 165.221L356.04 163.354L355.611 163.609L356.445 161.754L357.315 162.594L356.892 162.85Z" fill="#A06126"/>
<path d="M362.918 156.083L353.976 161.499L348.572 158.511L346.819 157.546L342.466 155.131L351.408 149.715L355.767 152.13L357.527 153.101L362.918 156.083Z" fill="#F5DF95"/>
<path d="M348.572 158.512L346.819 157.547L355.767 152.131L357.527 153.102L348.572 158.512Z" fill="#FDE8AB"/>
<path d="M346.819 168.634L343.517 166.828L343.467 164.002L346.769 165.814L346.819 168.634Z" fill="#ACACAC"/>
<path d="M346.632 168.278L343.697 166.672L343.691 166.541L346.626 168.153L346.632 168.278Z" fill="#595A5A"/>
<path d="M346.626 167.924L343.691 166.318L343.685 166.188L346.62 167.8L346.626 167.924Z" fill="#595A5A"/>
<path d="M346.62 167.575L343.685 165.962L343.679 165.838L346.614 167.444L346.62 167.575Z" fill="#595A5A"/>
<path d="M346.614 167.221L343.679 165.609L343.672 165.484L346.607 167.091L346.614 167.221Z" fill="#595A5A"/>
<path d="M346.601 166.548L343.666 164.942L343.654 164.537L346.595 166.143L346.601 166.548Z" fill="#595A5A"/>
<path d="M346.819 157.547L346.887 161.68L347.223 160.703L347.627 162.066L348.112 161.17L348.591 162.571L348.572 158.512L346.819 157.547Z" fill="#DAC68A"/>
<path d="M359.846 159.713L359.031 160.211L359.05 161.313L359.871 160.821L359.846 159.713Z" fill="#A06126"/>
<path d="M360.996 159.021L360.182 159.52L360.2 160.628L361.015 160.13L360.996 159.021Z" fill="#A06126"/>
<path d="M362.14 158.33L361.326 158.828L361.344 159.936L362.165 159.438L362.14 158.33Z" fill="#A06126"/>
<path d="M343.442 180.273L331.939 173.905L331.715 161.641L343.218 168.009L343.442 180.273Z" fill="#A17F4C"/>
<path d="M352.166 162.586L343.219 168.008L343.442 180.272L352.39 174.881L352.166 162.586Z" fill="#D3B471"/>
<path d="M347.055 167.287L344.319 168.943L344.387 172.691L347.123 171.041L347.055 167.287Z" stroke="#A06126" stroke-width="0.2252" stroke-miterlimit="10"/>
<path d="M346.141 169.353L346.166 171.221L345.314 171.725L345.289 169.858L344.86 170.113L345.693 168.258L346.564 169.098L346.141 169.353Z" fill="#A06126"/>
<path d="M352.166 162.587L343.218 168.01L337.821 165.015L336.068 164.05L331.715 161.641L340.657 156.219L345.016 158.634L346.775 159.605L352.166 162.587Z" fill="#F5DF95"/>
<path d="M337.821 165.016L336.068 164.051L345.015 158.635L346.775 159.606L337.821 165.016Z" fill="#FDE8AB"/>
<path d="M336.068 175.138L332.766 173.332L332.716 170.506L336.018 172.317L336.068 175.138Z" fill="#ACACAC"/>
<path d="M335.881 174.782L332.946 173.176L332.94 173.045L335.875 174.657L335.881 174.782Z" fill="#595A5A"/>
<path d="M335.875 174.434L332.94 172.822L332.934 172.697L335.869 174.303L335.875 174.434Z" fill="#595A5A"/>
<path d="M335.869 174.079L332.934 172.466L332.927 172.342L335.862 173.948L335.869 174.079Z" fill="#595A5A"/>
<path d="M335.862 173.725L332.927 172.113L332.921 171.988L335.856 173.594L335.862 173.725Z" fill="#595A5A"/>
<path d="M335.85 173.052L332.915 171.446L332.902 171.041L335.837 172.653L335.85 173.052Z" fill="#595A5A"/>
<path d="M336.068 164.051L336.136 168.184L336.472 167.213L336.876 168.57L337.361 167.68L337.84 169.081L337.821 165.016L336.068 164.051Z" fill="#DAC68A"/>
<path d="M349.095 166.217L348.28 166.715L348.299 167.823L349.119 167.325L349.095 166.217Z" fill="#A06126"/>
<path d="M350.245 165.525L349.424 166.023L349.449 167.132L350.264 166.634L350.245 165.525Z" fill="#A06126"/>
<path d="M351.389 164.834L350.575 165.332L350.593 166.44L351.414 165.942L351.389 164.834Z" fill="#A06126"/>
<path d="M341.204 154.078L329.694 147.709L329.47 135.445L340.98 141.814L341.204 154.078Z" fill="#A17F4C"/>
<path d="M349.928 136.391L340.98 141.813L341.204 154.077L350.152 148.686L349.928 136.391Z" fill="#D0A759"/>
<path d="M333.829 148.942L330.527 147.137L330.471 144.311L333.773 146.122L333.829 148.942Z" fill="#ACACAC"/>
<path d="M333.636 148.586L330.701 146.98V146.85L333.636 148.462V148.586Z" fill="#595A5A"/>
<path d="M333.63 148.239L330.695 146.626V146.502L333.63 148.108V148.239Z" fill="#595A5A"/>
<path d="M333.624 147.883L330.689 146.271V146.146L333.624 147.753V147.883Z" fill="#595A5A"/>
<path d="M333.618 147.53L330.683 145.917V145.793L333.618 147.399V147.53Z" fill="#595A5A"/>
<path d="M330.453 160.584L318.943 154.215L318.719 141.951L330.229 148.32L330.453 160.584Z" fill="#A17F4C"/>
<path d="M339.17 142.896L330.229 148.319L330.453 160.583L339.401 155.192L339.17 142.896Z" fill="#D0A759"/>
<path d="M334.059 147.604L331.329 149.253L331.398 153.001L334.128 151.357L334.059 147.604Z" stroke="#A06126" stroke-width="0.2252" stroke-miterlimit="10"/>
<path d="M333.145 149.664L333.176 151.531L332.324 152.036L332.293 150.168L331.87 150.423L332.704 148.574L333.574 149.415L333.145 149.664Z" fill="#A06126"/>
<path d="M339.17 142.904L330.229 148.32L324.825 145.332L323.078 144.36L318.719 141.951L327.667 136.535L332.026 138.944L333.786 139.916L339.17 142.904Z" fill="#F5DF95"/>
<path d="M323.072 155.454L319.776 153.643L319.72 150.816L323.022 152.628L323.072 155.454Z" fill="#ACACAC"/>
<path d="M322.885 155.1L319.95 153.488V153.363L322.885 154.969V155.1Z" fill="#595A5A"/>
<path d="M322.879 154.745L319.944 153.132V153.008L322.879 154.614V154.745Z" fill="#595A5A"/>
<path d="M322.873 154.389L319.938 152.777V152.652L322.873 154.258V154.389Z" fill="#595A5A"/>
<path d="M322.866 154.036L319.931 152.43V152.299L322.866 153.905V154.036Z" fill="#595A5A"/>
<path d="M322.854 153.369L319.919 151.756L319.913 151.352L322.848 152.964L322.854 153.369Z" fill="#595A5A"/>
<path d="M323.078 144.361L323.14 148.495L323.482 147.524L323.88 148.881L324.371 147.991L324.85 149.391L324.825 145.332L323.078 144.361Z" fill="#DAC68A"/>
<path d="M336.105 146.527L335.284 147.025L335.309 148.133L336.124 147.635L336.105 146.527Z" fill="#A06126"/>
<path d="M337.249 145.836L336.434 146.334L336.453 147.442L337.274 146.944L337.249 145.836Z" fill="#A06126"/>
<path d="M353.963 161.062L342.454 154.694L342.23 142.43L353.74 148.798L353.963 161.062Z" fill="#A17F4C"/>
<path d="M362.688 143.375L353.74 148.797L353.963 161.061L362.911 155.67L362.688 143.375Z" fill="#D3B471"/>
<path d="M357.57 148.082L354.84 149.738L354.909 153.479L357.638 151.836L357.57 148.082Z" stroke="#A06126" stroke-width="0.2252" stroke-miterlimit="10"/>
<path d="M356.656 150.142L356.687 152.01L355.835 152.514L355.804 150.653L355.381 150.902L356.214 149.053L357.085 149.893L356.656 150.142Z" fill="#A06126"/>
<path d="M362.681 143.382L353.74 148.798L348.336 145.81L346.589 144.839L342.23 142.43L351.178 137.014L355.537 139.423L357.296 140.394L362.681 143.382Z" fill="#F5DF95"/>
<path d="M346.589 155.932L343.287 154.121L343.231 151.301L346.533 153.106L346.589 155.932Z" fill="#ACACAC"/>
<path d="M346.396 155.577L343.461 153.964V153.84L346.396 155.446V155.577Z" fill="#595A5A"/>
<path d="M346.39 155.223L343.455 153.611V153.486L346.39 155.092V155.223Z" fill="#595A5A"/>
<path d="M346.383 154.868L343.448 153.262V153.131L346.383 154.737V154.868Z" fill="#595A5A"/>
<path d="M346.377 154.512L343.442 152.906V152.775L346.377 154.382V154.512Z" fill="#595A5A"/>
<path d="M346.365 153.847L343.43 152.235L343.424 151.83L346.359 153.442L346.365 153.847Z" fill="#595A5A"/>
<path d="M346.589 144.84L346.657 148.973L346.993 148.002L347.391 149.359L347.882 148.469L348.361 149.87L348.336 145.811L346.589 144.84Z" fill="#DAC68A"/>
<path d="M359.616 147.006L358.801 147.504L358.82 148.612L359.634 148.114L359.616 147.006Z" fill="#A06126"/>
<path d="M360.766 146.314L359.945 146.812L359.964 147.921L360.785 147.423L360.766 146.314Z" fill="#A06126"/>
<path d="M361.91 145.623L361.096 146.121L361.114 147.229L361.929 146.737L361.91 145.623Z" fill="#A06126"/>
<path d="M343.212 167.568L331.702 161.206L331.479 148.936L342.988 155.304L343.212 167.568Z" fill="#A17F4C"/>
<path d="M351.936 149.889L342.988 155.305L343.212 167.569L352.16 162.184L351.936 149.889Z" fill="#D3B471"/>
<path d="M346.819 154.588L344.089 156.244L344.157 159.985L346.887 158.342L346.819 154.588Z" stroke="#A06126" stroke-width="0.2252" stroke-miterlimit="10"/>
<path d="M345.905 156.648L345.936 158.516L345.084 159.02L345.053 157.159L344.63 157.408L345.463 155.559L346.334 156.399L345.905 156.648Z" fill="#A06126"/>
<path d="M351.93 149.888L342.988 155.304L337.585 152.316L335.837 151.351L331.479 148.936L340.426 143.52L344.785 145.929L346.545 146.906L351.93 149.888Z" fill="#F5DF95"/>
<path d="M337.585 152.317L335.837 151.352L344.785 145.93L346.545 146.907L337.585 152.317Z" fill="#FDE8AB"/>
<path d="M335.837 162.438L332.536 160.627L332.48 157.807L335.781 159.612L335.837 162.438Z" fill="#ACACAC"/>
<path d="M335.645 162.083L332.71 160.476V160.346L335.645 161.952V162.083Z" fill="#595A5A"/>
<path d="M335.638 161.729L332.703 160.123V159.992L335.638 161.598V161.729Z" fill="#595A5A"/>
<path d="M335.632 161.374L332.697 159.767V159.637L335.632 161.249V161.374Z" fill="#595A5A"/>
<path d="M335.626 161.018L332.691 159.412V159.281L335.626 160.894V161.018Z" fill="#595A5A"/>
<path d="M335.614 160.353L332.679 158.746L332.672 158.342L335.607 159.948L335.614 160.353Z" fill="#595A5A"/>
<path d="M335.837 151.352L335.906 155.479L336.242 154.508L336.64 155.871L337.131 154.975L337.61 156.375L337.585 152.316L335.837 151.352Z" fill="#DAC68A"/>
<path d="M348.865 153.512L348.05 154.01L348.069 155.118L348.883 154.62L348.865 153.512Z" fill="#A06126"/>
<path d="M350.009 152.82L349.194 153.318L349.213 154.426L350.034 153.935L350.009 152.82Z" fill="#A06126"/>
<path d="M351.159 152.135L350.344 152.633L350.363 153.735L351.178 153.243L351.159 152.135Z" fill="#A06126"/>
</g>
<mask id="mask1_1284_4314" style="mask-type:luminance" maskUnits="userSpaceOnUse" x="213" y="147" width="168" height="110">
<path d="M372.45 147.08L380.478 179.309L310.2 221.604L309.783 198.738L309.535 184.992L372.45 147.08ZM213.427 196.87L214.515 256.198L264.372 226.154L277.716 233.743L276.348 158.952L213.427 196.87Z" fill="white"/>
</mask>
<g mask="url(#mask1_1284_4314)">
<path d="M335.608 186.916L333.133 188.565L308.142 174.783L310.617 173.133L335.608 186.916Z" fill="#D7B264"/>
<path d="M333.133 188.566L333.22 193.441L308.229 179.664L308.142 174.783L333.133 188.566Z" fill="#7D5229"/>
<path d="M322.58 183.723L322.63 186.537L331.491 191.43L331.441 188.634L322.58 183.723Z" fill="#B68841"/>
<path d="M310.082 176.855L310.132 179.669L319.017 184.562L318.961 181.742L310.082 176.855Z" fill="#B68841"/>
<path d="M335.608 186.916L335.701 191.959L333.22 193.44L333.133 188.566L335.608 186.916Z" fill="#926A3B"/>
<path d="M312.383 178.169L310.132 179.669L310.082 176.855L312.383 178.169Z" fill="#614020"/>
<path d="M324.881 185.042L322.63 186.537L322.58 183.723L324.881 185.042Z" fill="#614020"/>
<path d="M324.688 193.465L322.207 195.114L297.223 181.338L299.698 179.682L324.688 193.465Z" fill="#D7B264"/>
<path d="M322.207 195.115L322.301 199.995L297.31 186.212L297.223 181.338L322.207 195.115Z" fill="#7D5229"/>
<path d="M311.661 190.271L311.711 193.092L320.572 197.985L320.522 195.183L311.661 190.271Z" fill="#B68841"/>
<path d="M299.163 183.404L299.213 186.224L308.098 191.111L308.042 188.297L299.163 183.404Z" fill="#B68841"/>
<path d="M324.688 193.465L324.776 198.507L322.301 199.995L322.207 195.115L324.688 193.465Z" fill="#926A3B"/>
<path d="M301.464 184.724L299.213 186.224L299.163 183.404L301.464 184.724Z" fill="#614020"/>
<path d="M313.956 191.591L311.711 193.092L311.661 190.271L313.956 191.591Z" fill="#614020"/>
<path d="M313.763 200.013L311.288 201.669L286.304 187.886L288.778 186.236L313.763 200.013Z" fill="#D7B264"/>
<path d="M311.288 201.67L311.375 206.544L286.391 192.761L286.304 187.887L311.288 201.67Z" fill="#7D5229"/>
<path d="M300.736 196.82L300.792 199.64L309.653 204.534L309.603 201.732L300.736 196.82Z" fill="#B68841"/>
<path d="M288.244 189.953L288.293 192.773L297.173 197.666L297.123 194.846L288.244 189.953Z" fill="#B68841"/>
<path d="M313.763 200.014L313.856 205.056L311.375 206.544L311.288 201.67L313.763 200.014Z" fill="#926A3B"/>
<path d="M290.538 191.273L288.293 192.773L288.244 189.953L290.538 191.273Z" fill="#614020"/>
<path d="M303.037 198.14L300.792 199.64L300.736 196.82L303.037 198.14Z" fill="#614020"/>
<path d="M308.733 198.881L311.27 200.437L335.583 185.683L333.046 184.127L308.733 198.881Z" fill="#D7B264"/>
<path d="M311.27 200.438L311.288 201.67L335.607 186.916L335.583 185.684L311.27 200.438Z" fill="#AD7E45"/>
<path d="M308.733 198.881L308.757 200.275L311.288 201.67L311.27 200.437L308.733 198.881Z" fill="#9A6331"/>
<path d="M303.117 195.781L305.654 197.344L329.968 182.59L327.437 181.027L303.117 195.781Z" fill="#D7B264"/>
<path d="M305.654 197.344L305.673 198.57L329.992 183.816L329.967 182.59L305.654 197.344Z" fill="#AD7E45"/>
<path d="M303.117 195.781L303.142 197.176L305.673 198.57L305.654 197.344L303.117 195.781Z" fill="#9A6331"/>
<path d="M297.502 192.686L300.039 194.242L324.359 179.488L321.822 177.932L297.502 192.686Z" fill="#D7B264"/>
<path d="M300.039 194.242L300.058 195.475L324.377 180.721L324.359 179.488L300.039 194.242Z" fill="#AD7E45"/>
<path d="M297.502 192.686L297.527 194.08L300.058 195.475L300.039 194.242L297.502 192.686Z" fill="#9A6331"/>
<path d="M291.887 189.586L294.424 191.149L318.744 176.395L316.207 174.832L291.887 189.586Z" fill="#D7B264"/>
<path d="M294.424 191.149L294.449 192.375L318.762 177.621L318.744 176.395L294.424 191.149Z" fill="#AD7E45"/>
<path d="M291.887 189.586L291.912 190.98L294.449 192.375L294.424 191.148L291.887 189.586Z" fill="#9A6331"/>
<path d="M286.272 186.492L288.809 188.049L313.129 173.295L310.592 171.738L286.272 186.492Z" fill="#D7B264"/>
<path d="M288.809 188.049L288.834 189.282L313.154 174.528L313.129 173.295L288.809 188.049Z" fill="#AD7E45"/>
<path d="M286.272 186.492L286.304 187.887L288.834 189.281L288.809 188.049L286.272 186.492Z" fill="#9A6331"/>
<path d="M311.058 185.222L299.555 178.854L299.331 166.59L310.834 172.952L311.058 185.222Z" fill="#A17F4C"/>
<path d="M319.782 167.535L310.834 172.951L311.058 185.221L320.006 179.83L319.782 167.535Z" fill="#D0A759"/>
<path d="M314.665 172.236L311.935 173.892L312.003 177.64L314.739 175.99L314.665 172.236Z" stroke="#A06126" stroke-width="0.2252" stroke-miterlimit="10"/>
<path d="M313.757 174.303L313.782 176.17L312.93 176.675L312.905 174.807L312.476 175.062L313.309 173.207L314.18 174.047L313.757 174.303Z" fill="#A06126"/>
<path d="M319.776 167.536L310.834 172.953L305.437 169.964L303.683 168.999L299.331 166.584L308.272 161.168L312.631 163.583L314.391 164.555L319.776 167.536Z" fill="#F5DF95"/>
<path d="M305.437 169.965L303.683 169L312.631 163.584L314.391 164.555L305.437 169.965Z" fill="#FDE8AB"/>
<path d="M303.683 180.087L300.382 178.281L300.332 175.455L303.634 177.267L303.683 180.087Z" fill="#ACACAC"/>
<path d="M303.497 179.731L300.562 178.125L300.556 177.994L303.491 179.607L303.497 179.731Z" fill="#595A5A"/>
<path d="M303.491 179.378L300.556 177.771L300.549 177.641L303.484 179.253L303.491 179.378Z" fill="#595A5A"/>
<path d="M303.484 179.022L300.543 177.416V177.285L303.478 178.898L303.484 179.022Z" fill="#595A5A"/>
<path d="M303.478 178.674L300.537 177.062V176.938L303.472 178.544L303.478 178.674Z" fill="#595A5A"/>
<path d="M303.466 178.001L300.525 176.395L300.518 175.99L303.453 177.596L303.466 178.001Z" fill="#595A5A"/>
<path d="M303.683 169L303.752 173.134L304.088 172.156L304.485 173.52L304.977 172.623L305.456 174.024L305.437 169.965L303.683 169Z" fill="#DAC68A"/>
<path d="M316.71 171.166L315.896 171.664L315.915 172.766L316.729 172.274L316.71 171.166Z" fill="#A06126"/>
<path d="M317.861 170.475L317.04 170.973L317.065 172.075L317.879 171.583L317.861 170.475Z" fill="#A06126"/>
<path d="M319.005 169.783L318.19 170.281L318.209 171.389L319.03 170.891L319.005 169.783Z" fill="#A06126"/>
<path d="M300.307 191.728L288.803 185.36L288.573 173.096L300.083 179.464L300.307 191.728Z" fill="#A17F4C"/>
<path d="M309.031 174.041L300.083 179.463L300.307 191.727L309.255 186.336L309.031 174.041Z" fill="#D0A759"/>
<path d="M303.913 178.742L301.184 180.398L301.252 184.146L303.982 182.496L303.913 178.742Z" stroke="#A06126" stroke-width="0.2252" stroke-miterlimit="10"/>
<path d="M303.006 180.809L303.031 182.676L302.179 183.18L302.154 181.313L301.725 181.568L302.558 179.713L303.429 180.553L303.006 180.809Z" fill="#A06126"/>
<path d="M309.025 174.042L300.083 179.465L294.686 176.47L292.932 175.505L288.58 173.09L297.521 167.674L301.88 170.089L303.64 171.06L309.025 174.042Z" fill="#F5DF95"/>
<path d="M294.686 176.471L292.932 175.506L301.88 170.09L303.64 171.061L294.686 176.471Z" fill="#FDE8AB"/>
<path d="M292.932 186.593L289.63 184.787L289.581 181.961L292.876 183.773L292.932 186.593Z" fill="#ACACAC"/>
<path d="M292.746 186.237L289.811 184.631L289.804 184.5L292.739 186.112L292.746 186.237Z" fill="#595A5A"/>
<path d="M292.739 185.883L289.798 184.277V184.146L292.733 185.759L292.739 185.883Z" fill="#595A5A"/>
<path d="M292.733 185.534L289.792 183.921V183.797L292.727 185.403L292.733 185.534Z" fill="#595A5A"/>
<path d="M292.721 185.18L289.786 183.568V183.443L292.721 185.049V185.18Z" fill="#595A5A"/>
<path d="M292.715 184.507L289.773 182.901L289.767 182.496L292.702 184.102L292.715 184.507Z" fill="#595A5A"/>
<path d="M292.932 175.506L293.001 179.639L293.336 178.668L293.734 180.025L294.226 179.129L294.704 180.53L294.686 176.471L292.932 175.506Z" fill="#DAC68A"/>
<path d="M305.959 177.672L305.145 178.17L305.163 179.278L305.978 178.78L305.959 177.672Z" fill="#A06126"/>
<path d="M307.11 176.98L306.289 177.478L306.314 178.587L307.128 178.089L307.11 176.98Z" fill="#A06126"/>
<path d="M308.254 176.289L307.439 176.787L307.458 177.895L308.272 177.397L308.254 176.289Z" fill="#A06126"/>
<path d="M323.818 192.207L312.314 185.838L312.09 173.574L323.594 179.943L323.818 192.207Z" fill="#A17F4C"/>
<path d="M332.542 174.52L323.594 179.942L323.818 192.206L332.766 186.815L332.542 174.52Z" fill="#D3B471"/>
<path d="M327.431 179.221L324.695 180.877L324.763 184.624L327.499 182.975L327.431 179.221Z" stroke="#A06126" stroke-width="0.2252" stroke-miterlimit="10"/>
<path d="M326.517 181.287L326.541 183.155L325.69 183.659L325.665 181.791L325.236 182.047L326.069 180.191L326.939 181.032L326.517 181.287Z" fill="#A06126"/>
<path d="M332.542 174.521L323.594 179.943L318.197 176.949L316.443 175.984L312.09 173.575L321.032 168.152L325.391 170.568L327.151 171.539L332.542 174.521Z" fill="#F5DF95"/>
<path d="M318.197 176.949L316.443 175.984L325.391 170.568L327.151 171.54L318.197 176.949Z" fill="#FDE8AB"/>
<path d="M316.443 187.071L313.141 185.266L313.091 182.439L316.393 184.251L316.443 187.071Z" fill="#ACACAC"/>
<path d="M316.257 186.722L313.322 185.109L313.315 184.979L316.25 186.591L316.257 186.722Z" fill="#595A5A"/>
<path d="M316.25 186.368L313.315 184.755L313.309 184.631L316.244 186.237L316.25 186.368Z" fill="#595A5A"/>
<path d="M316.244 186.012L313.309 184.4L313.303 184.275L316.238 185.882L316.244 186.012Z" fill="#595A5A"/>
<path d="M316.238 185.659L313.303 184.046L313.297 183.922L316.232 185.528L316.238 185.659Z" fill="#595A5A"/>
<path d="M316.225 184.992L313.29 183.379L313.278 182.975L316.213 184.587L316.225 184.992Z" fill="#595A5A"/>
<path d="M316.443 175.984L316.511 180.118L316.847 179.147L317.251 180.504L317.736 179.614L318.215 181.014L318.197 176.949L316.443 175.984Z" fill="#DAC68A"/>
<path d="M329.47 178.15L328.656 178.648L328.674 179.757L329.495 179.259L329.47 178.15Z" fill="#A06126"/>
<path d="M330.62 177.459L329.8 177.957L329.825 179.065L330.639 178.567L330.62 177.459Z" fill="#A06126"/>
<path d="M331.765 176.768L330.95 177.266L330.969 178.374L331.79 177.876L331.765 176.768Z" fill="#A06126"/>
<path d="M313.067 198.713L301.563 192.344L301.339 180.08L312.843 186.449L313.067 198.713Z" fill="#A17F4C"/>
<path d="M321.791 181.025L312.843 186.448L313.067 198.712L322.015 193.32L321.791 181.025Z" fill="#D3B471"/>
<path d="M316.679 185.732L313.943 187.382L314.012 191.13L316.748 189.486L316.679 185.732Z" stroke="#A06126" stroke-width="0.2252" stroke-miterlimit="10"/>
<path d="M315.765 187.793L315.79 189.66L314.938 190.164L314.913 188.297L314.484 188.552L315.318 186.703L316.188 187.544L315.765 187.793Z" fill="#A06126"/>
<path d="M321.791 181.033L312.843 186.449L307.445 183.46L305.692 182.489L301.339 180.08L310.281 174.664L314.64 177.073L316.4 178.044L321.791 181.033Z" fill="#F5DF95"/>
<path d="M307.445 183.461L305.692 182.49L314.64 177.074L316.399 178.045L307.445 183.461Z" fill="#FDE8AB"/>
<path d="M305.692 193.583L302.39 191.772L302.34 188.945L305.642 190.757L305.692 193.583Z" fill="#ACACAC"/>
<path d="M305.505 193.229L302.57 191.617L302.564 191.492L305.499 193.098L305.505 193.229Z" fill="#595A5A"/>
<path d="M305.499 192.874L302.564 191.261L302.558 191.137L305.493 192.743L305.499 192.874Z" fill="#595A5A"/>
<path d="M305.493 192.518L302.558 190.912L302.552 190.781L305.487 192.387L305.493 192.518Z" fill="#595A5A"/>
<path d="M305.487 192.165L302.545 190.558V190.428L305.48 192.034L305.487 192.165Z" fill="#595A5A"/>
<path d="M305.474 191.497L302.539 189.885L302.527 189.48L305.462 191.093L305.474 191.497Z" fill="#595A5A"/>
<path d="M305.692 182.49L305.76 186.624L306.096 185.653L306.5 187.01L306.985 186.12L307.464 187.52L307.445 183.461L305.692 182.49Z" fill="#DAC68A"/>
<path d="M318.719 184.656L317.904 185.154L317.923 186.262L318.744 185.764L318.719 184.656Z" fill="#A06126"/>
<path d="M319.869 183.965L319.048 184.463L319.073 185.571L319.888 185.073L319.869 183.965Z" fill="#A06126"/>
<path d="M321.013 183.273L320.199 183.771L320.218 184.88L321.038 184.382L321.013 183.273Z" fill="#A06126"/>
<path d="M310.828 172.517L299.318 166.149L299.094 153.885L310.604 160.253L310.828 172.517Z" fill="#A17F4C"/>
<path d="M319.546 154.83L310.604 160.252L310.828 172.516L319.776 167.125L319.546 154.83Z" fill="#D0A759"/>
<path d="M314.435 159.537L311.705 161.187L311.773 164.934L314.503 163.291L314.435 159.537Z" stroke="#A06126" stroke-width="0.2252" stroke-miterlimit="10"/>
<path d="M313.521 161.597L313.552 163.465L312.7 163.969L312.669 162.108L312.246 162.357L313.079 160.508L313.95 161.348L313.521 161.597Z" fill="#A06126"/>
<path d="M319.546 154.837L310.604 160.253L305.201 157.265L303.453 156.294L299.094 153.885L308.036 148.469L312.401 150.878L314.155 151.849L319.546 154.837Z" fill="#F5DF95"/>
<path d="M305.201 157.266L303.453 156.295L312.401 150.879L314.155 151.85L305.201 157.266Z" fill="#FDE8AB"/>
<path d="M303.447 167.388L300.145 165.576L300.095 162.75L303.397 164.562L303.447 167.388Z" fill="#ACACAC"/>
<path d="M303.261 167.034L300.326 165.421V165.297L303.261 166.903V167.034Z" fill="#595A5A"/>
<path d="M303.254 166.678L300.319 165.066V164.941L303.254 166.548V166.678Z" fill="#595A5A"/>
<path d="M303.248 166.323L300.313 164.717V164.586L303.248 166.192V166.323Z" fill="#595A5A"/>
<path d="M303.242 165.969L300.307 164.363V164.232L303.242 165.839V165.969Z" fill="#595A5A"/>
<path d="M303.229 165.302L300.294 163.69L300.288 163.285L303.223 164.898L303.229 165.302Z" fill="#595A5A"/>
<path d="M303.453 156.295L303.515 160.429L303.857 159.457L304.255 160.815L304.747 159.924L305.225 161.325L305.201 157.266L303.453 156.295Z" fill="#DAC68A"/>
<path d="M316.48 158.461L315.66 158.959L315.684 160.067L316.499 159.569L316.48 158.461Z" fill="#A06126"/>
<path d="M317.625 157.77L316.81 158.268L316.829 159.376L317.649 158.878L317.625 157.77Z" fill="#A06126"/>
<path d="M318.775 157.078L317.954 157.576L317.979 158.684L318.794 158.186L318.775 157.078Z" fill="#A06126"/>
<path d="M300.077 179.023L288.567 172.661L288.343 160.391L299.853 166.759L300.077 179.023Z" fill="#A17F4C"/>
<path d="M308.795 161.344L299.853 166.76L300.077 179.024L309.025 173.639L308.795 161.344Z" fill="#D0A759"/>
<path d="M303.683 166.043L300.954 167.699L301.022 171.44L303.752 169.797L303.683 166.043Z" stroke="#A06126" stroke-width="0.2252" stroke-miterlimit="10"/>
<path d="M302.769 168.103L302.8 169.971L301.949 170.475L301.917 168.614L301.495 168.863L302.328 167.014L303.198 167.854L302.769 168.103Z" fill="#A06126"/>
<path d="M308.795 161.343L299.853 166.759L294.449 163.771L292.702 162.806L288.343 160.391L297.285 154.975L301.65 157.384L303.404 158.361L308.795 161.343Z" fill="#F5DF95"/>
<path d="M294.449 163.772L292.702 162.807L301.65 157.385L303.403 158.362L294.449 163.772Z" fill="#FDE8AB"/>
<path d="M292.696 173.893L289.394 172.082L289.344 169.262L292.646 171.067L292.696 173.893Z" fill="#ACACAC"/>
<path d="M292.509 173.538L289.574 171.925V171.801L292.509 173.407V173.538Z" fill="#595A5A"/>
<path d="M292.503 173.184L289.568 171.578V171.447L292.503 173.053V173.184Z" fill="#595A5A"/>
<path d="M292.497 172.829L289.562 171.223V171.092L292.497 172.698V172.829Z" fill="#595A5A"/>
<path d="M292.491 172.473L289.556 170.867V170.736L292.491 172.349V172.473Z" fill="#595A5A"/>
<path d="M292.478 171.808L289.543 170.195L289.537 169.797L292.472 171.403L292.478 171.808Z" fill="#595A5A"/>
<path d="M292.696 162.807L292.764 166.934L293.106 165.963L293.504 167.326L293.995 166.43L294.468 167.831L294.449 163.772L292.696 162.807Z" fill="#DAC68A"/>
<path d="M305.729 164.967L304.908 165.465L304.933 166.573L305.748 166.075L305.729 164.967Z" fill="#A06126"/>
<path d="M306.873 164.275L306.059 164.773L306.077 165.882L306.898 165.39L306.873 164.275Z" fill="#A06126"/>
<path d="M308.024 163.584L307.203 164.082L307.228 165.19L308.042 164.698L308.024 163.584Z" fill="#A06126"/>
<path d="M323.588 179.502L312.078 173.139L311.854 160.869L323.364 167.238L323.588 179.502Z" fill="#A17F4C"/>
<path d="M332.312 161.822L323.364 167.238L323.588 179.502L332.536 174.117L332.312 161.822Z" fill="#D3B471"/>
<path d="M327.194 166.521L324.464 168.177L324.533 171.919L327.263 170.275L327.194 166.521Z" stroke="#A06126" stroke-width="0.2252" stroke-miterlimit="10"/>
<path d="M326.28 168.588L326.311 170.449L325.459 170.96L325.428 169.092L325.005 169.341L325.839 167.492L326.709 168.333L326.28 168.588Z" fill="#A06126"/>
<path d="M332.306 161.822L323.364 167.238L317.96 164.25L316.213 163.285L311.854 160.869L320.802 155.453L325.161 157.862L326.921 158.84L332.306 161.822Z" fill="#F5DF95"/>
<path d="M317.96 164.25L316.213 163.286L325.161 157.863L326.921 158.841L317.96 164.25Z" fill="#FDE8AB"/>
<path d="M316.213 174.372L312.911 172.56L312.855 169.74L316.157 171.546L316.213 174.372Z" fill="#ACACAC"/>
<path d="M316.02 174.016L313.085 172.41V172.279L316.02 173.885V174.016Z" fill="#595A5A"/>
<path d="M316.014 173.663L313.079 172.057V171.926L316.014 173.532V173.663Z" fill="#595A5A"/>
<path d="M316.008 173.307L313.073 171.701V171.57L316.008 173.183V173.307Z" fill="#595A5A"/>
<path d="M316.002 172.952L313.067 171.346V171.215L316.002 172.827V172.952Z" fill="#595A5A"/>
<path d="M315.989 172.286L313.054 170.68L313.048 170.275L315.983 171.882L315.989 172.286Z" fill="#595A5A"/>
<path d="M316.213 163.285L316.275 167.413L316.617 166.441L317.015 167.805L317.506 166.908L317.985 168.309L317.96 164.25L316.213 163.285Z" fill="#DAC68A"/>
<path d="M329.24 165.445L328.425 165.943L328.444 167.051L329.259 166.56L329.24 165.445Z" fill="#A06126"/>
<path d="M330.384 164.754L329.57 165.252L329.588 166.36L330.409 165.868L330.384 164.754Z" fill="#A06126"/>
<path d="M331.535 164.068L330.72 164.566L330.739 165.668L331.553 165.176L331.535 164.068Z" fill="#A06126"/>
<path d="M312.836 186.007L301.327 179.645L301.103 167.381L312.613 173.743L312.836 186.007Z" fill="#A17F4C"/>
<path d="M321.554 168.326L312.613 173.742L312.837 186.006L321.784 180.621L321.554 168.326Z" fill="#D3B471"/>
<path d="M316.443 173.027L313.713 174.683L313.782 178.425L316.511 176.781L316.443 173.027Z" stroke="#A06126" stroke-width="0.2252" stroke-miterlimit="10"/>
<path d="M315.529 175.094L315.56 176.955L314.708 177.466L314.677 175.598L314.254 175.853L315.088 173.998L315.958 174.838L315.529 175.094Z" fill="#A06126"/>
<path d="M321.554 168.328L312.613 173.744L307.209 170.755L305.462 169.79L301.103 167.375L310.051 161.959L314.41 164.374L316.169 165.346L321.554 168.328Z" fill="#F5DF95"/>
<path d="M307.209 170.756L305.462 169.791L314.41 164.375L316.169 165.346L307.209 170.756Z" fill="#FDE8AB"/>
<path d="M305.455 180.878L302.16 179.072L302.104 176.246L305.406 178.051L305.455 180.878Z" fill="#ACACAC"/>
<path d="M305.269 180.522L302.334 178.916V178.785L305.269 180.391V180.522Z" fill="#595A5A"/>
<path d="M305.263 180.169L302.328 178.562V178.432L305.263 180.044V180.169Z" fill="#595A5A"/>
<path d="M305.257 179.813L302.322 178.207V178.076L305.257 179.689V179.813Z" fill="#595A5A"/>
<path d="M305.25 179.458L302.315 177.851V177.721L305.25 179.333V179.458Z" fill="#595A5A"/>
<path d="M305.238 178.792L302.303 177.186L302.297 176.781L305.232 178.387L305.238 178.792Z" fill="#595A5A"/>
<path d="M305.462 169.791L305.524 173.925L305.866 172.947L306.264 174.311L306.755 173.414L307.234 174.815L307.209 170.756L305.462 169.791Z" fill="#DAC68A"/>
<path d="M318.489 171.951L317.668 172.449L317.693 173.557L318.507 173.066L318.489 171.951Z" fill="#A06126"/>
<path d="M319.633 171.266L318.818 171.764L318.837 172.866L319.658 172.374L319.633 171.266Z" fill="#A06126"/>
<path d="M320.783 170.574L319.969 171.072L319.987 172.18L320.802 171.682L320.783 170.574Z" fill="#A06126"/>
</g>
<mask id="mask2_1284_4314" style="mask-type:luminance" maskUnits="userSpaceOnUse" x="213" y="147" width="168" height="110">
<path d="M372.45 147.08L380.478 179.309L310.2 221.604L309.783 198.738L309.535 184.992L372.45 147.08ZM213.427 196.87L214.515 256.198L264.372 226.154L277.716 233.743L276.348 158.952L213.427 196.87Z" fill="white"/>
</mask>
<g mask="url(#mask2_1284_4314)">
<path d="M287.187 200.738L284.705 202.394L259.721 188.611L262.196 186.961L287.187 200.738Z" fill="#A78A4E"/>
<path d="M284.705 202.394L284.799 207.269L259.808 193.486L259.721 188.611L284.705 202.394Z" fill="#4F331A"/>
<path d="M274.159 197.551L274.209 200.365L283.07 205.258L283.02 202.456L274.159 197.551Z" fill="#896630"/>
<path d="M261.661 190.678L261.711 193.498L270.59 198.391L270.54 195.571L261.661 190.678Z" fill="#896630"/>
<path d="M287.186 200.738L287.274 205.787L284.799 207.269L284.705 202.394L287.186 200.738Z" fill="#634828"/>
<path d="M263.962 191.998L261.711 193.498L261.661 190.678L263.962 191.998Z" fill="#322113"/>
<path d="M276.454 198.864L274.209 200.365L274.159 197.551L276.454 198.864Z" fill="#322113"/>
<path d="M276.261 207.293L273.786 208.942L248.802 195.159L251.276 193.51L276.261 207.293Z" fill="#A78A4E"/>
<path d="M273.786 208.943L273.873 213.818L248.889 200.041L248.802 195.16L273.786 208.943Z" fill="#4F331A"/>
<path d="M263.234 204.1L263.29 206.913L272.151 211.807L272.101 209.011L263.234 204.1Z" fill="#896630"/>
<path d="M250.742 197.232L250.791 200.046L259.671 204.939L259.621 202.119L250.742 197.232Z" fill="#896630"/>
<path d="M276.261 207.293L276.354 212.335L273.873 213.817L273.786 208.943L276.261 207.293Z" fill="#634828"/>
<path d="M253.036 198.552L250.791 200.046L250.742 197.232L253.036 198.552Z" fill="#322113"/>
<path d="M265.535 205.419L263.29 206.913L263.234 204.1L265.535 205.419Z" fill="#322113"/>
<path d="M265.342 213.842L262.867 215.491L237.876 201.715L240.357 200.059L265.342 213.842Z" fill="#A78A4E"/>
<path d="M262.867 215.492L262.954 220.372L237.97 206.589L237.876 201.715L262.867 215.492Z" fill="#4F331A"/>
<path d="M252.315 210.648L252.365 213.469L261.232 218.362L261.176 215.56L252.315 210.648Z" fill="#896630"/>
<path d="M239.816 203.781L239.872 206.601L248.752 211.488L248.702 208.674L239.816 203.781Z" fill="#896630"/>
<path d="M265.342 213.842L265.435 218.884L262.954 220.372L262.867 215.492L265.342 213.842Z" fill="#634828"/>
<path d="M242.117 205.101L239.872 206.601L239.816 203.781L242.117 205.101Z" fill="#322113"/>
<path d="M254.616 211.968L252.365 213.469L252.315 210.648L254.616 211.968Z" fill="#322113"/>
<path d="M260.305 212.709L262.842 214.265L287.162 199.511L284.625 197.955L260.305 212.709Z" fill="#A78A4E"/>
<path d="M262.842 214.266L262.867 215.492L287.186 200.738L287.162 199.512L262.842 214.266Z" fill="#7F5C33"/>
<path d="M260.305 212.709L260.336 214.103L262.867 215.492L262.842 214.265L260.305 212.709Z" fill="#6B4522"/>
<path d="M254.696 209.61L257.227 211.172L281.546 196.418L279.009 194.855L254.696 209.61Z" fill="#A78A4E"/>
<path d="M257.227 211.172L257.252 212.398L281.571 197.644L281.546 196.418L257.227 211.172Z" fill="#7F5C33"/>
<path d="M254.696 209.609L254.721 211.004L257.252 212.398L257.227 211.172L254.696 209.609Z" fill="#6B4522"/>
<path d="M249.081 206.514L251.618 208.07L275.931 193.316L273.401 191.76L249.081 206.514Z" fill="#A78A4E"/>
<path d="M251.618 208.07L251.637 209.297L275.956 194.543L275.931 193.316L251.618 208.07Z" fill="#7F5C33"/>
<path d="M249.081 206.514L249.106 207.908L251.637 209.296L251.618 208.07L249.081 206.514Z" fill="#6B4522"/>
<path d="M243.466 203.414L246.003 204.977L270.316 190.223L267.786 188.66L243.466 203.414Z" fill="#A78A4E"/>
<path d="M246.003 204.977L246.022 206.203L270.341 191.449L270.316 190.223L246.003 204.977Z" fill="#7F5C33"/>
<path d="M243.466 203.414L243.491 204.809L246.022 206.203L246.003 204.977L243.466 203.414Z" fill="#6B4522"/>
<path d="M237.851 200.32L240.388 201.877L264.708 187.123L262.171 185.566L237.851 200.32Z" fill="#A78A4E"/>
<path d="M240.388 201.877L240.413 203.104L264.726 188.349L264.708 187.123L240.388 201.877Z" fill="#7F5C33"/>
<path d="M237.851 200.32L237.876 201.715L240.413 203.103L240.388 201.877L237.851 200.32Z" fill="#6B4522"/>
<path d="M263.315 210.927L243.093 199.728L242.577 171.471L262.799 182.67L263.315 210.927Z" fill="#8C7647"/>
<path d="M260.821 183.859L261.25 207.497L245.071 198.538L244.642 174.895L260.821 183.859Z" fill="#735B37"/>
<path d="M276.597 174.311L262.799 182.671L263.315 210.928L277.119 202.611L276.597 174.311Z" fill="#A2803C"/>
<path d="M263.309 210.928L280.11 200.78L279.594 172.523L262.792 182.671L263.309 210.928Z" fill="#A38B58"/>
<path d="M264.813 183.785L265.249 207.429L278.089 199.66L277.66 176.016L264.813 183.785Z" fill="#977F4D"/>
<path d="M277.312 199.218L276.895 176.483L277.66 176.016L278.096 199.666L265.243 207.429L265.23 206.52L277.312 199.218Z" fill="#735B37"/>
<path d="M265 193.976L265.031 195.569L277.859 187.109L277.082 186.68L265 193.976Z" fill="#C7B579"/>
<path d="M277.903 189.319L277.865 187.109L265.012 194.872L265.056 197.082L277.903 189.319Z" fill="#A38B58"/>
<path d="M277.312 199.219L278.096 199.667L265.243 207.43L265.23 206.521L277.312 199.219Z" fill="#C7B579"/>
<path d="M245.836 198.065L245.419 175.33L244.635 174.895L245.071 198.538L261.257 207.503L261.238 206.594L245.836 198.065Z" fill="#9A814C"/>
<path d="M261.002 194.052L261.033 195.645L244.841 185.984L245.612 185.529L261.002 194.052Z" fill="#B09661"/>
<path d="M244.878 188.192L244.841 185.982L261.027 194.947L261.064 197.157L244.878 188.192Z" fill="#8C7647"/>
<path d="M245.836 198.066L245.071 198.54L261.257 207.504L261.238 206.595L245.836 198.066Z" fill="#B09661"/>
<path d="M276.616 174.336L262.793 182.665L242.583 171.472L256.382 163.143L276.616 174.336Z" fill="#A2803C"/>
<path d="M242.584 171.472L259.379 161.324L279.594 172.524L262.793 182.671L242.584 171.472Z" fill="#C7B579"/>
<path d="M262.755 180.362L246.576 171.398L259.422 163.635L275.602 172.599L262.755 180.362Z" fill="#B49E64"/>
<path d="M259.447 164.531L274.837 173.06L275.602 172.599L259.422 163.635L246.569 171.398L247.371 171.84L259.447 164.531Z" fill="#735B37"/>
<path d="M255.567 176.427L254.174 175.655L267.686 168.203L267.692 169.093L255.567 176.427Z" fill="#A38B58"/>
<path d="M265.752 167.127L267.686 168.198L254.784 175.998L252.85 174.927L265.752 167.127Z" fill="#C7B579"/>
<path d="M259.447 164.531L259.422 163.635L246.569 171.398L247.371 171.84L259.447 164.531Z" fill="#A38B58"/>
<path d="M276.019 179.968L276.05 182.054L275.098 182.62L275.067 180.535L274.588 180.815L275.521 178.748L276.491 179.688L276.019 179.968Z" fill="#36251B"/>
<path d="M268.644 182.303L265.87 187.887L268.271 189.705L271.038 184.121L268.644 182.303Z" fill="#9A9A9A"/>
<path d="M273.842 180.984C273.811 181.121 273.761 181.264 273.699 181.407C273.643 181.538 273.575 181.675 273.475 181.793C273.388 181.893 273.289 182.005 273.183 182.085L273.177 183.324C273.388 183.219 273.55 183.219 273.581 183.318L272.567 183.934C272.617 183.791 272.766 183.611 272.953 183.468L272.903 182.235C272.804 182.26 272.723 182.266 272.679 182.266C272.586 182.266 272.512 182.21 272.449 182.154C272.387 182.086 272.337 182.005 272.3 181.911C272.238 181.756 272.219 181.575 272.225 181.37C272.225 181.307 272.232 181.245 272.25 181.177C272.25 181.17 272.263 181.108 272.263 181.102L273.04 180.647L273.817 180.199C273.824 180.199 273.836 180.249 273.836 180.249C273.855 180.299 273.861 180.349 273.867 180.398C273.898 180.573 273.886 180.772 273.842 180.984Z" fill="#36251B"/>
</g>
<mask id="mask3_1284_4314" style="mask-type:luminance" maskUnits="userSpaceOnUse" x="213" y="147" width="168" height="110">
<path d="M372.45 147.08L380.478 179.309L310.2 221.604L309.783 198.738L309.535 184.992L372.45 147.08ZM213.427 196.87L214.515 256.198L264.372 226.154L277.716 233.743L276.348 158.952L213.427 196.87Z" fill="white"/>
</mask>
<g mask="url(#mask3_1284_4314)">
<path d="M226.721 220.513L206.506 209.319L205.99 181.062L226.205 192.256L226.721 220.513Z" fill="#105729"/>
<path d="M224.228 193.445L224.657 217.089L208.483 208.124L208.048 184.48L224.228 193.445Z" fill="#105729"/>
<path d="M240.009 183.896L226.205 192.257L226.721 220.514L240.525 212.203L240.009 183.896Z" fill="#105729"/>
<path d="M226.721 220.514L243.516 210.366L243 182.109L226.205 192.257L226.721 220.514Z" fill="#105729"/>
<path d="M228.22 193.37L228.655 217.014L241.502 209.251L241.066 185.607L228.22 193.37Z" fill="#105729"/>
<path d="M240.724 208.809L240.308 186.068L241.073 185.607L241.502 209.251L228.649 217.021L228.636 216.105L240.724 208.809Z" fill="#105729"/>
<path d="M228.412 203.568L228.437 205.161L241.272 196.695L240.488 196.271L228.412 203.568Z" fill="#105729"/>
<path d="M241.315 198.905L241.272 196.695L228.425 204.465L228.462 206.675L241.315 198.905Z" fill="#105729"/>
<path d="M240.724 208.811L241.502 209.253L228.649 217.022L228.636 216.107L240.724 208.811Z" fill="#105729"/>
<path d="M209.242 207.657L208.825 184.916L208.048 184.48L208.477 208.124L224.663 217.089L224.644 216.18L209.242 207.657Z" fill="#105729"/>
<path d="M224.414 203.644L224.445 205.237L208.253 195.576L209.018 195.121L224.414 203.644Z" fill="#105729"/>
<path d="M208.29 197.778L208.247 195.574L224.433 204.539L224.476 206.742L208.29 197.778Z" fill="#105729"/>
<path d="M209.242 207.658L208.477 208.125L224.663 217.09L224.644 216.181L209.242 207.658Z" fill="#105729"/>
<path d="M240.022 183.928L226.205 192.257L205.99 181.058L219.788 172.734L240.022 183.928Z" fill="#105729"/>
<path d="M205.99 181.057L222.791 170.916L243 182.115L226.205 192.257L205.99 181.057Z" fill="#105729"/>
<path d="M226.161 189.948L209.988 180.983L222.835 173.227L239.008 182.191L226.161 189.948Z" fill="#105729"/>
<path d="M222.86 174.121L238.243 182.644L239.014 182.183L222.835 173.219L209.982 180.982L210.778 181.424L222.86 174.121Z" fill="#105729"/>
<path d="M218.973 186.013L217.58 185.241L231.092 177.789L231.099 178.679L218.973 186.013Z" fill="#105729"/>
<path d="M229.165 176.719L231.092 177.783L218.19 185.584L216.256 184.513L229.165 176.719Z" fill="#105729"/>
<path d="M222.86 174.121L222.835 173.219L209.982 180.982L210.778 181.424L222.86 174.121Z" fill="#105729"/>
<path d="M239.425 189.554L239.456 191.64L238.504 192.206L238.473 190.121L237.995 190.407L238.927 188.334L239.903 189.274L239.425 189.554Z" fill="#105729"/>
<path d="M232.05 191.889L229.277 197.473L231.677 199.297L234.45 193.706L232.05 191.889Z" fill="#105729"/>
<path d="M237.248 190.57C237.217 190.707 237.168 190.85 237.105 190.993C237.049 191.124 236.981 191.261 236.881 191.379C236.794 191.478 236.695 191.591 236.589 191.671L236.583 192.91C236.794 192.804 236.956 192.804 236.987 192.904L235.974 193.52C236.023 193.377 236.173 193.197 236.359 193.053L236.309 191.821C236.21 191.846 236.129 191.852 236.086 191.852C235.992 191.852 235.918 191.796 235.855 191.74C235.793 191.671 235.744 191.591 235.706 191.497C235.644 191.341 235.625 191.161 235.632 190.956C235.632 190.893 235.638 190.831 235.657 190.763C235.657 190.756 235.669 190.694 235.669 190.688L236.446 190.233L237.223 189.785C237.23 189.785 237.242 189.835 237.242 189.835C237.261 189.885 237.267 189.935 237.273 189.984C237.311 190.165 237.298 190.358 237.248 190.57Z" fill="#105729"/>
</g>
<path d="M196.911 189.008L197.508 221.741L213.7 212.005L213.414 190.733L281.951 157.153L282.156 170.83L386.808 107.886L386.484 90.2617L196.911 189.008Z" fill="#B6A990"/>
<path d="M217.81 204.597L216.386 207.249L401.576 94.9185L403 92.2852L217.81 204.597Z" fill="#0D6936"/>
<path d="M217.81 204.596L196.849 185.695L382.039 73.3652L403 92.2841L217.81 204.596Z" fill="#0AA54A"/>
<path d="M217.81 204.595L216.386 207.247L196.911 189.007L196.849 185.695L217.81 204.595Z" fill="#0D6936"/>
<path d="M362.165 159.438L343.268 170.811L335.825 175.897L332.722 184.327L332.61 178.232L312.911 189.985L309.746 196.877L309.528 184.993L362.862 152.857L362.967 158.759L362.165 159.438Z" fill="#C5C7D3"/>
<path d="M126.192 165.077L126.447 178.978L108.638 169.155L108.389 155.26L126.192 165.077Z" fill="#959595"/>
<path d="M111.231 167.592L111.088 159.754L123.605 166.645L123.748 174.483L111.231 167.592Z" fill="url(#paint0_linear_1284_4314)"/>
<path d="M113.034 166.51L111.231 167.593L123.748 174.484L123.704 172.38L113.034 166.51Z" fill="#E7F6FD"/>
<path d="M111.032 156.729L111.287 170.63L95.6668 161.958L95.4119 148.057L111.032 156.729Z" fill="#959595"/>
<path d="M98.2598 160.389L98.1168 152.551L108.445 158.297L108.588 166.134L98.2598 160.389Z" fill="url(#paint1_linear_1284_4314)"/>
<path d="M100.057 159.307L98.2598 160.39L108.588 166.136L108.545 164.032L100.057 159.307Z" fill="#E7F6FD"/>
<path d="M125.999 154.333L126.254 168.235L108.445 158.411L108.19 144.51L125.999 154.333Z" fill="#959595"/>
<path d="M111.038 156.847L110.895 149.01L123.406 155.895L123.549 163.739L111.038 156.847Z" fill="url(#paint2_linear_1284_4314)"/>
<path d="M112.835 155.76L111.038 156.849L123.549 163.741L123.512 161.637L112.835 155.76Z" fill="#E7F6FD"/>
<path d="M110.839 145.984L111.094 159.886L95.4678 151.207L95.2129 137.312L110.839 145.984Z" fill="#959595"/>
<path d="M98.0609 149.644L97.9178 141.807L108.246 147.546L108.389 155.39L98.0609 149.644Z" fill="url(#paint3_linear_1284_4314)"/>
<path d="M99.8641 148.562L98.0608 149.646L108.389 155.392L108.352 153.288L99.8641 148.562Z" fill="#E7F6FD"/>
<path d="M151.68 179.171L151.935 193.072L134.126 183.249L133.871 169.348L151.68 179.171Z" fill="#959595"/>
<path d="M136.719 181.685L136.576 173.848L149.087 180.733L149.23 188.577L136.719 181.685Z" fill="url(#paint4_linear_1284_4314)"/>
<path d="M138.522 180.598L136.719 181.687L149.23 188.579L149.193 186.468L138.522 180.598Z" fill="#E7F6FD"/>
<path d="M136.52 170.824L136.775 184.725L121.155 176.047L120.9 162.152L136.52 170.824Z" fill="#959595"/>
<path d="M123.748 174.484L123.605 166.646L133.927 172.386L134.07 180.23L123.748 174.484Z" fill="url(#paint5_linear_1284_4314)"/>
<path d="M125.545 173.402L123.748 174.486L134.07 180.232L134.033 178.121L125.545 173.402Z" fill="#E7F6FD"/>
<path d="M151.481 168.427L151.736 182.322L133.927 172.505L133.678 158.604L151.481 168.427Z" fill="#959595"/>
<path d="M136.52 170.935L136.377 163.098L148.894 169.989L149.037 177.827L136.52 170.935Z" fill="url(#paint6_linear_1284_4314)"/>
<path d="M138.323 169.854L136.52 170.937L149.037 177.828L148.994 175.724L138.323 169.854Z" fill="#E7F6FD"/>
<path d="M136.321 160.079L136.576 173.974L120.956 165.302L120.701 151.4L136.321 160.079Z" fill="#959595"/>
<path d="M123.549 163.738L123.406 155.895L133.728 161.641L133.878 169.484L123.549 163.738Z" fill="url(#paint7_linear_1284_4314)"/>
<path d="M125.346 162.65L123.549 163.74L133.877 169.486L133.834 167.375L125.346 162.65Z" fill="#E7F6FD"/>
<path d="M176.248 192.798L176.503 206.693L158.694 196.87L158.439 182.975L176.248 192.798Z" fill="#959595"/>
<path d="M161.287 195.306L161.144 187.469L173.655 194.36L173.798 202.198L161.287 195.306Z" fill="url(#paint8_linear_1284_4314)"/>
<path d="M163.09 194.225L161.287 195.308L173.798 202.199L173.761 200.095L163.09 194.225Z" fill="#E7F6FD"/>
<path d="M161.088 184.443L161.343 198.345L145.723 189.673L145.468 175.771L161.088 184.443Z" fill="#959595"/>
<path d="M148.316 188.103L148.173 180.266L158.495 186.012L158.638 193.849L148.316 188.103Z" fill="url(#paint9_linear_1284_4314)"/>
<path d="M150.113 187.021L148.316 188.105L158.638 193.851L158.601 191.747L150.113 187.021Z" fill="#E7F6FD"/>
<path d="M176.055 182.048L176.31 195.949L158.501 186.125L158.246 172.23L176.055 182.048Z" fill="#959595"/>
<path d="M161.094 184.562L160.951 176.725L173.462 183.61L173.605 191.454L161.094 184.562Z" fill="url(#paint10_linear_1284_4314)"/>
<path d="M162.891 183.473L161.094 184.562L173.605 191.454L173.568 189.349L162.891 183.473Z" fill="#E7F6FD"/>
<path d="M160.895 173.699L161.15 187.6L145.524 178.922L145.269 165.027L160.895 173.699Z" fill="#959595"/>
<path d="M148.117 177.359L147.974 169.521L158.303 175.267L158.446 183.105L148.117 177.359Z" fill="url(#paint11_linear_1284_4314)"/>
<path d="M149.92 176.277L148.117 177.361L158.445 183.107L158.408 181.002L149.92 176.277Z" fill="#E7F6FD"/>
<path d="M99.864 148.561L98.0607 149.644L97.9177 141.807L99.7396 142.821L99.864 148.561Z" fill="#C0BFBF"/>
<path d="M112.835 155.758L111.038 156.847L110.895 149.01L112.717 150.018L112.835 155.758Z" fill="#C0BFBF"/>
<path d="M125.346 162.651L123.549 163.74L123.406 155.902L125.228 156.911L125.346 162.651Z" fill="#C0BFBF"/>
<path d="M138.323 169.852L136.526 170.935L136.383 163.098L138.199 164.112L138.323 169.852Z" fill="#C0BFBF"/>
<path d="M149.92 176.278L148.117 177.361L147.974 169.523L149.796 170.538L149.92 176.278Z" fill="#C0BFBF"/>
<path d="M162.891 183.473L161.094 184.562L160.951 176.725L162.773 177.733L162.891 183.473Z" fill="#C0BFBF"/>
<path d="M100.057 159.307L98.2597 160.39L98.1167 152.553L99.9386 153.567L100.057 159.307Z" fill="#C0BFBF"/>
<path d="M113.034 166.51L111.237 167.594L111.094 159.756L112.91 160.764L113.034 166.51Z" fill="#C0BFBF"/>
<path d="M125.545 173.401L123.748 174.484L123.605 166.646L125.421 167.655L125.545 173.401Z" fill="#C0BFBF"/>
<path d="M138.522 180.598L136.719 181.688L136.576 173.844L138.398 174.858L138.522 180.598Z" fill="#C0BFBF"/>
<path d="M150.113 187.022L148.316 188.112L148.173 180.268L149.995 181.282L150.113 187.022Z" fill="#C0BFBF"/>
<path d="M163.09 194.225L161.287 195.308L161.144 187.471L162.966 188.479L163.09 194.225Z" fill="#C0BFBF"/>
<defs>
<linearGradient id="paint0_linear_1284_4314" x1="116.503" y1="100.079" x2="118.014" y2="217.879" gradientUnits="userSpaceOnUse">
<stop offset="0.1872" stop-color="#224550"/>
<stop offset="0.9409" stop-color="#709BBF"/>
</linearGradient>
<linearGradient id="paint1_linear_1284_4314" x1="102.505" y1="97.6037" x2="103.896" y2="206.096" gradientUnits="userSpaceOnUse">
<stop offset="0.1872" stop-color="#224550"/>
<stop offset="0.9409" stop-color="#709BBF"/>
</linearGradient>
<linearGradient id="paint2_linear_1284_4314" x1="116.307" y1="89.3339" x2="117.817" y2="207.133" gradientUnits="userSpaceOnUse">
<stop offset="0.1872" stop-color="#224550"/>
<stop offset="0.9409" stop-color="#709BBF"/>
</linearGradient>
<linearGradient id="paint3_linear_1284_4314" x1="102.308" y1="86.8526" x2="103.7" y2="195.355" gradientUnits="userSpaceOnUse">
<stop offset="0.1872" stop-color="#224550"/>
<stop offset="0.9409" stop-color="#709BBF"/>
</linearGradient>
<linearGradient id="paint4_linear_1284_4314" x1="141.988" y1="114.171" x2="143.498" y2="231.971" gradientUnits="userSpaceOnUse">
<stop offset="0.1872" stop-color="#224550"/>
<stop offset="0.9409" stop-color="#709BBF"/>
</linearGradient>
<linearGradient id="paint5_linear_1284_4314" x1="127.989" y1="111.694" x2="129.381" y2="220.192" gradientUnits="userSpaceOnUse">
<stop offset="0.1872" stop-color="#224550"/>
<stop offset="0.9409" stop-color="#709BBF"/>
</linearGradient>
<linearGradient id="paint6_linear_1284_4314" x1="141.791" y1="103.426" x2="143.302" y2="221.225" gradientUnits="userSpaceOnUse">
<stop offset="0.1872" stop-color="#224550"/>
<stop offset="0.9409" stop-color="#709BBF"/>
</linearGradient>
<linearGradient id="paint7_linear_1284_4314" x1="127.793" y1="100.942" x2="129.184" y2="209.449" gradientUnits="userSpaceOnUse">
<stop offset="0.1872" stop-color="#224550"/>
<stop offset="0.9409" stop-color="#709BBF"/>
</linearGradient>
<linearGradient id="paint8_linear_1284_4314" x1="166.556" y1="127.798" x2="168.067" y2="245.592" gradientUnits="userSpaceOnUse">
<stop offset="0.1872" stop-color="#224550"/>
<stop offset="0.9409" stop-color="#709BBF"/>
</linearGradient>
<linearGradient id="paint9_linear_1284_4314" x1="152.558" y1="125.316" x2="153.949" y2="233.814" gradientUnits="userSpaceOnUse">
<stop offset="0.1872" stop-color="#224550"/>
<stop offset="0.9409" stop-color="#709BBF"/>
</linearGradient>
<linearGradient id="paint10_linear_1284_4314" x1="166.36" y1="117.052" x2="167.87" y2="234.847" gradientUnits="userSpaceOnUse">
<stop offset="0.1872" stop-color="#224550"/>
<stop offset="0.9409" stop-color="#709BBF"/>
</linearGradient>
<linearGradient id="paint11_linear_1284_4314" x1="152.361" y1="114.568" x2="153.753" y2="223.071" gradientUnits="userSpaceOnUse">
<stop offset="0.1872" stop-color="#224550"/>
<stop offset="0.9409" stop-color="#709BBF"/>
</linearGradient>
</defs>
</svg>
