<?xml version="1.0" encoding="UTF-8"?>
<svg xmlns="http://www.w3.org/2000/svg" viewBox="0 0 512 512" width="512" height="512">
<path d="M226.48 0.08C231.01 0.08 235.54 0.08 240.06 0.08C243 1.83 247.3 1.82 250.54 3.24C256.49 5.86 261.29 10.07 265.75 14.8C271.29 15.22 276.77 14.52 282.15 16.18C296.55 20.61 307.5 31.44 314.8 44.43C317.13 48.58 321.42 61.82 323.75 64C329.17 62.43 334.59 60.86 340.01 59.3C341.92 59.37 343.84 59.43 345.75 59.5C345.68 210.31 345.6 361.11 345.53 511.92C344.51 511.92 343.49 511.92 342.47 511.92C238.38 493.69 134.29 475.47 30.2 457.25C29.5 452.72 32.28 441.86 32.84 436.73C34.79 418.68 37.89 400.77 39.84 382.73C42.89 354.5 46.76 326.28 50.8 298.19C54.49 272.56 56.84 246.74 60.79 221.15C63.56 203.22 65.02 185.08 67.79 167.15C68.8 160.62 68.31 149.8 72.19 144.41C75.86 139.31 84.15 138.68 89.6 136.79C99.57 133.34 109.82 130.56 119.83 127.16C124.55 125.55 130.61 125.11 134.75 122.25C142.51 81.32 161.44 41.32 194.45 14.19C200.19 9.47 207.62 5.78 214.5 3.25C217.34 2.21 224.64 1.42 226.48 0.08ZM246.83 20.25C233.92 11.43 215.36 19.27 204.43 27.72C183.76 43.69 170.54 67.23 160.84 90.66C158.23 96.97 152.56 110.14 152.83 116.75C156.77 116.92 161.5 114.2 165.29 113.09C171.69 111.21 178.01 109.19 184.36 107.19C187.99 106.04 192.7 105.62 195.75 103.19C199.12 81.7 210.23 55.25 225.06 38.79C229.16 34.24 233.46 29.83 238.38 26.16C240.87 24.31 245.14 22.64 246.83 20.25ZM306.75 69.23C306.92 65.86 304.53 61.71 303.09 58.67C298.19 48.36 292.17 38.7 281.35 33.84C279.58 33.04 277.85 32.13 275.88 32.25C275.51 34.89 279.29 43.8 279.91 47.22C280.71 51.61 281.76 56.29 282.04 60.75C282.38 65.87 282.21 71.37 283.25 76.39C291.08 74 298.92 71.62 306.75 69.23ZM266.01 81.84C266.03 77.9 266.05 73.95 266.07 70C265.17 60.53 264.11 51.17 261.13 42.21C260.27 39.6 259.9 36.45 258.14 34.25C253.58 34.11 245.68 41.47 242.44 44.69C232.05 54.96 225.44 67.48 219.79 80.59C218.09 84.52 213.67 93.87 214.25 97.87C231.5 92.53 248.75 87.19 266.01 81.84ZM269.1 164.75C265.65 162.19 259.97 161.52 255.77 160.86C246 159.32 236.6 159.03 226.74 159.82C179.57 163.58 140.59 190.43 132.24 238.95C128.1 263.05 133.97 288.16 152.46 304.78C166.7 317.58 202.38 334.08 192.66 358.4C183.65 380.94 152.79 368.03 137.94 359.78C134.67 357.96 127.97 352.43 124.75 352.13C121.21 366.84 117.67 381.54 114.13 396.25C116.05 399.51 120.29 402.24 123.4 404.35C131.33 409.72 139.56 414.05 148.59 417.21C182.4 429.06 225.75 424.83 246.68 392.44C251.15 385.52 254.54 377.98 256.76 370.05C265.8 337.73 256.97 305.16 230.45 284.3C220.25 276.28 209.08 269.68 198.45 262.3C188.98 255.73 181.92 247.49 185.13 235.29C190.54 214.74 222.58 215.47 238.6 219.22C243.61 220.38 248.47 222.76 253.44 223.75C258.66 204.08 263.88 184.42 269.1 164.75Z" fill="#95bf47" fill-rule="evenodd" stroke="#95bf47" stroke-width="0.25" stroke-linejoin="round"/>
<path d="M347.99 511.92C347.17 511.92 346.35 511.92 345.53 511.92C345.6 361.11 345.68 210.31 345.75 59.5C343.84 59.43 341.92 59.37 340.01 59.3C347.29 57.59 350.5 61.99 355.27 66.49C362.15 72.96 368.91 79.54 375.59 86.18C377.64 88.23 380.87 92.9 383.77 93.52C391.86 95.25 406.02 93.87 414.75 93.95C418.33 93.98 424.01 93.24 425.79 97.41C427 100.24 426.7 104.21 427.12 107.23C428.38 116.24 429.89 125.2 431.11 134.24C433.66 153.27 437.2 172.23 439.93 191.25C441.74 203.89 443.05 216.61 445.15 229.21C454.52 285.37 461.57 341.92 470.13 398.22C472.87 416.22 475.55 434.19 478.12 452.23C479.07 458.92 480.34 465.51 481.08 472.25C481.29 474.19 482.04 475.7 481.97 477.75C479.41 479.44 476.32 479.43 473.43 480.25C465.45 482.53 457.32 483.95 449.37 486.21C436.13 489.96 422.65 492.82 409.32 496.15C400.67 498.32 391.99 501.15 383.24 502.96C373.98 504.88 364.7 507.16 355.65 509.84C353.6 510.45 349.3 510.27 347.99 511.92ZM266.07 70C266.05 73.95 266.03 77.9 266.01 81.84C266.03 77.9 266.05 73.95 266.07 70Z" fill="#5e8e3e" fill-rule="evenodd" stroke="#5e8e3e" stroke-width="0.25" stroke-linejoin="round"/>
<path d="M269.1 164.75C263.88 184.42 258.66 204.08 253.44 223.75C248.47 222.76 243.61 220.38 238.6 219.22C222.58 215.47 190.54 214.74 185.13 235.29C181.92 247.49 188.98 255.73 198.45 262.3C209.08 269.68 220.25 276.28 230.45 284.3C256.97 305.16 265.8 337.73 256.76 370.05C254.54 377.98 251.15 385.52 246.68 392.44C225.75 424.83 182.4 429.06 148.59 417.21C139.56 414.05 131.33 409.72 123.4 404.35C120.29 402.24 116.05 399.51 114.13 396.25C117.67 381.54 121.21 366.84 124.75 352.13C127.97 352.43 134.67 357.96 137.94 359.78C152.79 368.03 183.65 380.94 192.66 358.4C202.38 334.08 166.7 317.58 152.46 304.78C133.97 288.16 128.1 263.05 132.24 238.95C140.59 190.43 179.57 163.58 226.74 159.82C236.6 159.03 246 159.32 255.77 160.86C259.97 161.52 265.65 162.19 269.1 164.75Z" fill="#ffffff" fill-rule="evenodd" stroke="#ffffff" stroke-width="0.25" stroke-linejoin="round"/>
</svg>