<svg version="1.1" id="Layer_1" xmlns:x="ns_extend;" xmlns:i="ns_ai;" xmlns:graph="ns_graphs;" xmlns="http://www.w3.org/2000/svg" xmlns:xlink="http://www.w3.org/1999/xlink" x="0px" y="0px" viewBox="0 0 662.5 72" style="enable-background:new 0 0 662.5 72;" xml:space="preserve">
 <metadata>
  <sfw xmlns="ns_sfw;">
   <slices>
   </slices>
   <sliceSourceBounds bottomLeftOrigin="true" height="72" width="662.5" x="-412.5" y="0.8">
   </sliceSourceBounds>
  </sfw>
 </metadata>
 <g>
  <g>
   <g>
    <path d="M0,1.4h12.7V55c0,3.1,0.7,6.3,4.4,6.3s4.7-3,4.7-6.3V1.4h10.7v52c0,13.6-6,18.7-16.1,18.7S0,66.9,0,53.3V1.4z">
    </path>
    <path d="M47.4,1.4h14.2c12.1,0,20,5.1,20,19.6c0,5.8-1.7,13.6-7.4,16.9l7.5,32.7H69L63,40.8h-3v29.8H47.4V1.4z M60,30.7h2.5
				c4.7,0,6.4-4.7,6.4-9.6c0-7.5-2.7-9.6-7-9.6h-2L60,30.7L60,30.7z">
    </path>
    <path d="M94.3,1.4h15.6c7.8,0,17.1,4.3,17.1,17.5c0,7.8-3.5,13.8-11.3,15.4v0.2c8.7,2.1,12.6,8.1,12.6,16.8
				c0,12.7-8.6,19.3-17.9,19.3H94.3L94.3,1.4L94.3,1.4z M107,29.8c6.3,0,8-2.9,8-9.1c0-7.9-1.6-9.2-8-9.1V29.8z M107,60.5
				c7.6,0,8.7-3,8.7-10.2c0-6.3-1.6-9.9-8.7-9.8V60.5z">
    </path>
    <path d="M147.4,1.4h18.3l8.6,69.3h-12.2l-1.9-15.4H150l-1.7,15.4h-10.6L147.4,1.4z M155.5,12.1h-0.2l-4,33.1h7.9L155.5,12.1
				L155.5,12.1z">
    </path>
    <path d="M185.7,1.4h12.3l11.6,36.6h0.2V1.4H220v69.3h-9.8l-13.5-41.9h-0.2v41.9h-10.7L185.7,1.4L185.7,1.4z">
    </path>
    <path d="M277.8,0c11.2,0,18.5,8.7,18.5,36s-7.3,36-18.5,36c-11.2,0-18.5-8.7-18.5-36S266.6,0,277.8,0z M273.1,43.3
				c0,15,1.7,18,4.7,18s4.7-3,4.7-18V28.7c0-15-1.7-18-4.7-18s-4.7,3-4.7,18V43.3z">
    </path>
    <path d="M309.4,1.4h12.7V55c0,3.1,0.7,6.3,4.4,6.3c3.5,0,4.7-3,4.7-6.3V1.4h10.7v52c0,13.6-6,18.7-16.1,18.7
				c-10.1,0-16.2-5.1-16.2-18.7L309.4,1.4L309.4,1.4z">
    </path>
    <path d="M362.6,12.1h-10.9V1.4h34.4v10.7h-10.9v58.6h-12.7L362.6,12.1L362.6,12.1z">
    </path>
    <path d="M396.6,1.4h28.3v10.7h-15.7v18.5h11.6v11.3h-11.6v28.8h-12.7V1.4z">
    </path>
    <path d="M435.8,1.4h12.7v69.3h-12.7V1.4z">
    </path>
    <path d="M469.3,12.1h-10.9V1.4h34.4v10.7h-10.9v58.6h-12.7L469.3,12.1L469.3,12.1z">
    </path>
    <path d="M509.1,12.1h-10.9V1.4h34.4v10.7h-10.9v58.6H509L509.1,12.1L509.1,12.1z">
    </path>
    <path d="M543,1.4h28.6v10.7h-16v17.7h11.8v11.3h-11.8v18.9h16.6v10.7H543V1.4L543,1.4z">
    </path>
    <path d="M584.6,1.4h14.2c12.1,0,20,5.1,20,19.6c0,5.8-1.7,13.6-7.4,16.9l7.5,32.7h-12.7l-5.9-29.8h-3v29.8h-12.7L584.6,1.4
				L584.6,1.4z M597.2,30.7h2.5c4.7,0,6.4-4.7,6.4-9.6c0-7.5-2.7-9.6-7-9.6h-2L597.2,30.7L597.2,30.7z">
    </path>
    <path d="M640.1,50.6c0,3.9,0,10.7,5.4,10.7c4.2,0,5.6-3.9,5.6-6.7c0-12.3-22.9-15.2-22.9-35.7c0-10.4,5.7-18.9,16.4-18.9
				c11.4,0,15.8,8.7,16,21.1h-11.3c0-3.9,0-10.4-5.1-10.4c-3,0-4.8,2.5-4.8,6.3c0,11.8,22.9,15.8,22.9,35.9c0,10.6-6,19.1-17.4,19.1
				c-13.5,0-16.2-11.9-16.2-21.4L640.1,50.6L640.1,50.6z">
    </path>
   </g>
  </g>
 </g>
</svg>