<?xml version="1.0" encoding="UTF-8"?>
<svg xmlns="http://www.w3.org/2000/svg" viewBox="0 0 1342 894" width="1342" height="894">
<path d="M299.5 516.75C302.18 511.3 302.88 504.61 304.33 498.72C306.64 489.35 309.06 480.02 311.3 470.64C319.15 437.81 327.75 405.14 335.67 372.32C342.86 342.56 348.73 310.53 368.58 286.11C374.42 278.93 382.78 274.11 391.25 270.72C420.5 259.03 460.4 263.8 478.99 291.53C494.75 315.04 500.36 342.27 507.4 369.21C514.77 397.37 522.45 425.46 529.71 453.65C532.64 465.03 535.76 476.36 538.62 487.76C541.03 497.37 543.03 507.38 546.5 516.66C549.65 510.53 550.6 502.48 552.39 495.8C556.84 479.17 561.29 462.51 565.41 445.79C576.22 401.83 588.83 358.31 599.74 314.37C603.39 299.67 607.14 285.32 616.64 273.17C631.85 253.72 667.09 242.3 690.83 247.5C655.72 380.58 620.61 513.66 585.5 646.73C560.15 649.26 531.98 646.27 513.05 627.45C496.67 611.17 491.43 585.09 485.78 563.59C474.89 522.2 464.22 480.65 454.52 438.96C449.1 415.69 443.01 392.58 437.26 369.39C435.49 362.25 433.19 348.85 423.5 348.82C414.22 348.79 411.65 361.56 409.89 368.47C404.38 390.09 399.1 411.78 393.8 433.45C389.71 450.2 385.47 466.93 381.27 483.65C374.99 508.68 368.62 533.69 362.35 558.71C353.62 593.54 346.41 630.5 307.79 643.36C300.71 645.71 292.93 646.64 285.5 647.01C277.71 647.4 268.85 648.14 261.22 646.5C225.91 513.5 190.6 380.5 155.29 247.5C163.21 245.67 172.55 246.56 180.56 247.67C207.46 251.43 229.23 266.27 239.77 291.7C246.46 307.82 249.5 327.47 254.17 344.44C264.79 383.06 274.71 421.93 284.64 460.73C289.4 479.31 293.24 498.63 299.5 516.75ZM1186 248.5C1184.62 255.07 1176.58 264.25 1172.58 270.1C1163.49 283.36 1154.57 296.75 1145.54 310.05C1127.06 337.25 1108.7 364.53 1090.34 391.81C1077.85 410.39 1064.81 428.66 1052.72 447.5C1055.2 453.42 1059.82 458.77 1063.4 464.12C1070.36 474.49 1077.29 484.89 1084.24 495.26C1106.71 528.77 1129.21 562.27 1151.7 595.77C1159.46 607.33 1167.45 618.75 1175.05 630.41C1178.2 635.24 1183.69 640.91 1184.72 646.5C1162.51 650.08 1126.97 646.43 1107.68 633.86C1086.09 619.79 1066.19 588.08 1051.67 566.8C1041.13 551.34 1030.89 535.65 1020.12 520.34C1016.56 515.28 1012.73 506.24 1005.5 505.99C997.99 505.72 993.4 516.07 989.83 521.31C978.48 537.97 967.08 554.6 955.78 571.29C941.06 593.04 926.33 617.59 904.34 632.86C884.63 646.55 847.18 650.01 824.14 646.5C825.54 640.12 831.85 633.53 835.52 628.02C843.91 615.42 852.35 602.86 860.84 590.32C882.24 558.68 903.27 526.79 924.56 495.07C935.1 479.36 947.04 463.97 956.32 447.5C946.84 430.77 935.1 415.02 924.56 398.93C903.46 366.71 882.26 334.54 861.31 302.22C853.18 289.69 844.77 277.34 836.71 264.77C833.52 259.8 828.26 254.24 827.18 248.5C850.62 243.9 885.17 245.92 905.31 260.16C912.83 265.47 918.66 272.96 924.57 279.91C938.03 295.77 949.78 312.9 961.43 330.1C971.51 344.99 981.62 359.87 991.76 374.73C995.27 379.86 999.26 388.89 1006.5 389.07C1013.51 389.24 1017.56 380.35 1020.97 375.44C1031.5 360.29 1041.76 344.93 1052.09 329.64C1066.98 307.61 1087.1 273.23 1109.62 259.09C1123.82 250.18 1140.99 247.21 1157.5 246.85C1166.96 246.65 1176.69 246.71 1186 248.5ZM787.5 312.83C790.01 320.1 788.42 332.45 788.42 340.5C788.42 359.83 788.42 379.17 788.42 398.5C788.42 448.17 788.42 497.83 788.42 547.5C788.42 567.31 790.97 602.51 782.61 620.15C771.64 643.31 740.35 648.48 717.49 645.5C715.97 637.87 716.9 629.32 716.9 621.5C716.9 606.83 716.9 592.17 716.9 577.5C716.9 530.83 716.9 484.17 716.9 437.5C716.9 420.5 716.9 403.5 716.9 386.5C716.9 377.65 715.68 367.68 720.08 359.6C725.84 349.01 739.08 343.81 749.38 338.87C763.7 331.99 776.96 325.08 787.5 312.83Z" fill="#000000" fill-rule="evenodd" stroke="#000000" stroke-width="0.25" stroke-linejoin="round"/>
<path d="M788.5 247.44C789.38 252.69 788.6 258.2 788.22 263.5C787.76 269.86 786.92 276.3 784.77 282.34C779.25 297.87 763.72 308.3 749.25 314.72C744.8 316.69 740.09 318.02 735.79 320.33C729.42 323.75 723.79 328.87 717.5 332.06C716.78 325.98 717.41 319.63 717.74 313.5C718.75 294.79 721.43 273.03 736.54 260.03C744.83 252.9 755.84 249.45 766.5 248.13C773.73 247.23 781.26 246.61 788.5 247.44Z" fill="#fbbe73" fill-rule="evenodd" stroke="#fbbe73" stroke-width="0.25" stroke-linejoin="round"/>
</svg>