<?xml version="1.0" encoding="UTF-8"?>
<svg xmlns="http://www.w3.org/2000/svg" viewBox="0 0 1417 847" width="1417" height="847">
<path d="M120.99 0.17C512.61 0.17 904.23 0.17 1295.84 0.17C1299.89 1.65 1305.06 1.35 1309.46 2.17C1319.25 3.98 1329.25 7.04 1338.31 11.19C1371.2 26.25 1395.91 52.85 1408.99 86.51C1411.6 93.23 1413.48 100.48 1414.86 107.54C1415.71 111.91 1415.38 116.96 1416.83 121.03C1416.83 275.3 1416.83 429.57 1416.83 583.84C1415.91 586.4 1416 589.45 1415.6 592.28C1414.8 597.98 1413.57 603.91 1411.86 609.42C1405.58 629.63 1395.3 647.83 1380.88 663.36C1363.13 682.47 1338.1 696.82 1312.45 701.81C1296.55 704.9 1280.64 704.77 1264.5 704.77C1249.17 704.77 1233.83 704.77 1218.5 704.77C1139.17 704.77 1059.83 704.77 980.5 704.77C956.17 704.77 931.83 704.77 907.5 704.77C897.87 704.77 880.38 703.19 871.81 705.5C890.37 751.27 908.94 797.04 927.5 842.81C920.77 840.71 914.28 835.88 908.07 832.44C894.78 825.08 881.45 817.79 868.26 810.25C825.51 785.82 782.24 762.19 739.13 738.4C725.6 730.93 712.16 723.34 698.64 715.87C693.73 713.16 683.42 705.88 678.48 704.92C674.1 704.07 668.96 704.77 664.5 704.77C654.5 704.77 644.5 704.77 634.5 704.77C603.83 704.77 573.17 704.77 542.5 704.77C446.17 704.77 349.83 704.77 253.5 704.77C224.5 704.77 195.5 704.77 166.5 704.77C145.8 704.77 124.96 705.78 104.56 701.78C70.81 695.18 40.46 673.33 21.58 644.91C13.91 633.37 7.45 619.78 4.37 606.24C3.63 603 2.68 599.76 2.1 596.48C1.33 592.11 1.63 587.02 0.17 582.97C0.17 428.95 0.17 274.93 0.17 120.91C1.61 116.85 1.3 111.85 2.07 107.5C3.36 100.2 5.39 92.55 8.15 85.65C21.53 52.27 45.87 26.18 78.62 11.12C87.45 7.06 97.12 4.17 106.64 2.29C111.27 1.37 116.67 1.73 120.99 0.17ZM376.5 370.71C380.51 377.79 382.8 390.17 385.29 398.28C390.26 414.46 396.01 430.58 402.16 446.35C422.26 497.89 447.56 548.7 482.97 591.56C501.78 614.32 531.96 650.88 565.28 631.78C591.39 616.82 586.73 583.49 586.12 558.5C585.71 541.46 586.42 524.51 587 507.5C588.95 450.1 597.97 393.08 606.81 336.47C614.1 289.69 623.88 239.13 640.19 194.62C643.38 185.9 646.42 177.16 650.14 168.64C654.11 159.58 659.99 150.9 662.84 141.42C667.74 125.14 664.03 106.68 652.02 94.48C648.01 90.39 643.33 86.91 638.31 84.16C633.06 81.28 627.49 79.71 621.63 78.69C615.16 77.55 608.73 78.2 602.36 79.71C583.4 84.21 574.95 99.07 566.71 115.22C561.91 124.63 557.41 134.41 553.77 144.32C532.61 201.9 518.9 261.01 509.19 321.53C506.11 340.78 503.54 360.17 501.08 379.5C499.47 392.12 499.21 407.56 496.5 419.67C494.09 415.25 492.7 410.26 490.91 405.56C486.9 395.04 483.15 384.42 479.75 373.69C467.29 334.46 457.59 295.45 448.23 255.41C442.89 232.55 441.96 198.22 421.78 182.7C416.98 179.02 411.49 176.6 405.51 175.74C373.33 171.12 359.29 195.29 346.17 219.68C318.32 271.41 291.97 323.95 264.22 375.73C251.12 400.17 239.26 425.38 225.5 449.45C221.54 439.86 220.23 428.65 217.84 418.55C212.73 396.99 208.13 375.35 203.71 353.64C190.74 289.91 179.38 225.86 169.87 161.51C166.31 137.48 163.59 108.63 134.38 103.27C127.83 102.07 121.09 102.34 114.5 102.86C107.47 103.42 100.47 105.36 94.23 108.69C77.24 117.74 69.75 137.04 71.12 155.5C71.57 161.56 72.98 167.52 73.93 173.5C77.07 193.13 80.35 212.73 83.34 232.38C92.45 292.17 105.31 351.32 116.66 410.7C121.26 434.74 126.49 458.94 132.82 482.59C137.61 500.53 141.26 518.85 146.97 536.53C154.22 558.99 159.72 582.21 169.88 603.63C175.35 615.16 182.69 628.04 194.69 633.83C204.43 638.53 215.64 635.16 224.27 629.74C240.67 619.47 252.99 603.04 263.68 587.22C282.47 559.41 297.03 529.35 311.73 499.26C323.39 475.38 335.71 451.8 347.47 427.97C356.92 408.81 366.29 389.48 376.5 370.71ZM819.72 141.4C803.71 143.41 788.3 147.09 773.7 154.2C714.06 183.29 677.5 254.53 662.74 316.36C658.6 333.73 655.81 351.63 655.05 369.5C654.14 390.7 654.8 411.55 657.72 432.54C665.12 485.57 693.8 537.63 743.78 560.69C761.97 569.07 782.61 573.02 802.5 573.84C812.61 574.25 823.71 573.42 833.53 571.09C848.5 567.53 862.41 563.06 875.87 555.4C934.05 522.29 968.73 444.37 980.87 381.47C983.97 365.36 984.72 348.97 985.46 332.63C986.53 308.57 984.71 282.7 978.04 259.49C965.93 217.28 943.18 178.33 903.27 157.22C890.74 150.6 877.4 146.89 863.69 143.71C849.7 140.46 834.01 139.61 819.72 141.4ZM1180.63 141.36C1166.84 143.05 1153.64 145.95 1140.73 151.26C1113.82 162.32 1091.69 182.9 1074.37 205.85C1045.72 243.79 1027.53 288.96 1019.28 335.61C1016.95 348.74 1015.94 362.19 1015.34 375.5C1014.44 395.35 1015.65 415.1 1018.62 434.71C1026.49 486.72 1055.09 538.71 1104.69 560.83C1122.82 568.92 1142.76 572.81 1162.5 573.81C1172.61 574.32 1183.72 573.44 1193.56 571.2C1206.98 568.16 1220.13 564.5 1232.25 557.74C1284.78 528.43 1314.14 472.33 1332.79 417.33C1336.92 405.14 1339.57 392.1 1341.78 379.45C1344.71 362.64 1345.91 345.55 1346.06 328.5C1346.27 305.03 1345 281.48 1338.65 258.77C1327.57 219.13 1305.3 180.69 1268.71 159.75C1254.83 151.81 1240.05 147.36 1224.59 143.77C1210.58 140.51 1194.93 139.61 1180.63 141.36ZM833.57 237.38C865.91 234.98 879.23 271.67 885.3 297.32C896.25 343.54 882.58 409.95 850.56 446.08C836.68 461.74 816.79 477.8 794.5 474.18C768.78 470.01 757.43 431.91 752.88 410.53C742.77 362.91 757.76 313.37 784.46 273.94C795.91 257.02 811.81 238.99 833.57 237.38ZM1194.6 237.4C1226.39 234.96 1241.08 271.37 1246.44 297.14C1256.57 345.91 1244.75 408.54 1211.16 446.67C1197.72 461.94 1178.07 477.41 1156.5 474.31C1130.19 470.53 1118 431.49 1113.81 409.54C1104.91 362.86 1118.15 313.94 1144.74 275.25C1156.6 257.99 1172.12 239.12 1194.6 237.4Z" fill="#7f54b3" fill-rule="evenodd" stroke="#7f54b3" stroke-width="0.25" stroke-linejoin="round"/>
<path d="M376.5 370.71C366.29 389.48 356.92 408.81 347.47 427.97C335.71 451.8 323.39 475.38 311.73 499.26C297.03 529.35 282.47 559.41 263.68 587.22C252.99 603.04 240.67 619.47 224.27 629.74C215.64 635.16 204.43 638.53 194.69 633.83C182.69 628.04 175.35 615.16 169.88 603.63C159.72 582.21 154.22 558.99 146.97 536.53C141.26 518.85 137.61 500.53 132.82 482.59C126.49 458.94 121.26 434.74 116.66 410.7C105.31 351.32 92.45 292.17 83.34 232.38C80.35 212.73 77.07 193.13 73.93 173.5C72.98 167.52 71.57 161.56 71.12 155.5C69.75 137.04 77.24 117.74 94.23 108.69C100.47 105.36 107.47 103.42 114.5 102.86C121.09 102.34 127.83 102.07 134.38 103.27C163.59 108.63 166.31 137.48 169.87 161.51C179.38 225.86 190.74 289.91 203.71 353.64C208.13 375.35 212.73 396.99 217.84 418.55C220.23 428.65 221.54 439.86 225.5 449.45C239.26 425.38 251.12 400.17 264.22 375.73C291.97 323.95 318.32 271.41 346.17 219.68C359.29 195.29 373.33 171.12 405.51 175.74C411.49 176.6 416.98 179.02 421.78 182.7C441.96 198.22 442.89 232.55 448.23 255.41C457.59 295.45 467.29 334.46 479.75 373.69C483.15 384.42 486.9 395.04 490.91 405.56C492.7 410.26 494.09 415.25 496.5 419.67C499.21 407.56 499.47 392.12 501.08 379.5C503.54 360.17 506.11 340.78 509.19 321.53C518.9 261.01 532.61 201.9 553.77 144.32C557.41 134.41 561.91 124.63 566.71 115.22C574.95 99.07 583.4 84.21 602.36 79.71C608.73 78.2 615.16 77.55 621.63 78.69C627.49 79.71 633.06 81.28 638.31 84.16C643.33 86.91 648.01 90.39 652.02 94.48C664.03 106.68 667.74 125.14 662.84 141.42C659.99 150.9 654.11 159.58 650.14 168.64C646.42 177.16 643.38 185.9 640.19 194.62C623.88 239.13 614.1 289.69 606.81 336.47C597.97 393.08 588.95 450.1 587 507.5C586.42 524.51 585.71 541.46 586.12 558.5C586.73 583.49 591.39 616.82 565.28 631.78C531.96 650.88 501.78 614.32 482.97 591.56C447.56 548.7 422.26 497.89 402.16 446.35C396.01 430.58 390.26 414.46 385.29 398.28C382.8 390.17 380.51 377.79 376.5 370.71ZM819.72 141.4C834.01 139.61 849.7 140.46 863.69 143.71C877.4 146.89 890.74 150.6 903.27 157.22C943.18 178.33 965.93 217.28 978.04 259.49C984.71 282.7 986.53 308.57 985.46 332.63C984.72 348.97 983.97 365.36 980.87 381.47C968.73 444.37 934.05 522.29 875.87 555.4C862.41 563.06 848.5 567.53 833.53 571.09C823.71 573.42 812.61 574.25 802.5 573.84C782.61 573.02 761.97 569.07 743.78 560.69C693.8 537.63 665.12 485.57 657.72 432.54C654.8 411.55 654.14 390.7 655.05 369.5C655.81 351.63 658.6 333.73 662.74 316.36C677.5 254.53 714.06 183.29 773.7 154.2C788.3 147.09 803.71 143.41 819.72 141.4ZM1180.63 141.36C1194.93 139.61 1210.58 140.51 1224.59 143.77C1240.05 147.36 1254.83 151.81 1268.71 159.75C1305.3 180.69 1327.57 219.13 1338.65 258.77C1345 281.48 1346.27 305.03 1346.06 328.5C1345.91 345.55 1344.71 362.64 1341.78 379.45C1339.57 392.1 1336.92 405.14 1332.79 417.33C1314.14 472.33 1284.78 528.43 1232.25 557.74C1220.13 564.5 1206.98 568.16 1193.56 571.2C1183.72 573.44 1172.61 574.32 1162.5 573.81C1142.76 572.81 1122.82 568.92 1104.69 560.83C1055.09 538.71 1026.49 486.72 1018.62 434.71C1015.65 415.1 1014.44 395.35 1015.34 375.5C1015.94 362.19 1016.95 348.74 1019.28 335.61C1027.53 288.96 1045.72 243.79 1074.37 205.85C1091.69 182.9 1113.82 162.32 1140.73 151.26C1153.64 145.95 1166.84 143.05 1180.63 141.36ZM833.57 237.38C811.81 238.99 795.91 257.02 784.46 273.94C757.76 313.37 742.77 362.91 752.88 410.53C757.43 431.91 768.78 470.01 794.5 474.18C816.79 477.8 836.68 461.74 850.56 446.08C882.58 409.95 896.25 343.54 885.3 297.32C879.23 271.67 865.91 234.98 833.57 237.38ZM1194.6 237.4C1172.12 239.12 1156.6 257.99 1144.74 275.25C1118.15 313.94 1104.91 362.86 1113.81 409.54C1118 431.49 1130.19 470.53 1156.5 474.31C1178.07 477.41 1197.72 461.94 1211.16 446.67C1244.75 408.54 1256.57 345.91 1246.44 297.14C1241.08 271.37 1226.39 234.96 1194.6 237.4Z" fill="#ffffff" fill-rule="evenodd" stroke="#ffffff" stroke-width="0.25" stroke-linejoin="round"/>
</svg>